/* XPM */
static const char *corner[] = {
/* columns rows colors chars-per-pixel */
"42 42 121 2 ",
"   c #412E01",
".  c #422F03",
"X  c #443100",
"o  c #473203",
"O  c #473504",
"+  c #473406",
"@  c #473506",
"#  c #493303",
"$  c #4A3303",
"%  c #483402",
"&  c #4A3403",
"*  c #4B3403",
"=  c #483304",
"-  c #483206",
";  c #483405",
":  c #483505",
">  c #4A3404",
",  c #4A3505",
"<  c #4B3704",
"1  c #4B3607",
"2  c #4C330A",
"3  c #4E3A08",
"4  c #4D3A0E",
"5  c #533B06",
"6  c #543B05",
"7  c #543B06",
"8  c #724B11",
"9  c #774E14",
"0  c #7E5315",
"q  c #7D5216",
"w  c #7F5316",
"e  c #865718",
"r  c #89591A",
"t  c #8F5D1B",
"y  c #BC7828",
"u  c #C27B2C",
"i  c #C57E2C",
"p  c #FEBB1E",
"a  c #FEBA1F",
"s  c #FFBC1C",
"d  c #FFBE1F",
"f  c #CA802D",
"g  c #CB812D",
"h  c #CF832E",
"j  c #D28431",
"k  c #D28531",
"l  c #D28432",
"z  c #D98933",
"x  c #DB8B32",
"c  c #DC8B32",
"v  c #DC8C31",
"b  c #DD8D31",
"n  c #DD8C32",
"m  c #DD8D32",
"M  c #DE8C35",
"N  c #EA923A",
"B  c #EA933A",
"V  c #F59A3C",
"C  c #FA9D3D",
"Z  c #FB9D3E",
"A  c #FE9F3E",
"S  c #FFBD21",
"D  c #FFBF22",
"F  c #FFBB25",
"G  c #FFBC24",
"H  c #FFBC26",
"J  c #FFBC27",
"K  c #FFB62A",
"L  c #FFB32D",
"P  c #FFB42C",
"I  c #FFB828",
"U  c #FEAA33",
"Y  c #FFAC33",
"T  c #FFAD33",
"R  c #FFAB35",
"E  c #FFAA36",
"W  c #FFAB36",
"Q  c #FFAD35",
"!  c #FFAF34",
"~  c #FFAE35",
"^  c #FFAF36",
"/  c #FFA739",
"(  c #FFDF01",
")  c #FFDD03",
"_  c #FFDE02",
"`  c #FFDB05",
"'  c #FFD907",
"]  c #FFDA06",
"[  c #FFDC04",
"{  c #FED50A",
"}  c #FFD50B",
"|  c #FFD60A",
" . c #FFD70A",
".. c #FFD30D",
"X. c #FFD10F",
"o. c #FFD70D",
"O. c #FFD808",
"+. c #FFC017",
"@. c #FFCF11",
"#. c #FFCD13",
"$. c #FFCA16",
"%. c #FFC018",
"&. c #FFC51B",
"*. c #FFC61A",
"=. c #FFC31D",
"-. c #FFC11F",
";. c #FFC21E",
":. c #FFC21F",
">. c #FFD010",
",. c #FFE000",
"<. c #FFE100",
"1. c #FFE200",
"2. c #FFC020",
"3. c #FFC221",
"4. c #FFC521",
"5. c #FF9F41",
"6. c #FFA040",
"7. c #FFA141",
"8. c #FFA241",
"9. c #FFA142",
"0. c None",
/* pixels */
"0.0.+ - 2 2 2 2 2 2 2 2 2 2 2 2 2 2 2 2 2 2 2 2 2 2 2 2 2 2 2 2 2 2 2 2 2 2 - & 0.0.",
"0.. t M B B B B B B B B B B B B B B B B B B B B B B B B B B B B B B B B B B x e : 0.",
": r A T J D D D D D D D D D D D D D D D D D D D D D D D D D D D D D D D D J R C w o ",
": h ^  .<.<.<.<.<.<.<.<.<.<.<.<.<.<.<.<.<.<.<.<.<.<.<.<.<.<.<.<.<.<.<.<.<.<. .^ u : ",
"# n 2.<.<.<.<.<.<.<.<.<.<.<.<.<.<.<.<.<.<.<.<.<.<.<.<.<.<.<.<.<.<.<.<.<.<.<.<.s k 6 ",
"# n 4.<.<.<.<.<.' ' ' ' ' ' ' ' ' ' ' ' ' ' ' ' ' ' ' ' ' ' ' ' ' ' <.<.<.<.<.+.k 6 ",
"# n 4.<.<.<.) ;.R R R R R R R R R R R R R R R R R R R R R R R R R R J ' <.<.<.%.k 6 ",
"# n 4.<.<.<.2./ ;.@.>.>.>.>.>.>.>.>.>.>.>.>.>.>.>.>.>.>.>.>.>.>.>.&.R K ) <.<.%.k 6 ",
"# n 4.<.<.' R ;.<.<.<.<.<.<.<.<.<.<.<.<.<.<.<.<.<.<.<.<.<.<.<.<.<.<.@./ X.<.<.%.k 6 ",
"# n 4.<.<.' R >.<.<.<.<.<.<.<.<.<.<.<.<.<.<.) <.<.<.<.<.<.<.<.<.<.<.O.R X.<.<.%.k 6 ",
"# n 4.<.<.' R >.<.<.<.<.<.<.<.<.<.<.<.<.<.<.<.<.<.<.<.<.<.<.<.<.<.<.O.R X.<.<.%.k 6 ",
"# n 4.<.<.' R >.<.<.<.<.<.) <.<.<.<.<.<.<.<.<.<.<.<.<.<.<.<.<.<.<.<.O.R X.<.<.%.k 6 ",
"# n 4.<.<.' R >.<.<.<.<.<.<.<.<.<.<.<.<.<.<.<.<.<.<.<.<.<.<.<.<.<.<.O.R X.<.<.%.k 6 ",
"# n 4.<.<.' R >.<.<.<.<.<.<.<.<.<.<.<.<.<.<.<.<.<.<.<.) <.<.<.<.<.<.O.R X.<.<.%.k 6 ",
"# n 4.<.<.' R >.<.<.<.<.<.<.<.<.<.<.<.<.<.<.<.<.<.<.<.<.<.<.<.<.<.<.O.R X.<.<.%.k 6 ",
"# n 4.<.<.' R >.<.<.<.<.<.<.<.<.<.<.<.<.) <.<.<.<.<.<.<.<.<.<.<.<.<.O.R X.<.<.%.k 6 ",
"# n 4.<.<.' R >.<.<.<.<.<.<.<.<.<.<.<.<.<.<.<.<.<.<.<.<.<.<.<.<.<.<.O.R X.<.<.%.k 6 ",
"# n 4.<.<.' R >.<.<.<.<.<.<.<.<.<.<.) <.<.<.<.<.<.<.<.<.<.<.<.<.<.<.O.R X.<.<.%.k 6 ",
"# n 4.<.<.' R >.<.<.<.<.<.<.<.<.<.<.<.<.<.<.<.<.<.<.<.<.<.<.<.<.<.<.O.R X.<.<.%.k 6 ",
"# n 4.<.<.' R >.<.<.<.<.<.<.<.<.<.<.<.<.<.<.<.<.<.<.<.) <.<.) <.<.<.O.R X.<.<.%.k 6 ",
"# n 4.<.<.' R >.<.<.<.<.<.<.<.<.<.<.<.<.<.<.<.<.<.<.<.<.<.<.<.<.<.<.O.R X.<.<.%.k 6 ",
"# n 4.<.<.' R @.<.<.<.<.<.<.<.<.<.<.<.<.<.<.<.<.<.<.<.<.<.<.<.<.<.<.O.R X.<.<.%.k 6 ",
"# n 4.<.<.[ T F ) <.<.<.<.<.<.<.<.<.<.<.<.<.<.<.<.<.<.<.<.<.<.<.<.<.&./  .<.<.%.k 6 ",
"# n 4.<.<.<.$./ L 2.;.2.2.2.2.2.2.2.2.2.2.2.2.2.2.2.2.2.2.2.2.2.2.K / ;.) <.<.%.k 6 ",
"# n 4.<.<.<.<.@.I P P P P P P P P P P P P P P P P P P P P P P P P K $.) <.<.<.%.k 6 ",
"# n 4.<.<.<.<.<.<.) ) ) ) ) ) ) ) ) ) ) ) ) ) ) ) ) ) ) ) ) ) ) ) <.<.<.<.<.<.+.k 6 ",
"# n ;.<.<.<.<.<.<.<.<.<.<.<.<.<.<.<.<.<.<.<.<.<.<.<.<.<.<.<.<.<.<.<.<.<.<.<.<.D k 6 ",
"# n ^ o.<.<.<.<.<.<.<.<.<.<.<.<.<.<.<.<.<.<.<.<.<.<.<.<.<.<.<.<.<.<.<.<.<.<. .^ k 6 ",
"# n 6.T p s s s s s s s s s s s s s s s s s s s s s s s s s s s s s s s s p U 6.k 6 ",
"# n 6.5.5.5.5.5.5.5.5.5.5.5.5.5.5.5.5.5.5.5.5.5.5.5.5.5.5.5.5.5.5.5.5.5.5.5.5.6.k 6 ",
"# n 6.6.6.6.6.6.6.6.6.6.6.6.6.6.6.6.6.6.6.6.6.6.6.6.6.6.6.6.6.6.6.6.6.6.6.6.6.6.k 6 ",
"# n 6.6.6.6.6.6.6.6.6.6.6.6.6.6.6.6.6.6.6.6.6.6.6.6.6.6.6.6.6.6.6.6.6.6.6.6.6.6.k 6 ",
"# n 6.6.6.6.6.6.6.6.6.6.6.6.6.6.6.6.6.6.6.6.6.6.6.6.6.6.6.6.6.6.6.6.6.6.6.6.6.6.k 6 ",
"# n 6.6.6.6.6.6.6.6.6.6.6.6.6.6.6.6.6.6.6.6.6.6.6.6.6.6.6.6.6.6.6.6.6.6.6.6.6.6.k 6 ",
"# n 6.6.6.6.6.6.6.6.6.6.6.6.6.6.6.6.6.6.6.6.6.6.6.6.6.6.6.6.6.6.6.6.6.6.6.6.6.6.k 6 ",
"# n 6.6.6.6.6.6.6.6.6.6.6.6.6.6.6.6.6.6.6.6.6.6.6.6.6.6.6.6.6.6.6.6.6.6.6.6.6.6.k 6 ",
"# n 6.6.6.6.6.6.6.6.6.6.6.6.6.6.6.6.6.6.6.6.6.6.6.6.6.6.6.6.6.6.6.6.6.6.6.6.6.6.k 6 ",
"# n 6.6.6.6.6.6.6.6.6.6.6.6.6.6.6.6.6.6.6.6.6.6.6.6.6.6.6.6.6.6.6.6.6.6.6.6.6.6.k 5 ",
"o g 6.6.6.6.6.6.6.6.6.6.6.6.6.6.6.6.6.6.6.6.6.6.6.6.6.6.6.6.6.6.6.6.6.6.6.6.6.6.y : ",
"+ w C 6.6.6.6.6.6.6.6.6.6.6.6.6.6.6.6.6.6.6.6.6.6.6.6.6.6.6.6.6.6.6.6.6.6.6.6.V 8 3 ",
"0.4 w g c n n n n n n n n n n n n n n n n n n n n n n n n n n n n n n n n x i 9 . 0.",
"0.0.+ - & & & & & & & & & & & & & & & & & & & & & & & & & & & & & & & & & & : : 0.0."
};
