/* XPM */
static char *_5e704b9680f40f8c5da65de1ebb2bf3OhUMGZI3pYIKRGot[] = {
/* columns rows colors chars-per-pixel */
"42 42 168 2 ",
"   c #0B0200",
".  c #053700",
"X  c #4C2B00",
"o  c #5A2500",
"O  c #532900",
"+  c #5D2D00",
"@  c #573100",
"#  c #5B3100",
"$  c #5E3B03",
"%  c #5B3D09",
"&  c #622E00",
"*  c #692E01",
"=  c #653300",
"-  c #6B3300",
";  c #6B3A00",
":  c #6B4403",
">  c #7D4E0A",
",  c #7D500F",
"<  c #694411",
"1  c #6D4218",
"2  c #76491F",
"3  c #715F31",
"4  c #766132",
"5  c #875607",
"6  c #82510C",
"7  c #885611",
"8  c #946410",
"9  c #926019",
"0  c #AB752E",
"q  c #B67B2D",
"w  c #BB8926",
"e  c #BB8A34",
"r  c #BC843A",
"t  c #C1911F",
"y  c #EEBA06",
"u  c #EFBA0E",
"i  c #F5BD07",
"p  c #FEB60A",
"a  c #F5BD0A",
"s  c #FAB909",
"d  c #EFBA13",
"f  c #F3B412",
"g  c #F2BA13",
"h  c #F3BC1B",
"j  c #FFBB1F",
"k  c #C28F25",
"l  c #C38D2B",
"z  c #C6952B",
"x  c #C5992C",
"c  c #CB982D",
"v  c #C38C32",
"b  c #C5863D",
"n  c #CB8C3F",
"m  c #C49634",
"M  c #C99433",
"N  c #C79830",
"B  c #CB9833",
"V  c #C4963E",
"C  c #CB9638",
"Z  c #C49B3C",
"A  c #D39D35",
"S  c #D0923F",
"D  c #D49E3C",
"F  c #FF9E37",
"G  c #F69B3B",
"H  c #FE9E3C",
"J  c #D7A33D",
"K  c #FBA42D",
"L  c #FBA929",
"P  c #E7BE26",
"I  c #FFB923",
"U  c #F5B72E",
"Y  c #FFB52B",
"T  c #F7BF2A",
"R  c #FEBB2B",
"E  c #EFA63D",
"W  c #E6AE3D",
"Q  c #F3A533",
"!  c #FBA434",
"~  c #F7A831",
"^  c #F5A13E",
"/  c #FEA13C",
"(  c #F6AA3C",
")  c #EFBB33",
"_  c #ECBB3A",
"`  c #FBB030",
"'  c #F4BA32",
"]  c #FFBE30",
"[  c #EDC505",
"{  c #ECC50A",
"}  c #EEC80D",
"|  c #F2C204",
" . c #F4C008",
".. c #F9C40D",
"X. c #F4CB0B",
"o. c #F9C80A",
"O. c #FDD406",
"+. c #F2D900",
"@. c #FFDE03",
"#. c #FDD40C",
"$. c #FFDC0C",
"%. c #EEC015",
"&. c #F2C315",
"*. c #FBC413",
"=. c #F5C815",
"-. c #FECB13",
";. c #F4C41D",
":. c #FFC61B",
">. c #F7C818",
",. c #FECB1E",
"<. c #FED613",
"1. c #FFDA13",
"2. c #FFD51A",
"3. c #FFDB1A",
"4. c #FFE101",
"5. c #FDE10B",
"6. c #FFE010",
"7. c #FFE115",
"8. c #EEC52F",
"9. c #F4C223",
"0. c #F6C222",
"q. c #F8C222",
"w. c #FAC424",
"e. c #F9C921",
"r. c #FFCA21",
"t. c #FDCB22",
"y. c #FFC926",
"u. c #FCCC24",
"i. c #F7C028",
"p. c #F4C628",
"a. c #F3C32D",
"s. c #FDC62C",
"d. c #F3CA29",
"f. c #FBCE2A",
"g. c #FFCD2A",
"h. c #FFD221",
"j. c #FFD123",
"k. c #FFDB22",
"l. c #EAC030",
"z. c #E9C034",
"x. c #FCD134",
"c. c #C68744",
"v. c #CA8642",
"b. c #C78B44",
"n. c #CD8E44",
"m. c #C78549",
"M. c #CE9045",
"N. c #CC9249",
"B. c #D29344",
"V. c #D59D40",
"C. c #DC9C42",
"Z. c #D29549",
"A. c #FF9F40",
"S. c #CDA249",
"D. c #D2A145",
"F. c #D1A14C",
"G. c #DCA048",
"H. c #E3A04F",
"J. c #EEA149",
"K. c #F6A246",
"L. c #FDA141",
"P. c #F5A34A",
"I. c #FAA34A",
"U. c #EBA556",
"Y. c #E0A45B",
"T. c #F3A552",
"R. c #F6A951",
"E. c #FAAA53",
/* pixels */
"X < + # @ + * * & & & & & & & & & & & & & & & & & & & & & & & & & * * * & & = o 2 . ",
"< O 8 m S.S.G.C.D D D V.V.D A A D D D D D D D D D D D D D D D D D J A B D.F.e 9 + 1 ",
"= 5 W ) l.a.T I 0.0.i.T T i.i.q.q.0.q.0.q.0.q.0.q.0.q.0.q.0.q.0.;.;.0.p.8.z._ J > O ",
"+ e ) u.k.3.<.3.1.1.3.2.2.2.1.1.1.1.1.1.1.1.1.1.1.1.1.1.1.1.1.1.1.1.1.3.3.j.f._ e # ",
"@ Z P 3.5.4.@.@.@.$.$.$.$.O.$.$.$.$.$.$.$.$.$.$.$.$.$.$.$.$.$.$.@.O.#.O.$.5.1.0.w ; ",
"O Z x.1.+.4.$.O.@.O.1.1.1.$.O.O.1.<.<.<.<.<.<.<.<.<.<.<.<.<.<.<.#.1.3.1.@.@.O.,.z = ",
"= M s.<.$.$.-.,.a u d d g g a a u u u u u u u u u u u u u u u u u u g j.7.$.#.;.w - ",
"& M w.3.@.1.:.f ,.,.y.y.r.,.,.,.,.,.,.,.,.,.,.,.,.,.,.,.,.,.,.,.,.,.h h #.$.1.;.l - ",
"+ N e.$.4.O.a :.3.1.1.$.$.$.$.$.$.$.$.$.$.$.$.$.$.$.$.$.$.$.$.$.1.2.g.d #.$.1.0.v - ",
"+ x ,.$.4.O.u ,.$.$.4.4.4.4.4.4.4.4.4.4.4.4.4.4.4.4.4.4.4.4.4.@.@.1.r.d #.$.1.0.v - ",
"+ c e.$.$.#.d ,.$.4.4.4.4.4.4.4.4.4.4.4.4.4.4.4.4.4.4.4.4.4.4.4.@.$.2.u #.$.1.;.l = ",
"+ B w.1.$.<.g r.$.4.@.$.@.@.$.4.4.4.4.4.4.4.4.4.4.4.4.4.4.4.4.4.4.$.2.u #.$.$.;.l = ",
"& C s.2.1.<.h r.$.4.@.$.$.@.4.4.$.@.@.@.@.@.@.@.@.@.@.@.@.@.@.@.@.$.j.u #.$.$.;.k - ",
"& C s.2.1.<.g r.$.4.$.$.$.@.4.4.4.4.@.4.@.4.@.4.@.4.@.4.@.4.@.@.@.$.j.d #.$.1.;.k - ",
"+ c w.<.$.#.g ,.@.4.$.$.@.4.4.4.4.4.4.4.4.4.4.4.4.4.4.4.4.4.4.4.@.$.j.d #.$.1.i.l - ",
"+ c e.1.5.O.a ,.@.4.4.$.4.4.4.4.4.4.4.4.4.4.4.4.4.4.4.4.4.4.4.4.4.$.j.g #.$.1.i.l - ",
"& m d.3.$.#.s -.@.4.4.5.4.4.4.4.4.4.4.4.4.4.4.4.4.4.4.4.4.4.4.4.4.$.j.d #.$.1.;.l - ",
"& B d.1.6.#.s -.$.4.4.4.4.4.4.4.4.4.4.4.4.4.4.4.4.4.4.4.4.4.4.4.4.$.r.f #.$.1.;.l - ",
"* c e.$.$.#.p *.@.@.@.@.@.@.@.@.@.@.@.@.@.@.@.@.@.@.@.@.@.@.@.@.4.$.r.g #.O.1.0.l - ",
"* c e.1.6.<.p :.$.4.4.4.@.@.@.@.4.4.4.4.4.4.4.4.4.4.4.4.4.4.4.4.@.$.2.a #.O.1.0.v - ",
"& B p.3.1.<.f r.1.$.4.4.@.@.@.@.@.4.4.4.4.4.4.4.4.4.4.4.4.4.4.4.@.$.2.i O.$.1.0.l - ",
"& z d.3.1.<.g r.3.1.5.5.4.$.$.$.$.4.4.4.4.4.4.4.4.4.4.4.4.4.4.$.$.1.r.a O.$.1.0.l - ",
"= z e.1.@.1...*.2.1.1.1.1.1.2.<.1.1.1.1.1.1.1.1.1.1.1.1.1.1.1.1.3.j.s.g <.$.1.;.l - ",
"+ z r.O.@.5.o.y } } X.X.o.o.*...o.o.o.o.o.o.o.o.o.o.o.o.o.o.o.o.=.%.h g 3.$.$.,.k - ",
"+ z e.1.@.@.$.<.[ { { [ | |  .a a i a i a i a i a i a i a i a | [ [ -.3.@.@.$.>.t = ",
"+ m p.1.4.@.$.#.1.3.3.1.1.1.1.<.2.2.2.2.2.2.2.2.2.2.2.2.2.2.2.1.$.@.1.1.@.4.@.&.t = ",
"@ Z p.3.5.4.4.$.$.1.$.O.@.@.@.@.$.$.$.$.$.$.$.$.$.$.$.$.$.$.$.$.$.@.@.$.$.$.<.q.l = ",
"@ V ' r.2.#.1.#.3.3.3.2.1.1.1.1.1.1.1.1.1.1.1.1.1.1.1.1.1.1.1.1.1.#.<.2.<.2.r.U v = ",
"+ n.( Y R I I j I R Y Y R I I I I I I I I I I I I I I I I I I I R I R ] R R ` E c.- ",
"& n.L.! ! ~ L L ! ! ! ! ! ! ! K K K K K K K K K K K K K K K K K K K Q Q Q Q / P.m.* ",
"& B.L.H L.^ ! K / / / / / / / / / / / / / / / / / / / / / / / / / / ! ! / / / I.v.- ",
"& S K.H I.K./ / / L.H H L.L.L.L.A.A.A.A.A.A.A.A.A.A.A.A.A.A.A.H H H H / / / H I.v.- ",
"& B.K.A.L.L.G L./ H / H L.L.A.A.A.A.A.A.A.A.A.A.A.A.A.A.A.A.A.L./ / / F F H L.P.b - ",
"+ n.P.G A.L.A.L./ / / / L.A.A.A.A.A.A.A.A.A.A.A.A.A.A.A.A.A.A.L.L./ / F F H L.T.b & ",
"& n E.H H L.L.H / / / / L.L.A.A.A.A.A.A.A.A.A.A.A.A.A.A.A.A.A.L.L.L./ H H H L.T.n.- ",
"& n.P.L.H L.A.L./ / / / L.L.A.A.A.L.A.L.A.L.A.L.A.L.A.L.A.L.A.L.L.L.H H H H I.T.b - ",
"+ Z.J.K.H L.A.L.L./ / L.K.L.A.A.L.L.L.L.L.L.L.L.L.L.L.L.L.L.L.L.L.L.H H H L.I.T.b - ",
"+ Z.P.L.H L.L.A.L./ / / K.K.A.A.L.L.L.L.L.L.L.L.L.L.L.L.L.L.L.L.L./ H H H L.I.U.b.- ",
"= q R.L./ L.L.L./ / / / L.L.A.H / / / / / / / / / / / / / / / / / / H H L.L.P.U.0 = ",
"@ 7 H.P.I.K.P.I.K.K.K.K.P.P.P.P.P.P.P.P.P.P.P.P.P.P.P.P.P.P.P.P.P.P.K.I.I.P.U.Y.> @ ",
"4 % , r Z.n.b.N.M.M.M.M.M.N.M.n.M.M.M.M.M.M.M.M.M.M.M.M.M.M.M.M.N.N.M.b.Z.N.0 6 + : ",
"  3 $ + & & & = & & & & & & & & & & & & & & & & & & & & & & & + O @ # + + = = + : : "
};
