/* XPM */
static char *_3b1e442187c414aee1105c028bd73614dqzvqS0cY0JwzRS[] = {
/* columns rows colors chars-per-pixel */
"42 42 189 2 ",
"   c None",
".  c #030201",
"X  c #020609",
"o  c #040A0D",
"O  c #0B0900",
"+  c #130902",
"@  c #1C1600",
"#  c #191600",
"$  c #07151A",
"%  c #071318",
"&  c #231D00",
"*  c #251B0A",
"=  c #360B0D",
"-  c #2C2500",
";  c #342B00",
":  c #3C3400",
">  c #0C1E24",
",  c #14252A",
"<  c #0A2B35",
"1  c #11333D",
"2  c #0F262D",
"3  c #23282F",
"4  c #433900",
"5  c #463A00",
"6  c #492C11",
"7  c #721F22",
"8  c #5A4B00",
"9  c #574D00",
"0  c #534900",
"q  c #655600",
"w  c #704014",
"e  c #766200",
"r  c #5B5526",
"t  c #123A46",
"y  c #493D47",
"u  c #174452",
"i  c #284B56",
"p  c #324852",
"a  c #1C5566",
"s  c #225C6F",
"d  c #396B7C",
"f  c #495A5C",
"g  c #806B01",
"h  c #887700",
"j  c #957C00",
"k  c #82782C",
"l  c #DA5B39",
"z  c #DC6436",
"x  c #9A5058",
"c  c #B76572",
"v  c #CA555E",
"b  c #DC4640",
"n  c #DD6C59",
"m  c #C45F6C",
"M  c #F57175",
"N  c #998600",
"B  c #A48900",
"V  c #BD9D00",
"C  c #B39800",
"Z  c #BCA500",
"A  c #C9A902",
"S  c #DAA80E",
"D  c #CDB500",
"F  c #D5B200",
"G  c #DAB600",
"H  c #DDB800",
"J  c #DAB808",
"K  c #DBA319",
"L  c #D7B616",
"P  c #E1BD00",
"I  c #DA9220",
"U  c #CAB63B",
"Y  c #E6B027",
"T  c #DEC400",
"R  c #E2C700",
"E  c #E9CB00",
"W  c #F3D402",
"Q  c #FEDF05",
"!  c #FFD917",
"~  c #FFD61B",
"^  c #FFD919",
"/  c #FFD615",
"(  c #F0D10B",
")  c #FFE000",
"_  c #FFE009",
"`  c #FDE014",
"'  c #FFCA2E",
"]  c #FFC72D",
"[  c #FFC534",
"{  c #FFC931",
"}  c #FFC23D",
"|  c #F6E229",
" . c #B9B656",
".. c #BAB64F",
"X. c #A4B77E",
"o. c #AAB667",
"O. c #D38451",
"+. c #FF9F5F",
"@. c #C7B644",
"#. c #FFBE42",
"$. c #FFA35E",
"%. c #FFAB5A",
"&. c #FFAF56",
"*. c #FBA952",
"=. c #FF9E62",
"-. c #FF926D",
";. c #FF8D74",
":. c #FF827C",
">. c #FF9171",
",. c #FE8F6F",
"<. c #FFA162",
"1. c #EDE04B",
"2. c #E6E056",
"3. c #D9E068",
"4. c #D0D26E",
"5. c #2B738B",
"6. c #2C758C",
"7. c #FD7F84",
"8. c #2F829D",
"9. c #30819B",
"0. c #3285A0",
"q. c #3494B2",
"w. c #4B8699",
"e. c #739AB6",
"r. c #5FA7BE",
"t. c #78B6B2",
"y. c #65B2B9",
"u. c #4A93AF",
"i. c #3DA4C4",
"p. c #3FAACC",
"a. c #3FB7DC",
"s. c #3CADD0",
"d. c #58B5CA",
"f. c #41AED1",
"g. c #44B6DA",
"h. c #45B8DC",
"j. c #49B9DD",
"k. c #49B5D7",
"l. c #52B6D3",
"z. c #52A6C1",
"x. c #65A8C4",
"c. c #67BAD8",
"v. c #74B1CF",
"b. c #4EBDE1",
"n. c #54C1E4",
"m. c #5CC7E9",
"M. c #5ECAED",
"N. c #58C3E5",
"B. c #64CBEC",
"V. c #6BD2F2",
"C. c #76D9F8",
"Z. c #7DDEFD",
"A. c #76D6F4",
"S. c #72CFEC",
"D. c #7EE1FF",
"F. c #92B691",
"G. c #8A8EA6",
"H. c #B5A9BD",
"J. c #DB8894",
"K. c #F5898D",
"L. c #FC8486",
"P. c #F28C91",
"I. c #E7969F",
"U. c #DF9DA9",
"Y. c #DA9CA8",
"T. c #CD91A1",
"R. c #E596A2",
"E. c #E29AA5",
"W. c #E09CA8",
"Q. c #B7E0BA",
"!. c #C9E095",
"~. c #BCBACD",
"^. c #BFB7CA",
"/. c #B5BED2",
"(. c #C2B4C6",
"). c #ABC5DB",
"_. c #AFC2D7",
"`. c #B1C1D6",
"'. c #AAE0CE",
"]. c #95D4EE",
"[. c #9AD1EA",
"{. c #93D5F0",
"}. c #81DFFD",
"|. c #A4CBE3",
" X c #91E0EC",
".X c #9CE0E1",
"XX c #8CE1F4",
"oX c #80E0FF",
"OX c #88E2FA",
/* pixels */
"                                  . @ : 4 : - .                                     ",
"                              O 4 h Z T R R D N 8 #                                 ",
"                            - h R ) ) ) ) ) ) ) W C 0 .                             ",
"                          ; Z Q ) ) ) ) ) ) ) ) ) ) T q .                           ",
"                        5 D ) ) ) ) ) ) ) ) ) ) ) ) ) W e +                         ",
"                      3  .| ` _ ) ) ) ) ) ) ) ) ) _ ` | 4.f X                       ",
"                    , r.XX.XQ.!.3.2.2.1.1.1.2.2.3.!.'..XOXS.i                       ",
"                  % w.Z.D.D.D.oXOXXXXX X X XXXXXOXoXD.D.D.oXz.>                     ",
"                  i A.oXoXoXoXD.D.D.D.D.D.D.D.D.D.oXoXoXoXoXC.5.o                   ",
"                , x.oXoXoXoXoXoXoXoXoXoXoXoXoXoXoXoXoXoXoXoXZ.l.u                   ",
"              X d Z.oXoXoXoXoXoXoXoXoXoXoXoXoXoXoXoXoXoXoXoXoXV.0.$                 ",
"              , c.oXoXoXoXoXoXoXoXoXoXoXoXoXoXoXoXoXoXoXoXoXoXC.k.u                 ",
"              d Z.oXoXD.D.D.oXoXoXoXoXD.D.D.oXoXoXoXoXD.D.D.oXZ.n.8.$               ",
"            > x.oXoXD.{.~.).}.D.oXoXD.].~.|.oXD.oXoXD.[.~.|.oXD.m.p.t               ",
"            p A.oXD.].U.:.K./.oXD.D.].R.:.K.`.D.D.D.[.I.:.P.).D.B.h.d .             ",
"          + x ~.D.].W.;.} $.K./.D.[.R.>.} $.K.`.D.[.R.-.} +.P.).V.x.x =             ",
"          * O.K.(.U.;.] ) ^ $.K.(.W.;.' ) ~ $.P.(.R.>.' ) / =.P.H.m l 6             ",
"          9 ( %.L.;.] ) ) ) ! $.7.>.' ) ) ) ! $.7.>.' ) ) ) / =.M z K g O           ",
"          h ) ! &.[ ) ) ) ) ) ^ &.{ ) ) ) ) ) ~ &.' ) ) ) ) ) ~ *.K H B #           ",
"        . B ) ) Q ) ) ) ) ) ) ) Q ) ) ) ) ) ) ) Q ) ) ) ) ) ) ) W H G V &           ",
"        & A ) ) ) ) ) ) ) ) ) ) ) ) ) ) ) ) ) ) ) ) ) ) ) ) ) ) W G G A 4           ",
"        : G ) ) ) ) ) ) ) ) ) ) ) ) ) ) ) ) ) ) ) ) ) ) ) ) ) ) E G G F 8           ",
"        4 R ) ) ) ) ) ) Q ) ) ) ) ) ) ) Q ) ) ) ) ) ) ) Q ) ) ) R G G G q           ",
"        6 Y _ ) ) ) ) ~ %.[ ) ) ) ) ) ~ %.[ _ ) ) ) ) ~ %.{ ) Q P G G S w           ",
"        = n [ ) ) ) ^ $.7.;.[ ) ) ) ~ <.L.;.{ ) ) ) ~ =.7.>.{ W H G S z 7           ",
"        3 c ;.[ ) ^ $.K.^.U.;.[ ) ~ =.P.^.W.;.{ _ ~ =.P.~.R.,.Y G S z v y           ",
"        < u.T.;.#.$.K./.D.].W.;.#.$.K._.D.].W.;.#.=.P.).D.[.J.l I z v e.a           ",
"        $ 0.c.Y.:.K./.oXD.D.{.U.:.P.`.D.D.D.].W.:.P.).D.oXZ.v.c b v e.s.t           ",
"        X 5.h.c./.|.oXD.oXoXD.{./.|.oXD.oXoXD.]./.|.}.oXZ.B.g.x.G.x.h.q.>           ",
"          a g.h.M.Z.oXoXoXoXoXD.D.D.oXoXoXoXoXD.D.D.oXZ.B.h.h.g.a.g.h.0.$           ",
"          < i.h.h.m.C.oXoXoXoXoXoXoXoXoXoXoXoXoXoXoXZ.B.h.h.h.h.h.h.h.a X           ",
"          % 8.h.h.h.b.V.Z.oXoXoXoXoXoXoXoXoXoXoXZ.V.n.h.h.h.h.h.h.h.i.1             ",
"            u f.h.h.h.j.n.V.C.Z.Z.oXoXoXoXZ.C.V.N.j.h.h.h.h.h.h.h.h.5.o             ",
"            $ 9.h.h.h.h.h.h.j.n.m.M.M.M.m.n.j.g.g.g.h.h.h.h.h.h.h.i.1               ",
"              1 i.h.h.h.g.a.g.k.k.l.d.d.d.d.d.l.k.k.g.a.g.h.h.h.g.s X               ",
"              X a f.h.g.d.t.F.o...@.@.U U U @.@...o.F.t.d.g.g.h.6.$                 ",
"                o s y.X.U L J H H H H G G G G H H H J L U X.y.9.>                   ",
"                  o r A H G G G G G G G G G G G G G G G H F k >                     ",
"                    O 5 B F H G G G G G G G G G G G H G V q @                       ",
"                        @ 8 B A G H H H H H H H H F C e ; .                         ",
"                            # 5 e j C V V V C B g 8 & .                             ",
"                                . + - ; ; ; - @ .                                   "
};
