/* XPM */
static char *_a2f63c32fd947d38b139ea0d7cc01fcCttUySMvVy2jP6qT[] = {
/* columns rows colors chars-per-pixel */
"42 42 242 2 ",
"   c #3C3D02",
".  c #3F2615",
"X  c #32362D",
"o  c #443801",
"O  c #4C3B00",
"+  c #543214",
"@  c #543E11",
"#  c #5E3636",
"$  c #004000",
"%  c #0A470A",
"&  c #0C480B",
"*  c #0F4B10",
"=  c #124D12",
"-  c #174B1A",
";  c #195116",
":  c #1C531B",
">  c #3E4102",
",  c #315016",
"<  c #1B4B31",
"1  c #265925",
"2  c #2E5234",
"3  c #2E612F",
"4  c #39622D",
"5  c #2F6135",
"6  c #3A6333",
"7  c #356439",
"8  c #494401",
"9  c #594A06",
"0  c #5A5409",
"q  c #4B5414",
"w  c #625311",
"e  c #776813",
"r  c #454827",
"t  c #495829",
"y  c #445A35",
"u  c #41652B",
"i  c #456338",
"p  c #113D4B",
"a  c #17484D",
"s  c #264847",
"d  c #30474E",
"f  c #295548",
"g  c #355543",
"h  c #275459",
"j  c #2C6045",
"k  c #386543",
"l  c #1A5765",
"z  c #275D75",
"x  c #2D6974",
"c  c #38677B",
"v  c #4E6646",
"b  c #6F7E5D",
"n  c #445F72",
"m  c #466D70",
"M  c #6A6865",
"N  c #8D5C0F",
"B  c #8B740F",
"V  c #BA7737",
"C  c #C1743E",
"Z  c #AB714A",
"A  c #916A65",
"S  c #947768",
"D  c #A36D61",
"F  c #C27B45",
"G  c #948C19",
"H  c #AC931A",
"J  c #A9951D",
"K  c #B89B26",
"L  c #AE9632",
"P  c #B6AB2C",
"I  c #BAB72B",
"U  c #CCB20D",
"Y  c #D5B501",
"T  c #DBB402",
"R  c #D5B901",
"E  c #DBBA06",
"W  c #C4AE1C",
"Q  c #C8B715",
"!  c #D8B717",
"~  c #E2B406",
"^  c #E5AF17",
"/  c #D89731",
"(  c #E39F2A",
")  c #CCAA29",
"_  c #C7B828",
"`  c #D4B624",
"'  c #C7B936",
"]  c #F6BA28",
"[  c #EAB530",
"{  c #B7C33D",
"}  c #F5C60F",
"|  c #FEDD02",
" . c #FCD806",
".. c #FDDD0B",
"X. c #FFDC13",
"o. c #FDD719",
"O. c #FFDA1C",
"+. c #F7E404",
"@. c #FEE202",
"#. c #FFE20B",
"$. c #FBE214",
"%. c #FDE119",
"&. c #CDC22D",
"*. c #D3C439",
"=. c #E7CF2D",
"-. c #FDCC29",
";. c #EBDC2A",
":. c #F9D925",
">. c #FFD52C",
",. c #FFDA2B",
"<. c #FDC739",
"1. c #FFD335",
"2. c #FCD836",
"3. c #EEE42F",
"4. c #F8E229",
"5. c #A6B85B",
"6. c #BB9C7F",
"7. c #A2A069",
"8. c #ACBC68",
"9. c #A6BC76",
"0. c #D7864A",
"q. c #DC9255",
"w. c #E79956",
"e. c #D9B44E",
"r. c #DCA658",
"t. c #F0AD4F",
"y. c #FAB94A",
"u. c #E7A65B",
"i. c #F7B754",
"p. c #D1986B",
"a. c #D59D77",
"s. c #D5A566",
"d. c #DAA376",
"f. c #E7AA63",
"g. c #E9B460",
"h. c #F9B567",
"j. c #EEAB72",
"k. c #B2C246",
"l. c #DCD841",
"z. c #FDC748",
"x. c #FFD344",
"c. c #F3D04C",
"v. c #E5E64D",
"b. c #CFE57A",
"n. c #D5E476",
"m. c #387689",
"M. c #4D7C92",
"N. c #39839C",
"B. c #64858E",
"V. c #7DA98C",
"C. c #7CB28F",
"Z. c #77AA96",
"A. c #7BB594",
"S. c #519AB3",
"D. c #6E9BB1",
"F. c #4DA8BA",
"G. c #5BA6B8",
"H. c #6BAAA8",
"J. c #71B0A9",
"K. c #6AA3B6",
"L. c #61B3B8",
"P. c #3FAFD4",
"I. c #4EAFCC",
"U. c #55AAC5",
"Y. c #4BB2C9",
"T. c #56B4C7",
"R. c #4DADD5",
"E. c #44B4D5",
"W. c #4BB5D4",
"Q. c #45B5DA",
"!. c #4BB4DB",
"~. c #48B9DB",
"^. c #57B4D6",
"/. c #63ADC7",
"(. c #6EB5CD",
"). c #48B5E2",
"_. c #55BAE3",
"`. c #6CC3D3",
"'. c #56C3E6",
"]. c #6BC6EA",
"[. c #6BCCEB",
"{. c #6BD4FE",
"}. c #7BDDF6",
"|. c #76DAF8",
" X c #7CDDFD",
".X c #79E6FB",
"XX c #7CE2FD",
"oX c #868E94",
"OX c #B49F8A",
"+X c #8DB787",
"@X c #9ABD81",
"#X c #BCA38B",
"$X c #98A5AD",
"%X c #BAADAF",
"&X c #B9BAB7",
"*X c #CC9C8C",
"=X c #CE9D8D",
"-X c #C7A48A",
";X c #C6A896",
":X c #D8AA95",
">X c #CCABA8",
",X c #DEB1A8",
"<X c #E2B2A7",
"1X c #BBDB9A",
"2X c #ABD0B6",
"3X c #A7E1B7",
"4X c #B6E6B6",
"5X c #CCE78B",
"6X c #C1DEA5",
"7X c #AAB9CC",
"8X c #B4BDC4",
"9X c #C2B8C0",
"0X c #9BC5D6",
"qX c #90CED4",
"wX c #9CD7D8",
"eX c #ABC6CA",
"rX c #B3C4CA",
"tX c #BAC2CC",
"yX c #A5CBD9",
"uX c #B6C8D8",
"iX c #AADBD1",
"pX c #A9D6DC",
"aX c #9CE1C4",
"sX c #85E4DD",
"dX c #ABE6CA",
"fX c #93CFEB",
"gX c #88DAE8",
"hX c #98D8EA",
"jX c #85DBF5",
"kX c #8CDCF5",
"lX c #83DDFE",
"zX c #8ADDFC",
"xX c #95DAF2",
"cX c #9AD8F5",
"vX c #91DEFE",
"bX c #ABD1E5",
"nX c #A7D8F2",
"mX c #8BE2E8",
"MX c #88E2F4",
"NX c #83E3FE",
"BX c #8AE2FF",
"VX c #99E1FA",
/* pixels */
"$ $ $ $ $ $ $ $ $ $ $ $ $ $ $ $ 1 q > 8 8   8 , ; $ $ $ $ $ $ $ $ $ $ $ $ $ $ $ $ $ ",
"$ $ $ $ $ $ $ $ $ $ $ $ $ $ $ t 8 B P ' *.*.I G w , $ $ $ $ $ $ $ $ $ $ $ $ $ $ $ $ ",
"$ $ $ $ $ $ $ $ $ $ $ $ $ $ 8 B &.;.4.%.X.%.$.o.=.H 9 $ $ $ $ $ $ $ $ $ $ $ $ $ $ $ ",
"$ $ $ $ $ $ $ $ $ $ $ $ $ O K =.%.#.@.| | | | @. .4.' 0 , $ $ $ $ $ $ $ $ $ $ $ $ $ ",
"$ $ $ $ $ $ $ $ $ $ $ $   I 2.%. .@.@.| ....| | @.#.;.*.e : $ $ $ $ $ $ $ $ $ $ $ $ ",
"$ $ $ $ $ $ $ $ $ $ $ 2 9.n.l.;.3.3.;.:.2.;.;.3.;.3.v.n.1Xv & $ $ $ $ $ $ $ $ $ $ $ ",
"$ $ $ $ $ $ $ $ $ $ s H.pXdX4X6X5X5Xb.b.b.5X5X5X5X1X4XdXwXqXa $ $ $ $ $ $ $ $ $ $ $ ",
"$ $ $ $ $ $ $ $ $ - N.kXzXjXhXqXaX3X3X3X3X3X3X3XiXwXgXjXzXkXK.p $ $ $ $ $ $ $ $ $ $ ",
"$ $ $ $ $ $ $ $ $ h gXMXXXXXNXgXmXgXgXmXsXsXsXsXgXMXlXlXNXBXgXx < $ $ $ $ $ $ $ $ $ ",
"$ $ $ $ $ $ $ $ s K.MX.X.X.X|.XXNXBXlX}..X.X.X.XNXNXNXNX X|.jX(.h 5 $ $ $ $ $ $ $ $ ",
"$ $ $ $ $ $ $ 1 c VX}.XXNXNXXX X XNXNXNXNXXX XXXXXXX X XNXNXNX[.m.s = $ $ $ $ $ $ $ ",
"$ $ $ $ $ $ $ s (.BX XNXjXjXNXNXNX XlXlXlXlXlXNXXXXXNXjXzXBXlX}.G.h k $ $ $ $ $ $ $ ",
"$ $ $ $ $ $ 5 c jXXXBXkXcXcXjX}.NX XlXzXkXvXvXlXNX XBXkXxXxXNXlX(.m.s = $ $ $ $ $ $ ",
"$ $ $ $ $ $ s /.BXBXhXyX7XuXhXkX}.lXcXbXeXyXcXzXlXjXcXyXeXeXhXjX`.G.s 7 $ $ $ $ $ $ ",
"$ $ $ $ $ 7 d 0XxXhXrX>X*X;X8XbXkXxXtX>X*X;X8XnXjXxXtX;X*X-X8XnX]./.n g % $ $ $ $ $ ",
"$ $ $ $ $ y M &XuXtX;Xd.h.j.-X&XpXeX;Xj.h.f.#X2XpXrX;Xd.h.u.;XtX0XD.M X 1 $ $ $ $ $ ",
"$ $ $ $ : @ p.a.,X*Xr.z.1.z.h.p.,X-Xu.y.1.<.g.a.,X*Xr.z.1.<.g.a.;XS Z + 4 $ $ $ $ $ ",
"$ $ $ $ 4 w t.i.w.u.<.,.%.O.<.y.q.u.z.>.X.O.<.t.q.u.z.,...O.<.t.0.F / N i $ $ $ $ $ ",
"$ $ $ $ 4 e c.2.[ <.O.......O.>.] <.O...@.+.O.>.] -.O.| | | O.>.[ ( ^ H r = $ $ $ $ ",
"$ $ $ % , G 3.$.O.O...@.@.#.@. .O.X.| +.@.@. ...X...| @.@.| | X.-.^ Y W   1 $ $ $ $ ",
"$ $ $ = q P $.| X.X.| | @.+.+.+. .#.@.@.@.@.|  .| @.@.+.@.@.|  .} ~ Y Q 8 3 $ $ $ $ ",
"$ $ $ ; 0 ' %.@.|  .| @.....@.@.@.@.@.@.| | #.#.| @.@.....#.#...} ~ T U 0 6 $ $ $ $ ",
"$ $ $ ; 9 e.:.| | | ..%.O.:... .@.| | #.X.X.X...@.| ..X.O.O.X...} E R W w 6 $ $ $ $ ",
"$ $ $ : @ e.1.X. . .O.-.[ <.>.X. ...O.-.] <.,.X... .:.-.] <.,.o.E Y ^ ) w i $ $ $ $ ",
"$ $ $ : . 7.y.,. .X.x.i.q.w.z.1.O.>.<.y.w.w.z.2.o.:.z.t.q.u.z.-.~ ^ ( V + y $ $ $ $ ",
"$ $ $ : X S s.y.2.1.u.a.,X:Xr.i.x.z.u.a.<X:Xs.z.x.<.u.d.,X:Xr.[ ^ ( V Z # i $ $ $ $ ",
"$ $ $ ; s B.OXd.h.f.-X&XbXuX;Xd.h.f.-X&XpXeX;Xd.h.u.-X9XuXrX6.Z 0.C S oXd 7 $ $ $ $ ",
"$ $ $ = s M.$X%X-X#X8XbXxXxXuX%X-X#XrXnXkXxXtX;X-X;XtXnXvXfX$XS D A oXD.s 5 $ $ $ $ ",
"$ $ $ % g c (.(.0XyXhXgXmXgXgXhX0XyXhXzXlXNXhXwX0XyXcXzXlX]./.K.D.K./.S.< 1 $ $ $ $ ",
"$ $ $ $ k h ^.!.].zXNX}.MXMX}.NXkXvXlX XNXlX}.NXvXvXlX X[.).E.!.!._.^.M.g * $ $ $ $ ",
"$ $ $ $ 3 s S.!.R.]. X XlXBXNX}.BXjX}.NXlXlXNX XBXlX|.[.Q.Q.~.Q.E.I.U.z k $ $ $ $ $ ",
"$ $ $ $ * f N.W.!.!._.{.lXlX XNXNX}.NXNX X XNXXX X|.'.E.E.~.Q.~.W.^.S.p 5 $ $ $ $ $ ",
"$ $ $ $ $ k a U.^.).).).'.[.|. XXXXXXXXXXX X{.{.'.~.Q.Q.E.Q.~.Q.W.U.m.f * $ $ $ $ $ ",
"$ $ $ $ $ = f m.^.Q.).).W.^.I.(.`.`.`.`.`.(.T.T.I.^.W.E.~.E.P.W.Y.F.p k $ $ $ $ $ $ ",
"$ $ $ $ $ $ 7 a S.^.)._.W.F.L.H.Z.Z.V.C.C.C.A.Z.H.H.L.T.I.E.Q.~.U.l f * $ $ $ $ $ $ ",
"$ $ $ $ $ $ $ j l G./.G.J.A.+X9.9.8.8.8.8.8.8.9.9.@X+XC.J.L.Y.T.m.a 1 $ $ $ $ $ $ $ ",
"$ $ $ $ $ $ $ * s n V.@X5.k.I I _ _ _ _ _ _ _ _ _ _ &.{ 5.9.Z.m s 5 $ $ $ $ $ $ $ $ ",
"$ $ $ $ $ $ $ $ ; 2 t 5.5.Q E R Y R R R R E E ~ T T R Q ' 8.b X 7 $ $ $ $ $ $ $ $ $ ",
"$ $ $ $ $ $ $ $ $ % y o G ' ! Y Y Y Y Y Y Y T T T E U ` L 9 r 5 $ $ $ $ $ $ $ $ $ $ ",
"$ $ $ $ $ $ $ $ $ $ $ i o 9 H ) ` ! ! ! ! ! ! ! ` ) K e o t 1 $ $ $ $ $ $ $ $ $ $ $ ",
"$ $ $ $ $ $ $ $ $ $ $ $ ; y r @ e B L K K K J G e 0 > t 3 % $ $ $ $ $ $ $ $ $ $ $ $ ",
"$ $ $ $ $ $ $ $ $ $ $ $ $ $ : i t 8 O O o O 8 8 q u 1 % $ $ $ $ $ $ $ $ $ $ $ $ $ $ "
};
