/* XPM */
static char *_ed1f0bcc5aa4827c180cf02c97618b0L6c7mkehgdWasXzF[] = {
/* columns rows colors chars-per-pixel */
"42 42 181 2 ",
"   c #010201",
".  c #050B04",
"X  c #080A07",
"o  c #0C0C0C",
"O  c #021402",
"+  c #011801",
"@  c #0C110D",
"#  c #11130F",
"$  c #101D0F",
"%  c #131313",
"&  c #161815",
"*  c #181916",
"=  c #171518",
"-  c #1C1C1C",
";  c #062206",
":  c #0B260A",
">  c #0E2D0D",
",  c #063F06",
"<  c #083907",
"1  c #083508",
"2  c #0B3A0B",
"3  c #162015",
"4  c #1E231D",
"5  c #183D17",
"6  c #193C18",
"7  c #21211F",
"8  c #212B1F",
"9  c #232323",
"0  c #282826",
"q  c #282629",
"w  c #2B2B2A",
"e  c #273226",
"r  c #213A21",
"t  c #2D332C",
"y  c #2B3B2B",
"u  c #30312F",
"i  c #343433",
"p  c #383637",
"a  c #363A35",
"s  c #383B37",
"d  c #3B3B3A",
"f  c #004000",
"g  c #0B450B",
"h  c #0E490E",
"j  c #104510",
"k  c #144D14",
"l  c #1A4E1A",
"z  c #165016",
"x  c #1D551D",
"c  c #1F5620",
"v  c #264526",
"b  c #234B23",
"n  c #294C29",
"m  c #215721",
"M  c #235A23",
"N  c #2A532A",
"B  c #2A5E2A",
"V  c #314831",
"C  c #3E493E",
"Z  c #365336",
"A  c #2E622E",
"S  c #336433",
"D  c #376937",
"F  c #3A633A",
"G  c #3D6B3D",
"H  c #41413F",
"J  c #434443",
"K  c #474946",
"L  c #484947",
"P  c #4C4C4B",
"I  c #445744",
"U  c #415E40",
"Y  c #4F514E",
"T  c #4B5C4C",
"R  c #50514F",
"E  c #545454",
"W  c #535852",
"Q  c #595A57",
"!  c #595758",
"~  c #5B5C5B",
"^  c #426642",
"/  c #426C42",
"(  c #4E6A4E",
")  c #50644F",
"_  c #457145",
"`  c #497047",
"'  c #4B734A",
"]  c #4E7A4E",
"[  c #556255",
"{  c #586657",
"}  c #546F54",
"|  c #5C635B",
" . c #5E685B",
".. c #527352",
"X. c #547C54",
"o. c #5F735E",
"O. c #5B7D5B",
"+. c #61615F",
"@. c #616B5F",
"#. c #5F5F61",
"$. c #615F60",
"%. c #636463",
"&. c #686667",
"*. c #636A63",
"=. c #686866",
"-. c #676769",
";. c #696768",
":. c #676968",
">. c #6B6C6B",
",. c #637362",
"<. c #6D736C",
"1. c #71716F",
"2. c #6E6E70",
"3. c #6F7170",
"4. c #747574",
"5. c #787677",
"6. c #767B76",
"7. c #787977",
"8. c #797778",
"9. c #7C7C7C",
"0. c #5B835B",
"q. c #628462",
"w. c #658B65",
"e. c #698E69",
"r. c #6B906B",
"t. c #748C73",
"y. c #7D827C",
"u. c #7D8B7D",
"i. c #719571",
"p. c #789577",
"a. c #7B937B",
"s. c #7D9C7D",
"d. c #7E7E81",
"f. c #838383",
"g. c #808F80",
"h. c #888A87",
"j. c #868689",
"k. c #8B8B8B",
"l. c #8D8D8E",
"z. c #859C84",
"x. c #8A928A",
"c. c #8F9E8E",
"v. c #90918F",
"b. c #8E8E91",
"n. c #919191",
"m. c #949495",
"M. c #939B93",
"N. c #959499",
"B. c #999999",
"V. c #99999A",
"C. c #9B9D9B",
"Z. c #86A386",
"A. c #8DA58D",
"S. c #90A490",
"D. c #99A197",
"F. c #95AE95",
"G. c #9EA59D",
"H. c #9BB19B",
"J. c #A1A2A1",
"K. c #A2A3A2",
"L. c #A5A5A5",
"P. c #A3ABA3",
"I. c #ABABAB",
"U. c #A1B2A1",
"Y. c #A4BBA4",
"T. c #AEB1AE",
"R. c #B3B4B3",
"E. c #B4BDB4",
"W. c #BABBBA",
"Q. c #B4C7B4",
"!. c #B9C3B9",
"~. c #BCCBBC",
"^. c #C3C5C3",
"/. c #CDCDCD",
"(. c #CBD6CB",
"). c #D1D5D1",
"_. c #D1DBD1",
"`. c gray85",
"'. c #DDE0DD",
"]. c gray91",
"[. c white",
/* pixels */
"f f f f f f f f f f f f f f f f f g k z x M B x g f f f f f f f f f f f f f f f f f ",
"f f f f f f f f f f f f f f f B S ` ` ` ` ` ' _ G G B f f f f f f f f f f f f f f f ",
"f f f f f f f f f f f f f x F ..o.,.@.@.@. .{ ) ( ...._ x f f f f f f f f f f f f f ",
"f f f f f f f f f f f f S o.<.=.>.*.| Q E Y P K J s C  .u.q.f f f f f f f f f f f f ",
"f f f f f f f f f f f F <.>.>.<.>.>.:.%.%.~ E P H P d w u P 6.f f f f f f f f f f f ",
"f f f f f f f f f k U >.5.9.9.7.6.4.3.>.:.%.~ E E P d d i 4 t | f f f f f f f f f f ",
"f f f f f f f f l 4.7.f.f.f.y.9.f.d.7.4.>.-.#.~ E P J d p w - * C f f f f f f f f f ",
"f f f f f f f k 5.7.f.f.f.h.l.k.j.f.d.9.5.>.%.%.~ P P J i u w 7 o v f f f f f f f f ",
"f f f f f g k 4.9.f.f.n.k.k.B.n.b.b.j.d.7.4.>.-.~ E P J d i w - * o r f f f f f f f ",
"f f f f f g 4.5.f.k.k.k.B.K.B.B.B.N.b.f.9.7.2.%.%.E E J p d d w 9 % o V f f f f f f ",
"f f f f g *.4.9.f.f.x.B.B.K.G.L.B.B.m.k.f.9.4.:.%.E P P %.O.M u.w = o % b f f f f f ",
"f f f f ) <.5.f.f.z.M _ P.K.I.L.I.K.m.k.j.9.4.4.%.~ ~ P g.f f g P % o   4 f f f f f ",
"f f f h %.4.6.y.f.X.f k 0.K.R.W.L.C.m.n.n.h.7.:.%.~ E E t.f f f ~ * o o   Z f f f f ",
"f f g :.=.4.6.y.f._ f f X.M.a.C.C.G.p.G A _ A.P.h.~ E E G.f f f f 6.=     4 k f f f ",
"f f o.~ >.<.7.x.G f f f ] G.K.M.X.f f f f f f f / P.%.5.Z.f f f f h 9       Z f f f ",
"f x >.~ >.>.6.t.f f f f g S.R.B f f f f f f f f f k R.!.x f f f f k w       y f f f ",
"f O.Q ~ =.>.4.t.h g M M f O.f f f f f f f f f f f f f f M Z.q.g f } =       3 l f f ",
"m y.R ~ =.>.>.y.X.S S.P.U.M f f f f f f f f f f f f f f ^.f.E h.9.d         . N f f ",
"S <.P ~ +.=.4.1.7.v.f.h.m.X.f f M _ f f f f f Q.~.r.f 0.5.i 0 0 7 o o         N f f ",
"G *.P E Q +.4.1.9.9.f.n.h.Z.g ).K.k.^._ f x /.%.P K.s.w.f.i 0 0 * o o         n f f ",
"/ [ P Y Q ~ :.:.4.8.9.9.f.!.Y.9.    = K.f /.w     - !.Z.~ w 0 - * %           v f f ",
"G T J L ~ ~ %.*.;.5.5.7.5.T.s.~       J s.m.o     d E.^.P i w = % o           v f f ",
"M T d J P E ~ %.&.%.5.>.5.f.H.W.i     7.s./.d o J W.(.h.w - - * % o           b f f ",
"f b s J J P E ~ $.%.%.:.:.%.k.!.).I.R.'.f p.`./.].~.W.d 0 9 - % o         .   b f f ",
"f g t d J P P E ! ~ %.%.%.%.~ R.f ] f f , f , f f f s.n.p d %.J %           . b f f ",
"f f e d s J L P E E <.A.K.9.E.i.f f f f , f f f f f f A O._ h B J           . g f f ",
"f f 2 u u d H J P W O.D w.s.S f ' F.F.i.i.A.~.(._.!.B f g f f f (           $ f f f ",
"f f g 9 i i p H d | M f f , f e.G.C.B.G.K.L.L.K.L.~ S.g f f f f ^ o         5 f f f ",
"f f g - w w w p d %._ f f f w.P.P d p d p i i w * 9 P M f f f h I         . f f f f ",
"f f f 2 - 9 w w w p y.a.f f ~.k.d p p p w w w 0 0 - J x f f m I =         > f f f f ",
"f f f g * * 0 0 w w i n.B f [.B.w w i w w 0 9 7 = o d B f f m -         . f f f f f ",
"f f f f < = - - 9 0 9 9._.0.].~ 0 w 9 9 9 - * = % o o o.x h ^ o         < f f f f f ",
"f f f f f : # * & 4 & d B.R.>.q 9 - - * * = % o o     % J P 9     .   : f f f f f f ",
"f f f f f f O X % @ & - 9 - = = * * = = % # o                 o     O f f f f f f f ",
"f f f f f f , . . X # X o % % % # o o o o                         O f f f f f f f f ",
"f f f f f f f ,     X     o o o                           o     + , f f f f f f f f ",
"f f f f f f f f g     .                                       ; f f f f f f f f f f ",
"f f f f f f f f f j &                                       1 f f f f f f f f f f f ",
"f f f f f f f f f f g a %                               : f f f f f f f f f f f f f ",
"f f f f f f f f f f f g ,.J &                     . > f f f f f f f f f f f f f f f ",
"f f f f f f f f f f f f f c x.4.R s 0 7 - 7 8 6 g f f f f f f f f f f f f f f f f f ",
"f f f f f f f f f f f f f f f x z.c.D.G.m f f f f f f f f f f f f f f f f f f f f f "
};
