/* XPM */
static char *ca255b15adb54d3fc3a4dd575dbf0994xFeUpogCsPS2gvti[] = {
/* columns rows colors chars-per-pixel */
"38 42 217 2 ",
"   c #0B3915",
".  c #00002F",
"X  c #0C1C2C",
"o  c #02033A",
"O  c #040A39",
"+  c #030B3E",
"@  c #0D1E34",
"#  c #111F32",
"$  c #153328",
"%  c #0E2337",
"&  c #0E243C",
"*  c #132436",
"=  c #1A2737",
"-  c #12243B",
";  c #15283E",
":  c #192838",
">  c #1C2B3C",
",  c #212E3F",
"<  c #24303E",
"1  c #004000",
"2  c #074608",
"3  c #09470A",
"4  c #0C490D",
"5  c #114C0F",
"6  c #144E15",
"7  c #165117",
"8  c #1B541C",
"9  c #255B1E",
"0  c #1D5520",
"q  c #255B25",
"w  c #265C29",
"e  c #2B592B",
"r  c #2E5539",
"t  c #2B612B",
"y  c #2E6131",
"u  c #346539",
"i  c #35653A",
"p  c #3D6B3E",
"a  c #496E37",
"s  c #5C643F",
"d  c #4F733B",
"f  c #5A763F",
"g  c #000440",
"h  c #040B41",
"j  c #0C1344",
"k  c #16194D",
"l  c #152941",
"z  c #1B2C42",
"x  c #15264A",
"c  c #1F3145",
"v  c #1C314A",
"b  c #1F2756",
"n  c #1E3650",
"m  c #252D49",
"M  c #233346",
"N  c #2C3445",
"B  c #2B3946",
"V  c #24354B",
"C  c #2B3449",
"Z  c #26394C",
"A  c #2C3B4C",
"S  c #323A47",
"D  c #333F4F",
"F  c #242A59",
"G  c #243652",
"H  c #2A3C52",
"J  c #2A395B",
"K  c #303F53",
"L  c #333856",
"P  c #333F5F",
"I  c #2F3463",
"U  c #2B3960",
"Y  c #333B62",
"T  c #353E74",
"R  c #35404A",
"E  c #3B424C",
"W  c #33494D",
"Q  c #385A46",
"!  c #2F4453",
"~  c #2D425A",
"^  c #334353",
"/  c #394756",
"(  c #31445B",
")  c #354A5D",
"_  c #3B4A5B",
"`  c #3A505D",
"'  c #3E6B43",
"]  c #3D7042",
"[  c #374562",
"{  c #3B4C62",
"}  c #3C4E69",
"|  c #3F5060",
" . c #3C4870",
".. c #4C4C4C",
"X. c #415D4E",
"o. c #414E5E",
"O. c #42525B",
"+. c #4A575A",
"@. c #595F59",
"#. c #426E47",
"$. c #44684A",
"%. c #4B7549",
"&. c #547845",
"*. c #4E6A5D",
"=. c #4C7455",
"-. c #597A5A",
";. c #677D4D",
":. c #424F66",
">. c #45486B",
",. c #435364",
"<. c #4A5367",
"1. c #455866",
"2. c #4C5B66",
"3. c #42536C",
"4. c #4A556B",
"5. c #455A6E",
"6. c #4B5B6B",
"7. c #525E66",
"8. c #55586A",
"9. c #535E6D",
"0. c #475476",
"q. c #495671",
"w. c #4C5C72",
"e. c #515E74",
"r. c #505B7B",
"t. c #4F616C",
"y. c #566565",
"u. c #54636B",
"i. c #5B656D",
"p. c #586968",
"a. c #5C686B",
"s. c #5C746A",
"d. c #4E6272",
"f. c #546374",
"g. c #5B6675",
"h. c #546871",
"j. c #5D6B75",
"k. c #53637A",
"l. c #5C677A",
"z. c #576879",
"x. c #5C6A7C",
"c. c #5E7279",
"v. c #62666F",
"b. c #656C6C",
"n. c #62746F",
"m. c #686D77",
"M. c #626C7C",
"N. c #6C737F",
"B. c #677D7A",
"V. c #71747B",
"C. c #67844C",
"Z. c #74874F",
"A. c #688157",
"S. c #738552",
"D. c #6C8869",
"F. c #6D8B7A",
"G. c #758E72",
"H. c #6C937B",
"J. c #808F5B",
"K. c #8A956E",
"L. c #515A81",
"P. c #5F6A82",
"I. c #646B85",
"U. c #666E8B",
"Y. c #667283",
"T. c #6B7383",
"R. c #6B7587",
"E. c #6B738A",
"W. c #6E7A8A",
"Q. c #707987",
"!. c #727B8D",
"~. c #666B95",
"^. c #6C7393",
"/. c #6C7199",
"(. c #737D96",
"). c #75848D",
"_. c #7B858F",
"`. c #799F87",
"'. c #7C8692",
"]. c #7C8C9B",
"[. c #7780A1",
"{. c #808F8D",
"}. c #82948E",
"|. c #868D94",
" X c #87999D",
".X c #82A389",
"XX c #8389A9",
"oX c #8192A1",
"OX c #8D99AB",
"+X c #9297BF",
"@X c #94A3AD",
"#X c #99A8AB",
"$X c #98A8B5",
"%X c #A4ABB4",
"&X c #A2B5BA",
"*X c #9BA9C3",
"=X c #A0AFC6",
"-X c #A9B4C8",
";X c #B4B9CC",
":X c #ACB7D5",
">X c #B7BCE1",
",X c #B5CFC5",
"<X c #BAC7DC",
"1X c #BDCAEA",
"2X c #C5D5CB",
"3X c #C6CDD4",
"4X c #C4D2DD",
"5X c #C5D6E2",
"6X c #C3D1EB",
"7X c #D1DBE5",
"8X c #CED9F7",
"9X c #D0D7F1",
"0X c #D8E5EE",
"qX c #D9E7FF",
"wX c #E0E7FF",
"eX c #E1F2FF",
"rX c #EDF7FF",
/* pixels */
"1 1 1 1 1 1 1 1 1 1 1 1 1 1 1 1 1 1 1 1 1 1 1 1 1 1 1 1 1 1 1 1 1 1 1 1 1 1 ",
"1 1 1 1 1 1 1 1 1 1 1 1 1 1 1 1 1 1 1 1 1 1 1 1 1 1 1 1 1 1 1 1 1 1 1 1 1 1 ",
"1 1 1 1 1 1 1 1 1 1 1 1 1 1 1 1 1 1 1 1 1 1 1 1 1 1 1 1 1 1 1 1 1 1 1 1 1 1 ",
"1 1 1 1 1 1 1 1 1 1 1 q K.&.1 1 1 1 1 1 1 1 1 1 1 1 1 1 1 1 1 1 1 1 1 1 1 1 ",
"1 1 1 1 1 1 1 1 1 1 1 e s ;.&.1 1 1 1 1 1 1 1 1 1 1 1 1 1 1 1 1 1 1 1 1 1 1 ",
"1 1 1 1 1 1 1 1 1 1 1 1 a d f 9 1 1 1 1 1 1 1 1 1 1 1 1 1 1 1 1 1 1 1 1 1 1 ",
"1 1 1 1 1 1 1 1 1 1 1 1 a J.Z.a 1 1 1 1 1 1 1 1 1 1 1 1 1 1 1 1 1 1 1 1 1 1 ",
"1 1 1 1 1 1 1 1 1 1 1 1 1 S.C.5 1 1 1 1 1 1 1 1 1 1 1 1 1 1 1 1 1 1 1 1 1 1 ",
"1 1 1 1 1 1 1 1 1 1 1 1 1 C.K.t 1 1 1 1 1 1 1 1 1 1 1 1 1 1 1 1 1 1 1 1 1 1 ",
"1 1 1 1 1 1 1 1 1 1 1 1 1 &.G.&.1 1 1 1 1 1 1 1 1 1 1 1 1 1 1 1 1 1 1 1 1 1 ",
"1 1 1 1 1 1 1 1 1 1 1 1 5 -.A.D.w 1 1 1 1 1 1 1 1 1 1 1 1 1 1 1 1 1 1 1 1 1 ",
"1 1 1 1 1 1 1 1 1 1 1 1 D.b...@.e 4 1 1 1 1 1 1 1 1 1 1 1 1 1 1 1 1 1 1 1 1 ",
"1 1 1 1 1 1 1 1 1 1 1 #.+.S R E +.0 4 1 1 1 1 1 1 1 1 1 1 1 1 1 1 1 1 1 1 1 ",
"1 1 1 1 1 1 1 1 1 1 2 F.W.!.!.W.j.s.3 1 1 1 1 1 1 1 1 1 1 1 1 1 1 1 1 1 1 1 ",
"1 1 1 1 1 1 1 1 1 p B.z.w.d.3.5.6.9.7.1 1 1 1 1 1 1 1 1 1 1 1 1 1 1 1 1 1 1 ",
"1 1 1 1 1 1 2 i *.2.^ A A ( ( { ,.,.4.9.Q 1 1 1 1 1 1 1 1 1 1 1 1 1 1 1 1 1 ",
"1 1 1 1 1 3 ' u.K V V ( 1.6.f.g.j.M.l.x.P.e.X.2   1 1 1 1 1 1 1 1 1 1 1 1 1 ",
"  1 1 1 2 p i.A G P 0.3.q.z.f.g.M.M.E.^.U.U.g.p.$.#.8   1 1 1 1 1 1 1 1 1 1 ",
"1 1 1 1 y y.S m Y U b x G r.x.Y.M.W.U.^.Y F 4.E.m.m.F.p 1 1 1 1 1 1 1 1 1 1 ",
"1 1 1 6 s.D N C P  .j + + J P.l.T.Y.^.>.o + J :X;Xi.v.%X.X1 1 1 1 1 1 1 1 1 ",
"1 1 1 =.>.C N ^ :X8XT o h F I.T.T.R.^.k o F F >Xt %X8.V.3X1 1 1 1 1 1 1 1 1 ",
"1 1 6 !.L m B Y.2 5XT g h I E.M.M.Q.(.I o k b /.wX&XN.v.|.2X1 1 1 1 1 1 1 1 ",
"1 1 ' 8.m C R @X<Xk.j h . L.].j.Q.T.XX~.j o O [ 9Xy !.7.N.#X1 1 1 1 1 1 1 1 ",
"1 1 F./ > A A @X5Xx.m x r.:XW.j.M.E.^.>X+XI.[.<X8 H.g.9.g.}.3 1 1 1 1 1 1 1 ",
"1 2 {.N : M W c.,XeX6X1XqX*Xx.j.M.I.U.OX9XrXrX] H.oXl.,.9.n.q 1 1 1 1 1 1 1 ",
"1 w |.< * Z ! ` ].5X`.qX=Xk.t.f.P.Y.M.M.'.#X%X#X).z.k.{ <.*.w 1 1 1 1 1 1 1 ",
"1 w _.> * Z ) ( ) ,.z.6.,.f.f.z.k.l.M.j.a.n.n.p.t.f.k.[ :.X.w 1 1 1 1 1 1 1 ",
"  7 )., - v ) { _ f.u.9.6.6.6.f.k.f.z.j.a.p.p.y.h.f.} G _ Q 8 1 1 1 1 1 1 1 ",
"1 1 B.M l l H w.OX4X7X3X@XY.6.6.w.z.f.9.u.i.u.u.d.5.~ G W r 1 1 1 1 1 1 1 1 ",
"1 1 -.A - & ~ oX%.1 1 1 t 0X@Xt.1.6.e.f.f.9.2.6.5.[ G G ^ e 1 1 1 1 1 1 1 1 ",
"1 1 i <.- - ) -X1 1 1 1 1 1 ,X@X2.1.4.e.w.q.q.w.( n l v _ 4 1 1 1 1 1 1 1 1 ",
"1 1 4 M.> * A @XH.1 1 1 1 1 .X XO.| 4.q.} q.q.( v v l V O.1 1 1 1 1 1 1 1 1 ",
"1 1 1 =.B * : * 1.oX&X$XOX).u.O.o.o.{ { 3.} H v & ; l > Q 1 1 1 1 1 1 1 1 1 ",
"1 1 1 7 Q.= * : V { ,._ _ / ^ _ _ o.:.{ ~ v & & l - : W 1 1 1 1 1 1 1 1 1 1 ",
"1 1 1 1 i O.= ^ ! Z c M A ^ ^ ( K H M ; - % & ; % * $ 1 1 1 1 1 1 1 1 1 1 1 ",
"1 1 1 1 1 #.2.D z * @ @ - ; z ; - z ; % % - - * #   1 1 1 1 1 1 1 1 1 1 1 1 ",
"1 1 1 1 1 1 i g.= * - z ; - ; - - - & - ; - * * 1 1 1 1 1 1 1 1 1 1 1 1 1 1 ",
"1 1 1 1 1 1 1 w M.D # @ @ - - & ; - - - * X   1 1 1 1 1 1 1 1 1 1 1 1 1 1 1 ",
"1 1 1 1 1 1 1 1 1 i 9.C : - - - * * *   1 1 1 1 1 1 1 1 1 1 1 1 1 1 1 1 1 1 ",
"1 1 1 1 1 1 1 1 1 1 1     1 1 1 1 1 1 1 1 1 1 1 1 1 1 1 1 1 1 1 1 1 1 1 1 1 ",
"1 1 1 1 1 1 1 1 1 1 1 1 1 1 1 1 1 1 1 1 1 1 1 1 1 1 1 1 1 1 1 1 1 1 1 1 1 1 ",
"1 1 1 1 1 1 1 1 1 1 1 1 1 1 1 1 1 1 1 1 1 1 1 1 1 1 1 1 1 1 1 1 1 1 1 1 1 1 "
};
