/* XPM */
static char *dc95a1100b5b4360de64608dacf2d3aeXFMzLtpx5tSKVcCG[] = {
/* columns rows colors chars-per-pixel */
"27 42 171 2 ",
"   c #010D23",
".  c #0C1228",
"X  c #101C28",
"o  c #16242F",
"O  c #19242E",
"+  c #142433",
"@  c #1A2633",
"#  c #152936",
"$  c #1D2935",
"%  c #152638",
"&  c #162939",
"*  c #1B2B3B",
"=  c #202834",
"-  c #212D3B",
";  c #25333E",
":  c #2A353E",
">  c #004000",
",  c #094609",
"<  c #0F4B10",
"1  c #124C14",
"2  c #185013",
"3  c #1D561C",
"4  c #255A1F",
"5  c #275B29",
"6  c #295C2C",
"7  c #2E5932",
"8  c #37563E",
"9  c #336229",
"0  c #2D6030",
"q  c #386837",
"w  c #1E2F41",
"e  c #263343",
"r  c #2A3543",
"t  c #2B3A46",
"y  c #273649",
"u  c #2E364B",
"i  c #2C3C4C",
"p  c #323B46",
"a  c #343D4C",
"s  c #2E3D52",
"d  c #373D53",
"f  c #384E47",
"g  c #33424E",
"h  c #3C434E",
"j  c #37484F",
"k  c #334354",
"l  c #3B4554",
"z  c #364852",
"x  c #3A4A56",
"c  c #364459",
"v  c #3B465A",
"b  c #3B4B5B",
"n  c #3E4D60",
"m  c #3E5262",
"M  c #444A4A",
"N  c #434C54",
"B  c #414C5C",
"V  c #4A5555",
"C  c #42525E",
"Z  c #4B545E",
"A  c #505A5A",
"S  c #416947",
"D  c #466D4C",
"F  c #577A47",
"G  c #4B6856",
"H  c #4E7355",
"J  c #4F7955",
"K  c #4F705A",
"L  c #53745A",
"P  c #507858",
"I  c #7D7256",
"U  c #444E62",
"Y  c #435263",
"T  c #4A5564",
"R  c #4E5A65",
"E  c #4C5769",
"W  c #4D5B6B",
"Q  c #535D65",
"!  c #5A5F65",
"~  c #51576D",
"^  c #525D6C",
"/  c #585F6F",
"(  c #555E72",
")  c #4F616E",
"_  c #566764",
"`  c #55646D",
"'  c #5B646E",
"]  c #5A7763",
"[  c #566373",
"{  c #5B6474",
"}  c #5B6974",
"|  c #5B6679",
" . c #5D6A7A",
".. c #617D69",
"X. c #606775",
"o. c #626A77",
"O. c #646C7B",
"+. c #657A71",
"@. c #62717C",
"#. c #6A727D",
"$. c #66797A",
"%. c #6C8859",
"&. c #6E8D65",
"*. c #7E9064",
"=. c #6B8976",
"-. c #81945F",
";. c #969F7D",
":. c #AC9E6F",
">. c #8FA37E",
",. c #666E81",
"<. c #617284",
"1. c #6A7484",
"2. c #6E7689",
"3. c #6E7A89",
"4. c #737C8C",
"5. c #777F94",
"6. c #787F91",
"7. c #7B8F87",
"8. c #768389",
"9. c #79818A",
"0. c #778695",
"q. c #7B8393",
"w. c #7A8499",
"e. c #7E8AA0",
"r. c #808691",
"t. c #818A95",
"y. c #838B9B",
"u. c #888B9A",
"i. c #8EAA93",
"p. c #95B09C",
"a. c #A8A387",
"s. c #8C92A2",
"d. c #8F9CAF",
"f. c #989EAA",
"g. c #9EB0BC",
"h. c #A4ADBA",
"j. c #A4B0B7",
"k. c #ADB5BD",
"l. c #B0B7BF",
"z. c #D3BB8D",
"x. c #CABF9F",
"c. c #C0BFA0",
"v. c #D6BEA6",
"b. c #D7C68E",
"n. c #D9C389",
"m. c #D4C491",
"M. c #E3CE97",
"N. c #E1CF9F",
"B. c #E5D19F",
"V. c #E8D59A",
"C. c #D9CAA1",
"Z. c #D3D2A6",
"A. c #D2C5B3",
"S. c #E4D4BB",
"D. c #ABBAC6",
"F. c #ACB7CC",
"G. c #B2BBC8",
"H. c #B7BFD4",
"J. c #BBC3CA",
"K. c #BCC9D7",
"L. c #C4CCD5",
"P. c #FFF1DD",
"I. c #C6D4E3",
"U. c #CED6E8",
"Y. c #D0D7E1",
"T. c #D5DFE8",
"R. c #D7E2F4",
"E. c #DFE7FC",
"W. c #E5F7FF",
"Q. c #ECF5FE",
"!. c #F1FBFF",
/* pixels */
"> > > > > > > > > > > > > > > > > > > > > > > > > > > ",
"> > > > > > > > > > > > > > > > > > > > > > > > > > > ",
"> > > > > > > > > > > > > > > > > > > > > > > > > > > ",
"> > > > >.P.S.> > > > > > > > > > > > > > > > > > > > ",
"> > > q C.N.B.Z.c.3 > > > > > > > > > > > > > > > > > ",
"> > > x.m.V.n.z.v.A.&.> > > > > > > > > > > > > > > > ",
"> > > I :.b.M.> *.a.;.F > > > > > > > > > > > > > > > ",
"> > > > 2 9 -.> > > 9 %.4 > > > > > > > > > > > > > > ",
"> > > > > > > > > > > > F > > > > > > > > > > > > > > ",
"> > > > > > > > > > > > > > > > > > > > > > > > > > > ",
"> > > > > > > > > > > > > > > > > > > > > > > > > > > ",
"> > > > > > > > > > > > > > > > > > > > > > > > > > > ",
"> > > > > > > > > > > > > > > > > > > > > > > > > > > ",
"> > > > > > > > > > > > > > > > > > > > > > > > > > > ",
"> > > > > > > > > > > > Z h M 8 > > > > > > > > > > > ",
"> > > > > > > > > > > 3.5.w.9.9.L > > > > > > > > > > ",
"> > > > > > > > > $.^ T U U ~ ^ o.#.G > > > > > > > > ",
"> > > > > > > $.j : : t t v v T T R ' #.] > > > > > > ",
"> > > > > > ` g 0.8.z C ` [ { O.} o.u.T.J.+.> > > > > ",
"> > > > > Q r g.W.I.@.W W [ 1. .1.1.t.L.Q.k.7 > > > > ",
"> > > > G r b I.D. .C )  .@. .1.3.2.O.#.k.h.! > > > > ",
"> > > D a * c <.Y Y ) ) @.4.1.3.2.6.w.q.O.' ! A > > > ",
"> > > R - * k b m W E } 3.q.4.1.4.2.y.6.4.4.X.Q > > > ",
"> > ..p @ v c n k Y d.D.1.#.#.#.2.~ ~ ,.q.4.O.T V > > ",
"> > #.= e U 0.s   w.!.G.{ o.o.#.s.d . y.U.U.4.N Z 7 > ",
"> 5 N r r u F.e.U K.R.q.~ o.{ 1.2.w.1.E.!.I.T T l _ > ",
"> D h $ a B c d.F.F.q.T / o.X.O.O.4.F.H.h.{ [ T l ` 6 ",
"> H h = a x B T [ T Y ^ ^ ^ o.X.O.| ( W E (  .W l Z P ",
"> S p @ l U ( [ T Y Y T W ^ { } } ,. .| 1. .W b g B j.",
"> q a @ a [ { T Y x C T W W W { { ^ [ | ^ [ [ x i C G.",
"> , f $ B T B b b z b b C W ^ T ^ [ [ ^ [ W Y t e R K.",
"> > 8 ; $ x b b x x x b C B T W W b k Y W Y k ; r } =.",
"> > 8 : $ @ i c b n b v B B U E Y m b Y Y i * * t q.< ",
"> > 5 N - + % y s c v b U B v v b m m k * * w @ a G.> ",
"> > > 9.: @ + + % w y t k k k k i * * * * * + $ O.1 > ",
"> > > J.' : @ * % & % + + + + + % + % + * + X h P > > ",
"> > > i.l.Q @ $ + + + + + # & # % + % + o O N H > > > ",
"> > > > p.k.@.r $ + + # # % % + % + $ @ O N 7.> > > > ",
"> > > > > 3 Y.t.B r @ + + + + % + + $ p #.L.> > > > > ",
"> > > > > > > J h.9.R l r ; e ; p B o.f.0 > > > > > > ",
"> > > > > > > > > > 6 =.s.u.r.+.K 1 > > > > > > > > > ",
"> > > > > > > > > > > > > > > > > > > > > > > > > > > "
};
