/* XPM */
static char *enemy11736873562[] = {
/* columns rows colors chars-per-pixel */
"42 42 91 1 ",
"  c #040404",
". c #0B0C0B",
"X c #001200",
"o c #041C04",
"O c #151515",
"+ c #1A1B1A",
"@ c #032603",
"# c #022C02",
"$ c #0B2F0B",
"% c #033503",
"& c #013C01",
"* c #0C320C",
"= c #0C3B0C",
"- c #182018",
"; c #192F19",
": c #113411",
"> c #123D12",
", c #1E351E",
"< c #222222",
"1 c #202C20",
"2 c #2B2B2B",
"3 c #223622",
"4 c #283428",
"5 c #323232",
"6 c #3A3B3A",
"7 c #004000",
"8 c #094109",
"9 c #134213",
"0 c #194419",
"q c #1D4C1D",
"w c #264A26",
"e c #294729",
"r c #334733",
"t c #334A33",
"y c #3B463B",
"u c #305430",
"i c #3E5C3E",
"p c #454545",
"a c #4B4B4B",
"s c #425342",
"d c #435843",
"f c #4B564B",
"g c #545454",
"h c #545F54",
"j c #5A5B5A",
"k c #476147",
"l c #496249",
"z c #4B734B",
"x c #546554",
"c c #566C56",
"v c #596559",
"b c #5A6E5A",
"n c #557455",
"m c #616361",
"M c #6A6A6A",
"N c #647364",
"B c #757575",
"V c #7A7C7A",
"C c #738773",
"Z c #778C77",
"A c #7B847B",
"S c #7D8A7D",
"D c #828282",
"F c #8C8C8C",
"G c #879987",
"H c #8C918C",
"J c #8C9F8C",
"K c #919191",
"L c #919891",
"P c #9B9B9B",
"I c #9BA69B",
"U c #A3A3A3",
"Y c #ACACAC",
"T c #A7B4A7",
"R c #ACB1AC",
"E c #B2B2B2",
"W c #B5BFB5",
"Q c #BDBDBD",
"! c #BFCABF",
"~ c #C4C4C4",
"^ c #C6CDC6",
"/ c #CCCCCC",
"( c #D3D3D3",
") c #D5DBD5",
"_ c #DCDCDC",
"` c #DEE5DE",
"' c #E3E4E3",
"] c #E6EBE6",
"[ c #ECECEC",
"{ c #F4F4F4",
"} c #FDFDFD",
/* pixels */
"777777777777777777777777777777777777777777",
"777777777777777777777777777777777777777777",
"777777777777777777777777777777777777777777",
"777777777777777777777777777777777777777777",
"777777777777777777777777777777777777777777",
"777777777777777777777777777777777777777777",
"777777777777777777777777777777777777777777",
"77777777777777777^]{})Z7777777777777777777",
"777777777777777}}}}}}}{}J77777777777777777",
"7777777777777T{}}}{}}}}''C7777777777777777",
"777777777777n}}}{}}}{}}[PAu777777777777777",
"777777777777^}}}}{}}}}}}}H0777777777777777",
"777777777777/'}}}}}}}}{}{{i777777777777777",
"7777777777&>G^}}}}}}}}}}}}_%77777777777777",
"77777777777&c}}}}`/{}}}}{}{977777777777777",
"77777777777&T{~NSD)}}}(F(}{977777777777777",
"77777777777&LR%&&t`}{P*7%V(%77777777777777",
"777777777777eN77&7x}Q%777yD&77777777777777",
"777777777777>(=&7&V}E&7&&ED777777777777777",
"7777777777&&D{k==D[^'U3$B{D&77777777777777",
"77777777&77*'[~__}Q%h}'({{~$77777777777777",
"777777&rKa7*Q{{([{d7%~'U{}'p77&%&777777777",
"77777&s}}(*7:gv%H{rhj~Y%MB2&7B(_g&77777777",
"7777&&f{}}g7777&V}[{{}~%7&773'}}B&77777777",
"77777 M{}}~p&777j({}]{U%777$U}}{g@&7777777",
"7777@j[}}}}'D-7&%5mmag<7774E}}}}/2&7777777",
"7777XB}}{{]{}^j%&&7&7777&j_}{}}}}P.7777777",
"7777&&k~Fa<gD~[Y6%7777%jQ[[PjU_[~po7777777",
"7777777&7777@+j^'K;&%aE{~m:@7o22.@77777777",
"77777777777777&OM__PY[RpO&77&&777777777777",
"777777777%vB1$&#,P{}}[F6+2jPU2777777777777",
"777777777Z}}]UVQ[{Iwc'}{)'}}}U.77777777777",
"777777777T}}{}}{Z97778b{}}}}}~ 77777777777",
"7777777778W}}{!q77777778~}}}'gX77777777777",
"7777777777J}{I7777777777&/}}'<777777777777",
"7777777777z]'777777777777l{{YO777777777777",
"7777777777777777777777777&66+#777777777777",
"7777777777777777777777777&7777777777777777",
"777777777777777777777777777777777777777777",
"777777777777777777777777777777777777777777",
"777777777777777777777777777777777777777777",
"777777777777777777777777777777777777777777"
};
