/* XPM */
static char *enemy31736873562[] = {
/* columns rows colors chars-per-pixel */
"42 42 79 1 ",
"  c black",
". c gray5",
"X c #071007",
"o c #042404",
"O c #002800",
"+ c #013D01",
"@ c #083708",
"# c #0B3D0B",
"$ c #123D12",
"% c #282828",
"& c #373737",
"* c #004000",
"= c #0F400F",
"- c #144214",
"; c #134A13",
": c #1C461C",
"> c #1D4A1D",
", c #254625",
"< c #224922",
"1 c #2B4F2B",
"2 c #2E532E",
"3 c #2D5B2D",
"4 c #335533",
"5 c #365A36",
"6 c #3C5E3C",
"7 c #366536",
"8 c #415E41",
"9 c #436343",
"0 c #476B47",
"q c #4A654A",
"w c #4C6A4C",
"e c #536B53",
"r c #577157",
"t c #5D755D",
"y c #5D785D",
"u c #637B63",
"i c #6A7C6A",
"p c gray46",
"a c #668366",
"s c #6E896E",
"d c #728172",
"f c #728A72",
"g c #7E8D7E",
"h c #7E917E",
"j c #868686",
"k c #838C83",
"l c #829282",
"z c #879887",
"x c #8A9B8A",
"c c #979797",
"v c #909E90",
"b c #95A595",
"n c #97A997",
"m c #9FAD9F",
"M c #A6A6A6",
"N c #A2ACA2",
"B c #ADAFAD",
"V c #A5B2A5",
"C c #ABB5AB",
"Z c #AEB9AE",
"A c #B6B6B6",
"S c #B3BCB3",
"D c #BEBFBE",
"F c #BCC4BC",
"G c gray77",
"H c #C4CCC4",
"J c #C8CDC8",
"K c #CBD2CB",
"L c #D4D4D4",
"P c #D4DAD4",
"I c #DBDBDB",
"U c #DDE2DD",
"Y c #E2E3E2",
"T c #E3E9E3",
"R c #EBECEB",
"E c #EEF0EE",
"W c #F4F5F4",
"Q c #F7F8F7",
"! c #FDFDFD",
/* pixels */
"******************************************",
"******************************************",
"******************************************",
"******************************************",
"******************************************",
"******************************************",
"******************************************",
"*******0************************aS>*******",
"******Q!!**********************n!!F+******",
"*****:!!!6********************+Y!!Y#******",
"****+k!!!p*****fE!!!!!!Qn*****@L!!Qj@*****",
"***+c!!!!D+***J!!!!!!Q!!!Q7+**@I!!!!TM****",
"***C!!!!!W8+*z!!!!!Q!!!!JxG4+#A!!Q!!!L****",
"***U!!!YJWQw<Q!!!!!!!!!!!Gqi$N!!TLI!R4****",
"****mb****b9e!E!!!Q!!!!!!!Y,$SH6**********",
"************tR!!!!!!!!!!!!!V#-************",
"************6N!!!!!!!Q!!!!!!4*************",
"*************G!!!!LAQ!W!!!!Qw*************",
"*************WQzqidU!QQJumT!;*************",
"*************F4*++5UWQl@++<C**************",
"*************0-****r!x+***+u**************",
"************+7r****rQf*+**4z**************",
"*************VF#*+wPPPw+*=FV**************",
"*************QNClN!x@5QZsZQF+*************",
"*************!R!W!Q1*+ZQZL!Qe*************",
"*************2v8-FL@@@zm#yxq+*************",
"*************:>#+lEAYLYV+#<:,+************",
"************PEz**i!!!!!V+*nJPs@+**********",
"**********rY!K-**-wmbyh6+*-F!!TYRC********",
"********TQQ!I>****+++++****>YQ!!!!B*******",
"*******U!!!!x*****+********+b!!!!QA+******",
"*******bVQ!!a**************+g!Q!YM%O******",
"*********JQQf***************NQ!I&.o+******",
"*********3WE3***************B!!G.+*+******",
"**********7*****************,FLp *********",
"*****************************+oX+*********",
"********************************++********",
"******************************************",
"******************************************",
"******************************************",
"******************************************",
"******************************************"
};
