/* XPM */
static char *enemy21736873561[] = {
/* columns rows colors chars-per-pixel */
"42 42 86 1 ",
"  c #010201",
". c #000900",
"X c #0B0C0B",
"o c #031203",
"O c #011B01",
"+ c #0E1A0E",
"@ c #131413",
"# c #1C1C1C",
"$ c #012601",
"% c #022D02",
"& c #082508",
"* c #0C290C",
"= c #003400",
"- c #013D01",
"; c #0A3E0A",
": c #112211",
"> c #152D15",
", c #1D251D",
"< c #133813",
"1 c #232323",
"2 c #2B2B2B",
"3 c #2A372A",
"4 c #323232",
"5 c #3A3A3A",
"6 c #004000",
"7 c #0C420C",
"8 c #144314",
"9 c #124B12",
"0 c #1A461A",
"q c #1A481A",
"w c #244C24",
"e c #294F29",
"r c #2E582E",
"t c #364E36",
"y c #355935",
"u c #3C5B3C",
"i c #2C602C",
"p c #356735",
"a c #454545",
"s c #4D4D4D",
"d c #4F5E4F",
"f c #555555",
"g c #5B5B5B",
"h c #466546",
"j c #4B6A4B",
"k c #526F52",
"l c #567156",
"z c #587358",
"x c #5E7B5E",
"c c #636363",
"v c #637C63",
"b c #727272",
"n c #7C7C7C",
"m c #698069",
"M c #698F69",
"N c #7B8B7B",
"B c #848484",
"V c #8B8C8B",
"C c #839783",
"Z c #879987",
"A c #939393",
"S c #919F91",
"D c #9A9A9A",
"F c #96A396",
"G c #9AA79A",
"H c #9BAB9B",
"J c #A4A5A4",
"K c #ACACAC",
"L c #A7B2A7",
"P c #B3BCB3",
"I c #BBBBBB",
"U c #B3C3B3",
"Y c #BCCBBC",
"T c #C4C4C4",
"R c #C5CCC5",
"E c #CBCBCB",
"W c #CAD4CA",
"Q c #D3D3D3",
"! c #DBDCDB",
"~ c #DEE1DE",
"^ c #E4E4E4",
"/ c #E5E9E5",
"( c #ECEDEC",
") c #EEF0EE",
"_ c #F4F4F4",
"` c #FDFDFD",
/* pixels */
"666666666666666666666666666666666666666666",
"666666666666666666666666666666666666666666",
"666666666666666666666666666666666666666666",
"666666666666666666666-6-666666666666666666",
"666666666666666669mTQTDc1X-666666666666666",
"6666666666666666_``````_^B1%66666666666666",
"66666666666666M_````````_`I#=6666666666666",
"66666666666666``````````(Q^G#6666666666666",
"6666666666666````````````EBJbO666666666666",
"666666666666p_````````````^gf:666666666666",
"666666666666W```_``_``_````!s 666666666666",
"666666666666HR``````_````_``I@666666666666",
"666666666666r(````__``````_`_a$66666666666",
"666666666666C`____FT`````````so66666666666",
"666666666666W(Zw0uN````!dnE_(s%66666666666",
"666666666666CC--66y/_`N-6-*BQ#666666666666",
"666666666666qj66666v_F66666cB.--6666666666",
"6666666666667L;-666v`F6666+InO666666666666",
"666666666666h`p-6-j/_(A@OXb`Bo666666666666",
"66666666666-~~mvyZ`EaA(QnA__A 666666666666",
"666666666668_)~_`_`c->Q_`)``_a666666666666",
"6666666666--zR/lm`E#=.V`cD_)K5666666666666",
"666666666666-;86;^EgAVI(5@g5o6666666666666",
"6666666666666666-^`_```_a66666666666666666",
"66666666666;e;66-I/_`^`^2-63c2--6666666666",
"6666666666-S`Z-66;tABcnf&6$T`K 66666666666",
"66666666-6;(`J-6666=%%$=66@E`!2=6666666666",
"66666666-8P``(d-6666666--,B_``Ta=666666666",
"666666666j```_`Le-66666#bQ`````b.--6666666",
"6666666666FUmvH~(Tj*$,nQ_^TDJ!I1-666666666",
"66666666666666=;wN!EK!EAs#X. 1X%6666666666",
"66666666666666--=tQ`!_Eg@66666--6666666666",
"66666666666hw67kU/Zq-wH_QB52cV<66666666666",
"6666666666x`_R/_H666666eP`_(``DO6666666666",
"66666666667```W666666666-l_`__nX6666666666",
"666666666669~Y66666666666-u_`I@-6666666666",
"666666666666Ui666666666666;(`VO66666666666",
"66666666666666666666666666=bV4%66666666666",
"666666666666666666666666666.XO666666666666",
"6666666666666666666666666666--666666666666",
"666666666666666666666666666666666666666666",
"666666666666666666666666666666666666666666"
};
