/* XPM */
static char *_daa0f276666497dcc262d1c9cdfce78KyMET9brcytGGLmj[] = {
/* columns rows colors chars-per-pixel */
"32 42 215 2 ",
"   c #01052F",
".  c #101A26",
"X  c #010535",
"o  c #030B33",
"O  c #06083D",
"+  c #060B3C",
"@  c #0B123E",
"#  c #0F212F",
"$  c #15222E",
"%  c #1B252D",
"&  c #152533",
"*  c #1A2633",
"=  c #1B2735",
"-  c #1C2934",
";  c #1C2A39",
":  c #1F3037",
">  c #222B34",
",  c #242D3C",
"<  c #273037",
"1  c #24323A",
"2  c #2B343C",
"3  c #30343D",
"4  c #004000",
"5  c #0A470A",
"6  c #174E18",
"7  c #1A5217",
"8  c #22581D",
"9  c #275B27",
"0  c #2A4037",
"q  c #2C612B",
"w  c #32632E",
"e  c #356638",
"r  c #446E3B",
"t  c #437038",
"y  c #090844",
"u  c #121543",
"i  c #171B43",
"p  c #192145",
"a  c #242A4A",
"s  c #243341",
"d  c #2A3542",
"f  c #273947",
"g  c #2D3A44",
"h  c #2C374E",
"j  c #2E3B4B",
"k  c #333C44",
"l  c #353B48",
"z  c #343D4B",
"x  c #2E3C51",
"c  c #373E52",
"v  c #323E58",
"b  c #373D65",
"n  c #394447",
"m  c #35424B",
"M  c #3B444D",
"N  c #3C4A4E",
"B  c #3B5E44",
"V  c #364255",
"C  c #3B4453",
"Z  c #3D4A54",
"A  c #3B445B",
"S  c #3E4A5A",
"D  c #3C6C40",
"F  c #3C4464",
"G  c #3E4768",
"H  c #3F4172",
"J  c #42484C",
"K  c #474B54",
"L  c #434C55",
"P  c #444E5B",
"I  c #445154",
"U  c #4B5255",
"Y  c #44525B",
"T  c #4B555B",
"R  c #51575D",
"E  c #417143",
"W  c #4B7445",
"Q  c #557949",
"!  c #4E6C55",
"~  c #516D5B",
"^  c #4D7B53",
"/  c #507058",
"(  c #434867",
")  c #484F6B",
"_  c #445264",
"`  c #4B5965",
"'  c #4E5A64",
"]  c #475369",
"[  c #4D556B",
"{  c #535C64",
"}  c #575C65",
"|  c #545E6B",
" . c #474A76",
".. c #535777",
"X. c #565D75",
"o. c #556565",
"O. c #5A6366",
"+. c #54616C",
"@. c #5B636D",
"#. c #5F7E68",
"$. c #546374",
"%. c #5C6473",
"&. c #576A73",
"*. c #5C6A75",
"=. c #57657B",
"-. c #5D657A",
";. c #5C6C7B",
":. c #61666A",
">. c #656C6E",
",. c #606774",
"<. c #646B74",
"1. c #61657D",
"2. c #656E7A",
"3. c #696C7B",
"4. c #657076",
"5. c #66727C",
"6. c #6B737C",
"7. c #737778",
"8. c #56815A",
"9. c #668354",
"0. c #5E8A67",
"q. c #66886A",
"w. c #698C6E",
"e. c #798F65",
"r. c #749067",
"t. c #76997B",
"y. c #909A77",
"u. c #A2A37F",
"i. c #494882",
"p. c #585A86",
"a. c #5D6884",
"s. c #656987",
"d. c #65658B",
"f. c #6C7582",
"g. c #687587",
"h. c #707784",
"j. c #747B85",
"k. c #797F86",
"l. c #777C8C",
"z. c #6B7592",
"x. c #757B97",
"c. c #7979AF",
"v. c #6E848F",
"b. c #778285",
"n. c #77828A",
"m. c #7C838B",
"M. c #798695",
"N. c #7D8994",
"B. c #7A839D",
"V. c #7F979B",
"C. c #7FA082",
"Z. c #82888D",
"A. c #8C928E",
"S. c #838C95",
"D. c #858D99",
"F. c #8A9394",
"G. c #879099",
"H. c #8D939B",
"J. c #87A589",
"K. c #9EA580",
"L. c #8EA895",
"P. c #94AE97",
"I. c #90B095",
"U. c #AEB08E",
"Y. c #AEAB9C",
"T. c #BAB99E",
"R. c #848BA7",
"E. c #8894A6",
"W. c #959BA8",
"Q. c #888DB5",
"!. c #9BA5A5",
"~. c #9EA3A9",
"^. c #9AB9A1",
"/. c #94A5B1",
"(. c #9BA4B1",
"). c #9BA9B4",
"_. c #9FB0BA",
"`. c #A4ABAE",
"'. c #ADAEA9",
"]. c #A4AAB2",
"[. c #ACB4BB",
"{. c #B0B5BB",
"}. c #B1BBBC",
"|. c #C5BBA5",
" X c #B3C9BD",
".X c #B9C8BF",
"XX c #9E9DC9",
"oX c #A6B9C5",
"OX c #B7C6CA",
"+X c #B8CCDC",
"@X c #BDD6DD",
"#X c #BCC5E4",
"$X c #C3C7CC",
"%X c #CCD4D3",
"&X c #C8D5D7",
"*X c #C5DAD6",
"=X c #CED5DE",
"-X c #E7DFC8",
";X c #CDD5E5",
":X c #C1DAE4",
">X c #CFD6FF",
",X c #D7DCFF",
"<X c #D7E6E9",
"1X c #DAE6ED",
"2X c #D2E9F4",
"3X c #DEEFFD",
"4X c #D5F2FA",
"5X c #E4E9EA",
"6X c #E2EBFE",
"7X c #E3F5FD",
"8X c #E9F7FA",
"9X c #EBF5FE",
"0X c #E4F9FF",
"qX c #F3FBFF",
"wX c #F9FFFF",
/* pixels */
"4 4 4 4 4 4 t Q 8 4 4 4 4 4 4 4 4 4 4 4 4 4 4 4 4 4 4 4 4 4 4 4 ",
"4 4 4 4 4 r K.u.9.W 9 4 4 4 4 4 4 4 4 4 4 4 4 4 4 4 4 4 4 4 4 4 ",
"4 4 4 4 4 w Q W W Q 9.Q 5 4 4 4 4 4 4 4 4 4 4 4 4 4 4 4 4 4 4 4 ",
"4 4 4 4 4 4 4 4 4 4 8 e.y.9 4 4 4 4 4 4 4 4 4 4 4 4 4 4 4 4 4 4 ",
"4 4 4 4 4 4 4 4 4 4 4 5 e.y.8 4 4 4 4 4 4 4 4 4 4 4 4 4 4 4 4 4 ",
"4 4 4 4 4 4 4 4 4 4 4 4 5 T.U.7 4 4 4 4 4 4 4 4 4 4 4 4 4 4 4 4 ",
"4 4 4 4 4 4 4 4 4 4 4 4 4 r.|.-X4 4 4 4 4 4 4 4 4 4 4 4 4 4 4 4 ",
"4 4 4 4 4 4 4 4 4 4 4 4 4 q |.Y.5XE 4 4 4 4 4 4 4 4 4 4 4 4 4 4 ",
"4 4 4 4 4 4 4 4 4 4 4 4 J.'.7.U O.W..X4 4 4 4 4 4 4 4 4 4 4 4 4 ",
"4 4 4 4 4 4 4 4 4 4 4 t.A.J L T } <.{. X5 4 4 4 4 4 4 4 4 4 4 4 ",
"4 4 4 4 4 4 4 4 4 4 I.}.b.n.N.D.H.W.W.!.w.t.%X4 4 4 4 4 4 4 4 4 ",
"4 4 4 4 4 4 4 4 8.&X[.S.5.;.;.&.@.,.h.m.S.].D &Xt.4 4 4 4 4 4 4 ",
"4 4 4 4 4 4 4 ^.<X1X3X+Xa.j g N L L T T n.&X7X1X X9X4 4 4 4 4 4 ",
"4 4 4 4 4 4 t.*X7X0X7X3XR.V Y Y { { { @.).3X7X0X0X0.*X4 4 4 4 4 ",
"4 4 4 4 4 8.V.:X4X4X@XE.+.' %.*.,.2.f.&.;./.:X2X2X2X5 ^ 4 4 4 4 ",
"4 4 4 4 ^ o.v.+XoXM._ Z Y +.%.,.2.2.4.j.g.` &.V.OXOX_.t.4 4 4 4 ",
"4 4 4 q ~ N g m f s Y ` ' +.%.2.,.6.f.n.6.n.2.L z | f.(.OX4 4 4 ",
"4 4 4 #.U > > % j ] ] ` +.*.+.2.6.6.f.f.M.l.6.j.@.C %.l.=X4 4 4 ",
"4 4 W O.3 < k P z.R.R.z.| +.-.%.2.6.l.B.R.W.E.M.h.@.| ,.~.t.4 4 ",
"4 4 q.J 2 2 m W.#Xb p F g.$.-.f.2.f.z.x.( i ..;XD.2.' O.k.5X4 4 ",
"4 8.>.l > k f.9X6XH O o [ s.-.%.6.f.x. .  X d.qX6X5.{ U >.$X4 4 ",
"4 $XR 2 > L oX9X>Xb X X a =.1.2.,.f.s.u y y H ,X6XW.O.U } `.4 4 ",
"4 `.K 2 2 T (.B. .O O p...X.%.,.<.3.s.p.i.y O b x.W.T T R F.9 4 ",
"w W.M > n @./.X.o O u Q.E.X.| ,.:.6.1.XXc.O X   =.E.' Z T m.w.4 ",
"J.G.M d T +.+.R.b @ u b [ ' %.} :.<.1.d.b u i G E.;.| C L j.P.4 ",
"I.S.P z T ' L [ z.a.p.[ | { T O.:.} 3.s.s.d.z.B.g.=.] A Z j.I.4 ",
"8.H.| C Z P Z A A ( ) _ 6.`.Z.7.b.~.(.1.-.-.;.$.=.$.F V V j.w 4 ",
"4 ].@.V , g S _ S F A L O.5XwXqX8XwX].%.%.%.*.$.&._ v x c Z.4 4 ",
"4 $X@.z * - z S _ S C I T OXqXqXwX1Xj.| | ' ' +._ x h h z ~.4 4 ",
"4 <X3.l = * , g C Z L N n <.OX9X;XG.{ ' | +.' Z g f s d C L.4 4 ",
"4 q.H.c , * * - d m N N I n [ %.| L ' ` P Z m 1 1 s ; s 2.5 4 4 ",
"4 4 $X{ g * * * $ - - 1 2 m C c C Z z j j s 1 ; : > - g ].4 4 4 ",
"4 4 5XS.M 2 . - = & & = & & = & * ; * * ; ; * * * - > @.6 4 4 4 ",
"4 4 4 =X<.2 1 $ & & & & # & ; ; & ; ; & & & & * * % J q.4 4 4 4 ",
"4 4 4 E {.} g > * & = = & & & $ ; & & * ; * $ - % k F.4 4 4 4 4 ",
"4 4 4 4 C.}.{ g > * & * * * = * & ; - $ $ * - > M / 4 4 4 4 4 4 ",
"4 4 4 4 4 w.}.5.M 1 * - * $ $ * * * * > > * 2 L e 4 4 4 4 4 4 4 ",
"4 4 4 4 4 4 4 =XN.| k 1 > - > - * * * > > 0 9 4 4 4 4 4 4 4 4 4 ",
"4 4 4 4 4 4 4 4 e [.n.{ Z n k 2 2 z C T B 4 4 4 4 4 4 4 4 4 4 4 ",
"4 4 4 4 4 4 4 4 4 4 4 4 ! m.j.6.o.B 6 4 4 4 4 4 4 4 4 4 4 4 4 4 ",
"4 4 4 4 4 4 4 4 4 4 4 4 4 4 4 4 4 4 4 4 4 4 4 4 4 4 4 4 4 4 4 4 ",
"4 4 4 4 4 4 4 4 4 4 4 4 4 4 4 4 4 4 4 4 4 4 4 4 4 4 4 4 4 4 4 4 "
};
