/* XPM */
static char *_76b8c0338284e32f03c122b01077981F67wiVxtmBpA4SLF[] = {
/* columns rows colors chars-per-pixel */
"29 42 217 2 ",
"   c #073E0B",
".  c #141E28",
"X  c #15222E",
"o  c #19232E",
"O  c #192C29",
"+  c #183226",
"@  c #162633",
"#  c #1B2632",
"$  c #172937",
"%  c #1C2A34",
"&  c #1C2D3A",
"*  c #17313E",
"=  c #19333D",
"-  c #222637",
";  c #242A36",
":  c #222D3A",
">  c #2B2C3C",
",  c #24313D",
"<  c #2A333C",
"1  c #363B3C",
"2  c #590104",
"3  c #440F19",
"4  c #531113",
"5  c #62020D",
"6  c #720100",
"7  c #7B0C17",
"8  c #501A22",
"9  c #621922",
"0  c #57282D",
"q  c #4D2C32",
"w  c #772127",
"e  c #78373E",
"r  c #004000",
"t  c #0B490B",
"y  c #144C16",
"u  c #165016",
"i  c #1A531B",
"p  c #23412E",
"a  c #265C25",
"s  c #354E36",
"d  c #2D622F",
"f  c #366736",
"g  c #43713D",
"h  c #1E3241",
"j  c #1B3742",
"k  c #292E41",
"l  c #243543",
"z  c #2B3444",
"x  c #243B46",
"c  c #2D3945",
"v  c #283548",
"b  c #263B49",
"n  c #2B3C4B",
"m  c #363B47",
"M  c #333C4C",
"N  c #6C3D47",
"B  c #384247",
"V  c #32414E",
"C  c #2A4650",
"Z  c #334352",
"A  c #3B4454",
"S  c #3A4C55",
"D  c #3B475A",
"F  c #3E4C59",
"G  c #4C4145",
"H  c #464D54",
"J  c #424559",
"K  c #454A5C",
"L  c #4A4C58",
"P  c #514C53",
"I  c #465457",
"U  c #43535C",
"Y  c #4C555D",
"T  c #50555C",
"R  c #58585D",
"E  c #78484A",
"W  c #6B4F55",
"Q  c #73575B",
"!  c #497549",
"~  c #517A56",
"^  c #4D4B61",
"/  c #465461",
"(  c #4C5462",
")  c #445E62",
"_  c #4D5B65",
"`  c #4C5B69",
"'  c #535A65",
"]  c #555866",
"[  c #555C6A",
"{  c #5B5B6D",
"}  c #5A5D71",
"|  c #675A63",
" . c #615C6C",
".. c #725C63",
"X. c #625C71",
"o. c #4F6467",
"O. c #55616C",
"+. c #5B626C",
"@. c #5A6B6A",
"#. c #5C716C",
"$. c #5D6273",
"%. c #5B6972",
"&. c #5B6B78",
"*. c #676667",
"=. c #626473",
"-. c #686577",
";. c #656A75",
":. c #6C6D75",
">. c #646C7A",
",. c #6C6C7D",
"<. c #706F7D",
"1. c #7B6F79",
"2. c #667475",
"3. c #6C727C",
"4. c #68757D",
"5. c #74737C",
"6. c #77787E",
"7. c #8D000D",
"8. c #950509",
"9. c #96090F",
"0. c #9E100F",
"q. c #800812",
"w. c #900313",
"e. c #851112",
"r. c #831523",
"t. c #A01D2F",
"y. c #8F2D33",
"u. c #B5242D",
"i. c #C93B47",
"p. c #D53F41",
"a. c #AD4851",
"s. c #BE4B52",
"d. c #81625F",
"f. c #85656D",
"g. c #826D77",
"h. c #806F79",
"j. c #837477",
"k. c #AA7276",
"l. c #F2626B",
"z. c #59814B",
"x. c #56815C",
"c. c #6D8D5D",
"v. c #68896A",
"b. c #6E8679",
"n. c #758A75",
"m. c #759378",
"M. c #819A69",
"N. c #849775",
"B. c #95A87A",
"V. c #6D6D82",
"C. c #667681",
"Z. c #6E7185",
"A. c #737383",
"S. c #7B7585",
"D. c #747B83",
"F. c #7A7E84",
"G. c #76758A",
"H. c #7A7689",
"J. c #757D8A",
"K. c #7C7A8B",
"L. c #7F7D92",
"P. c #847C8D",
"I. c #857D92",
"U. c #728186",
"Y. c #7C8B83",
"T. c #76828A",
"R. c #7C828C",
"E. c #7A9881",
"W. c #7E8792",
"Q. c #7A8992",
"!. c #85848E",
"~. c #828A8A",
"^. c #8C888D",
"/. c #829A89",
"(. c #868A94",
"). c #898B91",
"_. c #888C9B",
"`. c #8B929B",
"'. c #89959A",
"]. c #94939C",
"[. c #A28589",
"{. c #90AC94",
"}. c #A2AF82",
"|. c #ACB890",
" X c #889BA2",
".X c #9A98A4",
"XX c #9EA8AC",
"oX c #9BAFAF",
"OX c #A1A3A0",
"+X c #A3A9AF",
"@X c #B4A4A4",
"#X c #A1BAAB",
"$X c #A9AAB5",
"%X c #ADBAB7",
"&X c #B0B4B7",
"*X c #D39299",
"=X c #CEB3B1",
"-X c #B0C5B8",
";X c #CBC69E",
":X c #C7C4A6",
">X c #D2CFA9",
",X c #CECDB1",
"<X c #CECEB7",
"1X c #ACB5C4",
"2X c #B8BDC0",
"3X c #B6C9C6",
"4X c #C6C6CF",
"5X c #CFD0CC",
"6X c #C5D0D2",
"7X c #D3D7DC",
"8X c #EFCDCC",
"9X c #E7E2CC",
"0X c #F0F0D4",
"qX c #D3DEE4",
"wX c #DCE5EA",
"eX c #D5E7F1",
"rX c #ECEBEF",
/* pixels */
"r r r r r r r r r z.0Xr r r r r r r r r r r r r r r r r r ",
"r r r r r r r r 0X:X:Xf r r r r r r r r r r r r r r r r r ",
"r r r r r r r ! 9X,X|.r r r r r r r r r r r r r r r r r r ",
"r r r r r r r 9X<X<Xr r r r r r r r r r r r r r r r r r r ",
"r r r r r r g =X5Xr r r r r r r r r r r r r r r r r r r r ",
"r r r r r r c.:Xa r r r r r r r r r r r r r r r r r r r r ",
"r r r r r r B.>Xr r r r r r r r r r r r r r r r r r r r r ",
"r r r r r r ;X}.r r r r r r r r r r r r r r r r r r r r r ",
"r r r r r r |.c.r r r r r r r r r r r r r r r r r r r r r ",
"r r r r r r M.~ r r r r r r r r r r r r r r r r r r r r r ",
"r r r r r r N.c.r r r r r r r r r r r r r r r r r r r r r ",
"r r r r r t m.N.n.n.f r r r r r r r r r r r r r r r r r r ",
"r r r r t v.*.s 1 T ~.n.m.m.v.! d i r r r r r r r r r r r ",
"r r r r E.' 1 Y ~.~.`..X_.(.).).].$X~ t r r r r r r r r r ",
"r r r r $X( J._.6.2.+.[ $.V.F.F.(.R.(.+X! r r r r r r r r ",
"r r r u 6X1X_.O.Y Y ' ;.Z.A.D.R.R.`.(.F.).&X! r r r r r r ",
"r r r 3X#XeX%.K K =.;.3.D.3.U.T.R.W.>.Y :.6..Xv.r r r r r ",
"r r -X3XeXQ.S K -.V.,.5.6.F.T.T.W.J.+.,.S.P.S.!.%Xr r r r ",
"r r oXoX XV S / D ^ X.S.5.A.G.L.R.R.<.P.S.H.<.3.'.wXr r r ",
"r {.b.V , l S S A J L  .<.K.K.H.H.!.H.K.I.H.3.4.U.oXrXr r ",
"r /.$.- # A U S ` >.-.=.3.3.G.K.K.K.K.H.G.A.Z.C.C.4.%X/.r ",
"i Y.^ z M M _ U &.>.-.=.:.:.,.S.1.1.]..XG.A.V.} ` %.D.7Xr ",
"#X5.A v n c [ _ O.$.=.P G j.h.g.f.Q ^._.<.A.V.] K O.%.+Xm.",
"qXO.n l l V _ [ $.;.-.q q =Xk.0 8 3 ..*.3.,.,.{ K A +.R.rX",
"3XU l h b x ( $.$. ...q 4 y.w 2 5 9 Q *.2.>.=. .J J L A.4X",
"3XI , & j x F } [ X.| 8 2 6 6 e.q.w d.*.#.%.,.^ A A A =.$X",
"&XH > : = x M [ { { | 0 7 9.0.8.w.r.E *.#.o.%.( A Z V [ .X",
"2XH ; : = j z K } { | 0 7 u.p.8.7.r.E *.@.@.[ Z n n n _ `.",
"6XH % & = = l M / ] | N r.i.l.u.t.7 e W *.O.( M n x x )  X",
"wXO.: $ = & , z D ` ' W w y.s.a.a.*X=X..{ ( F v n x x ) oX",
"x.W.c $ % % ; : j C U R E e k.*X8XrX=X| [ F n v z > c +./.",
"r +XA # # ; - : * j C Y h.f.[.@XOX6.R T F n b l k > m ,.u ",
"r wX=.; # X : $ & & b U ' T L I Y U U Z x l l & , # H Y.r ",
"r a XXB # o # $ $ v Z n l l l x v x l h h , , : : < ;.r r ",
"r r rX3.< # X @ l Z Z = & & & & & l & & & & @ % ; I u r r ",
"r r r 7X+.< % , V V l @ $ & $ $ $ & & @ & % % , B y r r r ",
"r r r r 4X' c m V c & X @ X o % # $ $ $ $ X # p r r r r r ",
"r r r r r f R.' z % o X # # # # # X X # o + r r r r r r r ",
"r r r r r r r d Y c # # # # # . # o O   r r r r r r r r r ",
"r r r r r r r r r r r r r r   r r r r r r r r r r r r r r ",
"r r r r r r r r r r r r r r r r r r r r r r r r r r r r r ",
"r r r r r r r r r r r r r r r r r r r r r r r r r r r r r "
};
