/* XPM */
static char *enemy01736874407[] = {
/* columns rows colors chars-per-pixel */
"42 42 126 2 ",
"   c #1C1D15",
".  c #23241E",
"X  c #242422",
"o  c #2D2E28",
"O  c #31322D",
"+  c #363731",
"@  c #373833",
"#  c #3B3C37",
"$  c #3F3F3D",
"%  c #004000",
"&  c #094709",
"*  c #0D490D",
"=  c #144E13",
"-  c #175117",
";  c #1B531B",
":  c #20571F",
">  c #225422",
",  c #255A25",
"<  c #2B5E2B",
"1  c #3F403B",
"2  c #365C36",
"3  c #2D612D",
"4  c #346434",
"5  c #376837",
"6  c #3C653C",
"7  c #3A6939",
"8  c #42433B",
"9  c #406C3F",
"0  c #4A4B44",
"q  c #4F4F4D",
"w  c #4D574D",
"e  c #4C5C4C",
"r  c #51564E",
"t  c #525350",
"y  c #565B54",
"u  c #5C5D57",
"i  c #5B5E5A",
"p  c #456345",
"a  c #446C44",
"s  c #4C6B4C",
"d  c #457144",
"f  c #4C734C",
"g  c #596157",
"h  c #536952",
"j  c #5F625B",
"k  c #596959",
"l  c #567455",
"z  c #537B52",
"x  c #5C715C",
"c  c #597B59",
"v  c #62695F",
"b  c #607C5F",
"n  c gray40",
"m  c #636D62",
"M  c #6B6E6A",
"N  c #647363",
"B  c #6B7367",
"V  c #647D63",
"C  c #687B67",
"Z  c #6D746B",
"A  c #6B7C6A",
"S  c #72746E",
"D  c #717A6E",
"F  c #747572",
"G  c #747A72",
"H  c #797A77",
"J  c #7C7E7B",
"K  c #60825E",
"L  c #658364",
"P  c #688567",
"I  c #678B65",
"U  c #688A66",
"Y  c #6B826A",
"T  c #71836F",
"R  c #748770",
"E  c #788176",
"W  c #7E807A",
"Q  c #7A8A79",
"!  c #7B997A",
"~  c #83857F",
"^  c #848681",
"/  c #878A85",
"(  c #898B85",
")  c #8B8C8A",
"_  c #859F84",
"`  c #8F908B",
"'  c #8D9B8D",
"]  c #92948E",
"[  c #969791",
"{  c #999A94",
"}  c #9D9E99",
"|  c #93AA92",
" . c #9FA09F",
".. c #A1A19D",
"X. c #A5A6A3",
"o. c #A7A8A0",
"O. c #A9AAA4",
"+. c #ADAEA9",
"@. c #A5B8A3",
"#. c #AFBCAE",
"$. c #B2B3AD",
"%. c #B5B6B2",
"&. c #B6B9B3",
"*. c #BABBB5",
"=. c #BDBEBA",
"-. c #BCC2BA",
";. c #C2C3BE",
":. c #C5C6C2",
">. c #C6C8C3",
",. c #CACBC5",
"<. c #CDCFCC",
"1. c #D3D4CE",
"2. c #D5D5D2",
"3. c #D7D8D3",
"4. c #D9DAD6",
"5. c #DDDED8",
"6. c #DFE0D8",
"7. c #E2E3DD",
"8. c #E5E5E1",
"9. c #EAEBE5",
"0. c #EDEEE9",
"q. c #F2F3ED",
"w. c #F5F6F1",
"e. c #F7F8F1",
"r. c #FAFBF6",
"t. c #FDFEF9",
/* pixels */
"% % % % % % % % % % % % % % % % % % % % % % % % % % % % % % % % % % % % % % % % % % ",
"% % % % % % % % % % % % % % % % % % % % % % % % % % % % % % % % % % % % % % % % % % ",
"% % % % % % % % % % % % % % % % % % % % % % % % % % % % % % % % % % % % % % % % % % ",
"% % % % % % % % % % % % % % % % % % % % % % % % % % % % % % % % % % % % % % % % % % ",
"% % % % % % % % % % % % % % % % % % % % % % % % % % % % % % % % % % % % % % % % % % ",
"% % % % % % % % % % % % % % % % % % % % % % % % % % % % % % % % % % % % % % % % % % ",
"% % % % % % % % % % % % % % % % % % % % % % % % % % % % % % % % % % % % % % % % % % ",
"% % % % % % % % % % % % % % % % % % % % % % % % % % % % % % % % % % % % % % % % % % ",
"% % % % % % % % % % % % % % % % % % % % % % % % % % % % % % % % % % % % % % % % % % ",
"% % % % % % % % % % % % % % % % % % % > 2 6 p 6 < & % % % % % % % % % % % % % % % % ",
"% % % % % % % % % % % % % % % % > p p f V Q / H M N a % % % % % % % % % % % % % % % ",
"% % % % % % % % % % % % % % % p h l c ! _ | @.#.&.( j N : % % % % % % % % % % % % % ",
"% % % % % % % % % % % % % % e x d U 0.r.t.r.w.r.w.0.*.Z N z * % % % % % % % % % % % ",
"% % % % % % % % % % % % % s C f I q.w.0.0.e.t.r.r.w.w.>.W Y 5 & % % % % % % % % % % ",
"% % % % % % % % % % % % 6 m L ! 5.9.q.r.r.r.e.e.r.t.e.0.$.B K - % % % % % % % % % % ",
"% % % % % % % % % % % < m ' | -.0.9.0.q.w.r.t.t.r.q.r.e.9.~ R 3 % % % % % % % % % % ",
"% % % % % % % % % % - p J :.:.2.q.0.q.q.e.q.e.e.e.e.e.7.9.$.D d & % % % % % % % % % ",
"% % % % % % % % % & , N ) <.X.<.8.8.e.q.e.9.e.e.0.7.7.$.3.;.A K * % % % % % % % % % ",
"% % % % % % % % % & 7 w  .<. . ...{ *.7.e.e.7.+.] [ $.;.7.;.D z * % % % % % % % % % ",
"% % % % % % % % % & a w ) :.+.q o . 0 *.q.q...8 + 8 v ;.e.;.G z * % % % % % % % % % ",
"% % % % % % % % % % 4 y F >.J X .   o o.e.7.S o O O # { 7.*.Z a & % % % % % % % % % ",
"% % % % % % % % % % : k i &.n X .   8 ;.e.9.~ . o X 8 O.4.( C 3 % % % % % % % % % % ",
"% % % % % % % % % % & 9 k ^ J $ o 8 ~ 7.9.0.;.u @ 1 F ,.$.D c - % % % % % % % % % % ",
"% % % % % % % % % % % - f g n H ~ $.7.;.*.;.6.;...$.,.&.F P 3 % % % % % % % % % % % ",
"% % % % % % % % % % % % ; f N y S =.7.>./ +.q.q.4.*.] E L 7 & % % % % % % % % % % % ",
"% % % % % % % % % % % % % = 7 C r O.5.7.7.7.9.7.) v A c < & % % % % % % % % % % % % ",
"% % % % % % % % % % % % % % : L v $.>.7.:.2.1.1.{ S K ; % % % % % % % % % % % % % % ",
"% % % % % % % % % % % % % % 4 R ~ $.+.1.X.1.;.=.&.v b ; % % % % % % % % % % % % % % ",
"% % % % % % % % % % % % % * z g W } { %.{ $.[ ` ( i T 3 % % % % % % % % % % % % % % ",
"% % % % % % % % % % % % % ; V r ~ ~ ~ +.^ X.{ X.=.S N 7 % % % % % % % % % % % % % % ",
"% % % % % % % % % % % % % 3 A u ;.%...3.X.1.,.:.4.H m 9 % % % % % % % % % % % % % % ",
"% % % % % % % % % % % % & 7 B t *.;.;.1.=.2.1.3.:.M N % % % % % % % % % % % % % % % ",
"% % % % % % % % % % % % % - c y m n H ~ / ^ ^ J m A % % % % % % % % % % % % % % % % ",
"% % % % % % % % % % % % % % % % 4 f Y Y A L c a - % % % % % % % % % % % % % % % % % ",
"% % % % % % % % % % % % % % % % % % % % % % % % % % % % % % % % % % % % % % % % % % ",
"% % % % % % % % % % % % % % % % % % % % % % % % % % % % % % % % % % % % % % % % % % ",
"% % % % % % % % % % % % % % % % % % % % % % % % % % % % % % % % % % % % % % % % % % ",
"% % % % % % % % % % % % % % % % % % % % % % % % % % % % % % % % % % % % % % % % % % ",
"% % % % % % % % % % % % % % % % % % % % % % % % % % % % % % % % % % % % % % % % % % ",
"% % % % % % % % % % % % % % % % % % % % % % % % % % % % % % % % % % % % % % % % % % ",
"% % % % % % % % % % % % % % % % % % % % % % % % % % % % % % % % % % % % % % % % % % ",
"% % % % % % % % % % % % % % % % % % % % % % % % % % % % % % % % % % % % % % % % % % "
};
