/* XPM */
static const char *enemy[] = {
/* columns rows colors chars-per-pixel */
"42 42 195 2 ",
"   c #010202",
".  c #090105",
"X  c #030A02",
"o  c #070509",
"O  c #09060A",
"+  c #070B09",
"@  c #0B0B0B",
"#  c #100D0E",
"$  c #071307",
"%  c #0A120A",
"&  c #0E1A0C",
"*  c #12130E",
"=  c #0D0C11",
"-  c #120E11",
";  c #0F1412",
":  c #141314",
">  c #191818",
",  c #1C1C1B",
"<  c #221D1C",
"1  c #182315",
"2  c #1D2B1B",
"3  c #23221D",
"4  c #222D1E",
"5  c #1E1E20",
"6  c #221E22",
"7  c #1E2721",
"8  c #1F2C21",
"9  c #232323",
"0  c #2A2524",
"q  c #2B2A27",
"w  c #252729",
"e  c #2B2C2C",
"r  c #312D2C",
"t  c #293428",
"y  c #323D2F",
"u  c #312F34",
"i  c #2C3031",
"p  c #333333",
"a  c #393536",
"s  c #353A35",
"d  c #383B36",
"f  c #3B3A3B",
"g  c #423D3C",
"h  c #004000",
"j  c #0A450A",
"k  c #0E4B10",
"l  c #174716",
"z  c #144D14",
"x  c #1E551D",
"c  c #21551F",
"v  c #1F5521",
"b  c #275625",
"n  c #2B5C29",
"m  c #305E2A",
"M  c #3D433D",
"N  c #394839",
"B  c #385B37",
"V  c #2E622D",
"C  c #30612F",
"Z  c #336432",
"A  c #3E6C3D",
"S  c #41493D",
"D  c #3E3C41",
"F  c #443F43",
"G  c #3F6D42",
"H  c #444444",
"J  c #434C44",
"K  c #464549",
"L  c #4A454B",
"P  c #474A48",
"I  c #4B4B4C",
"U  c #475546",
"Y  c #4D514A",
"T  c #50564E",
"R  c #4D4E51",
"E  c #534C54",
"W  c #4D5750",
"Q  c #535554",
"!  c #555B55",
"~  c #595855",
"^  c #56555A",
"/  c #5C555C",
"(  c #5C5C5C",
")  c #456C45",
"_  c #4D694B",
"`  c #506D4F",
"'  c #497549",
"]  c #4D794D",
"[  c #527549",
"{  c #536353",
"}  c #5D655D",
"|  c #5B6E5B",
" . c #557754",
".. c #527D53",
"X. c #61665D",
"o. c #61745D",
"O. c #5D5C61",
"+. c #625D63",
"@. c #5E6362",
"#. c #5F6A62",
"$. c #626363",
"%. c #656C65",
"&. c #6A6A65",
"*. c #63646A",
"=. c #696769",
"-. c #656C6A",
";. c #6B6C6C",
":. c #637565",
">. c #677A66",
",. c #6E736D",
"<. c #72736D",
"1. c #707A6F",
"2. c #6D6D72",
"3. c #716F71",
"4. c #6E7274",
"5. c #6E7B71",
"6. c #737474",
"7. c #757974",
"8. c #7A7976",
"9. c #747579",
"0. c #7A747D",
"q. c #77797B",
"w. c #7C7C7C",
"e. c #807A7C",
"r. c #568157",
"t. c #60845F",
"y. c #5F8561",
"u. c #658666",
"i. c #6D8C6F",
"p. c #72866E",
"a. c #768675",
"s. c #768A75",
"d. c #7A8379",
"f. c #7C8B7A",
"g. c #769476",
"h. c #7C927C",
"j. c #82877F",
"k. c #7E7B82",
"l. c #827C83",
"z. c #7F8181",
"x. c #848484",
"c. c #878987",
"v. c #8B858A",
"b. c #8C8B8C",
"n. c #908F8E",
"m. c #869885",
"M. c #92938D",
"N. c #8D8590",
"B. c #8F8B90",
"V. c #928B92",
"C. c #939293",
"Z. c #999595",
"A. c #979995",
"S. c #9A979A",
"D. c #9D9C9C",
"F. c #A29D9D",
"G. c #8CA48D",
"H. c #8FAA90",
"J. c #99A594",
"K. c #94B298",
"L. c #A0A697",
"P. c #A5B39A",
"I. c #9F9DA2",
"U. c #A29FA2",
"Y. c #A4A2A2",
"T. c #A6ABA2",
"R. c #ABAAAB",
"E. c #AFB1AB",
"W. c #B0B3AF",
"Q. c #AFADB2",
"!. c #B4B4B4",
"~. c #B7B9B7",
"^. c #BABABB",
"/. c #BCC7BF",
"(. c #BFBDC1",
"). c #C3C2C3",
"_. c #C4C8C7",
"`. c #CCCCCD",
"'. c #D1D0D1",
"]. c #D3D2D3",
"[. c #D6D6D6",
"{. c #DBDADB",
"}. c #DBE5DC",
"|. c #E2E3DF",
" X c #E1DFE0",
".X c #E4E4E4",
"XX c #E8E6E8",
"oX c #EBEBEB",
"OX c #F2EDF3",
"+X c #F4F3F3",
"@X c #F7F8F4",
"#X c #F5F6F9",
"$X c #F8F7FA",
"%X c #F6FFFA",
"&X c #FDFDFD",
/* pixels */
"h h h h h h h h h h h h h h h h h h n [ m.[ m h h h h h h h h h h h h h h h h h h h ",
"h h h h h h h h h h h h h h z g.P.P.L.L.J.J.L.L.L.P.Z z h h h h h h h h h h h h h h ",
"h h h h h h h h h h h h b K.H.m.1.%.} ~ ! Y Y T ! X.s.H...z h h h h h h h h h h h h ",
"h h h h h h h h h h h H.m.a.5.#.-.-.$.@.O.( Q I H s s N { G.y.j h h h h h h h h h h ",
"h h h h h h h h h Z T.d.,.6.4.9.4.4.2.*.*.*.O.Q R I f p i 7 J h.n h h h h h h h h h ",
"h h h h h h h h t.f.<.8.w.q.k.k.q.9.9.4.2.*.O.^ ^ K D D p e q 3 s.] h h h h h h h h ",
"h h h h h h h i.d.8.w.e.l.v.B.x.x.z.q.q.6.;.*.*.^ R I H a r q 3 1 o.r.h h h h h h h ",
"h h h h h h r.a.,.w.x.v.V.V.B.V.v.v.x.w.q.6.-.$.( Q P g g p 0 3 > % >.' h h h h h h ",
"h h h h h j d.6.7.x.C.b.C.Z.S.Z.Z.M.c.x.w.6.,.%.@.Q Q H S r q 3 < * & s.Z h h h h h ",
"h h h h h c.<.7.c.x.w.M.A.F.D.Y.Z.Z.M.c.j.w.4.%.( @.I P f ( x.~ 0 # + 2 g.k h h h h ",
"h h h h h.;.6.w.z.c././.C.L.T.Y.F.F.S.n.x.z.q.6.;.R Q I 6.{.&X{.L , +   N r.h h h h ",
"h h h h ,.=.l.l.x.~.%X%X}.J.!.E.R.U.Z.b.x.q.;.-.@.@.( P !.&X&X$X/ - - X X p.x h h h ",
"h h h g.%.3.k.l.q.~.&X%X@XW.W.!.Y.I.U.Q.(.^.Y.x.*.( ^ K ^.&X&X&XI.L = o   y u.h h h ",
"h h h :.-.6.0.l.U. X&X&XoX!.~.R.!.{.&X&X&X&X&X+X_.x.Q Q ~.&X&X&X$X(.6 o   % f.z h h ",
"h h u.| @.2.0.N.OX&X&X&X&X`.S._.$X&X&X&X&X&X&X&X&XoXn.C.@X&X&X&X&X.Xp O     W ' h h ",
"h h h.W $.2.9.C.&X&X&X&X&XoX'.&X&X&X%X&X&X&X&X&X&X&X@X'.&X@X&X&X%X'.6 O     & G.h h ",
"h A :.! O.2.6.w..X&X&XXX&X[.#X&X&X&X&X&X&X&X&X&X&X&X&X.X.X'.R..XXX6.>       X h.z h ",
"h u.{ Q +.=.<.<.M.[.!.V.!.{.&X&X&X&X&X&X&X&X&X&X&X&X&X&XR.( e H L 5 O o       :.V h ",
"h m.U Q +.+.3.;.<.7.w.b.x.'.&X&X@X+X@X&X&X&X&X{._..X&X&XC.e e 9 > @ =         { ' h ",
"& m.J Q +.O.;.,.6.7.j.x.l.[.&X{.&.e $.'.&X&XD.q O H .X&XC.e 9 9 , : @         U ..h ",
"h h.M I ^ / $.-.,.w.7.q.l.!.&XS.  o   H +X{., o O o ^.&X&.p q 9 : O o   .     S ..h ",
"h f.M K E / ( @.} %.w.7.2.B.+X!.@ o   9 {._.,   o I .X'.f 9 q > : % o         S ] h ",
"h g.f H E E ^ ! -.} ,.2.0.;.U.+XD.f f b.&X&XS.P 7.{.+X-.i 9 , , @ O       .   J G h ",
"h p.d f L L Q Q ! } @.$.;.=.=.Y.+X@XXX&X&X&X&X&X&XXX).( 9 9 9 , O X   o       { n h ",
"h  .N f f L I P W Q ( 7.9.+.3.~.[..X&X&X&X&X&X&X&X{.+X.X-.;.~.C.9             o.h h ",
"h V J e f D H P P Q z.OX+X).'.&X@XXX&X&X&X&X&X&X+X+X&X&X&X.X&X&X7.          + s.h h ",
"h h { q e a D M J Y ).&X&X&X&X%X+X`..XoX@XXX+X.XXXY..X&X&X&X&X&X!.o o o     1 A h h ",
"h h >.8 q u f s a I  X$X&X&X&X&XF.3.;.-.-.$.-.( $.f 6.+X&X&X&X&XY.@         N h h h ",
"h h h y 9 w q p s a R.&X&X&X&X^.H p p a a p w 9 , , e {.&X&X@X`.I       X   o.h h h ",
"h h h >.; 9 9 q q p g v.+X&X&X_.f f p e q e 9 q , @ a .X&X&X'.a           t h h h h ",
"h h h v t , , , 0 0 r / +X&X%X~.e e e e q 9 , , > > 9 R.&X&X{.q   O       | h h h h ",
"h h h h :.% > , , < 6 F '.$X|.! 0 , 9 , , , , > @ O   f R.).6.O O     X y h h h h h ",
"h h h h h N % ; : , , , H &.H , , , , > : : # @ o     o @ : @   .     & C h h h h h ",
"h h h h h x 8   : = : : > : : , : : : - @ @ O                   .   X ` h h h h h h ",
"h h h h h h ) 1   o @ O O = @ O O O O O o         o           O   X { h h h h h h h ",
"h h h h h h h ) 2     O o   o   o o                   o     X   % :.h h h h h h h h ",
"h h h h h h h h v t   X                           o o       X & ` h h h h h h h h h ",
"h h h h h h h h h h { X                                   X y ) h h h h h h h h h h ",
"h h h h h h h h h h h u.J $                         X X 2 >.h h h h h h h h h h h h ",
"h h h h h h h h h h h h h h.{ 4 + X             + 1 N p.j h h h h h h h h h h h h h ",
"h h h h h h h h h h h h h h h c j.w.&.X.( ( &.,.j.p.n h h h h h h h h h h h h h h h ",
"h h h h h h h h h h h h h h h h h h h b _ _ B n l j h h h h h h h h h h h h h h h h "
};
