/* XPM */
static char *_ad6001181a14115ec606a3b0c398fb1tHIF4oGr2kTOYdTj[] = {
/* columns rows colors chars-per-pixel */
"27 42 204 2 ",
"   c #000317",
".  c #00061D",
"X  c #030D1C",
"o  c #10341F",
"O  c #11381C",
"+  c #070C22",
"@  c #080D22",
"#  c #081927",
"$  c #0C1E2B",
"%  c #131825",
"&  c #121D2C",
"*  c #181F33",
"=  c #14222D",
"-  c #1A242E",
";  c #0F2533",
":  c #152432",
">  c #1B2632",
",  c #172C35",
"<  c #1C2A34",
"1  c #1F273C",
"2  c #1C2C39",
"3  c #232C36",
"4  c #252E3A",
"5  c #273038",
"6  c #2A333B",
"7  c #004000",
"8  c #074408",
"9  c #09430B",
"0  c #15481A",
"q  c #175116",
"w  c #225923",
"e  c #2C5F2E",
"r  c #294C33",
"t  c #2D612B",
"y  c #2E6230",
"u  c #3A6B3B",
"i  c #40703E",
"p  c #1F2E41",
"a  c #2A2F45",
"s  c #263243",
"d  c #293344",
"f  c #2C3B45",
"g  c #2D3649",
"h  c #2B3949",
"j  c #313B44",
"k  c #383F45",
"l  c #323C4A",
"z  c #463346",
"x  c #2B424A",
"c  c #3D434D",
"v  c #38444C",
"b  c #374353",
"n  c #3C4354",
"m  c #3B4959",
"M  c #3F585D",
"N  c #3C5262",
"B  c #42465A",
"V  c #4B455A",
"C  c #424B5C",
"Z  c #48485B",
"A  c #55475A",
"S  c #57485B",
"D  c #594A5D",
"F  c #41545A",
"G  c #4C515B",
"H  c #50525F",
"J  c #436C4A",
"K  c #417346",
"L  c #457055",
"P  c #57715F",
"I  c #567D5A",
"U  c #6B634E",
"Y  c #706343",
"T  c #534D63",
"R  c #465464",
"E  c #4C5365",
"W  c #4A5766",
"Q  c #4C5C6C",
"!  c #545267",
"~  c #545964",
"^  c #5B5B65",
"/  c #55566A",
"(  c #545A6C",
")  c #595C6D",
"_  c #555F70",
"`  c #5B5F71",
"'  c #635B6B",
"]  c #6F596E",
"[  c #576069",
"{  c #5A606C",
"}  c #5D7F62",
"|  c #5C6372",
" . c #586875",
".. c #616777",
"X. c #616B76",
"o. c #6A6C74",
"O. c #63667A",
"+. c #646C7C",
"@. c #6A6D7D",
"#. c #697174",
"$. c #65737C",
"%. c #6A737C",
"&. c #7B7C76",
"*. c #5B8459",
"=. c #678D64",
"-. c #6A8F6D",
";. c #6F9275",
":. c #749879",
">. c #819F7A",
",. c #6A6D82",
"<. c #706E83",
"1. c #647380",
"2. c #6C7385",
"3. c #6C7A89",
"4. c #717286",
"5. c #737589",
"6. c #7A768D",
"7. c #747A8B",
"8. c #7A7B8D",
"9. c #7B7C91",
"0. c #72818E",
"q. c #7D858A",
"w. c #799E84",
"e. c #798193",
"r. c #7F989C",
"t. c #82859A",
"y. c #848D9B",
"u. c #8A969E",
"i. c #959799",
"p. c #89A689",
"a. c #89A893",
"s. c #9FB696",
"d. c #BAAB86",
"f. c #898DA3",
"g. c #8694A1",
"h. c #8D98AB",
"j. c #92A1A8",
"k. c #99B0A6",
"l. c #9DA2B6",
"z. c #9FA9B9",
"x. c #9EBEB6",
"c. c #A2A3AD",
"v. c #B1B9A8",
"b. c #A7AFB2",
"n. c #A4ABBC",
"m. c #A6BBB7",
"M. c #BCBDB8",
"N. c #C1AF8B",
"B. c #CCB98E",
"V. c #D2BD8E",
"C. c #C3BFB3",
"Z. c #B0C7B2",
"A. c #B9CBB6",
"S. c #C7C09C",
"D. c #D6C49C",
"F. c #CBC3A9",
"G. c #D9CDAA",
"H. c #C4CEB3",
"J. c #CAC9B5",
"K. c #D2C9B0",
"L. c #D4D3B9",
"P. c #D9D5BA",
"I. c #E5D3A6",
"U. c #E7DAB5",
"Y. c #E5DCBA",
"T. c #F4E5BC",
"R. c #A5ADC0",
"E. c #ABAFC5",
"W. c #AAB4C8",
"Q. c #B2B5C4",
"!. c #B5BBC2",
"~. c #B5BCCE",
"^. c #B4C4C6",
"/. c #CDD8C8",
"(. c #DBD6C7",
"). c #D4DCC2",
"_. c #D9DFCD",
"`. c #CACDD2",
"'. c #C5D5D6",
"]. c #CDD6D9",
"[. c #D6D7D9",
"{. c #E1DAC5",
"}. c #E6DFCF",
"|. c #ECE5C8",
" X c #E8E6D9",
".X c #F3EBD6",
"XX c #F7F2DD",
"oX c #FAF4DD",
"OX c #C9CDE4",
"+X c #D6DBEE",
"@X c #D8E8E8",
"#X c #EAECE9",
"$X c #F4EFEC",
"%X c #E8F0EB",
"&X c #F5F3E6",
"*X c #F9F2E4",
"=X c #FFFBE5",
"-X c #FCFAED",
";X c #E8EFFF",
":X c #E5FAFD",
">X c #FEFDF3",
",X c #F3F5FF",
"<X c #F4FAFF",
"1X c #FDFDFD",
/* pixels */
"7 7 7 7 7 7 7 7 7 7 7 7 7 7 7 7 7 7 7 7 7 7 7 7 7 7 7 ",
"7 7 7 7 7 7 7 7 7 7 7 7 1X1X$Xq 7 7 7 7 7 7 7 7 7 7 7 ",
"7 7 7 7 7 7 7 7 7 7 7 1X#X X*X-X-X7 7 7 7 7 7 7 7 7 7 ",
"7 7 7 7 7 7 7 7 7 7 8 >Xv.U =X.X(.t 7 7 7 7 7 7 7 7 7 ",
"7 7 7 7 7 7 7 7 7 i -X=XP.Y U.G..X X7 7 7 7 7 7 7 7 7 ",
"7 7 7 7 7 7 7 7 7 >X(.{.G.d.B.U.XX-X7 7 7 7 7 7 7 7 7 ",
"7 7 7 7 7 7 7 7 7 &X=X|.F.I.I.D.P. X7 7 7 7 7 7 7 7 7 ",
"7 7 7 7 7 7 7 7 7 7 *XoXS.d.V.T.L._.7 7 7 7 7 7 7 7 7 ",
"7 7 7 7 7 7 7 7 7 7 7 XX|.G.B.Y.H.*.7 7 7 7 7 7 7 7 7 ",
"7 7 7 7 7 7 7 7 7 7 7 s.=XY.N.Y.H.7 7 7 7 7 7 7 7 7 7 ",
"7 7 7 7 7 7 7 7 7 7 7 >.XXF.d.P.H.7 7 7 7 7 7 7 7 7 7 ",
"7 7 7 7 7 7 7 7 7 7 7 =.*X{.K.).A.7 7 7 7 7 7 7 7 7 7 ",
"7 7 7 7 7 7 7 7 7 7 7 t -X}.L.L.Z.7 7 7 7 7 7 7 7 7 7 ",
"7 7 7 7 7 7 7 7 7 7 7 t >XJ.F.).s.7 7 7 7 7 7 7 7 7 7 ",
"7 7 7 7 7 7 7 7 7 7 7 1X>XC.J.-X/.7 7 7 7 7 7 7 7 7 7 ",
"7 7 7 7 7 7 7 7 7 7 1X#XM.&.i._.%XK 7 7 7 7 7 7 7 7 7 ",
"7 7 7 7 7 7 7 7 7 1X#X^ 5 6 < 6 '.@X7 7 7 7 7 7 7 7 7 ",
"7 7 7 7 7 7 7 7 %X<X!.q.u.g.g.0.j.@X].w.7 7 7 7 7 7 7 ",
"7 7 7 7 7 7 7 Z.@Xu.$.X.$.+.0.7.u.u.m.'.m.7 7 7 7 7 7 ",
"7 7 7 7 7 7 a.:X^.F v m C ( _ | | n l %.^.:.7 7 7 7 7 ",
"7 7 7 7 7 K x.r., f W | +.@.2.2.7...l > n k.7 7 7 7 7 ",
"7 7 7 7 7 L M # x  .$.+.O.O.8.4.7.7.e.| d %.;.7 7 7 7 ",
"7 7 7 7 J > X h 1.2.7.@.O.<.6.9.9.9.9.2.) ) q.*.7 7 7 ",
"7 7 7 e { & Q g.O.2.O.` ,.5.4.8.t.t.O.7.t.E H a.u 7 7 ",
"7 7 7 c.% n.~.,.E.5./ ,.@.4.,.7.9.9.f.9.O.n.| @.p.8 7 ",
"7 7 ;.c 8.,XOX+ * l.( ) O.2.3.7.5.,.+Xa   & Q.H ].v.7 ",
"7 7 ].3 +X<XOX* + n.O.` +.$.3.+.+.t.1Xf.@ | ,X8.i.1X7 ",
"7 w !.f ~.d 1 . E.;XC | | |  .1.E h.l.X   l.<Xy.o.1X7 ",
"7 u ^.6 z.y.# + W.l.n ../ { | %.,.E R.b X | <Xc o.1X7 ",
"7 w !.j : h.W.W.e.n E H ^ ' ' ) ( _  .n.R.n.C 4 q.1X7 ",
"7 7 `.G > & p d g B T D A z A ' | Q R h R l X c i.A.7 ",
"7 7 ].c 3 < m C C n ! V A S ] D E W [ Q b d 4 v c.-.7 ",
"7 7 -.#.5 < > b m C Z B V T T ! R N Q m s = > G [.w 7 ",
"7 7 7 b.k - - 4 l n C C C B B n m N h $ 2 3 5 o.I 7 7 ",
"7 7 7 y %.5 & & & : 2 d g l g d 2 ; : : = % G } 7 7 7 ",
"7 7 7 7 I ~ 3 = 2 : & & & & & : : $ = > 3 v P 7 7 7 7 ",
"7 7 7 7 7 J [ < > : : 2 < : : , 2 = < = j q 7 7 7 7 7 ",
"7 7 7 7 7 7 8 %.f < $ = : : = = $ > < r 7 7 7 7 7 7 7 ",
"7 7 7 7 7 7 7 7 7 7 0 O o o o O 9 7 7 7 7 7 7 7 7 7 7 ",
"7 7 7 7 7 7 7 7 7 7 7 7 7 7 7 7 7 7 7 7 7 7 7 7 7 7 7 ",
"7 7 7 7 7 7 7 7 7 7 7 7 7 7 7 7 7 7 7 7 7 7 7 7 7 7 7 ",
"7 7 7 7 7 7 7 7 7 7 7 7 7 7 7 7 7 7 7 7 7 7 7 7 7 7 7 "
};
