/* XPM */
static char *_507c3d554e341f5d33578d31c2b966d3sarl8v6a7YyDiDl[] = {
/* columns rows colors chars-per-pixel */
"42 42 225 2 ",
"   c #023E04",
".  c #063C08",
"X  c #0B3C0E",
"o  c #0E2C1B",
"O  c #122817",
"+  c #142D1C",
"@  c #192A1D",
"#  c #0F3416",
"$  c #0B3A17",
"%  c #0C321B",
"&  c #143716",
"*  c #13331D",
"=  c #1D331E",
"-  c #143C1D",
";  c #1B391E",
":  c #1C2C21",
">  c #0D3A20",
",  c #163521",
"<  c #1B3423",
"1  c #153C22",
"2  c #1B3B24",
"3  c #1B3728",
"4  c #1C3E2B",
"5  c #203424",
"6  c #213C25",
"7  c #2B3429",
"8  c #233C2A",
"9  c #283C29",
"0  c #004000",
"q  c #0C490C",
"w  c #0F4115",
"e  c #124C12",
"r  c #19421E",
"t  c #155015",
"y  c #1A541A",
"u  c #0F4623",
"i  c #154325",
"p  c #1B4325",
"a  c #154B27",
"s  c #164629",
"d  c #1C442A",
"f  c #164C2A",
"g  c #1D4C2D",
"h  c #095024",
"j  c #0D5629",
"k  c #15532C",
"l  c #1B522D",
"z  c #135B2E",
"x  c #1A582F",
"c  c #1E4D31",
"v  c #175531",
"b  c #1C5433",
"n  c #155D32",
"m  c #1A5C34",
"M  c #244225",
"N  c #23432C",
"B  c #2A432D",
"V  c #224B2E",
"C  c #2A4A2F",
"Z  c #255426",
"A  c #255925",
"S  c #25522B",
"D  c #2A5E29",
"F  c #224330",
"G  c #2A4432",
"H  c #244C32",
"J  c #2A4A33",
"K  c #304232",
"L  c #344D36",
"P  c #324D39",
"I  c #235334",
"U  c #2B5235",
"Y  c #225C35",
"T  c #255639",
"R  c #2A5539",
"E  c #245C3A",
"W  c #2D5B39",
"Q  c #325B34",
"!  c #345339",
"~  c #385639",
"^  c #3C533D",
"/  c #355A3A",
"(  c #0F6332",
")  c #146333",
"_  c #1C6236",
"`  c #166837",
"'  c #1D623A",
"]  c #156D3B",
"[  c #1D6C3D",
"{  c #16703D",
"}  c #2F612F",
"|  c #216136",
" . c #2E6236",
".. c #23633C",
"X. c #236A3E",
"o. c #336434",
"O. c #336539",
"+. c #3A663A",
"@. c #3A693C",
"#. c #2D5E41",
"$. c #365A42",
"%. c #1E6640",
"&. c #1E6B43",
"*. c #1C7340",
"=. c #187944",
"-. c #266641",
";. c #2C6642",
":. c #236C41",
">. c #2B6C44",
",. c #2E6E49",
"<. c #336443",
"1. c #3B6544",
"2. c #3F6941",
"3. c #376948",
"4. c #316D49",
"5. c #247344",
"6. c #2A7345",
"7. c #227048",
"8. c #2C744B",
"9. c #267C4B",
"0. c #2D7B4C",
"q. c #34734D",
"w. c #38764E",
"e. c #327B4D",
"r. c #3B7452",
"t. c #347D52",
"y. c #397C54",
"u. c #425C44",
"i. c #436344",
"p. c #436B45",
"a. c #41624C",
"s. c #466B4A",
"d. c #486C4A",
"f. c #49704B",
"g. c #467356",
"h. c #447558",
"j. c #1D844D",
"k. c #26844F",
"l. c #2D814E",
"z. c #34844F",
"x. c #258552",
"c. c #2F8252",
"v. c #2D8B55",
"b. c #2C8857",
"n. c #268D59",
"m. c #348354",
"M. c #3C8256",
"N. c #338A55",
"B. c #398956",
"V. c #3C865B",
"C. c #368B5A",
"Z. c #3C8C5C",
"A. c #2A9257",
"S. c #2E925B",
"D. c #34935B",
"F. c #3A925D",
"G. c #309A5D",
"H. c #3D985F",
"J. c #2B9961",
"K. c #369761",
"L. c #3C9562",
"P. c #339B61",
"I. c #3B9B64",
"U. c #3D9E69",
"Y. c #38A366",
"T. c #35A36A",
"R. c #3AA46A",
"E. c #3BAA6D",
"W. c #3CAB70",
"Q. c #3EB173",
"!. c #49875E",
"~. c #438A5C",
"^. c #438D61",
"/. c #4E8F67",
"(. c #558E6B",
"). c #459465",
"_. c #4C9265",
"`. c #459967",
"'. c #4F946A",
"]. c #459C6A",
"[. c #4B9C6C",
"{. c #589269",
"}. c #529C6F",
"|. c #589B70",
" X c #679B74",
".X c #43A36D",
"XX c #49A26D",
"oX c #43A96F",
"OX c #45A570",
"+X c #4BA371",
"@X c #43AC73",
"#X c #4CAB74",
"$X c #56A177",
"%X c #5BA374",
"&X c #52AC75",
"*X c #5FA37A",
"=X c #53AD79",
"-X c #5BAC7B",
";X c #42B376",
":X c #4BB176",
">X c #47B77C",
",X c #4EB17A",
"<X c #54B17B",
"1X c #5BB17E",
"2X c #54BB7E",
"3X c #60A477",
"4X c #63A67A",
"5X c #62AB7B",
"6X c #6BAB7D",
"7X c #59AC80",
"8X c #56B681",
"9X c #5DB380",
"0X c #55BA83",
"qX c #5BB983",
"wX c #64AE82",
"eX c #6DAA81",
"rX c #76AA83",
"tX c #64B483",
"yX c #6CB284",
"uX c #63BB87",
"iX c #6AB886",
"pX c #6DB289",
"aX c #74B185",
"sX c #74B688",
"dX c #52C083",
/* pixels */
"0 0 0 0 0 0 0 0 0 0 0 0 0 0 0 0 0 0 0 0 0 0 0 0 0 0 0 0 0 0 0 0 0 0 0 0 0 0 0 0 0 0 ",
"0 0 0 0 0 0 0 0 0 0 0 0 0 0 0 0 0 0 0 0 0 0 0 0 0 0 0 0 0 0 0 0 0 0 0 0 0 0 0 0 0 0 ",
"0 0 0 0 0 0 0 0 0 0 0 0 0 0 0 0 0 0 0 0 0 0 0 0 0 0 0 0 0 0 0 0 0 0 0 0 0 0 0 0 0 0 ",
"0 0 0 0 0 0 0 0 0 0 0 0 0 0 0 0 0 0 0 0 0 0 0 0 0 0 0 0 0 0 0 0 0 0 0 0 0 0 0 0 0 0 ",
"0 0 0 0 0 0 0 0     0   0 0 Z S Q S A 0 0 0 0 0 0 0 0 0 0 0 0 0 0 0 0 0 0 0 0 0 0 0 ",
"0 0 0 0 0 0 0 0 0 0 0   * + , , 3 3 o ! o.0 0 0 0 0 0 0 0 0 0 0 0 0 0 0 0 0 0   0 0 ",
"0 0 0 0 0 0 0 0 0 0 . < F 1 > c N N N 2 ; L f.d.o.A q 0 0 0 0 0 0 0 0 0 0 0 0 0 0 0 ",
"0 0 0 0 0 0 0 0 0 & 8 H g b k v b <.g g T 1.g.g.3.R U d V - - X 0 0 0 0 0 0 0   0 0 ",
"0 0 0 0 0 0 0 X * N U W -...[ 5.5.` [ 5.0.).9X-X=X`.m.e.6...Y I s i - # & r e   0 0 ",
"0 0 0 0 0   2 d H W 3.q.M.Z.D.D.D.b.D.I.<X.XoX,X0X8X=XXX).~.w.>...' b c N 6 5 = 6 M ",
"0 0 0 0 X d H b ;.r.!.'.%X=X#XoXOX#X#XL.N.N.F.D..X<XuXiXyX6X X{.Z.b.8.-.E I N 8 < = ",
"0 0 0 . c b 4.q.y.'.*XwXiX1XXXH.].`.e.) z n ) [ [ 0.`.*XpXaXrXeX=XOXL.m.5.m f s p 2 ",
"0 0   c v t.m.Z.$XwXpXpXwX}.m.5.k a g V i s a f m ' :.t._.*XeXpX9X#X].L.m.5._ v g d ",
"0 0 g 4.V.C.+X1XtXwX*X|./.y._ u d 1 2 ; ; 2 * 1 d I E E ..>.q.y.`.XX#X.Xb.] ) m v l ",
"0 g h.'.9XqX8X=X].^.y.q.4.E a > % * 8 Q 0 0 L B 2 1 i i i a g k m z.&X<X.Xx.[ ) k k ",
"w <._.-X,X:X.Xb.:...E T T V 1 1 N Q 0 0 0 0 0 0 0 Q C * % , 1 i a | 5.l.L..XK.9.5.:.",
"M O.6.D.@XR.9.' Y I i N 2 2 2 Q 0 0 0 0 0 0 0 0 0 0 0 A p.L 3 2 6 d k j *.I.W.E.oXoX",
"S x ) A.E.G.) k S - d 2 / +.0 0 0 0 0 0 0 0 0 0 0 0 0 0 0 p.O < < 2 g m [ k.R.;X2X:X",
"| _ ` k.R..X:.l p p % ! 0 0 0 0 0 0 0 0 0 0 0 0 0 0 0 0 0 @.+ o 1 p g ..' 6.+XqX&XI.",
"[ 6.k.n.R.<Xw.I d 1 % H 0 0 0 0 0 0 0 0 0 0 0 0 0 0 0 0 0 y J 4 d V b ..[ e.5XtXXXN.",
">.0.D.T.W.W.X.k i p % * p.0 0 0 0 0 0 0 0 0 0 0 0 0 0 0 0 o.8 8 H I E 8.0.Z.6X5X).l.",
"w.C.Y.Q.;X@X0...l $ > 4 + s.0 0 0 0 0 0 0 0 0 0 0 0 0 0 0 p.< 2 V g E t.F.[.yX6X~.0.",
"m.F.P.E.=XtX}.M.6.k g 1 3 < @.0 0 0 0 0 0 0 0 0 0 0 0 0 0 2.3 1 2 g Y 0.I.<XtX5XV.e.",
"B.F.A.R.5XsX3X~.m...g H H , u.0 0 0 0 0 0 0 0 0 0 0 0 0 } ! * 1 2 g m ] S.0X9X[.0.6.",
"5.l.G.R.%XaX6X!.w.>.g g i % ! t 0 0 y D D D D +.p.p.p.p.~ 2 1 d p S j =.Y.@X#X).t.q.",
"m 5.b.D.`.%X5X5X6._ ..l u 1 / i.i.i.L 7 7 7 G G 9 2 < < * * d I U Y 9.U.R.Y..XC.w.3.",
"k X.l.D..XoX#X2XR.*.n k V # p * 2 5 < @ + < d c T E c i V I I l x _ I.,XS.x.b.:. .U ",
"a v X.9.S.Y.@XdXQ.P.*.n l p r I I 1 1 1 1 a v %.&.7.%.' ;.;.....z 6..XI.{ ] 5...H N ",
"1 % a -.9.S..X0X>X;XE.S._ Y Y q.X.h k m :.0.x.n.J.n.x.9.5.6.0.t.Z.XX+Xk.n n b T V N ",
"2.P , s ' t.`.1X,XY.@X:X}.'.`.-X#Xb.c.m.Z.].OX@XY.Y..XU.C.L.XX]..X+XL.6...I H U N d ",
"0 D p.s./ R <.(.M.e.e.0.Z.L.P.T.;XoX#X-XwXyX5X-XwX5XtXtX-XtXuX8X8X=X).w.I d B 6 d 1 ",
"0 0 0 0 q O.1.V I g f x z ( j.J.Y.R.#X-X5X4X3X*X4X|._.^.^.).[.+X7X$X(.g.d N ^ ! , % ",
"0 0 0 0 0 0 0 p., 1 d c E ,.0.c.b.L.`.].^.t.e.y.q.,.,.q.q.q.q.r.h.$.a.s.p.D q y p.d.",
"0 0 0 0 0 0 0 o.9 2 J U T T b E X.0.m.V.y.>.-.;.E E #.#.R H g F G d.y 0 0 0 0 0 0 0 ",
"0 0 0 0 0 0 e u.@ 8 8 J d 1 c 1 s I I T R H H N J 8 8 N L i.p.O.D 0 0 0 0 0 0 0 0 0 ",
"0 0 0 0 0 0 e i.^ K 5 O + < * 2 8 8 2 B J B J B 9 ^ d.} y 0 0 0 0 0 0 0 0 0 0 0 0 0 ",
"0 0 0 0 0 0 0 0 e y +.p.s.5 O 5 : 9 u.@.y y y y y e 0 0 0 0 0 0 0 0 0 0 0 0 0 0 0 0 ",
"0 0 0 0 0 0 0 0 0 0 0 0 0 +.u.$.p.D 0 0 0 0 0 0 0 0 0 0 0 0 0 0 0 0 0 0 0 0 0 0 0 0 ",
"0 0 0 0 0 0 0 0 0 0 0 0 0 0 0 0 0 0 0 0 0 0 0 0 0 0 0 0 0 0 0 0 0 0 0 0 0 0 0 0 0 0 ",
"0 0 0 0 0 0 0 0 0 0 0 0 0 0 0 0 0 0 0 0 0 0 0 0 0 0 0 0 0 0 0 0 0 0 0 0 0 0 0 0 0 0 ",
"0 0 0 0 0 0 0 0 0 0 0 0 0 0 0 0 0 0 0 0 0 0 0 0 0 0 0 0 0 0 0 0 0 0 0 0 0 0 0 0 0 0 ",
"0 0 0 0 0 0 0 0 0 0 0 0 0 0 0 0 0 0 0 0 0 0 0 0 0 0 0 0 0 0 0 0 0 0 0 0 0 0 0 0 0 0 "
};
