/* XPM */
static char *food_apple_removebg_preview1736256007[] = {
/* columns rows colors chars-per-pixel */
"42 42 202 2 ",
"   c #480500",
".  c #540300",
"X  c #5A0601",
"o  c #660F00",
"O  c #631300",
"+  c #681E13",
"@  c #761012",
"#  c #6B381B",
"$  c #7C263B",
"%  c #004000",
"&  c #0A4509",
"*  c #0A470A",
"=  c #144C13",
"-  c #1B4C15",
";  c #1D5116",
":  c #1E5119",
">  c #244F1D",
",  c #2A521C",
"<  c #384626",
"1  c #275522",
"2  c #2C5624",
"3  c #335926",
"4  c #355A2C",
"5  c #395B2C",
"6  c #375A30",
"7  c #3D5B32",
"8  c #435E2E",
"9  c #415E34",
"0  c #485F3A",
"q  c #525E32",
"w  c #745E3E",
"e  c #7E5A3E",
"r  c #476031",
"t  c #4B6232",
"y  c #566639",
"u  c #76603F",
"i  c #5D5D46",
"p  c #795D45",
"a  c #795C57",
"s  c #586247",
"d  c #686641",
"f  c #61614A",
"g  c #756544",
"h  c #627740",
"j  c #6A6352",
"k  c #726255",
"l  c #880903",
"z  c #83050A",
"x  c #9D0000",
"c  c #8B1818",
"v  c #A90200",
"b  c #A40805",
"n  c #B70707",
"m  c #BD0000",
"M  c #A8191B",
"N  c #B91A17",
"B  c #BC191B",
"V  c #B5201A",
"C  c #B31B2A",
"Z  c #932A33",
"A  c #863032",
"S  c #A92726",
"D  c #B42527",
"F  c #A6362E",
"G  c #A53A31",
"H  c #B23936",
"J  c #D90706",
"K  c #DA0B0B",
"L  c #DA110A",
"P  c #CC0D14",
"I  c #DB0D13",
"U  c #C51313",
"Y  c #CD1311",
"T  c #CA171A",
"R  c #C21919",
"E  c #D41215",
"W  c #D3111A",
"Q  c #D91419",
"!  c #E60402",
"~  c #EC0403",
"^  c #E30C02",
"/  c #EB050B",
"(  c #E40A0C",
")  c #EC0B0D",
"_  c #F50202",
"`  c #FC0101",
"'  c #F40A07",
"]  c #FE0A03",
"[  c #F5020B",
"{  c #FB020A",
"}  c #F7080B",
"|  c #E0160C",
" . c #E20C17",
".. c #EA0B11",
"X. c #EC031E",
"o. c #F40214",
"O. c #F90114",
"+. c #FC0717",
"@. c #F3021A",
"#. c #E81616",
"$. c #E92B1D",
"%. c #C71526",
"&. c #DC0E3E",
"*. c #CB1339",
"=. c #ED072B",
"-. c #F30023",
";. c #F1012A",
":. c #EE0234",
">. c #E7043A",
",. c #ED013C",
"<. c #F30133",
"1. c #F20239",
"2. c #D5212C",
"3. c #C6302F",
"4. c #DC3330",
"5. c #E52727",
"6. c #F0302D",
"7. c #E5313A",
"8. c #874D29",
"9. c #9B4B3A",
"0. c #85533D",
"q. c #8A523A",
"w. c #92563E",
"e. c #91593D",
"r. c #9C6338",
"t. c #BE024E",
"y. c #BD1046",
"u. c #BA0C55",
"i. c #AA1A57",
"p. c #BD135A",
"a. c #B51D5A",
"s. c #80304B",
"d. c #9A2B55",
"f. c #98375A",
"g. c #A6295A",
"h. c #B2225A",
"j. c #B02A5C",
"k. c #A1335F",
"l. c #BC1861",
"z. c #A53362",
"x. c #A33A62",
"c. c #B03560",
"v. c #DF084E",
"b. c #C4154C",
"n. c #CE0453",
"m. c #C50D57",
"M. c #C90A54",
"N. c #CC0D5B",
"B. c #D10155",
"V. c #DC0356",
"C. c #D5055C",
"Z. c #DB025D",
"A. c #D40C5D",
"S. c #D80A5B",
"D. c #C4135A",
"F. c #CA125C",
"G. c #EC0143",
"H. c #E6024C",
"J. c #EB014B",
"K. c #E40154",
"L. c #E90154",
"P. c #E2015D",
"I. c #EA015C",
"U. c #F40352",
"Y. c #CA3843",
"T. c #F23D42",
"R. c #DD0262",
"E. c #D70962",
"W. c #DC0964",
"Q. c #C71762",
"!. c #E30162",
"~. c #EA0564",
"^. c #E40965",
"/. c #E10369",
"(. c #E30B69",
"). c #885847",
"_. c #8B5449",
"`. c #98435D",
"'. c #93495E",
"]. c #835855",
"[. c #8A515F",
"{. c #83595E",
"}. c #927043",
"|. c #967F53",
" X c #934B60",
".X c #A44667",
"XX c #FC4844",
"oX c #F04857",
"OX c #FF786C",
"+X c #EA7878",
"@X c #FF8287",
"#X c #FF8796",
"$X c #FF9B93",
"%X c #FFA49C",
"&X c #FF96A1",
"*X c #FFABA6",
"=X c #FFAEB9",
"-X c #FFB7B6",
";X c #FFB9B3",
":X c #FFBDB9",
">X c #FFC0B9",
",X c #FFB9C1",
/* pixels */
"% % % % % % % % % % % % % % % % % % % % % % % % % % % % % % % % % % % % % % % % % % ",
"% % % % % % % % % % % % % % % % % % % % % % % % % % % % % % % % % % % % % % % % % % ",
"% % % % % % % % % % % % % % % % % % % % % g & % % % % % % % % % % % % % % % % % % % ",
"% % % % % % % % % % % % % % % % % % % % % |.& % % % % % % % % % % % % % % % % % % % ",
"% % % % % % % % % % % % % % % % % % % % - |.; % % % % % % % % % % % % % % % % % % % ",
"% % % % % % % % % % % % % % % % % % % % h }.y % % % % % % % % % % % % % % % % % % % ",
"% % % % % % % % % % % % = 3 2 5 9 6 5 q w r.# q.e.e.q.).w q 2 % % % % % % % % % % % ",
"% % % % % % % % % 2 d 0.F D S S c A A + 8.8.o c V U Y Y U N H q.y & % % % % % % % % ",
"% % % % % % & 4 p G B Y K ( #.E b z @ X e #   @ M U ( ) ) ( I E R G g % % % % % % % ",
"% % % % % 2 p Z S 3.4.6.#./ _ / T b l X O . . z x m J _ { ` [ } ) I R w.% % % % % % ",
"% % % % 9 H C Y.+X%X*X$XOX5.^ ) U v v b v v n P J ! _ ] ` ` _ _ _ ~ #.U 9.% % % % % ",
"% % % 8 F R 2.@X;X>X:X;X*XT.| ~ ^ J L | J ^ ../ } } ` ` _ _ ` ` ` ] _ ( T 9.% % % % ",
"% % 4 G E L XX%X;X:X,X=X&X7.) ~ _ ' ! ~ ~ ' } o.[ ` { ` _ _ ` _ ] ~ _ } ( R e % % % ",
"% % e %.( ^ $.OX%X-X=X#XoXQ ) ` _ ` _ ` ` ` { { { { { ` ` ` _ ` _ ` ` ] ~ Q S - % % ",
"% % H #.} ' ^ | XXXXT.5.K ~ _ ` ` { { ` ` ] { { ` ` ` _ ` ` { { ] _ ` _ ] ! E 9.% % ",
"% 8 B .._ ` _ ' ~ ~ ../ { ` ` ` ] _ { ` ` ` ` ` ` ` ` ` ` ` { ` ` ` ` ` ` { ..B , % ",
"% t Y _ ` ` ` { [ } ' _ ` ` ` ` ` ` ` ` ` ` ` ` ` ` ` ` ` ` { ` ` ` ` ` ` ` [ W p % ",
"% y E ` ` ` { { [ _ { ` ` ` ` ` ` ` ` ` ` ` ` ` ` ` ` ` ` ` ` ` ` ` ` ` ` ` { I 0.% ",
"% p E _ _ ` ` { _ _ ` ` ` _ ` ` ` ` ` ` ` ` ` ` ` ` ` ` ` ` ` ` { ` ` ` ` ] _ Q 0.% ",
"% ).E _ ` _ { ` ` _ ` ` ` ' ` ` ` ` ` ` ` ` ` ` ` ` ` ` ` ` ` ` { { ` ` ` ` [ W _.% ",
"% _.Q { ' ` ` _ ` ` ` _ ` _ { { ` ` ` ` ` ` ` ` ` ` ` ` ` ` { ` { ` ` ` ` { @.%._.% ",
"% _.I _ ] _ ` _ ` ` ` ` ` ` { ` ` ` ` ` ` ` ` ` ` ` ` ` ` ` ` { { { ` ` { @.=.*.].% ",
"% ).K _ _ _ ` ` ` ` _ _ ` ` ` ` ` ` ` ` ` ` ` ` ` ` ` ` ` { { ` ` ` { O.-.<.G.b.k % ",
"% y E [ ` ` ` ` ` ` ' ` ` ` ` ` ` ` ` ` ` ` ` ` ` ` ` ` ` ` ` { _ [ o.-.1.G.Z.i.9 % ",
"% r %./ [ +.` ` ` ` ] ` ` ` ` ` ` { ` ` ` ` ` ` ` ` ` ` ` ` ` _ [ -.;.,.U.V.E.x.= % ",
"% : H  .@.{ { ` ` ` ` _ ` ` ` ` ` ` ` ` ` ` ` ` ` ` ` ` { { { o.@.;.G.U.L.S.l.a % % ",
"% % ).*.:.@.O.{ ` _ { { ' _ ` { ` ` ` ` ` ` { ` { { O.O.o.@.@.;.1.J.K.P.V.N.g.t % % ",
"% % t Z &.1.;.@.@.o.O.O.o.} [ _ _ ` _ _ { { [ [ O.@.-.;.;.<.<.G.J.I.V.Z.C.p.[.& % % ",
"% % & ].y.v.H.>.>.,.<.<.=.X.o.o.o.o.@.@.@.@.;.;.;.:.,.G.J.H.H.L.P.!./.W.N.h.s % % % ",
"% % % 5 g.t.E.v.H.G.J.J.>.>.=.;.:.:.:.:.:.:.,.,.G.J.J.P.K.P.P.R./.R./.S.u.`.= % % % ",
"% % % % a h.F.V.V.K.I.I.Z.K.J.J.L.L.K.L.L.L.L.L.L.P.R.R.R.R.R.R.(.C.Z.C.a.i % % % % ",
"% % % % = '.p.A.V.P./.!.R.P.!.P././.!.!.P.!.P.P.!.Z.R.R.E.R.R.R.Z.R.C.F. X% % % % % ",
"% % % % % 6 c.M.V.I.P.Z.Z.(.Z./.!.!.R.R.!.P.P.P.!.!.!.R.R.R.!.!.~.n.D..X4 % % % % % ",
"% % % % % % f h.N.S.V.!.(.B.^.R.!.Z.Z.Z.P.P.P.P.~.!.R.Z.R.C.Z.!.Z.F.d.> % % % % % % ",
"% % % % % % & j a.A.S.S.B.W.R.!.R.!.R.!.!.!.!.R.Z.(.Z.Z.~.~.R.W.u.d.& % % % % % % % ",
"% % % % % % % & k h.m.A.C.Z.~.Z.!.!.P.!.R.P.Z.R.!.B.!.~.R.C.E.u.z.% % % % % % % % % ",
"% % % % % % % % & j h.Q.S.!.P.P.!.~.P.!.R.R.Z.Z.P.~.P.S.C.N.Q.z.= % % % % % % % % % ",
"% % % % % % % % % % s g.m.B.P.P.~.!.!.P.C.C.R.Z.K.P.P.E.F.i.[.: % % % % % % % % % % ",
"% % % % % % % % % % % y k.F.V.P.!.Z.!.Z.C.C.R.Z.~.V.n.p.f.s * % % % % % % % % % % % ",
"% % % % % % % % % % % % 4 < $ F.N.N.N.F.p.p.D.N.M.D.j.].1 % % % % % % % % % % % % % ",
"% % % % % % % % % % % % % % s < s.g.g.f.[.[.[. Xf.{.9 % % % % % % % % % % % % % % % ",
"% % % % % % % % % % % % % % % % 6 7 6 1 & % % = 1 & % % % % % % % % % % % % % % % % "
};
