/* XPM */
static const char *gate7[] = {
/* columns rows colors chars-per-pixel */
"42 42 200 2 ",
"   c #004000",
".  c #044304",
"X  c #074507",
"o  c #0B4507",
"O  c #094609",
"+  c #0B480B",
"@  c #1F4F15",
"#  c #1A5117",
"$  c #1E5218",
"%  c #204C11",
"&  c #255720",
"*  c #375A23",
"=  c #365B24",
"-  c #3E5D2B",
";  c #3F622F",
":  c #675D2C",
">  c #426938",
",  c #476B3C",
"<  c #526737",
"1  c #5D6D3D",
"2  c #537746",
"3  c #5E7041",
"4  c #617042",
"5  c #757247",
"6  c #EE7C1C",
"7  c #DE6425",
"8  c #DF6E22",
"9  c #DE6926",
"0  c #DD6C25",
"q  c #DD6D2D",
"w  c #DE712C",
"e  c #DD6735",
"r  c #D96830",
"t  c #D86F36",
"y  c #DB663B",
"u  c #D96F3B",
"i  c #DF7635",
"p  c #D8793F",
"a  c #ED6E21",
"s  c #E0672E",
"d  c #E56B2A",
"f  c #E96F2B",
"g  c #E37020",
"h  c #E57627",
"j  c #EC7523",
"k  c #EC7227",
"l  c #EB7626",
"z  c #E2712B",
"x  c #E57529",
"c  c #E1712F",
"v  c #E7772F",
"b  c #E97528",
"n  c #EF752C",
"m  c #FE7F22",
"M  c #E76C33",
"N  c #E06836",
"B  c #E96E32",
"V  c #E37230",
"C  c #E07235",
"Z  c #EF7631",
"A  c #E57E31",
"S  c #847343",
"D  c #A9764C",
"F  c #B57542",
"G  c #AF7451",
"H  c #D27D4E",
"J  c #D67C4E",
"K  c #C17B54",
"L  c #DF7651",
"P  c #DC7F52",
"I  c #E3724A",
"U  c #E6754D",
"Y  c #E37A4A",
"T  c #E0794E",
"R  c #EA7D52",
"E  c #6F865E",
"W  c #798C67",
"Q  c #F0801C",
"!  c #F08A1C",
"~  c #FF8C1B",
"^  c #FD971B",
"/  c #F99C1E",
"(  c #FFAC17",
")  c #F8A61C",
"_  c #F1AA1E",
"`  c #FFAD1B",
"'  c #FBA91F",
"]  c #F9AC1E",
"[  c #EC8921",
"{  c #F48421",
"}  c #F98323",
"|  c #F28824",
" . c #F88E27",
".. c #F4852C",
"X. c #F68F2A",
"o. c #FF8F2B",
"O. c #F89321",
"+. c #FE9321",
"@. c #FE9522",
"#. c #FF9125",
"$. c #FF9524",
"%. c #F89E22",
"&. c #F08831",
"*. c #FD8B33",
"=. c #FF9C30",
"-. c #FFA122",
";. c #FFA522",
":. c #F2A821",
">. c #FFAD23",
",. c #FFAB24",
"<. c #FDA52A",
"1. c #FFAD28",
"2. c #FFB625",
"3. c #FFBD21",
"4. c #FFBC26",
"5. c #FFB92F",
"6. c #FFBA36",
"7. c #FFC626",
"8. c #FFCA29",
"9. c #FFCE2D",
"0. c #FFD127",
"q. c #FFD22B",
"w. c #FDD528",
"e. c #FFD12C",
"r. c #FFD92D",
"t. c #FFC733",
"y. c #FFD330",
"u. c #FFD436",
"i. c #FFD23C",
"p. c #FFD73C",
"a. c #FFDE3B",
"s. c #FFDF3F",
"d. c #FFE232",
"f. c #FFE73A",
"g. c #FFF33B",
"h. c #908057",
"j. c #899068",
"k. c #9C9878",
"l. c #AB936C",
"z. c #B29168",
"x. c #A5987B",
"c. c #B29C7D",
"v. c #DC804F",
"b. c #CB815A",
"n. c #DD8351",
"m. c #D2815C",
"M. c #E48140",
"N. c #E4875C",
"B. c #D58661",
"V. c #E38262",
"C. c #E08763",
"Z. c #F09671",
"A. c #FB9A7A",
"S. c #FFD341",
"D. c #FFDC43",
"F. c #FFDC46",
"G. c #FFE64B",
"H. c #FFF246",
"J. c #FEF348",
"K. c #FFF74E",
"L. c #FFF849",
"P. c #FFF84D",
"I. c #FFEF53",
"U. c #FFE859",
"Y. c #FFF467",
"T. c #FFFE65",
"R. c #F5FF6F",
"E. c #FFFB6B",
"W. c #FFFA6D",
"Q. c #FFF270",
"!. c #FFF575",
"~. c #FFF67C",
"^. c #FFFA78",
"/. c #FFFE79",
"(. c #FFF87F",
"). c #FFFF7E",
"_. c #ADB390",
"`. c #D9A581",
"'. c #E4A98F",
"]. c #F1AD8A",
"[. c #F3B38D",
"{. c #FAB693",
"}. c #FFBA96",
"|. c #FBB59B",
" X c #F6B0A4",
".X c #F2B6AC",
"XX c #FFFB80",
"oX c #FFFF8A",
"OX c #FFFF91",
"+X c #FDFD94",
"@X c #FFFC9A",
"#X c #F9FFA2",
"$X c #FBFFA7",
"%X c #FFFFA4",
"&X c #FFFFAE",
"*X c #FFFABE",
"=X c #FFFDBC",
"-X c #FDFFC9",
";X c #FFFFCC",
":X c #FFFFD2",
/* pixels */
"                                                                                    ",
"                                                                                    ",
"                                                                                    ",
"                                                                                    ",
"                                                                                    ",
"                                                                                    ",
"                                                                                    ",
"                                                                                    ",
"                                                                                    ",
"                                                                                    ",
"                                                                                    ",
"                                                                                    ",
"                                                                                    ",
"                                                                                    ",
"                                                                                    ",
"                                          X X O                                     ",
"                                  S D K b.m.C.B.G 5 $                               ",
"                                F i z b l l n f M T h.&                             ",
"                              H A X.<.>.( ` ;.O.6 0 v.l.                            ",
"                            % M.[ 1.i.s.s.a.y.4.-.Q V Z.k.                          ",
"                            J &.) 9.I.E.XX^.K.d.3.^ a I .X                          ",
"                            t  .7.f.W.OX&X#XR.P.r.2.m N  X                          ",
"                        . o q +.r.P.+X=X:X-X#X/.J.e.$.c |.                          ",
"                        X * 9 ~ w.K.+X*X:X;X$X).L.0.@.w {.                          ",
"                          1 7 #.8.H.!.@X&X%XoXT.g.q.o.C [.+                         ",
"                          4 r } ] u.U.Q.(.~.Y.G.8.5.*.u `.                          ",
"                          x.P x ! ,.t.p.D.F.S.6.=...v n.c.                          ",
"                          E ].p h { / ' _ :.%.| Z e v.z.,                           ",
"                            _.}.Y B k j g 8 d s y V.< >                             ",
"                              2 '.A.N.R U L :     @                                 ",
"                                  W j.3 - = ; #                                     ",
"                                                                                    ",
"                                                                                    ",
"                                                                                    ",
"                                                                                    ",
"                                                                                    ",
"                                                                                    ",
"                                                                                    ",
"                                                                                    ",
"                                                                                    ",
"                                                                                    ",
"                                                                                    "
};
