/* XPM */
static const char *gate8[] = {
/* columns rows colors chars-per-pixel */
"42 42 204 2 ",
"   c #010101",
".  c #0B0101",
"X  c #01020A",
"o  c #0C020A",
"O  c #000A0A",
"+  c #130100",
"@  c #1B0100",
"#  c #1A0C05",
"$  c #170E0A",
"%  c #070713",
"&  c #230200",
"*  c #2B0300",
"=  c #250D01",
"-  c #2A0C01",
";  c #330301",
":  c #3A0300",
">  c #360D00",
",  c #3B0E00",
"<  c #271509",
"1  c #321302",
"2  c #381401",
"3  c #331902",
"4  c #351609",
"5  c #3C1B0A",
"6  c #2A1E1A",
"7  c #301D17",
"8  c #062B00",
"9  c #033A00",
"0  c #1A201E",
"q  c #29390C",
"w  c #2E201F",
"e  c #392719",
"r  c #1A2320",
"t  c #2C2527",
"y  c #303225",
"u  c #3D3529",
"i  c #3A3F30",
"p  c #450B00",
"a  c #431601",
"s  c #491600",
"d  c #461A02",
"f  c #4B1A01",
"g  c #441C0F",
"h  c #521E03",
"j  c #5A1C00",
"k  c #431E16",
"l  c #43220C",
"z  c #48270A",
"x  c #4F2A0F",
"c  c #442316",
"v  c #4B2917",
"b  c #562A16",
"n  c #592F12",
"m  c #662A07",
"M  c #652C05",
"N  c #792A05",
"B  c #69330F",
"V  c #77350E",
"C  c #622C13",
"Z  c #6B2F13",
"A  c #7C2F11",
"S  c #64351A",
"D  c #703410",
"F  c #432922",
"G  c #422B2A",
"H  c #4A3C29",
"J  c #583925",
"K  c #483E35",
"L  c #6A3727",
"P  c #613B24",
"I  c #623F2D",
"U  c #004000",
"Y  c #094106",
"T  c #094509",
"R  c #0C480D",
"E  c #1E410D",
"W  c #164716",
"Q  c #144C13",
"!  c #194C15",
"~  c #1D4B1C",
"^  c #165116",
"/  c #1A521B",
"(  c #24440E",
")  c #234D19",
"_  c #2B4D1B",
"`  c #2A5424",
"'  c #2B5C29",
"]  c #325A2A",
"[  c #37423E",
"{  c #3E5636",
"}  c #385C34",
"|  c #2E602E",
" . c #326333",
".. c #366637",
"X. c #3C683C",
"o. c #424B2B",
"O. c #5B4629",
"+. c #4A413B",
"@. c #59413B",
"#. c #52573C",
"$. c #624227",
"%. c #6E4223",
"&. c #64462D",
"*. c #6A4229",
"=. c #784625",
"-. c #774828",
";. c #684736",
":. c #774B34",
">. c #7D5434",
",. c #323E49",
"<. c #3A444B",
"1. c #4F4544",
"2. c #504D46",
"3. c #495A44",
"4. c #5C554A",
"5. c #464A53",
"6. c #704E42",
"7. c #61574E",
"8. c #775746",
"9. c #625657",
"0. c #705E52",
"q. c #436B40",
"w. c #4A7549",
"e. c #53744D",
"r. c #546854",
"t. c #587D59",
"y. c #6B6647",
"u. c #6B675F",
"i. c #756251",
"p. c #5F6271",
"a. c #726963",
"s. c #79746C",
"d. c #873D0B",
"f. c #933D0C",
"g. c #86431B",
"h. c #8C4D1E",
"j. c #96451B",
"k. c #854927",
"l. c #934D26",
"z. c #9E4D2F",
"x. c #8C532B",
"c. c #995229",
"v. c #865134",
"b. c #84513A",
"n. c #A85937",
"m. c #9A623D",
"M. c #A7633A",
"N. c #B56139",
"B. c #CD733B",
"V. c #D77437",
"C. c #875B49",
"Z. c #955F46",
"A. c #836247",
"S. c #9F6745",
"D. c #9C6551",
"F. c #A96A44",
"G. c #A66A48",
"H. c #B76841",
"J. c #B46B44",
"K. c #B67545",
"L. c #BF724C",
"P. c #BF7A4E",
"I. c #A67754",
"U. c #B87659",
"Y. c #877368",
"T. c #897972",
"R. c #C67549",
"E. c #C87A48",
"W. c #D57C46",
"Q. c #CE7853",
"!. c #D17B60",
"~. c #578258",
"^. c #6B8965",
"/. c #72896E",
"(. c #758C75",
"). c #7B9779",
"_. c #7AA37F",
"`. c #B9825C",
"'. c #968170",
"]. c #9B917E",
"[. c #BF8361",
"{. c #A48A79",
"}. c #CB8556",
"|. c #C3815B",
" X c #C68764",
".X c #C58369",
"XX c #968D87",
"oX c #8C9594",
"OX c #9E9A98",
"+X c #AB9B8B",
"@X c #A09B97",
"#X c #ADA39D",
"$X c #A9A9A8",
"%X c #A2B7A0",
"&X c #B5B1AE",
"*X c #BABBB4",
"=X c #C3B2AB",
"-X c #B5C0B4",
";X c #D4C8BC",
":X c #D6CCCA",
">X c #C9D2D1",
",X c #E6D8D7",
"<X c #EEE7E1",
"1X c #FEFEFD",
/* pixels */
"U U U U U U U U U U U U U U U U U U U U U U U U U U U U U U U U U U U U U U U U U U ",
"U U U U U U U U U U U U U U { ` U U U U U U Q 3.} U U Q ! U U U U 9 U U U U U U U U ",
"U U U U U U U U U U U U U o.@ O.R Q T U U U y.@ F U U e @ ! U U U 9 U U U U U U U U ",
"U U U U U U U U U U U { u ;.S.=.H [ ,.<.i H %.Z.8.H H 8.D.L y U U U U U U U U U U U ",
"U U U U U U U U U U U G + %.}.k.+   X   . + B .XC.@ + A..Xb + ~ U U U U U U U U U U ",
"U U U U ! ` Q U U { 4.;.-.M m h .   %   . . , C g @ @ l C : . t Q Q W Q U U U U U U ",
"U U U U #.. 3.U Q . @ G.|.M & .     X X     + + . .   . + +       O . + U U U U U U ",
"U U / e.;.d 7.X.r.# & B k.s . o   X     X     . .                 . k b ) ] X./ U U ",
"U U t + l.}.$.. . . + + + +     . . .                             3 J.L.5 8 ~ ~.U U ",
"U ' w & V M.J . . .               .         X X                 . & c.N.h - U Q X...",
"U X.t . @ = +                               X X                   . & : j.L.$.U U | ",
"U q.F +     X o                                                   + & ; j.R.S 8 U w.",
"u.J l.l.3   .               X X                         . .     . & g.c.j a #.U R U ",
"+.@ J.E.z   . .                               . .       . .     + 2 K.E.p & ! U U U ",
"/.a.P n =                 X         X                             . x D N A b.U U ~.",
"U ^ l @ + .     X                   X                               . & z.!.L . U _.",
"(.XXC j * . o     .                                                   . L v.6.9 9  .",
"5.+ F.L.z +   X   .                                                   . & * 9 U 9 U ",
"p.6 m.m.5             X X X                                     .     . * : ) U U U ",
" .(.x & @   O           X X X                                         . v.U.I U U U ",
"U w.e . .               X X                                       X   . v.U.J 9 U U ",
"U Q t./.+.              . .                                           . , a U U U U ",
"U U T ^ 0.. o                                                           . U U U U U ",
"U t.oXs.*.P 7                                                     o   . T U U U U U ",
"U ).6 + h.}.*.+ .   .   X O                                         . # U U U U U U ",
"^.].b f d.h.n + .         O                                       + g l ` U U U U U ",
"1.@ J.R.d + + . . .                                               - H.H.z U U U U U ",
"9.4 n.M.l . . .   .                                               & n.N.d + ! U U U ",
"U ] c & +   .             X                                       . - : j.J.E U U U ",
"U U t + + @ & + #   .   X X                                           + z.Q.q U U U ",
"U U 0 . M j.f.c.C @ .   X                                           X . , f _ U U U ",
"U U r . x.W.V.B.c.; .   X X                                     . +     . 8 U U U U ",
"U U Q ` :.V f.E.j.; +   X X                 X X             . - S h @ + ~ U U U U U ",
"U U U U ;.& m P.m.& . O     + .         .     . . . . . . . . v [.G.& 9 U U U U U U ",
"U U U U ! @.I C.:.;.+.$ . = d > .   o     . * d 2 @ @ a a * @ 3 b.( Y U U U U U U U ",
"U U U U U U ` + e ^.^.u . *.`.=.+   . . . + M P.k.* * Z.`.z + . @ q U U U U U U U U ",
"U U U U U U / $ 4.Q  .2.< &.I.%.. + * * + @ N W.x.; * :.I.J < t < U U U U U U U U U ",
"U U U U U U U R ' U U Q e.i.- & . @ v.S.4 @ N R.x.& @ * & '.:X/.U U U U U U U U U U ",
"U U U U U U U U U U U U U s.. + . 1 F. Xc + Z |.>.= @ +   OX/ U U U U U U U U U U U ",
"U U U U U U U U U U U U U ).$X@X#X{.m f Y.=XC.d &.+X#XOX$Xw.U U U U U U U U U U U U ",
"U U U U U U U U U U U U U U T ` ).;X1 + *X1XT.+ K <X%Xw.T U U U U U U U U U U U U U ",
"U U U U U U U U U U U U U U U U U ,XT.s.>XU &Xa.XX-XU U U U U U U U U U U U U U U U "
};
