/* XPM */
static char *_1f838d1b5144acecea9f3551fda381fIGD1VobXeZnDMhXx[] = {
/* columns rows colors chars-per-pixel */
"42 42 81 1 ",
"  c #010001",
". c #0B0303",
"X c #000208",
"o c #110604",
"O c #130806",
"+ c #1C0C07",
"@ c #170B08",
"# c #1C0C08",
"$ c #220D06",
"% c #220F09",
"& c #27120B",
"* c #2C140B",
"= c #2F190B",
"- c #31160B",
"; c #341A0E",
": c #381B0F",
"> c #42210F",
", c #432413",
"< c #4A2716",
"1 c #4E2911",
"2 c #512914",
"3 c #592D13",
"4 c #5F3112",
"5 c #59321A",
"6 c #613314",
"7 c #6E3A16",
"8 c #62361A",
"9 c #653919",
"0 c #6B3919",
"q c #713A16",
"w c #7A3D14",
"e c #733E19",
"r c #004000",
"t c #0B4005",
"y c #0D4108",
"u c #13410A",
"i c #1C420E",
"p c #22410F",
"a c #254212",
"s c #2B4114",
"d c #334216",
"f c #3C4217",
"g c #334219",
"h c #3A421A",
"j c #424219",
"k c #4C421E",
"l c #52421F",
"z c #5C411E",
"x c #64421E",
"c c #6C421C",
"v c #714217",
"b c #7C4416",
"n c #73431C",
"m c #7C441A",
"M c #4E4221",
"N c #564121",
"B c #5D4321",
"V c #634321",
"C c #674222",
"Z c #6B4321",
"A c #6F4421",
"S c #704221",
"D c #734323",
"F c #8A450F",
"G c #8D440F",
"H c #874711",
"J c #814416",
"K c #824616",
"L c #874516",
"P c #8E4311",
"I c #8B4512",
"U c #8C4511",
"Y c #894615",
"T c #8C4414",
"R c #864817",
"E c #8A4816",
"W c #82431A",
"Q c #804619",
"! c #84461A",
"~ c #884519",
"^ c #884718",
/* pixels */
"rrrrrrrrrrrrrrtigjxccccCkfayrrrrrrrrrrrrrr",
"rrrrrrrrrrrryskBZnmmmmmmnACNfirrrrrrrrrrrr",
"rrrrrrrrrrysznmQKLIIIIIIIL!WnVjirrrrrrrrrr",
"rrrrrrrrrpNSmLIUIGGIIIUGGIIILQnVgtrrrrrrrr",
"rrrrrrrtfcmLIIIUUIIYYIIIIIIHIUTQckurrrrrrr",
"rrrrrrukcKIIUIIIIIIYIIIIIIIIYIUI!nzsrrrrrr",
"rrrrruNmLIIIIYYIUU!mmmm!YUUPYIFUUIKxsrrrrr",
"rrrrtkmLIIIIIYYLe3,&%%%:20mYIIIUUUImVirrrr",
"rrrrfcLI!YUIUIq>@        O&5m^LIIIIRnlurrr",
"rrrpcKIILLIUm,O XXX        .*0YIYYIILnjrrr",
"rryNmIIIUIY7;               X+3LIITUULZarr",
"rrsSLIIIIU7$                XX.1IGUIUImltr",
"ryzmIUIYUm; X                 XO9IUYIULcsr",
"rdnLIIYYI,                      #eT^UUImkt",
"tkmIIIYYqO                       ,^YUIIKxi",
"iBQIUIIL>                        +eUIYIYAh",
"gZLUUIUe@X                        1GYYIIbx",
"fnYGUIU3 X                        *HYYUUKc",
"xnIGII!, X                        #mYIUIKc",
"cmIUYYm&                          .6UUUILv",
"cmIIYIm%                           4UIIILv",
"cmIIYIm%                           4UIIILc",
"cmIUYIm%                           6YIIILc",
"ZmIGIY!:                          O7YYUULc",
"knIGIIE2                          &mYYUYKc",
"fALGIIU0O                         >IYYGYmC",
"aCLIIIGm&                        .6UIIGLnk",
"yNWIHYPY5.                 X  X  =QYPII!As",
"rhnLIYYIm*XX                    o8YYUULmBu",
"rixQUIIIY0#X                    <^UIIU!nfr",
"rrjmTUFILY3.X              X   -mUIHFUWBur",
"rriVQIUUIIK1O                .-wTLHII!Sfrr",
"rrrgcLUUUYII9%              o<WUILIUImlurr",
"rrrtkmUUIYIGIe,+          .=8^ULLIIUKxarrr",
"rrrruzKIIIYUUU^e1*#.   O&>6QYUIHIIILndrrrr",
"rrrrrsxmLIUIY^YUGLm64667mIUYYIHIUULnjtrrrr",
"rrrrrrsVnLUGIUGIYYYUUUTYYYITUIFIIQSjtrrrrr",
"rrrrrrrilnLIUUIYYYYUUUIYYYIIUUULmxdtrrrrrr",
"rrrrrrrrujZmLIIIIUUUIIIUUGGIY!WSlarrrrrrrr",
"rrrrrrrrrralcmLIIUIYYIIIYYL!mnzfurrrrrrrrr",
"rrrrrrrrrrrtaMCnbKLYYLLLKmnABfurrrrrrrrrrr",
"rrrrrrrrrrrrrtihVxcvvvcccxksurrrrrrrrrrrrr"
};
