/* XPM */
static char *c435595a3bdc4296b74ce7bc211082cfWSoNilfXTugkM9Jk[] = {
/* columns rows colors chars-per-pixel */
"42 42 250 2 ",
"   c #004000",
".  c #094104",
"X  c #22440C",
"o  c #474618",
"O  c #574615",
"+  c #7F4618",
"@  c #894516",
"#  c #8B4515",
"$  c #8C4413",
"%  c #8C4512",
"&  c #894615",
"*  c #654616",
"=  c #4D4619",
"-  c #324512",
";  c #134206",
":  c #014001",
">  c #434410",
",  c #664515",
"<  c #7E4719",
"1  c #884617",
"2  c #8C4514",
"3  c #8A4514",
"4  c #8B4512",
"5  c SaddleBrown",
"6  c #884616",
"7  c #85481C",
"8  c #80461B",
"9  c #754515",
"0  c #524616",
"q  c #24430C",
"w  c #044002",
"e  c #124208",
"r  c #424414",
"t  c #744619",
"y  c #8C4517",
"u  c #8C4513",
"i  c #8D4411",
"p  c #8C4411",
"a  c #894515",
"s  c #884614",
"d  c #894613",
"f  c #894513",
"g  c #8A4512",
"h  c #8C4511",
"j  c #8D4410",
"k  c #8E4410",
"l  c #8E4412",
"z  c #8D4514",
"x  c #814617",
"c  c #5B4613",
"v  c #26430A",
"b  c #054103",
"n  c #2E430E",
"m  c #71461B",
"M  c #8B4416",
"N  c #8F4313",
"B  c #894517",
"V  c #8B4511",
"C  c #8B450F",
"Z  c #8B4510",
"A  c #894514",
"S  c #8C4510",
"D  c #8E4510",
"F  c #804719",
"G  c #4C4616",
"H  c #124106",
"J  c #0B4104",
"K  c #4E4515",
"L  c #834619",
"P  c #894614",
"I  c #8E440E",
"U  c #8D440E",
"Y  c #8C450E",
"T  c #8A4610",
"R  c #894610",
"E  c #894611",
"W  c #884615",
"Q  c #894612",
"!  c #8A4511",
"~  c #8A4613",
"^  c #87461B",
"/  c #6C461E",
"(  c #1F420C",
")  c #1B420A",
"_  c #67461A",
"`  c #84451A",
"'  c #884613",
"]  c #8A4611",
"[  c #8A4513",
"{  c #8D440F",
"}  c #884518",
"|  c #78471C",
" . c #3B4514",
".. c #034001",
"X. c #1C430A",
"o. c #664921",
"O. c #884716",
"+. c #8C4410",
"@. c #8C4412",
"#. c #8A4516",
"$. c #8A4515",
"%. c #8B4514",
"&. c #8B4415",
"*. c #8C450F",
"=. c #8E450C",
"-. c #81471B",
";. c #404412",
":. c #0C4104",
">. c #67461B",
",. c #824619",
"<. c #2C430E",
"1. c #054102",
"2. c #4E4415",
"3. c #87461A",
"4. c #6D461D",
"5. c #2F430F",
"6. c #834618",
"7. c #884515",
"8. c #8A4416",
"9. c #8B4517",
"0. c #5C4618",
"q. c #084103",
"w. c #134108",
"e. c #71461C",
"r. c #8E4311",
"t. c #864618",
"y. c #384413",
"u. c #434415",
"i. c #884516",
"p. c #8D4513",
"a. c #6A461A",
"s. c #0E4105",
"d. c #754618",
"f. c #874617",
"g. c #8C440F",
"h. c #864616",
"j. c #394411",
"k. c #8A4517",
"l. c #8B4417",
"z. c #6B461B",
"x. c #0F4106",
"c. c #094103",
"v. c #674516",
"b. c #894518",
"n. c #824616",
"m. c #2C450D",
"M. c #22430C",
"N. c #7F4719",
"B. c #8C4415",
"V. c #894715",
"C. c #554719",
"Z. c #484618",
"A. c #8D4413",
"S. c #8B4413",
"D. c #8F4310",
"F. c #854518",
"G. c #564614",
"H. c #864716",
"J. c #8A4414",
"K. c #874516",
"L. c #854415",
"P. c #452413",
"I. c #31140A",
"U. c #703E1B",
"Y. c #311409",
"T. c #1B0302",
"R. c #673819",
"E. c #884715",
"W. c #703E1C",
"Q. c #673718",
"!. c #80461A",
"~. c #8D4510",
"^. c #4F471A",
"/. c #85471C",
"(. c #80471B",
"). c #8E4411",
"_. c #854719",
"`. c #66471B",
"'. c #144206",
"]. c #764516",
"[. c #8D4316",
"{. c #89460F",
"}. c #8D450F",
"|. c #8A4612",
" X c #854717",
".X c #3C4514",
"XX c #544619",
"oX c #8D4519",
"OX c #77471B",
"+X c #194209",
"@X c #25430E",
"#X c #814619",
"$X c #8A460F",
"%X c #504617",
"&X c #034002",
"*X c #5B4615",
"=X c #8E450F",
"-X c #7A461C",
";X c #1E420A",
":X c #26430B",
">X c #814818",
",X c #8E450E",
"<X c #8B4410",
"1X c #85471D",
"2X c #4D471B",
"3X c #024001",
"4X c #044102",
"5X c #4D4616",
"6X c #8D4512",
"7X c #6D481D",
"8X c #18430B",
"9X c #6B471C",
"0X c #8D450D",
"qX c #834716",
"wX c #36440F",
"eX c #1F430C",
"rX c #464513",
"tX c #8F440E",
"yX c #604719",
"uX c #0F4207",
"iX c #404411",
"pX c #864718",
"aX c #124206",
"sX c #8D4310",
"dX c #834615",
"fX c #0E4206",
"gX c #1A420A",
"hX c #5B4517",
"jX c #864517",
"kX c #8A4614",
"lX c #84471D",
"zX c #6E481E",
"xX c #364410",
"cX c #074103",
"vX c #8B4613",
"bX c #79471C",
"nX c #8B4615",
"mX c #874515",
"MX c #734820",
"NX c #4F4618",
"BX c #1D4209",
"VX c #2D440E",
"CX c #574616",
"ZX c #8E440F",
"AX c #8B4612",
"SX c #6B4515",
"DX c #40430F",
"FX c #17420A",
"GX c #024002",
"HX c white",
/* pixels */
"                            . X o O + @ # $ % & * = - ; :                           ",
"                        ; > , < 1 2 $ $ 3 3 4 5 6 7 8 9 0 q w                       ",
"                    e r t @ y u i p 5 a s d f g h j k l z x c v w                   ",
"                b n m M N M B 3 V C C Z V g A & 5 j j s s S D F G H                 ",
"              J K L & P S I U Y C T R E Z V g a W A f Q Q ! ~ B ^ / ( :             ",
"            ) _ ` # 3 ' ] S 4 g d s W W 3 5 % V g d [ i a 6 h { g } |  ...          ",
"          X.o.O.g S +.@.# #.$.3 5 @.i i %.3 h j S V 4 $ &.$.g Z *.=.*.-.;...        ",
"        :.>.6 g 4 4 4 4 4 4 4 4 4 4 4 4 4 4 4 4 4 4 4 4 4 4 4 4 4 Z E 4 ,.<.        ",
"      1.2.` g 4 4 4 4 4 4 4 4 4 4 4 4 4 4 4 4 4 4 4 4 4 4 4 4 4 4 P Z j 3.4.)       ",
"      5.6.%.S 4 4 4 4 4 4 4 4 4 4 4 4 4 4 4 4 4 4 4 4 4 4 4 4 4 4 7.4 k 8.9.0.q.    ",
"    w.e.& 3 j 4 4 4 4 4 4 4 4 4 4 4 4 4 4 4 4 4 4 4 4 4 4 4 4 4 4 5 $.$ r.j t.y.    ",
"    u.M P ' @.4 4 4 4 4 4 4 4 4 4 4 4 4 4 4 4 4 4 4 4 4 4 4 4 4 4 p a i.k k p.a.s.  ",
"  ; d.N S ] # 4 4 4 4 4 4 4 4 4 4 4 4 4 4 4 4 4 4 4 4 4 4 4 4 4 4 j 4 f.f g.s h.j.  ",
"  > k.l.I S $.4 4 4 4 4 4 4 4 4 4 4 4 4 4 4 4 4 4 4 4 4 4 4 4 4 4 % % a f h P 4 z.x.",
"c.v.l.b.{ V A 4 4 4 4 4 4 4 4 4 4 4 4 4 4 4 4 4 4 4 4 4 4 4 4 4 4 4 4 4 4 4 4 4 n.m.",
"M.N.B.$.*.g [ 4 4 4 4 4 4 4 4 4 4 4 4 4 4 4 4 4 4 4 4 4 4 4 4 4 4 4 4 4 4 4 4 4 V.C.",
"Z.1 A.S.Z Q 4 4 4 4 4 4 4 4 4 4 4 4 4 4 4 4 4 4 4 4 4 4 4 4 4 4 4 4 4 4 4 4 4 4 D.F.",
"G.2 @.V T s % 4 4 4 4 4 4 4 4 4 4 4 4 4 4 4 4 4 4 4 4 4 4 4 4 4 4 4 4 4 4 4 4 4 g H.",
"+ @.J.V E W i 4 4 4 4 4 4 4 4 4 4 4 4 4 4 4 4 4 4 4 4 4 4 4 4 4 4 4 4 4 4 4 4 4 Z T ",
"$.$ @ 4 Q W j 4 4 4 4 4 4 4 4 4 4 4 4 5 K.L.P 4 4 4 4 4 4 4 4 4 4 4 4 4 4 4 4 4 % S ",
"%.3 P V Z 3 %.4 4 4 4 4 4 4 4 4 4 4 4 K.P.I.U.P U S [ 4 4 4 4 4 4 4 4 4 4 4 4 4 4 5 ",
"% 3 d g h 5 3 4 4 4 4 4 4 4 4 4 4 4 4 L.Y.T.R.E.Y Z f 4 4 4 4 4 4 4 4 4 4 4 4 4 [ 3 ",
"% 4 [ d g @.h 4 4 4 4 4 4 4 4 4 4 4 4 P W.Q.!.s V 4 [ 4 4 4 4 4 4 4 4 4 4 4 4 4 4 4 ",
"& 5 4 & a V j 4 4 4 4 4 4 4 4 4 4 4 4 4 V.E.s f [ 4 4 4 4 4 4 4 4 4 4 4 4 4 4 4 4 ~ ",
"* 6 h [ W g S 4 4 4 4 4 4 4 4 4 4 4 4 4 U *.V [ 3 4 4 4 4 4 4 4 4 4 4 4 4 4 4 4 ~.U ",
"^./.j j A d V 4 4 4 4 4 4 4 4 4 4 4 4 4 S V 4 4 4 @.@.4 4 4 4 4 4 4 4 4 4 4 4 4 g.{ ",
"- (.).i d g 4 4 4 4 4 4 4 4 4 4 4 4 4 4 [ f [ 4 4 @.@.4 4 4 4 4 4 4 4 4 4 4 4 [ _.`.",
"'.].[.i.{.}.@.4 4 4 4 4 4 4 4 4 4 4 4 4 4 4 4 4 4 4 4 4 4 4 4 4 4 V V ] Q |.[ [  X.X",
": XXoXW {.d # 4 4 4 4 4 4 4 4 4 4 4 4 4 4 4 4 4 4 4 4 4 4 4 4 4 4 h S g f 4 h % OX+X",
"  @X#X*.$Xs #.4 4 4 4 4 4 4 4 4 4 4 4 4 4 4 4 4 4 4 4 4 4 4 4 4 4 h p a $.i j # %X&X",
"  w *X=X] S 3 4 4 4 4 4 4 4 4 4 4 4 4 4 4 4 4 4 4 4 4 4 4 4 4 4 4 h @.@ 3 j %.-X;X  ",
"    :X>Xd ,X<X4 4 4 4 4 4 4 4 4 4 4 4 4 4 4 4 4 4 4 4 4 4 4 4 4 4 h 4 @ 5 +.1X2X3X  ",
"    4X5Xf.g S 4 4 4 4 4 4 4 4 4 4 4 4 4 4 4 4 4 4 4 4 4 4 4 4 4 4 4 g P V 6X7X8X    ",
"      H 9X1 0XZ P 7.[ p j % 4 4 4 4 4 4 4 4 4 4 4 4 4 V V h h h % i 3 f.! qXwX      ",
"        eX| *.E Z % $.a 4 % 4 4 4 4 4 4 4 4 4 4 4 4 4 Z Z V 4 4 4 2 $ p t.rX..      ",
"        : .X8 4 j k $ i.f.a 4 4 4 4 4 4 4 4 4 4 4 4 4 V Q W 6 @ a 1 p tXyXuX        ",
"          3XiX,.3.#.r.k f f 4 4 4 4 4 4 4 4 4 4 4 4 4 g d a P 4 p V pXyXaX          ",
"            ..<./ 9.sXk +.V 4 4 4 4 4 4 4 4 4 4 4 4 4 4 4 h S S h dXrXfX            ",
"                gXhXjX$ P P 4 4 4 4 4 4 4 4 4 4 4 4 4 5 p j kXlXzXxX..              ",
"                  cXy.a.h.vX4 4 4 4 4 4 4 4 4 4 4 4 g [ $ # bX2X8X                  ",
"                      s.j.a.L nXi V g Q g [ [ % V A $.mXMXNXBX3X                    ",
"                          s.VXCX6.3 r.ZXp A [ V AXmXSXDXFXGX                        "
};
