/* XPM */
static const char *gate5[] = {
/* columns rows colors chars-per-pixel */
"42 42 228 2 ",
"   c #004000",
".  c #1A5218",
"X  c #294F18",
"o  c #2E5E28",
"O  c #305E27",
"+  c #35612D",
"@  c #4B521F",
"#  c #5D5B2D",
"$  c #6C592A",
"%  c #486D3D",
"&  c #5A6837",
"*  c #58774B",
"=  c #617850",
"-  c #9E5B34",
";  c #B35A32",
":  c #866034",
">  c #AD6036",
",  c #F65915",
"<  c #F9561C",
"1  c #F65A1C",
"2  c #FA5A1C",
"3  c #FA6315",
"4  c #F2641D",
"5  c #FE631D",
"6  c #F56C1B",
"7  c #EE731A",
"8  c #F4711D",
"9  c #FC781C",
"0  c #C55F3B",
"q  c #D15F3E",
"w  c #F64E22",
"e  c #EA5B24",
"r  c #E65D2C",
"t  c #EC5C2C",
"y  c #F35525",
"u  c #FC5525",
"i  c #F45C24",
"p  c #FC5A24",
"a  c #F3562A",
"s  c #FC5629",
"d  c #F45A2C",
"f  c #FC5A29",
"g  c #EE5631",
"h  c #E55D33",
"j  c #ED5C35",
"k  c #E75738",
"l  c #F15C32",
"z  c #F85835",
"x  c #D2653D",
"c  c #E86327",
"v  c #F46424",
"b  c #FD6323",
"n  c #F76C24",
"m  c #F3622A",
"M  c #FF632C",
"N  c #F46929",
"B  c #FD6B29",
"V  c #EF7424",
"C  c #F47724",
"Z  c #FF7523",
"A  c #FE7C25",
"S  c #FE732B",
"D  c #FF7B2C",
"F  c #E5633C",
"G  c #EC633B",
"H  c #EB6838",
"J  c #F56936",
"K  c #FF7A32",
"L  c #85754D",
"P  c #877C58",
"I  c #B16743",
"U  c #BD7B60",
"Y  c #E95F42",
"T  c #F05F40",
"R  c #D96643",
"E  c #DD6B54",
"W  c #D8725A",
"Q  c #E86747",
"!  c #E56844",
"~  c #F46948",
"^  c #E7734B",
"/  c #E26952",
"(  c #E96F58",
")  c #E57B56",
"_  c #FC7554",
"`  c #EE7C65",
"'  c #E67E6A",
"]  c #5F8255",
"[  c #688355",
"{  c #7B835D",
"}  c #FC980F",
"|  c #EF8D16",
" . c #F9831A",
".. c #FB8D1D",
"X. c #F6921B",
"o. c #F99A18",
"O. c #FC9D1D",
"+. c #FCB90B",
"@. c #FCA413",
"#. c #F5AB11",
"$. c #F9AB13",
"%. c #F7A518",
"&. c #F6A61C",
"*. c #FEAA1D",
"=. c #EDB411",
"-. c #FBB715",
";. c #FFB31D",
":. c #FEBA1C",
">. c #FB8522",
",. c #FD8A24",
"<. c #FE832B",
"1. c #FF8C2C",
"2. c #FD9323",
"3. c #F89626",
"4. c #FD9A23",
"5. c #FE942B",
"6. c #FF8333",
"7. c #FE8C31",
"8. c #FF8639",
"9. c #FF9137",
"0. c #FAA526",
"q. c #FDB727",
"w. c #EBC717",
"e. c #FCC51A",
"r. c #FECC1A",
"t. c #FFD817",
"y. c #FFDB1D",
"u. c #FFF60F",
"i. c #FFE415",
"p. c #FFE914",
"a. c #FEE41A",
"s. c #FEEB1C",
"d. c #FEF716",
"f. c #FFF31D",
"g. c #FEF91D",
"h. c #FCC527",
"j. c #FFCB22",
"k. c #FFC42B",
"l. c #FDD923",
"z. c #FFD829",
"x. c #F2CB34",
"c. c #FFE725",
"v. c #FFEC23",
"b. c #FDE52B",
"n. c #FFEA2C",
"m. c #FFF425",
"M. c #FDF921",
"N. c #FFF52C",
"B. c #FEFA2D",
"V. c #FFE938",
"C. c #FFF532",
"Z. c #FEFB33",
"A. c #FDF83C",
"S. c #88835A",
"D. c #B0825D",
"F. c #838D63",
"G. c #959B7C",
"H. c #A58869",
"J. c #B68564",
"K. c #A29271",
"L. c #A89E7D",
"P. c #B0987A",
"I. c #B1A07F",
"U. c #CF815F",
"Y. c #EC8059",
"T. c #F7835C",
"R. c #F3AD42",
"E. c #DC846C",
"W. c #CA9074",
"Q. c #E98767",
"!. c #F88765",
"~. c #F18E6E",
"^. c #F58C75",
"/. c #EB9278",
"(. c #F79A7D",
"). c #F3C647",
"_. c #FDEC48",
"`. c #FDFD42",
"'. c #FFF448",
"]. c #FEFB4A",
"[. c #F6E359",
"{. c #FEFB53",
"}. c #FFF558",
"|. c #FDFD5B",
" X c #F2C26D",
".X c #FEFD63",
"XX c #FAF867",
"oX c #FEFE6E",
"OX c #FAE375",
"+X c #FFFE74",
"@X c #FBF67B",
"#X c #FFFD7B",
"$X c #F49A82",
"%X c #CEA98E",
"&X c #ECA893",
"*X c #F8A997",
"=X c #FBB499",
"-X c #FDB4A3",
";X c #FEB9AA",
":X c #F2BBB3",
">X c #F5DC82",
",X c #FEF684",
"<X c #FFFE8B",
"1X c #FFF793",
"2X c #FFFE94",
"3X c #FFFF9C",
"4X c #C7C1A7",
"5X c #FEC3AF",
"6X c #F8C8B8",
"7X c #F2D0B7",
"8X c #FBE2A9",
"9X c #FFFCA4",
"0X c #FFFEAC",
"qX c #FFFDB4",
"wX c #FFF6BB",
"eX c #FEFEBC",
"rX c #FBD8C8",
"tX c #FFDFD3",
"yX c #FEFCC3",
"uX c #FEFDCC",
"iX c #FFE6D9",
"pX c #FEFDD3",
"aX c #FEFCDB",
"sX c #FEFDE4",
"dX c #FEFEEC",
"fX c #FEFEF4",
"gX c #F6FEFF",
"hX c #FDFEFD",
/* pixels */
"                                                                                    ",
"                                                                                    ",
"                                                                                    ",
"                                                                                    ",
"                                                                                    ",
"                                  $ R G t a d j q                                   ",
"                        @ ; h t t d l d a y y a w l F                               ",
"                    $ 0 l y p 2 p p i m m m v b b < y t > X                         ",
"                # - z s f u < 2 2 B K 8.7.7.7.6.D 5 < u d j ; :                     ",
"              & 0 z s w u b S D D <.7.9.5.5.5.5.1.A 5 2 < u f j I L                 ",
"            & x t s s M B A ,...2.2.2.2.2.3.2.X.5.5.,.Z 5 5 p y j ! J.              ",
"          & ) r i b S 6.1.4.@.;.$.$.$.#.#.$.#.%.o.o.4.5.<.Z 5 2 u g / W.            ",
"        & ` j i b A 1.3.&.e.y.i.i.i.p.p.p.p.a.y.e.:.*.4.5.7.<.S 2 p j ` {           ",
"      + E.k y b A ..o.-.r.c.N.B.m.M.M.M.g.g.g.m.c.b.k.%.4.5.5.7.Z 5 y Y $X%         ",
"    6XJ.Q d B <.5.@.+.t.N.Z.`.{.|..X.X|.|.{.].A.V.V.j.#.%.O.3.5.1.6 i g / *X        ",
"  4X=X^ r v D 5.} +.t.f.B.].+X<X2X3X3X3X2X<X+X.X|.V.w.=.-.:.&.0.5.6 1 a Q *X*       ",
"  rXQ.c e n <.0.-.i.d.g.`.+X9XeXyXyXuXuXyXeX0X3X<X+X_.b.c.v.e.#.X.9 b i G ~.7X      ",
"  tX!.e v D ,.*.r.p.g.Z..X3XuXsXsXsXdXdXsXaXpXyXqX3X+X].m.f.a.j.4.<.S i J ~.rX      ",
"  iX!.e n 7.O.;.b.m.C.|.2XeXaXfXfXfXgXgXfXfXfXdXaXyX3X#X].N.M.l.O.7.6.N m T.6X.     ",
"  iX!.t v 1.o.e.n.N.].#XqXaXdXhXhXgXgXgXhXhXhXhXfXaXqX2X.Xb.c.j.O.7.8.S i F &X*     ",
"  iX!.t v 1.} r.f.B.oX3XyXsXfXhXhXhXhXhXhXhXhXhXhXfXuX9X@Xx.h.q.5.7.9.K b h &X*     ",
"  rXQ.c N 1.} e.d.Z.#XqXpXdXhXhXhXhXhXhXhXhXhXhXhXhXpXqX,X).0.4.>.7.9.D 2 j *X%     ",
"  rX/.! J 7.o.e.f.N.#XqXpXdXhXhXhXhXhXfXhXhXhXhXhXdXpXqX#X_.q.|  .<.<.n 1 h *Xo     ",
"  iX=X) J 6.2.q.v.n.XX9XuXdXhXhXhXhXfXfXhXgXhXhXfXdXuX3X{.A.k.X.>.n 4 4 i F &X.     ",
"  ] 5X) H 8.5.0.k.e.V.@XyXdXhXgXgXgXfXfXhXhXgXhXfXsXeX@XZ.g.l.*.1.4 1 p d ^ K.      ",
"    5XQ.h N <.4.o.=.l.}.9XpXdXhXgXgXfXfXhXhXhXhXdXpX9XXXM.u.t.*.1.v f d h ~.{       ",
"    6X~.t i D 1.| #.a.Z.+X0XwXaXfXhXfXhXhXhXfXsXpX0XoX`.g.s.j.O.6.f J ~ ^ L o       ",
"    rX(.l p S <...;.v.M.'.+X>X8XaXdXdXdXdXsXaXyX0X#X].B.v.y.q.,.S d _ ^.D.%         ",
"    rX$Xj f M S  .*.c.f.N.V.). XwXuXuXyXyXeX0X2XoX].C.v.r.;.2.C v j !.H.&           ",
"    G.&XF f u M 7 X.j.c.N.b.q.R.OX1X2X2X<X,XOX[.'.C.n.z.*.| 8 v i h ^.S.            ",
"      K.Y.t a d J V O.h.z.j.&.0.x._.A.`.]._.x.=.z.j.q.0.A 4 1 1 y F W.*             ",
"      . S.) Q ! ~ H 7 O.q.*...X.:.b.s.s.n.z.$.@.;.o. .8 v f p y j W S.              ",
"        O P./.U U h 4 9 ,.,.6 C 4.*.:.h.k.*... .A 3 3 , p u s k W P *               ",
"          % 6X:XL R d 2 b B m c C >.2.4.2. .6 c d y u f f a T E P =                 ",
"                %XI g w u d Q ^ J 4 5 3 , 4 c H _ ~ z z g Q U.L G.                  ",
"                L./.E z z T ^.$XT.F d f d t R ~.=X^./ ( ` J.K.o                     ",
"                  7X*X' E ' P.  =XE.E ! Y / E.-X  F.%XI.L.X                         ",
"                    [ 6X;X5X      6X;X-X-X;X:X                                      ",
"                                                                                    ",
"                                                                                    ",
"                                                                                    ",
"                                                                                    "
};
