/* XPM */
static char *_fcd64fdfcd44a31e2d92cdf4f74aba60piyEALCRJKuMEem[] = {
/* columns rows colors chars-per-pixel */
"42 42 95 2 ",
"   c #000001",
".  c #0B0303",
"X  c #0F0905",
"o  c #000308",
"O  c #120603",
"+  c #140805",
"@  c #1B0B06",
"#  c #1D0D08",
"$  c #1F120C",
"%  c #200F07",
"&  c #220E08",
"*  c #281007",
"=  c #251208",
"-  c #2B160B",
";  c #2E190E",
":  c #31160C",
">  c #331B0E",
",  c #391C0D",
"<  c #3E2112",
"1  c #432411",
"2  c #4D2713",
"3  c #4C2B15",
"4  c #502711",
"5  c #552D15",
"6  c #5B2F12",
"7  c #5D3215",
"8  c #5E3419",
"9  c #623313",
"0  c #693615",
"q  c #6D3915",
"w  c #603619",
"e  c #643919",
"r  c #6C3919",
"t  c #773E16",
"y  c #7B3E16",
"u  c #753D1A",
"i  c #004000",
"p  c #0C4105",
"a  c #134207",
"s  c #15430A",
"d  c #1C420A",
"f  c #24430B",
"g  c #2C430D",
"h  c #37430E",
"j  c #2F4410",
"k  c #344411",
"l  c #3A4513",
"z  c #40430F",
"x  c #434411",
"c  c #4D4515",
"v  c #4D4618",
"b  c #534514",
"n  c #5A4516",
"m  c #554719",
"M  c #5D451A",
"N  c #654615",
"B  c #6C4515",
"V  c #65461A",
"C  c #6C461B",
"Z  c #724616",
"A  c #7D4116",
"S  c #74461A",
"D  c #70471C",
"F  c #7A431B",
"G  c #7C4218",
"H  c #7F4718",
"J  c #7C441A",
"K  c #7C431C",
"L  c #7C431D",
"P  c #79471C",
"I  c #76481C",
"U  c #7E4819",
"Y  c #7F481D",
"T  c #6A4820",
"R  c #8E450F",
"E  c #804315",
"W  c #864217",
"Q  c #804717",
"!  c #854416",
"~  c #8A4613",
"^  c #8C4612",
"/  c #894615",
"(  c #8D4615",
")  c #8D4517",
"_  c #884816",
"`  c #82451A",
"'  c #844719",
"]  c #82431C",
"[  c #82471D",
"{  c #86461D",
"}  c #88471B",
"|  c #85481A",
" . c #83481C",
".. c #894818",
"X. c #904510",
/* pixels */
"i i i i i i i i i i i i i i p f v n ` / ~ ^ ( } V v k a i i i i i i i i i i i i i i ",
"i i i i i i i i i i i i a x N ` ( ( ! G L G G E _ ( / S b f i i i i i i i i i i i i ",
"i i i i i i i i i i a x S } / t 5 1 : # % # # = 1 4 r H _ Q n f i i i i i i i i i i ",
"i i i i i i i i i j D } ` 7 , @ .                   X - 2 y ( Y c a i i i i i i i i ",
"i i i i i i i p c ' ` w : .                             . # 2 G / C d i i i i i i i ",
"i i i i i i d V / A 1 X                                       - 0 } P l i i i i i i ",
"i i i i i d T } r :                                             @ 5 Q [ x i i i i i ",
"i i i i p V } 8 @                                                 . < ] ' g i i i i ",
"i i i i c / r @                                                     . 1 } Z d i i i ",
"i i i j ' A :     o                                                   X 9 ( M p i i ",
"i i a C  .1                                                             # t { l i i ",
"i i x } w X                                                               , ' C p i ",
"i a S ` :                                                                 O e | l i ",
"i x ..7 .                                                                   > ' C p ",
"p N / ,                                                                     + u ! g ",
"f H t @                                                                     . 5 ..m ",
"v / 6 .                                                                       : W ' ",
"n ( 1                                                                         # F ! ",
"` ! ;                                                                         + q ^ ",
"/ G #                                                                           6 ^ ",
"~ L #                                                                           6 ( ",
"^ L #                                                                           6 ( ",
"( G #                                                                           6 ^ ",
"} Q =                                                                         . 9 ( ",
"V / 1                                                                         # F R ",
"v ( 4                                                                         * A R ",
"k / r X                                                                       1  .V ",
"a Z ` -                                                                     . w | l ",
"i b | 2                                                                     $ A H d ",
"i f U t #                                                                   3 / b i ",
"i i M ( 2                                                                 % A H d i ",
"i i g { G -                                                             . 8 / b i i ",
"i i i c / 0 +                                                         . 1 ' S d i i ",
"i i i a C } 5 .                                                       - Y Q h i i i ",
"i i i i d P ` < .                                                   # q / x i i i i ",
"i i i i i l [ ] 1 X                                             . - q ^ V p i i i i ",
"i i i i i i x ' } 9 #                                         . 1 Y _ V a i i i i i ",
"i i i i i i i g Z ( t , O                                 . % 7 ' Q x p i i i i i i ",
"i i i i i i i i d M { ' e > + .                       X $ 3 A / S h i i i i i i i i ",
"i i i i i i i i i i l C | ' u 5 : # +         . # & 1 w A ( H b d i i i i i i i i i ",
"i i i i i i i i i i i p l C ' ..` L r 7 6 6 6 9 F G ' / I b d i i i i i i i i i i i ",
"i i i i i i i i i i i i i p g b ` / ^ X.^ / ( ^ ^ / B z s i i i i i i i i i i i i i "
};
