/* XPM */
static const char *gate6[] = {
/* columns rows colors chars-per-pixel */
"42 42 203 2 ",
"   c #004000",
".  c #0C490B",
"X  c #134708",
"o  c #1A4E13",
"O  c #2B4C13",
"+  c #334F16",
"@  c #24571E",
"#  c #3A551A",
"$  c #295A23",
"%  c #3F632D",
"&  c #44551F",
"*  c #50521F",
"=  c #505420",
"-  c #655C2A",
";  c #486A34",
":  c #506430",
">  c #6B6335",
",  c #6B6B3B",
"<  c #74673D",
"1  c #726F40",
"2  c #79754A",
"3  c #6F7B51",
"4  c #BF5F36",
"5  c #8E683D",
"6  c #BA6128",
"7  c #AA6235",
"8  c #B46634",
"9  c #BD6A3D",
"0  c #F75E1E",
"q  c #E37D0E",
"w  c #EC6F1D",
"e  c #F36817",
"r  c #FF6C1E",
"t  c #EB7215",
"y  c #FA771F",
"u  c #DE5B25",
"i  c #DF5B34",
"p  c #E85B26",
"a  c #F55826",
"s  c #F35B2B",
"d  c #EB5B33",
"f  c #E95A36",
"g  c #E45E3E",
"h  c #F35B33",
"j  c #F2593A",
"k  c #DD662C",
"l  c #CD623D",
"z  c #D96637",
"x  c #DB673C",
"c  c #DD6939",
"v  c #DD713B",
"b  c #EE6123",
"n  c #E66C26",
"m  c #EB652A",
"M  c #F26326",
"N  c #FD6424",
"B  c #F96D27",
"V  c #FD6D24",
"C  c #F4632A",
"Z  c #FC632A",
"A  c #EE732B",
"S  c #FE7423",
"D  c #FD7B24",
"F  c #FF732A",
"G  c #F2782E",
"H  c #FF7B2C",
"J  c #E26A36",
"K  c #E3643D",
"L  c #EC6538",
"P  c #F76532",
"I  c #E87337",
"U  c #FC7230",
"Y  c #FC7E31",
"T  c #FF7D39",
"R  c #85794D",
"E  c #957A59",
"W  c #AC6C40",
"Q  c #BE6841",
"!  c #E85E44",
"~  c #C66847",
"^  c #DB6D47",
"/  c #D56749",
"(  c #D97043",
")  c #D27555",
"_  c #E86745",
"`  c #EA7348",
"'  c #F57D41",
"]  c #E87959",
"[  c #F67C68",
"{  c #768157",
"}  c #7B8961",
"|  c #F3950F",
" . c #EB861C",
".. c #F4861A",
"X. c #F88A1A",
"o. c #FA9714",
"O. c #FB941D",
"+. c #F69F1C",
"@. c #FB9C1C",
"#. c #F6B10A",
"$. c #F6AB14",
"%. c #F8AD12",
"&. c #F6A61A",
"*. c #FBA51D",
"=. c #FAAB1A",
"-. c #FDB315",
";. c #F6B817",
":. c #FBB31C",
">. c #FB8224",
",. c #FE8A23",
"<. c #F6822E",
"1. c #FE822B",
"2. c #FE8C2C",
"3. c #FC9423",
"4. c #F69920",
"5. c #FC9A22",
"6. c #FE942A",
"7. c #FF8332",
"8. c #FF8A35",
"9. c #FF9036",
"0. c #EFAC24",
"q. c #FFAA26",
"w. c #FFB826",
"e. c #FFC716",
"r. c #FFCA12",
"t. c #FDC31D",
"y. c #FFDD12",
"u. c #FFD51A",
"i. c #FFDB1C",
"p. c #FFE515",
"a. c #FFEB14",
"s. c #FEE31D",
"d. c #FFE91A",
"f. c #FFF61A",
"g. c #FFF919",
"h. c #FFC421",
"j. c #FECD24",
"k. c #FFD727",
"l. c #FFDD21",
"z. c #FFD529",
"x. c #F4CB31",
"c. c #FFD938",
"v. c #FFE222",
"b. c #FFEC23",
"n. c #FFE42C",
"m. c #FFF522",
"M. c #FFFA24",
"N. c #FFF329",
"B. c #FEFB2C",
"V. c #FFEC3B",
"C. c #FFF63B",
"Z. c #FEFC3D",
"A. c #828861",
"S. c #979773",
"D. c #BE866A",
"F. c #A7906F",
"G. c #B09B7F",
"H. c #F58962",
"J. c #F68B7A",
"K. c #EE9676",
"L. c #F5997D",
"P. c #FAD940",
"I. c #FFE744",
"U. c #FFEE44",
"Y. c #FDFB43",
"T. c #FDFE4A",
"R. c #FAF84E",
"E. c #FFFC53",
"W. c #FAF75E",
"Q. c #F8E268",
"!. c #FEFC64",
"~. c #FEFB6C",
"^. c #FDF479",
"/. c #FAFF7E",
"(. c #D49981",
"). c #E99C88",
"_. c #F09A83",
"`. c #CAAA90",
"'. c #D8B39D",
"]. c #EFA996",
"[. c #F5A491",
"{. c #EBB8A5",
"}. c #F0BCA6",
"|. c #FDFE81",
" X c #FFF789",
".X c #FEFC8B",
"XX c #FFFD94",
"oX c #FFFE9A",
"OX c #E0C5AC",
"+X c #EDCAB9",
"@X c #F8C8B3",
"#X c #FEFEA3",
"$X c #FEFFAC",
"%X c #FDFFB5",
"&X c #FEFBBD",
"*X c #FFFEC2",
"=X c #FFFECB",
"-X c #FFFDD3",
";X c #FFFFDF",
":X c #FFFEE3",
">X c #FEFEEC",
",X c #FBFFF2",
"<X c #FEFEFE",
/* pixels */
"                                                                                    ",
"                                                                                    ",
"                                                                                    ",
"                                                                                    ",
"                                                                                    ",
"                                                                                    ",
"                                                                                    ",
"                                                                                    ",
"                                                                                    ",
"                                              X + = O                               ",
"                                * l g _ K K L m C a C d ^                           ",
"                              ! h a a s M M B F S r V N u x &                       ",
"                          - f a 0 r F H D >.,.,.,.,.2.7.G k 8                       ",
"                        - i s N S >.2.6.5.O.@.@.| o.5.6.8.A 6                       ",
"                      > g a V S 2.6.5.+.&.%.#.#.#.-.*.4.2.Y U                       ",
"                    o / s N y 6.O.&.$.t.z.n.v.v.v.l.j.=.3.9.T 8                     ",
"                    < j C D ,.o.%.r.s.b.b.N.m.m.g.f.d.k.q.6.8.I x #                 ",
"                    ~ s B ..*.:.u.b.C.Y.E.E.E.T.Z.B.m.b.e.*.6.<.P ` :               ",
"                  > L Z >.+.h.v.m.Z.~.XX$X%X%X$XXX~.Z.m.p.r.+.2.U L K.%             ",
"                : Q p F 6.:.s.m.B.E..X&X;X>X,X>X-X#X!.B.f.y.$.6.H m ] ]..           ",
"                , c A 2.5.-.a.g.Y.~.oX*X>X<X<X<X,X=X.XR.M.d.%.5.1.b L J.A.          ",
"                1 J G 2.O.%.a.g.T./.#X=X>X<X<X<X<X:X#XW.B.d.%.O.>.b d [ '.          ",
"                2 c G 2.3.$.d.m.E.|.%X-X>X<X<X<X<X:X$X!.N.y.$.3.D M h [ '.          ",
"                R z U 8.6.=.v.N.R.|.%X=X-X;X:X:X>X-XXXW.n.r.*.6.D M d [ {           ",
"                E g Z H 2.*.;.n.C.!.#X&X%X%X*X*X&X$X~.U.z.%.O.2.F P ! J.@           ",
"                E ! a F 2.4.=.h.k.I.^..X|./..X.X XQ.P.c.w.@.6.Y C f / (..           ",
"                2 ] s N 1.2.O.@.:.j.V.Y.Y.T.T.T.U.x.0.q.5.,.7.L K ) D.3             ",
"                o F._ p n A 1.,.X.=.i.b.N.N.m.b.n.w.q t 1.7.' 9 5                   ",
"                  @ K.^ l c I n w ..:.j.l.i.u.t.w.6.e 0 C v #                       ",
"                    ; (.)._.L.H.J n  .*.:.-.=.@.>.S a s 4 >                         ",
"                        @ $ $ OXL.] I D X.,.1.Y U C p 7 <                           ",
"                                } [.] ` I J ( ( ~ 9 W R                             ",
"                                    +X@X@X}.{.`.G.G.S.                              ",
"                                                                                    ",
"                                                                                    ",
"                                                                                    ",
"                                                                                    ",
"                                                                                    ",
"                                                                                    ",
"                                                                                    ",
"                                                                                    ",
"                                                                                    "
};
