/* XPM */
static char *_7ea0736bfc04202ec8b3959e862e531YvPSdowW0uoR6La0[] = {
/* columns rows colors chars-per-pixel */
"42 42 49 1 ",
"  c #004000",
". c #0C4006",
"X c #0E4109",
"o c #15410B",
"O c #1B420E",
"+ c #244111",
"@ c #2C4215",
"# c #334116",
"$ c #354119",
"% c #3C421B",
"& c #3E4321",
"* c #43421B",
"= c #4D421E",
"- c #54421F",
"; c #5C411F",
": c #63421E",
"> c #6C421C",
", c #714217",
"< c #7D4516",
"1 c #74431C",
"2 c #7C4519",
"3 c #4E4320",
"4 c #544321",
"5 c #5A4222",
"6 c #634320",
"7 c #654321",
"8 c #634420",
"9 c #604324",
"0 c #654324",
"q c #684221",
"w c #6C4321",
"e c #6A4421",
"r c #6C4422",
"t c #704221",
"y c #734520",
"u c #8F430F",
"i c #8A460F",
"p c #8D440F",
"a c #874711",
"s c #814616",
"d c #874514",
"f c #894513",
"g c #8C4511",
"h c #894515",
"j c #8C4414",
"k c #864817",
"l c #824319",
"z c #804619",
"x c #844518",
/* pixels */
"              .O%*:>>>>q=%+X              ",
"            X#=9r12222221rq5%O            ",
"          X$;12zsdfffffffdxl16*O          ",
"         +5t2dfggppgfggppfffdz17%X        ",
"       .%>2dfgggggfhhffffffafgjz>4O       ",
"      o->sfggggggffhffffhfffhfgfd16@      ",
"     o-2dfffffggggfffggffffghffgghs7@     ",
"    .=2fffffffggffffffffggffffgffgf20+    ",
"    %1dfffffffffffggffffffggggggfffk14o   ",
"   +>sffffffffffffggffffffffggggggffd1*.  ",
"  X52fgfggffffffffggfgffffffffgggghggdq@  ",
"  #tdgffgffffffgffggggffffffffffgggfgf2-. ",
" X;2fgffggffffggffffgggffffffffffgfhfgd1@ ",
" #1dffffggffffggffgfgggffffffffffffffgd2-.",
".32fffffgffffgggggggggffffggggfgfffggfdz>+",
"O9zfgfgfggfffggggggggggfffggggggffhggffxr&",
"$wdggfgfggggffffgfffffffffggffffffhggggh<:",
"*1hpgfgfggggffffgfffffffffggfffffffggggg<>",
":1fpffffggfgffggffffffggfgggffffffffgggfs>",
">2fghhffffffffggffffgggggggggfffffffffffd,",
">2ffhfgfffffggggfgffffggggffggggggffffffd,",
">2ffhfgfffffgfggggffffgggfffggggggffffffd>",
">2fghfggggffffffggggfffgggffffggggggffffd>",
"q2fpffgggfffffffggggffffggffffffgggfffggd>",
"=1fpfffffffgggffggggffffggfffgggffffffggs>",
"%wdpffffffffggffggggffffggffffggggffffgg27",
"@7dfffffffffgggfffggfffffffffggggffffggh1=",
"X5lfahgfffffgggfffgfffggfffffgggggghfugde@",
" *1dfhhgggggfffgffffggggffggfffffffhhgf25o",
" O8zgfffggggfffgffffggggffggffffffhhfgd1% ",
"  *2jgffggffffggggfffgffffggggfffggggi2:o ",
"  O7zfffgfffffgggggfffffffgggffffgggiay%  ",
"   %>dgfffgggffffffgggfffgggfffffgfff25o  ",
"   X42fgffggggfffffgggffffggffgggffh2>@   ",
"    o6sfffhgffffhffffffffggghhggfffd1#    ",
"     @72dfgfhhgggffffffgfggfhhfgfdd1=.    ",
"      @01dgphgggggjfffffffggffgfh2t=X     ",
"       +41dfgfffggghffffffgppgfd2q$.      ",
"        o*q2dddhgggfffffffgpfd215@        ",
"          @4>2zdfggfffffffhx21:%o         ",
"           .@4>12sdhhddds21w5%o           ",
"             X+*8:>,,,>>>:=#o             "
};
