/* XPM */
static char *_8132ce2023b481494e3905d57754d54nMCNHygfnySiLkle[] = {
/* columns rows colors chars-per-pixel */
"42 42 75 1 ",
"  c #010001",
". c #0C0403",
"X c #000208",
"o c #110705",
"O c #1C0B06",
"+ c #210E07",
"@ c #200E09",
"# c #2D150C",
"$ c #32170B",
"% c #3D2111",
"& c #442515",
"* c #4D2611",
"= c #4D2914",
"- c #472B18",
"; c #4E2B18",
": c #542B14",
"> c #502D19",
", c #5D3015",
"< c #643415",
"1 c #683716",
"2 c #6A3817",
"3 c #673C1E",
"4 c #6E3C1A",
"5 c #7A3F16",
"6 c #6F3E20",
"7 c #004000",
"8 c #0A4006",
"9 c #0D4108",
"0 c #13410A",
"q c #1B420D",
"w c #21420F",
"e c #254212",
"r c #2B4114",
"t c #324116",
"y c #344319",
"u c #3B421A",
"i c #3C4320",
"p c #424219",
"a c #4D421E",
"s c #53421E",
"d c #5C411F",
"f c #64421E",
"g c #6C421C",
"h c #714217",
"j c #7E4316",
"k c #74431C",
"l c #7C451A",
"z c #4D4420",
"x c #544222",
"c c #5B4222",
"v c #644321",
"b c #6C4321",
"n c #714321",
"m c #8F440D",
"M c #8D440F",
"N c #8C450F",
"B c #8F440E",
"V c #874711",
"C c #814214",
"Z c #814216",
"A c #824616",
"S c #874514",
"D c #8D4312",
"F c #894513",
"G c #8C4511",
"H c #8D4511",
"J c #8A4514",
"K c #8C4414",
"L c #864817",
"P c #82431A",
"I c #804619",
"U c #864618",
"Y c #82471E",
"T c #84471C",
"R c #884518",
/* pixels */
"777777777777778qypfggggvaue977777777777777",
"7777777777779tacbkllllllkbvcuq777777777777",
"77777777779rdklIASFFFFFFFSUPkvpq7777777777",
"777777777wxnlSFGFMMGFFGMMFFFSIkvy977777777",
"77777778uglSFFGGGGFJJFFFFFFVFGKIga07777777",
"7777770agAFFGGFGFFFJFFFFJFFFJFGFSkdr777777",
"777770slSFFFFGGJFMGJFGMMGFFDFFFGJJAfr77777",
"77778alFFFFFFGGJJGGJJJFGGGGGFFGGJJFlvq7777",
"7777ugSGGFFFFFGFJJFMMFJURJGJJJFGGGFLks0777",
"777egAFFFFFFFFJUFMMJJJJJJJJJFJJFGGFFSkp777",
"779xlFFFFFFFFGFJJZ4>&&*15JKGMMFJFGJGGSbe77",
"77tnSFFFFFFFFGGZ,#o    .O&6TGMGSJFFFGFls87",
"79dlFGFFGGFFFJ4#.         O>YGFSJMFJFGSgr7",
"7tkSFFGGGGGGJ3@ X          .-IMSFMFJFGSls8",
"8alFFFFGGJGG4@              .=FJJGFGGFSIge",
"qcIFGFJJGRJZ#                .<GJJJGGFFUbi",
"ybSGGFFJJJJ,.                 $SGJJGGGGJlf",
"pkJMGFMGJMZ#                  .<GFGGGGGGjg",
"fkFMFFGGFM4o                   &JGFFFFGFAg",
"glFGJJJJMJ>                    #lGFFFFFFSh",
"glFFJFFJMJ&                    OjFFFFFFFSh",
"glFFJFGJFJ&                    OZJFFFFFFSg",
"glFGJFMFJJ*                    +ZFGGFFGFSg",
"blFMFFMFUF2.                   %JFGGGFFFSg",
"akFMFFMGJF5O                  .:JFFFFGGGAg",
"ubSMFFFGFJJ&                  +kKFFFFFGGlv",
"evSFFFFGGJF6O                 =JDGFFFGGJkz",
"9cPFVJGGJFGY;.               #kMGFFJFMGSbr",
"7ukSFJJFJJMFY-.             #kJJJFFJJGFlc0",
"7qfIGFFFJFMMFU=.           #kGGSFGJJFGSku7",
"77plKGFGFJFGFMF<$.      .@=kJGFJMMGGGMlf07",
"77qvIFGGGFJJJSJKU<&#OO+%:kJMJSJMMGGGMVnu77",
"777ygSFJGGFJJFJJFGJlZZZSJKDGJJFMFJFFFls077",
"7778alJJGGGGMMMJJFGGFJFFFFGJFGMMFJFJlfe777",
"77770dAFFFKGGFFFJFFFFFFFFFGGFJGGFFFSkt7777",
"77777rflSFGFJJGGGFFFFFFFFFFFJJFGFSSkp87777",
"777777rvkSGMJFGGGGKFFFFFFFGGFFGFJlbp877777",
"7777777qskSFGFFFGGGJFFFFFFGMMGFSlft8777777",
"777777770pblSSSJGGGFFFFFFFGMFSlkse77777777",
"7777777777esglISFGGFFFFFFFJUlkfu0777777777",
"777777777778rxgklASJJSSSAlkbcu077777777777",
"77777777777778wpvfghhhgggfar07777777777777"
};
