/* XPM */
static const char *gate4[] = {
/* columns rows colors chars-per-pixel */
"42 42 244 2 ",
"   c #013D01",
".  c #004000",
"X  c #0A4406",
"o  c #0A4609",
"O  c #0D490C",
"+  c #18470C",
"@  c #13490D",
"#  c #1A4D12",
"$  c #1B5116",
"%  c #25480B",
"&  c #234E15",
"*  c #394D15",
"=  c #26561C",
"-  c #29551D",
";  c #355216",
":  c #2B5A23",
">  c #2A5C24",
",  c #335C27",
"<  c #3B622C",
"1  c #396731",
"2  c #42541E",
"3  c #76521C",
"4  c #445927",
"5  c #7D5A29",
"6  c #40632F",
"7  c #466937",
"8  c #58673A",
"9  c #5B6E3D",
"0  c #716334",
"q  c #4C7441",
"w  c #577344",
"e  c #677849",
"r  c #72794E",
"t  c #915D23",
"y  c #A65522",
"u  c #896132",
"i  c #EB5A1E",
"p  c #F9571B",
"a  c #EF6E15",
"s  c #FC651C",
"d  c #FB6E1A",
"f  c #D95936",
"g  c #ED552A",
"h  c #E85929",
"j  c #F75927",
"k  c #FB5B2A",
"l  c #E75B36",
"z  c #F35B34",
"x  c #D66B34",
"c  c #DB663D",
"v  c #E9642C",
"b  c #F36324",
"n  c #FC6424",
"m  c #FC6B26",
"M  c #F3642A",
"N  c #FA6728",
"B  c #F56A2C",
"V  c #FC6D2B",
"C  c #E87629",
"Z  c #F77724",
"A  c #FD7A25",
"S  c #F4742B",
"D  c #FC742C",
"F  c #FD7E2E",
"G  c #EA6637",
"H  c #E2623D",
"J  c #F66936",
"K  c #EB753C",
"L  c #FD7334",
"P  c #F27935",
"I  c #FE7C33",
"U  c #FF7C3C",
"Y  c #947A57",
"T  c #B97A54",
"R  c #D86848",
"E  c #C97051",
"W  c #D77A58",
"Q  c #E96946",
"!  c #F96B4B",
"~  c #E97247",
"^  c #F6764C",
"/  c #E87859",
"(  c #F67653",
")  c #DA7F61",
"_  c #E47762",
"`  c #738156",
"'  c #EC970D",
"]  c #F98D1B",
"[  c #EB9615",
"{  c #FC951C",
"}  c #F79818",
"|  c #E9A707",
" . c #F2AD0C",
".. c #F8A816",
"X. c #FCA21B",
"o. c #FEAB1B",
"O. c #F0B412",
"+. c #F9B513",
"@. c #FBB419",
"#. c #FDBB1C",
"$. c #EF8427",
"%. c #F58626",
"&. c #FF8326",
"*. c #FD8D24",
"=. c #FF842C",
"-. c #FE8B2B",
";. c #EF9C22",
":. c #F59727",
">. c #FC9424",
",. c #FD9A23",
"<. c #FE932C",
"1. c #FD9A2A",
"2. c #FE8436",
"3. c #FF8B33",
"4. c #FD823B",
"5. c #FF8C3B",
"6. c #FD9331",
"7. c #FA9539",
"8. c #F8A524",
"9. c #FCAB23",
"0. c #FDB626",
"q. c #F0AE31",
"w. c #EECD09",
"e. c #F9CA14",
"r. c #FFC31D",
"t. c #FECC1D",
"y. c #FBD417",
"u. c #FDD41C",
"i. c #FFDC1C",
"p. c #FBE30F",
"a. c #FAF907",
"s. c #FEFD0A",
"d. c #FFE212",
"f. c #FEEC1C",
"g. c #FFF912",
"h. c #FDF718",
"j. c #FFF31C",
"k. c #FDC226",
"l. c #FDC427",
"z. c #F1C62C",
"x. c #FEDA23",
"c. c #FAD328",
"v. c #FFD22B",
"b. c #FFD536",
"n. c #FEE323",
"m. c #FAEB27",
"M. c #FFEA24",
"N. c #FFF324",
"B. c #FBF927",
"V. c #FDFA2B",
"C. c #FEE737",
"Z. c #FEFA36",
"A. c #FCF63B",
"S. c #B78258",
"D. c #908E6C",
"F. c #A88968",
"G. c #B58962",
"H. c #AB9372",
"J. c #C4855D",
"K. c #D7845C",
"L. c #EA8C47",
"P. c #FE8B45",
"I. c #FA8448",
"U. c #E88554",
"Y. c #F98857",
"T. c #FF945A",
"R. c #EDB652",
"E. c #C98567",
"W. c #D8876A",
"Q. c #D29370",
"!. c #E78468",
"~. c #FD896A",
"^. c #F7916D",
"/. c #F88D75",
"(. c #FA9778",
"). c #D3B260",
"_. c #F1AE74",
"`. c #FBC944",
"'. c #FDD449",
"]. c #F6CD57",
"[. c #FFEC46",
"{. c #FBF443",
"}. c #FDFB45",
"|. c #FEF84D",
" X c #FFEE54",
".X c #FEFA58",
"XX c #FDDC65",
"oX c #F0CC70",
"OX c #F8C97A",
"+X c #FAD97D",
"@X c #FEFD6A",
"#X c #FEE77A",
"$X c #FEFD74",
"%X c #FFF678",
"&X c #FFFD7C",
"*X c #BEAB93",
"=X c #DB988A",
"-X c #F59A88",
";X c #DDA48A",
":X c #D3AE99",
">X c #FBA48A",
",X c #E5B885",
"<X c #FEA691",
"1X c #FFB398",
"2X c #D6B4A1",
"3X c #F2BAAC",
"4X c #FDDC86",
"5X c #F7D293",
"6X c #FFEE80",
"7X c #FEFE84",
"8X c #FFF78B",
"9X c #FDFF8C",
"0X c #FEE599",
"qX c #FFF595",
"wX c #FEFE94",
"eX c #FFFE9D",
"rX c #DCC4AA",
"tX c #EBD3AC",
"yX c #FCD7A9",
"uX c #FFF5A5",
"iX c #FFFFA4",
"pX c #FFFBAD",
"aX c #FEEBB2",
"sX c #FDF6B2",
"dX c #FEFDB4",
"fX c #FFF6BC",
"gX c #FEFCBB",
"hX c #FBDFC9",
"jX c #FCE9CA",
"kX c #FEF3C3",
"lX c #FEFDC4",
"zX c #FFF4CD",
"xX c #F6FECB",
"cX c #FCFBCC",
"vX c #FEECD3",
"bX c #FDFCD3",
"nX c #FFF3DC",
"mX c #FEFBDC",
"MX c #FDF7E6",
"NX c #FEFEE5",
"BX c #FEFCEA",
"VX c #F7FFF0",
"CX c #FEFEF4",
"ZX c #FEFEFD",
/* pixels */
". . . . . . . . . . . . . . . . O 2X~.^ ! ( 1XrX. . . . . . .   . . . . . . . . . . ",
". . . . . . . . . . . . . . . o 3X-XH h g l /.>X3XtXX .     .   . . . . . . . . . . ",
". . . . . . . . . . . . . . . H./.! g j j g G Q / (.3X7 . . . . . . . . . . . . . . ",
".   . . . . . . . . . . . o 7 <XQ j j j n V L J G Q / <XO . . . . . . . . . . . . . ",
". . . . . . . . . .     , , /.! k p p s Z 2.3.2.S G l Q ~.^.r < . . . . . . . . . . ",
". . . . . . . . . .   . # !.l j p p A =.-.>.{ >.%.F D M B v R G.. . . . . . . . . . ",
". . . . . . . . . . . 7 -XH j n s Z =.<.,.X.....} ,.<.-.&.S K !.- . . . . . . . . . ",
". . . . . . . o @ , w D.~.G N d =.6.<.,.0.v.n.u.#...{ >.] <.P.Y.9 . . 4 # . . . . . ",
". . . . . . . % u 0 !.1X(.J U 3.1.;.[ #.n.j.g.h.u...[ :.,.>.5.T._.G.U.R E . . . . . ",
". . . . . . J N L P K T.I.v P 7.;.@.#.x.j.s.s.g.i.| ' 9.0.0.1.$.L.U.^ G ~ + . . . . ",
". . . . . v b &.<.>.1.1.%.$.Z :.0.v.n.j.g.s.s.j.x.| | t.i.i.#.[ C 4.P.D v ~ + . . . ",
". . . . 3 N F >.} ..k.k.0.q.7.q.'. X{.Z.V.V.Z.C.k.O.t.M.j.j.t...] 6.7.A i l T , , . ",
". . o . % L =.{  .y.M.m.{. XXXR.].6X7X$X$X&X%XXXR.`.[.Z.B.f.r.o.} { >.&.n M Q 0 w o ",
". . . & % U *...i.B.V.Z..X&X8X4XoX0XpXpXdXdXpX0X+X#X@X}.B.f.e.#.#...} <.A j h _ 9 w ",
". . . : ; I.{ r.f.B.A..X7XiXsXaXtXkXbXmXmXmXbXkXfXdXeX$X{.m.p.d.n.#.X.1.F b g ( 9 q ",
". . O = ; C ' t.j.V..X7XpXkXzXmXmXNXBXCXCXCXBXNXmXkXgXiX@XA.h.g.M.r.9.<.=.b k ( 9 1 ",
". O . + * Z }  .i.C.&XiXlXmXNXBXCXCXCXCXZXZXZXZXCXNXcXgXeX@XB.h.n.+.{ 6.-.S z / 9 = ",
". . . 3 I *.#.e.e.z.#XgXmXBXCXZXZXZXZXZXZXZXZXZXZXCXNXxXsX7X|.V.u. .} <.<.2.G / e $ ",
". . X L 3.8.n.f.w.z.+XfXmXMXVXZXZXZXZXZXZXZXZXZXZXZXCXNXxXiX@XC.e. .' { <.5.J / w X ",
". . t I 6...f.g.m. XqXgXmXBXCXZXZXZXZXZXZXZXZXZXZXZXZXCXbXdX#X'.u.y.+.} <.5.J K.$ . ",
". X 3 D 6.8.M.j.V..XwXgXbXBXCXCXCXCXZXZXZXZXZXZXZXZXZXCXmXfX4X`.u.f.t...*.I J J.. . ",
"o - * V 3.8.v.M.V.}.9XdXcXmXCXZXCXCXZXZXZXZXZXZXZXZXZXCXNXfX+Xq.y.f.x.@.*.B h S.. . ",
". - * n A *.9.v.B.A.7XdXlXmXCXZXZXZXZXZXZXZXCXZXZXZXZXBXzX0X].q.n.N.i.@.-.M h J.. . ",
". : * i m &.>.l.M.Z.@XwXpXcXBXZXZXa.ZXZXZXZXCXCXZXZXZXMXtX).).'.A.V.i.O.-.M h W.. . ",
". > 2 y b m Z } t.M.}.@XwXdXxXBXCXZXZXZXZXZXCXCXCXZXZXMXjXyX0X#XC.N.i.#.-.B v K.. . ",
". X 8 0 f i B a +.M.V.A.@XwXgXxXNXZXZXZXZXZXCXMXvXjXMXBXzXkXfX+Xc.M.i.@.*.D B K.. . ",
". . $ D.) Q h a ..M.g.h.}.@XiXgXbXNXBXZXZXZXBXhXtXtXkXcXfXsXuX].z.M.x.@.>.F B K.$ . ",
". . . D.;X~.z b X.n.h.a.m.|.9XdXlXbXjXvXMXBXnXyX,XyXfXgXdXuX+XR.k.C.v.o.,.3.B ( D.o ",
". . . H.^.( z S 9.C.m.w.w.[.$XeXdXsX5X5XjXzXyX,X,XaXlXgXgXqX].q.#.b.k.X.,.6.V ~ F.. ",
". . w F.~ J U 3.X.k.v.O.w.A.|.$X9XeX4XOX5X5X_.R.4XuXiXeX9X%X`.....0.9.} { 6.V Q G.O ",
". . = S.C A 3.>.} } } o.y.N.f.Z.|.&XwXOXR.L.q.'.$X$X$X@X}.{.b.o.} ,.>.>.,.<.V G Q.= ",
". . . W 2.-.<.>.,.] a ] r.M.f.M.A.[.XXR.7.:.9.b.[.{.{.}.B.M.#.X.{ *.<.<.1.<.m l ) 7 ",
". . # ~ 5.-.<.<.=.d a A 8.0.#.r.v.b.0.:.6.1.8.k.v.x.x.x.i.r.o.{ &.-.<.>.,.-.V h W 9 ",
". . & c P =.-.-.I m i V 3.*.] X.9.o.} ,.6.%.] X.@.O.+.@.+...>.-.F F -.<.<.A j l W.7 ",
". . . 5 v M m D M J M h D 3.<.1.,.{ ,.-.2.S =.<.>.{ >.<.:.:.5.P.I.P 3.3.=.m g / F.o ",
". . . . u c K ~ U.~.( G J 4.3.-.<.6.6.%.K I.U 2.5.=.F I 3.3.I.T._.U.U I m j Q E.    ",
". . . : @ = O . @ r >X( z k n d Z F =.C U.Q.I.L I D N N D V K (.yX/ J J g H E..     ",
". . . . . . . .     9 !.l j p p p n b x S.e T c v v l h h h R <Xe W.l l H E.o       ",
". . . . . . . .     . ;XE l j p k k g x F.. F.T K./ !._ !.!.=Xw o Y _ _ Y         . ",
". . . . . . . .     . ` Q.E c c f f R E.w . O > > < 6 6 < : @ . . - 8 &           . ",
". . . . . . . . . . . . *X2X:X*XH.D.D.e . . . . . . . . . . . . . . . . . . . . . . ",
". . . . . . . .   . . . . . . . . . . . . . . . . . . . . . . . . . . . . . . . . . "
};
