/* XPM */
static char *_ad849f17f0c48b6cab294d045378f58g5O1bgD0RlXhhbWY[] = {
/* columns rows colors chars-per-pixel */
"42 42 67 1 ",
"  c #010102",
". c #0C0403",
"X c #000309",
"o c #100504",
"O c #180704",
"+ c #170804",
"@ c #1C0A06",
"# c #220F09",
"$ c #24120A",
"% c #2B150B",
"& c #31170B",
"* c #371B0F",
"= c #3E1F0F",
"- c #3E1F10",
"; c #442413",
": c #4E2B16",
"> c #5C3419",
", c #60361A",
"< c #673B1A",
"1 c #6A3B1A",
"2 c #723E1B",
"3 c #004000",
"4 c #0A4005",
"5 c #0D4108",
"6 c #13410A",
"7 c #1B420D",
"8 c #1F4110",
"9 c #21420F",
"0 c #264112",
"q c #2A4113",
"w c #314115",
"e c #354218",
"r c #3B421A",
"t c #3B4320",
"y c #42421A",
"u c #4D431E",
"i c #53421E",
"p c #5C411F",
"a c #64421E",
"s c #6C421C",
"d c #714217",
"f c #7D4516",
"g c #74431C",
"h c #7C441A",
"j c #564122",
"k c #5B4222",
"l c #644321",
"z c #6B4321",
"x c #6F4421",
"c c #704221",
"v c #724420",
"b c #8C450F",
"n c #8E440E",
"m c #90430E",
"M c #874711",
"N c #824616",
"B c #874514",
"V c #8E4310",
"C c #894513",
"Z c #8C4511",
"A c #8C4613",
"S c #884615",
"D c #864817",
"F c #82431A",
"G c #804619",
"H c #844518",
"J c #82481C",
/* pixels */
"3333333333333347eyasssslur0533333333333333",
"3333333333335wukzghhhhhhgxljr7333333333333",
"33333333335wpghGNBCCCCCCCBHFgly73333333333",
"3333333339jchBCZCnnZCCZnnCCCBGgle533333333",
"33333334rshBCZZZZZCSSCCCCCCMCZZGsu63333333",
"3333336usNCZZZZZCCCSCZCCSCCCSCZCHgpq333333",
"333336ihBCCCCCZZCZCCZZZCCCCZSCCCZSNaq33333",
"33334uhCCCCCCCZZCCCCCCZCZZCCCCCCCZChl73333",
"3333rgBCCCCCCCCZCCCCZZZCZCCZZZZZCCCDgi6333",
"3330sNCCCCCCCCCCCCCCZCZCCCCCZZZZZCCCBgy333",
"335jhCZCZZCCCCCCCCCCZZCCCCCCCCZZZZZZZBz033",
"33wcBZCCZCCCCCCZCCZZZZCCCCCCCCCZZZZCZChi43",
"35phCZCCZZCCCCZZCZZZCCCCCCCCCCCCCZCSCZBsq3",
"3wgBCCCCZZCCCnZSZZSSSBSZZZSCSSCCCZCCCZBhi4",
"4uhCCCCCZCCCCZZCnB1:&%->hCnZSZCCCCCZZCBGs8",
"7kGCZCZCZZCCCSCZh;O    .%<BZVZSCCCSZZCCHxt",
"ezBZZCZCZZCCCZnh%        +>SmZBCZZSZZZZSfa",
"ygSnZCZCZCCCCZB; X        #2ZZBCZSCZZZZZfs",
"agCnCCCCZZCCCS1O           ;SZBnVSCCCZZCNs",
"shCZSSCZZZCCCS:            $hCSnVSCCCCCCBd",
"shCCSCZZZZCCCB&            .1ZCZZSCCCCCCBd",
"shCCSZZZZZCCCB&            .1ZCCZCCCZCCCBs",
"shCZSCCCCCCCCS=            @2ZCZZCZZCZZCBs",
"zhCnCCZCCCCCCZ>.           *JCCZZZZZZZCCBs",
"ugCnCCCCCZZZZZh%        X o,SCSZZCCCZZCCNs",
"rzBnCCCCCCZZZZC<+        .;JnnSCZSCCCCZZhl",
"0lBCCCCCCCCCZSnB>#      o;gCnZSCZSCCCZZSgu",
"5jFCMSZCCCCCZCCZS2;$..@*,JSCZCCCZZCSCmZBzq",
"3rgBCSSZZZCCCSSVmZSh112JSnnZCCCCCCCSSZChj6",
"37lGZCCZZZCCCSSZZZZSZZZZCZZCCCCZCCSSCZBgr3",
"33yhZZCCZZZZCCCSBBBSCCCCSSSCCCZZCZZZZnha63",
"337lGCCCZZZCCCCCCCnnCCCCCCCZZCZZCZZZnMvr33",
"333esBZCCCZZZZCCZZVVZZZZnCCCCCCCCZZCChi633",
"3334uhCZCCZZZZCZCSSSSSCCCCCCCCZZZCCSha0333",
"33336pNCCCSZCCCCSCCCZZZCCCZZSSZZCCCBgw3333",
"33333qahBCZCSSZZZCCCCZCCCZZCSSCZCBBgy43333",
"333333qlgBZnSCZZZZZCCCCCCZZZCCZCShcy433333",
"33333337igBCZCCCZZZSCCCCZZZnnZCBhaw4333333",
"333333336yzhBSBSZZZCCCCCCCZnCBhgi033333333",
"33333333330ishGBCZZCCCCCCCSHhgar6333333333",
"333333333334qisghNBSSBBBNhgzjr633333333333",
"333333333333349ylasdddsssauq63333333333333"
};
