/* XPM */
static const char *gate1[] = {
/* columns rows colors chars-per-pixel */
"42 42 167 2 ",
"   c #023E02",
".  c #093F09",
"X  c #004000",
"o  c #014507",
"O  c #064406",
"+  c #084507",
"@  c #0B470A",
"#  c #0B480A",
"$  c #0D490A",
"%  c #0D480C",
"&  c #104B0E",
"*  c #104C0F",
"=  c #184D0F",
"-  c #124D10",
";  c #174F14",
":  c #1A4F14",
">  c #01541C",
",  c #1B5213",
"<  c #1C5317",
"1  c #195219",
"2  c #1E541B",
"3  c #215419",
"4  c #25551A",
"5  c #23571C",
"6  c #25571E",
"7  c #2A5B1F",
"8  c #245B22",
"9  c #295B25",
"0  c #2C5C25",
"q  c #305C25",
"w  c #3A5F21",
"e  c #2D6029",
"r  c #33622B",
"t  c #37622B",
"y  c #3A6129",
"u  c #3F642D",
"i  c #3F6C38",
"p  c #44662D",
"a  c #466B32",
"s  c #4B6C33",
"d  c #466D3A",
"f  c #496F3C",
"g  c #506D35",
"h  c #536F3A",
"j  c #556E39",
"k  c #4E713D",
"l  c #51713D",
"z  c #54723C",
"x  c #66773E",
"c  c #4A7342",
"v  c #4E7340",
"b  c #4C7441",
"n  c #4C7544",
"m  c #587243",
"M  c #597441",
"N  c #577E4D",
"B  c #597C4E",
"V  c #627B48",
"C  c #607E4E",
"Z  c #647E4E",
"A  c #767D43",
"S  c #677D52",
"D  c #7B814B",
"F  c #658452",
"G  c #678055",
"H  c #698254",
"J  c #6F8555",
"K  c #798251",
"L  c #7A8760",
"P  c #778B62",
"I  c #789263",
"U  c #78936A",
"Y  c #7F926D",
"T  c #7F9C75",
"R  c #8C8651",
"E  c #888853",
"W  c #938B51",
"Q  c #9F9152",
"!  c #809266",
"~  c #869064",
"^  c #8C9669",
"/  c #919062",
"(  c #979667",
")  c #819872",
"_  c #909E70",
"`  c #999F77",
"'  c #A39561",
"]  c #A99765",
"[  c #A39A65",
"{  c #A89A6F",
"}  c #BD9E62",
"|  c #B89E64",
" . c #A29F70",
".. c #AB9D7A",
"X. c #B29E75",
"o. c #B0A06E",
"O. c #B4A97C",
"+. c #DC9B4E",
"@. c #D69A51",
"#. c #D99D57",
"$. c #D6995A",
"%. c #E99943",
"&. c #E6924C",
"*. c #E4984E",
"=. c #EA9F4C",
"-. c #F0994A",
";. c #E49654",
":. c #E79B56",
">. c #E39E5D",
",. c #EB9E59",
"<. c #DEA056",
"1. c #EAA156",
"2. c #F1A75A",
"3. c #DF9C67",
"4. c #E29F6A",
"5. c #E69F69",
"6. c #C6A46E",
"7. c #C9A66A",
"8. c #DDA364",
"9. c #D4A168",
"0. c #D7A66B",
"q. c #DAA36B",
"w. c #D9A16E",
"e. c #CFAB79",
"r. c #D0A170",
"t. c #DBA670",
"y. c #DEA771",
"u. c #D2A876",
"i. c #DAAB77",
"p. c #D2AF7F",
"a. c #DDAB7B",
"s. c #CBB07F",
"d. c #F0AB60",
"f. c #F7A863",
"g. c #E8AC7A",
"h. c #EBB473",
"j. c #F0B676",
"k. c #A2AD85",
"l. c #BFB297",
"z. c #B7B99D",
"x. c #C6AA8D",
"c. c #D0A786",
"v. c #DAAD8E",
"b. c #CBB284",
"n. c #DEBA81",
"m. c #D6B78B",
"M. c #DFB188",
"N. c #DCB78A",
"B. c #DEBA92",
"V. c #D0B799",
"C. c #E3B083",
"Z. c #E5B786",
"A. c #E7B288",
"S. c #E9BB8B",
"D. c #E3BC9B",
"F. c #F9BF91",
"G. c #D4C19D",
"H. c #E3C79D",
"J. c #C9C1A0",
"K. c #D4C2A2",
"L. c #E0C2A1",
"P. c #E5CFAD",
"I. c #F7CAA3",
"U. c #FCCBA2",
"Y. c #F1DAC8",
"T. c #FFECD9",
"R. c #FFF1DF",
/* pixels */
"X X X X X X X X X X X X X X X X X X X X X X X X X X X X X X X X X X X X X X X X X X ",
"X X X X X X X X X X X X X X X X X X X X X X X X X X X X X X X X X X X X X X X X X X ",
"X X X X X X X X X X X X X X X X X X X X X X X X X X X X X X X X X X X X X X X X X X ",
"X X X X X X X X X X X X X X X X X X X X X X X X X X X X X X X X X X X X X X X X X X ",
"X X X X X X X X X X X X X X X X X X X X X X - _ F X X X X X X X X X X X X X X X X X ",
"X X X X X X X X X X X X X X X X X X X X X 3 s.S.H.X X X X X X X X X X X X X X X X X ",
"X X X X X X X X X X X X X X X X X X X X X D.y.q.m.X X X X X X X X X X X X X X X X X ",
"X X X X X X X X s o.q X X X X X X X X X X M p.] X X X X X X X X X X X X X X X X X X ",
"X X X X X X E 7.f.>.' X X X X X X X X X X X X X X X X X X X X X X X X X X X X X X X ",
"X X X X X / 5.&.-.,.D X X X X X X X X X X X X X X X X X X X X X X X X X X X X X X X ",
"X X X X X K 4.;.:.} 7 X X X X X X X X X X X X X X X X X X X X X X X X X X X X X X X ",
"X X X X X X x 6.W a @ X X X X X X X X X X X X X X X X X X X X X X X X X X X X X X X ",
"X X X X X X X 0 0 O X X X X X X X X X X X l ( u X X X X X X X X X X X X X X X X X X ",
"X X X X X X X X X X X X X X X X X X X X * ~ v.h X X X X X X X X X X X @ X X X X X X ",
"X X X X X X X X X X X X . 8 X X X X X X X B Z + X X X X X X X X X X k.P.G.` X X X X ",
"X X X X X X X X X X X : V.G e X X X X X X X O X X X X X X X X X X 9 O.u.i.b.! X X X ",
"X X X X X X X X X X @ ; L d 1 X X X X X X X X X X X X X X X X X X f | +.=.d.[ N X X ",
"X X X X X X X X X X X O < - X X X X X X X X X X X X X X X X X X X ; A 1.%.*.a.I X X ",
"X X X X X X X X X X X X X X X X X X X X X X X X X X X X X X X X X X z R 9.t.{ ) X X ",
"X X X X X X X X X X X X X X X X X X X X X X X X X X X X X X X X X X X C M V H > X X ",
"X X X X X X X X X X X X X X X X X X X X X X X X X X X X X X X X X X X X X X X X X X ",
"X X X X X X X X X X X X X X X X X X X X X X X X X X X X X X X X X X X X X X X X X X ",
"X X X X X X X X X X X X X X X X X X X X X X X X X X X X X X X X X X X X X X X X X X ",
"X X X X X X X X X X X X X X X X X X X X X X X X X X X X X X X X X X X X X X X X X X ",
"X X X X X X X X X X X X X X X X X X X X X X X X X X X X X X X X X X X X X X X X X X ",
"X X X X   X X   X X q r X X X X X X X X X X X X X X X X X X X X X X X X X X X X X X ",
"X X X X X X X X n l.x.S X X X X X X X X X X X X X X X X X X X X X X X X X X X X X X ",
"X X X X X X X X U P m k X X X X X X X X X X X X X X X X X X X X X X X X X X X X X X ",
"X X X z.j  .2 X X 2 & X X X X X X X X X X X X X X X X X X c.X.X X X X X X X X X X X ",
"X X X Y.A.g.I.O X X X X X X X X X X X X X X X X X X X X : ..X X X X X X X X X X X X ",
"X X X T.F.3.C.^ X X X X X X X X X X X X X X X X X X X X X X X X X X X X X X X X X X ",
"X X X R.U.w.M.J X X X X X X X X X X X X X X X X X X X X X X X X X X X X X X X X X X ",
"X X X T J.L.K.; X X X X X X X X X X X X X X X X X X X X X X X X X X X p X X X X X X ",
"X X X X X i c X X X X X X X X X X X X X X X X X X X X X X X X X Q 2.$.r.y X X X X X ",
"X X X X X X X X X X X X X X X % , $ X X X X X X X X X X X X X B.8.#.0.N.X X X X X X ",
"X X X X X X   X X X X X X X X X w = t X X X X X X X X X X X 6 a Z.n.X X X X X X X X ",
"X X X X X X X X X X X X X X X e.@.<.O & X X X X X X X X X X X Y k 5 X X X X X X X X ",
"X X X X X X X X X X X X X X # g h.j.4 2 X X X X X X X X X X X X X X X X X X X X X X ",
"X X X X X X X X X X X X X X o v d k b X X X X X X X X X X X X X X X X X X X X X X X ",
"X X X X X X X X X X X X X X X X X X X X X X X X X X X X X X X X X X X X X X X X X X ",
"X X X X X X X X X X X X X X X X X X X X X X X X X X X X X X X X X X X X X X X X X X ",
"X X X X X X X X X X X X X X X X X X X X X X X X X X X X X X X X X X X X X X X X X X "
};
