/* XPM */
static const char *gate2[] = {
/* columns rows colors chars-per-pixel */
"42 42 207 2 ",
"   c #004000",
".  c #094406",
"X  c #0A4708",
"o  c #134B0D",
"O  c #1B4C0F",
"+  c #164E13",
"@  c #1A4E14",
"#  c #1C5417",
"$  c #1C531A",
"%  c #264E15",
"&  c #2C5314",
"*  c #255419",
"=  c #24551A",
"-  c #29591E",
";  c #37571C",
":  c #015720",
">  c #275A21",
",  c #2A5C25",
"<  c #2D5F2D",
"1  c #375C26",
"2  c #01662F",
"3  c #34632B",
"4  c #386528",
"5  c #376630",
"6  c #3E6734",
"7  c #46622C",
"8  c #4C6A2C",
"9  c #57642F",
"0  c #456A34",
"q  c #4B6A36",
"w  c #506633",
"e  c #526A34",
"r  c #5F6E3B",
"t  c #4C723C",
"y  c #55773F",
"u  c #656C39",
"i  c #727236",
"p  c #017647",
"a  c #4C7242",
"s  c #527741",
"d  c #5C794D",
"f  c #6A6F40",
"g  c #796C47",
"h  c #637B4B",
"j  c #727649",
"k  c #6A7E51",
"l  c #866D2E",
"z  c #8B7C3E",
"x  c #BB7D3E",
"c  c #DA582B",
"v  c #E85E31",
"b  c #DE672D",
"n  c #DA742C",
"m  c #DF6B31",
"M  c #DA653B",
"N  c #DD763D",
"B  c #E56B28",
"V  c #EC6C2E",
"C  c #F76E2A",
"Z  c #EA7D27",
"A  c #F57B2C",
"S  c #E56936",
"D  c #F26935",
"F  c #E57533",
"G  c #EC7439",
"H  c #FA7837",
"J  c #956F42",
"K  c #887848",
"L  c #927442",
"P  c #B57F5E",
"I  c #DB5E40",
"U  c #D56E43",
"Y  c #C77A4C",
"T  c #D8784A",
"R  c #C67D57",
"E  c #D87455",
"W  c #DD7E53",
"Q  c #E86A49",
"!  c #F06D43",
"~  c #EC7D40",
"^  c #EA774A",
"/  c #F07249",
"(  c #E56D55",
")  c #EB7B55",
"_  c #E37C6D",
"`  c #018256",
"'  c #018E66",
"]  c #6F804F",
"[  c #638052",
"{  c #7F865C",
"}  c #688360",
"|  c #778962",
" . c #BB8F3E",
".. c #F38A2A",
"X. c #FE892D",
"o. c #FE9522",
"O. c #F4962E",
"+. c #FD932C",
"@. c #FF9928",
"#. c #EA863C",
"$. c #EB8939",
"%. c #FC8536",
"&. c #F68B33",
"*. c #FF8A36",
"=. c #FF843B",
"-. c #F68D3A",
";. c #FF8B3A",
":. c #EE953B",
">. c #FE9333",
",. c #FD9A33",
"<. c #F4913A",
"1. c #FE943B",
"2. c #FB9A3B",
"3. c #938448",
"4. c #868C5B",
"5. c #9B8355",
"6. c #9A8958",
"7. c #A28343",
"8. c #BC804F",
"9. c #A78459",
"0. c #B18756",
"q. c #B9955A",
"w. c #88946A",
"e. c #959E6D",
"r. c #8C8D72",
"t. c #899672",
"y. c #959775",
"u. c #9C9C77",
"i. c #AA8967",
"p. c #B18E66",
"a. c #A89B67",
"s. c #BB9B66",
"d. c #A69C77",
"f. c #AC9E71",
"g. c #B49775",
"h. c #BCA068",
"j. c #A7A479",
"k. c #B7AD7D",
"l. c #BDB17E",
"z. c #D68749",
"x. c #DE834A",
"c. c #C88F57",
"v. c #D58855",
"b. c #DC855C",
"n. c #DD8B5E",
"m. c #D49F5D",
"M. c #DA995C",
"N. c #E58745",
"B. c #EB8B46",
"V. c #E2864C",
"C. c #E4894D",
"Z. c #E88D4D",
"A. c #F48A44",
"S. c #F4864A",
"D. c #EB964B",
"F. c #E9994A",
"G. c #F89745",
"H. c #F39C43",
"J. c #FB9249",
"K. c #EA8559",
"L. c #F19752",
"P. c #F7915D",
"I. c #F8A359",
"U. c #C98D66",
"Y. c #DE8664",
"T. c #D78C65",
"R. c #DC9B61",
"E. c #C99773",
"W. c #DA9A7F",
"Q. c #E38B63",
"!. c #E38068",
"~. c #E49562",
"^. c #EA9F6A",
"/. c #F09360",
"(. c #E08578",
"). c #E59E70",
"_. c #DBA268",
"`. c #C4A874",
"'. c #D7A876",
"]. c #DDB27D",
"[. c #E6A569",
"{. c #F8A465",
"}. c #FBB96E",
"|. c #E3A971",
" X c #EEAA74",
".X c #E3AA7C",
"XX c #EEB073",
"oX c #8D9D80",
"OX c #B8A487",
"+X c #DA9A86",
"@X c #C9AE81",
"#X c #DEAB87",
"$X c #C8B48C",
"%X c #DEB987",
"&X c #E5A78B",
"*X c #E6B989",
"=X c #F9BC80",
"-X c #EBB0A4",
";X c #FEB0AC",
":X c #D9C49D",
">X c #D5C6A4",
",X c #E7CBA3",
"<X c #F3D2A9",
"1X c #FFCBB2",
"2X c #FFDBB9",
"3X c #FFCCC2",
"4X c #FFD0D4",
/* pixels */
"                                                                                    ",
"                                                                                    ",
"                                        < 4X3X1X2X2X|                               ",
"                +                     oX;X(.Y.v.x.Q.-X}                             ",
"            0 i.U.E.d.3             ` &X) c B A A N +Xr.                            ",
"        $ p 5.V.F ~ ~.#Xu.        , &XT S C A >.1.Z.W.|                             ",
"      6 u b.N.<.>.X.&.B.).OX      OXQ.m A ;.1.H.F.[.4..                             ",
"    5 r W ~ -.,.o.o.+...V.&Xa   oX+XW S.A.I.}.XX`.4.+                               ",
"    q n.m %.>.+.o.@.+.2.N.T.y.  t.g.T.^.*Xl.e.s 3                   , w.'           ",
"    2 8.G *.,.+.,.O.:.I. Xg.d     y.f.k.3                       , 0 6.E.K 0         ",
"    o 9 S.;.>.O.G.D._.a.,                                     > K K.B.C.n.e         ",
"      w P.A.H. .3.3.]                                         k Y F %.1.#.~.1       ",
"      1 b.T z 8 - #                                           { z.$.1.>.X.$.0.      ",
"      + 1 % O                               s.'.              k 9.L.G.>.+.>.D.;     ",
"                                            .X'.                u.`. XJ.>.+.:.q.    ",
"                        + 4 y t .                                   f.M.1.+.-.c.    ",
"                        > a.|.s.t                                   s q.2.+.%./.    ",
"                        * e |..Xh .                                 h s.H.2.=.)     ",
"                          : 0 h [                                   t q.<.X.H / .   ",
"                              >                                     o a.z.n S R     ",
"                                                                      a j j f *     ",
"                                                                          #         ",
"                                                                                    ",
"                                                                                    ",
"                      | j.j.                                                        ",
"                    $X*X'.$X+                                                       ",
"                    <X].%X:X                              % 6..                     ",
"        %           >X,X,X                              9.R. X*                     ",
"        V.l                                             _._.=X-         * o         ",
"        L.-.7.                                          @X*X4.        . m.z.v.      ",
"        [.A.L.{.-                                         3           h.F.$.G 9     ",
"        O Z.B.x.p.X                                                 h.I.<.&.b Y.    ",
"        - T.U E i.@                                               i H.,.+.Z N P     ",
"        + u 0.9.h       7 K o                             . ; L {.<.+.@...Z b.-     ",
"          X *         @ E K.c.8                           J M D H *.1.&.$.M.        ",
"                      7 ^ G S.x & & & .                   K Q v V H J.N.i           ",
"                      w.i M S S F V G ! I E                 g !.K.K.L               ",
"                        $X0.R Y T ^ / / ( _ o                                       ",
"                                    X w j 1                                         ",
"                                                                                    ",
"                                                                                    ",
"                                                                                    "
};
