/* XPM */
static const char *gate3[] = {
/* columns rows colors chars-per-pixel */
"42 42 237 2 ",
"   c #023F02",
".  c #004000",
"X  c #094606",
"o  c #0A4709",
"O  c #0D490C",
"+  c #124B0D",
"@  c #16490C",
"#  c #154E12",
"$  c #1E4B11",
"%  c #165014",
"&  c #1B5216",
"*  c #1C5319",
"=  c #224A0D",
"-  c #224E13",
";  c #294D15",
":  c #22551D",
">  c #2B531A",
",  c #34581E",
"<  c #3F611F",
"1  c #295A22",
"2  c #325C25",
"3  c #375C27",
"4  c #016834",
"5  c #2E602A",
"6  c #35632C",
"7  c #39622C",
"8  c #3B6732",
"9  c #425819",
"0  c #475E29",
"q  c #575C27",
"w  c #6C5C27",
"e  c #705D30",
"r  c #43662E",
"t  c #5A672A",
"y  c #456A37",
"u  c #536E38",
"i  c #58753F",
"p  c #6A6A39",
"a  c #7B6C33",
"s  c #776538",
"d  c #697436",
"f  c #597745",
"g  c #6B6E40",
"h  c #667745",
"j  c #737B47",
"k  c #697C54",
"l  c #915E31",
"z  c #8E673A",
"x  c #986A36",
"c  c #BD6431",
"v  c #B4793A",
"b  c #FA5D1C",
"n  c #D8701D",
"m  c #F3651C",
"M  c #EA7F1D",
"N  c #F8771C",
"B  c #DF5F35",
"V  c #E95A29",
"C  c #FA5927",
"Z  c #ED5B33",
"A  c #E85D37",
"S  c #F35D36",
"D  c #DB6D35",
"F  c #D37034",
"G  c #DD7E39",
"H  c #E46625",
"J  c #E56729",
"K  c #EC642C",
"L  c #F1612C",
"P  c #F96A29",
"I  c #E97727",
"U  c #E3722E",
"Y  c #F77725",
"T  c #FD7323",
"R  c #FC752B",
"E  c #FD7C2C",
"W  c #ED6535",
"Q  c #E96B35",
"!  c #E4623A",
"~  c #EC613A",
"^  c #E46C3B",
"/  c #FB6433",
"(  c #F56A33",
")  c #F26539",
"_  c #EA7739",
"`  c #FE7534",
"'  c #F87C35",
"]  c #9E6A40",
"[  c #837847",
"{  c #957348",
"}  c #B56944",
"|  c #AD7644",
" . c #A77856",
".. c #BB7653",
"X. c #E95A41",
"o. c #DC6A46",
"O. c #C8784D",
"+. c #D07946",
"@. c #CB7D5A",
"#. c #D97D5A",
"$. c #E46443",
"%. c #E76B48",
"&. c #E66A4C",
"*. c #EC6B4D",
"=. c #E77647",
"-. c #EA7656",
";. c #F87B56",
":. c #ED7F64",
">. c #788756",
",. c #768658",
"<. c #7E9570",
"1. c #F08E16",
"2. c #F78B1B",
"3. c #EE9514",
"4. c #F59A17",
"5. c #FC9B1B",
"6. c #FBA81A",
"7. c #F1B510",
"8. c #FAB314",
"9. c #FCB61B",
"0. c #CA8A34",
"q. c #D58B38",
"w. c #EA8624",
"e. c #FD8223",
"r. c #FC8B24",
"t. c #F58529",
"y. c #FE832C",
"u. c #FE8B2E",
"i. c #EE962A",
"p. c #FC9324",
"a. c #FD9B24",
"s. c #FE952B",
"d. c #F79A28",
"f. c #EB8737",
"g. c #FD8532",
"h. c #FE8B32",
"j. c #F5863B",
"k. c #FF833D",
"l. c #FF8D3A",
"z. c #EC9936",
"x. c #FA9636",
"c. c #FF9C33",
"v. c #FEA124",
"b. c #FEAB23",
"n. c #FEA52B",
"m. c #F8AD28",
"M. c #FFB824",
"N. c #FCB42B",
"B. c #FFBB2A",
"V. c #E9A233",
"C. c #FCA934",
"Z. c #FFB839",
"A. c #FFC518",
"S. c #FEDA1A",
"D. c #FFEB14",
"F. c #FFFA17",
"G. c #FEF31C",
"H. c #FFC42D",
"J. c #FFCB2C",
"K. c #FFD123",
"L. c #FFD329",
"P. c #FFD82D",
"I. c #FFCC33",
"U. c #FFC23A",
"Y. c #FFDC33",
"T. c #FED43B",
"R. c #FFE72B",
"E. c #FFF628",
"W. c #FFE235",
"Q. c #878757",
"!. c #918A5A",
"~. c #A58A4A",
"^. c #BA934D",
"/. c #A89259",
"(. c #B29551",
"). c #868D66",
"_. c #998E62",
"`. c #8E946E",
"'. c #979668",
"]. c #9B9A78",
"[. c #B28B61",
"{. c #AE956A",
"}. c #AA9868",
"|. c #A89371",
" X c #9AA17F",
".X c #B9A663",
"XX c #B5A377",
"oX c #CE9952",
"OX c #E78746",
"+X c #F98E48",
"@X c #F69742",
"#X c #E9865D",
"$X c #F38A58",
"%X c #E7975A",
"&X c #DFA25E",
"*X c #F3AF4D",
"=X c #F7A45E",
"-X c #C88864",
";X c #D98461",
":X c #DC9568",
">X c #C99A74",
",X c #E68966",
"<X c #FA8565",
"1X c #E49667",
"2X c #EB8C77",
"3X c #F78971",
"4X c #F49773",
"5X c #CEA670",
"6X c #E4A165",
"7X c #E6A574",
"8X c #FCAB79",
"9X c #FCB576",
"0X c #02A280",
"qX c #B6A986",
"wX c #B4B28E",
"eX c #BAB798",
"rX c #EE9D83",
"tX c #F59E83",
"yX c #CCAA8F",
"uX c #DFAC8A",
"iX c #DAB28D",
"pX c #C5B696",
"aX c #FBA786",
"sX c #ECB582",
"dX c #EDB485",
"fX c #FBA794",
"gX c #E9B597",
"hX c #CABDA2",
"jX c #D8BAA0",
"kX c #F3AEA0",
"lX c #CFC092",
"zX c #ECC79C",
"xX c #CCC5A1",
"cX c #D9C4A8",
"vX c #FCC7AB",
"bX c #F7CDB1",
"nX c #F8D2C7",
/* pixels */
". . . . . . . . . . . . . . . . . . . . . . vXkXnX6         .   . . . . . . . . . . ",
". . . . . . . . . . . . . . . . . . . . . vX2X3XfXkXnX        . . . . . . . . . . . ",
". . . . . . . . . . . . . . . . . . . . vX,XA S S &.fX<.. . . . . . . . . . . . . . ",
". . . . . . . . . . . . . . . . . . . bX2X! C C C Z :.gX% . . . . . . . . . . . . . ",
".       . . { $X4XaXiXf . . . . . . cXtX$.V P T y.' =.:XeX. . . . . . . . . . . . . ",
".   .   > *.K Y J f.OX7XzX. . . . eXaX%.K m N s.C.x.=.-X,.. . . . . . . . . . . . . ",
". . . $ $.L Y s.c.c.i.z.1XgX. . ].>X=.K Y 2.5.N.U.z.%XuX. . . . . . . . . . . . . . ",
". . . ,XZ ` u.a.4.9.B.C.f.7X7 . yX#.Q g.p.b.H.I.Z.q.-XhX. . . . . . . . . . . . . . ",
"  . . #XJ y.p.6.A.S.R.W.Z.OXXX. |.;X_ s.b.I.T.N.V.^.bX. . . . . . 2 -X#.@.. . . . . ",
". . . . _ h.n.8.S.G.E.Y.a.U XX. f  .G x.C.N.m.V.oX5X. . . . . 4 0 O.^ ) ! o.. . . . ",
". . . . ;.E v.K.G.F.S.9.t.D {.. . `.[.%XOXq.0.%X.X>.. . . . O [ %.V ` k.` J #.  . . ",
". . . . -.P a.L.G.D.7.3.t.=._.. . . 5 !.[.[ Q.5XlX# . . . . ,...J m u.s.y.P ^ . . . ",
". . . . l J w.B.W.L.6.p.+X,XQ..   . . % ).. . wXy . . . . . k { U r.v.3.2.u._ ... . ",
". . . . . F n w.n.i.w.j.oX7XQ.% . . . . . . . . . . . . . . 2 [ f.Z.I.8.5.s.' #X. . ",
". . . . . . = ^ ^ D +.p 7 y f 5 . . . . . # 6 % . . . . . . '.^.n.I.W.S.8.4.u.$X. . ",
". . . . . . . . . . . . . . . . . . . . o i |.f 1 . . . . f }.&Xz.b.K.R.K.6.p.f.X . ",
". . . . . . . . . . . . . . . . . . . . + j :X/.8 . . . . `.'.Q.a n 4.9.A.8.r._ - . ",
". . . . . . . . . . . . . . . . . . . . X 2 /.u # . . . . * * . g v M 6.H.b.e.=.X . ",
". . . . . . . . . . . . . . . . ~.o . . . o 1 % . . . . . . . . >.a f.c.*Xc.P *.. X ",
". . . . . . . . . . . . . . . . < t . . . . . . . . . . . . . . ].j 9 G f.U $.. . . ",
". . . . . . . . . . . . . . . . . . . . . . . . . . . . . . . . . * i , . . . . . . ",
". . . . . . . . . . . . . . . . . . . . . . . . . . . . . . . . . . . * 2 . . . . . ",
". . . . . . . . . . . . . . . . . . . . . . . . . . . . . . . . . . . . . . . . . . ",
". . . . . . . . . . . . . # + . . . . . . . . . . . & 6 r & . . . . . . . . . . .   ",
". . . . . . . . . . . . 2 qXh 7 . . . . . . . . . f d ~.(.j f . . . . . . . . . . . ",
". . . . . . . . . + . . 2 k ,.. . . . . . . . . . ,.(.%X6X>.1 . . r r 3 + . . . . . ",
". . . X O @ . @ u XXqX. . . . . . . X # . . . . . O k Q.>.8 . . , w c | d + . . . . ",
". . # $ x F F v %X6XzX. . . . . .  XjXcXo . . . . . . f 6 . . 2 w H I g.@X~.. . . . ",
"  . - OXj.E y.g.g.OX4X1 . . . . h dXsXzX% . . . . . . . + !.~.q.w.s.n.v.p.f.s . . . ",
". . t _ l.h.h.h.T H %.fX1 k jXuX9X=X=XsX'.xX% . . . . . f &Xf.t.4.U.I.9.5.t.%.3 . . ",
". . x Q ' g.l.g.T V ) <X3X#X_ I z.z.@X=X8XgXeX. . . . . 6 1X_ s.6.P.P.9.5.e.W s . . ",
". . ; D ( R k.' ( V ) A W ( N a.b.N.d.f.+X8XpX. . . . . + 1XU r.B.Y.L.7.2.e./ } . . ",
". . . q ! W ) ^ =.<X$X~ L E n.H.Y.Y.B.d.t.OXuX. . . . . 1 1XJ E a.b.m.4.r.E / *.0 O ",
". . . : p s s { >XiXfX;.( g.C.H.J.J.M.v.e.H ,XX   . . . u ;XV R r.5.d.s.g.P Z &.g 1 ",
". . . . . O : : . . yX<X) ` u.1.1.5.a.e.P L :.. . . . . * ;XZ C T e.h.g.` V !  .h . ",
". . . . . . . . . . ].2X$.( R N Y y.l.R / S s . . . . . . tX*.C m E k.` K ! ,XQ.. . ",
". . . . . . . . . . . fX-.V b b b P P / Z X.. . . . . . . o 4Xo.B W ) ~ $.,X{.. . . ",
". . . . . . . . . . . ,.rX*.Z V Z Z A A &.. . . . . . . . . . . ; z } e . . . .   . ",
". . . . . . . . . . . . % - q ] O.@.{ ; . . . . . . . . . . . . . . . . . . . .     ",
". . . . . . . . . . . . . % ).0XhXcXcXpX7 . . . . . . . . . . . . . . . . . . .     ",
". . . . . . . . . . . . . . . . . . . . . . . . . . . . . . . . . . . . . . . . . . ",
". . . . . . . . . . . . . . . . . . . . . . . . . . . . . . . . . . . . . . . . . . "
};
