/* XPM */
static char *aad8d930c61345a1b43a16e831e94c1ccRr7wj8n0EMpVc1r[] = {
/* columns rows colors chars-per-pixel */
"42 42 69 1 ",
"  c #010101",
". c #0C0202",
"X c #000309",
"o c #130604",
"O c #150805",
"+ c #1D0E07",
"@ c #1C0D09",
"# c #240D07",
"$ c #200F09",
"% c #26130B",
"& c #29110A",
"* c #331A0E",
"= c #3F1E0E",
"- c #522A0F",
"; c #592B0F",
": c #462614",
"> c #4C2714",
", c #532C14",
"< c #5C3219",
"1 c #62361B",
"2 c #673A1C",
"3 c #68391A",
"4 c #753E17",
"5 c #733D18",
"6 c #004000",
"7 c #0A4005",
"8 c #0D4108",
"9 c #13410A",
"0 c #1B420D",
"q c #21420F",
"w c #254212",
"e c #2A4114",
"r c #314116",
"t c #354319",
"y c #3B421A",
"u c #3C4320",
"i c #424219",
"p c #4D421E",
"a c #53421E",
"s c #5D411F",
"d c #64421E",
"f c #6C421C",
"g c #714217",
"h c #7D4516",
"j c #74431C",
"k c #7C451A",
"l c #4D4420",
"z c #544222",
"x c #5B4222",
"c c #644321",
"v c #6C4321",
"b c #714321",
"n c #8C450F",
"m c #8E440E",
"M c #8F440E",
"N c #874711",
"B c #824616",
"V c #844515",
"C c #874514",
"Z c #8F4312",
"A c #894513",
"S c #8C4511",
"D c #8B4514",
"F c #8C4414",
"G c #864817",
"H c #82431A",
"J c #804619",
"K c #864618",
"L c #894718",
/* pixels */
"6666666666666670tidffffcpyw866666666666666",
"6666666666668rpxvjkkkkkkjvcxy0666666666666",
"66666666668rsjkJBCAAAAAAACKHjci06666666666",
"666666666qzbkCASAmmSAASmmAAACJjct866666666",
"66666667yfkCAAASSSADDAAAAAANASFJfp96666666",
"6666669pfBAASAAASAADAAAADAAADASAKjse666666",
"666669akCAAAAASSASAASSSAAAASDAAASDBde66666",
"66667pkASSSSAAAAAAAASSSSAAAAAAAAASAkc06666",
"6666yfCAAAAAAAAADDFSAAADDDDAAAAAAAAGja9666",
"666wfBAAAAAAASZDDDAmAAAADDDAAAAASSAACji666",
"668zkASASSAAASFDAAmmDDDASmAASASAAADSSCve66",
"66rbCAAASASAADCASSDDFSFSAAAASSSSAAAASSka76",
"68skASAASSAAADDSSKj<,,;5JDSASSAAASADASCfe6",
"6rjCAASADSSDASZS5:+.   O*1KSSFAAAAAAASCka7",
"7pkAAASADmSKAmD3#        o>JSDDmmAASSACJfw",
"0xJASASADSADSS3@X      XX .:JDDmmCDSSAAKvu",
"tvCSSASADDAAS5#XX       XX .,LSSADDSSSSDhd",
"ijDmSASAADASK:              $kmDDASASSSShf",
"djAmAAAASDAAj@               ,FADSAAAASABf",
"fkASDDDAmAAD<.               *KmSAAAAAAACg",
"fkAADASSAADF,                &kAAAAAAAAACg",
"fkAADASSAADS-               X&JDDSAAAAAACf",
"fkASDASSAADS;.              X&CADSSSAASACf",
"vkAmAAASAAAS5O X            X:FSDSSSSAAACf",
"pjAmAAASDDAAJ* XX           o2SSDAAAASSSBf",
"yvCmAAAmDDAAD1o X           =JAAAAAAAASSkc",
"wcCAAAAADDSASJ:.           %5SDASAAAASSDjl",
"8xHANDSASSSSASJ:.     X   %4DAASSSADAmSCve",
"6yjCADDASSSSASSJ,$   XXXo=5DDAAASSADDSAkx9",
"60cJSAAAAAASADDDLk,*&&&:2KSSAAAAAADDASCjy6",
"66ikFSAAAAAAADDDSmFJkJCSSADSAAAAASSSSmkd96",
"660cJAAAAAAAAAmmSDAmADASSASSSASADSSSmNby66",
"666tfCSAAASSSAmmADDSSDDDDSSSSAADDAAAAka966",
"6667pkASAASSSAACDASAASSAAAASSASSAAADkdw666",
"66669sBAAADSAAAADAAAAAAAAAAAADSSAAACjr6666",
"66666edkCASADDSSSAAAAAAAAAAADDASACCji76666",
"666666ecjCSmDASSSSFAAAAAAASSAASADkbi766666",
"66666660ajCASAAASSSDAAAAAASmmSACkdr7666666",
"666666669ivkCCCDSSSAAAAAASSmACkjaw66666666",
"6666666666wafkJCASSAAAAASSDKkjdy9666666666",
"666666666667ezfjkBCDDCCCBkjvxy966666666666",
"66666666666667qicdfgggfffdpe96666666666666"
};
