/* XPM */
static const char *head_dead[] = {
/* columns rows colors chars-per-pixel */
"42 42 200 2 ",
"   c #010101",
".  c #0A0603",
"X  c #0B0B0A",
"o  c #0E0E04",
"O  c #110F04",
"+  c #131403",
"@  c #1C1603",
"#  c #1C1A04",
"$  c #171803",
"%  c #0F0E10",
"&  c #131313",
"*  c #151418",
"=  c #181818",
"-  c #1A1814",
";  c #231B03",
":  c #2B2605",
">  c #2A2408",
",  c #332D09",
"<  c #36330C",
"1  c #3C350F",
"2  c #292A16",
"3  c #3B3610",
"4  c #232322",
"5  c #2B2B2C",
"6  c #343434",
"7  c #3C3C3C",
"8  c #3C4012",
"9  c #4F4A0E",
"0  c #43400F",
"q  c #50440B",
"w  c #464011",
"e  c #534B12",
"r  c #595817",
"t  c #665C12",
"y  c #675F16",
"u  c #6C6515",
"i  c #6D691A",
"p  c #6C6619",
"a  c #716C19",
"s  c #766914",
"d  c #777112",
"f  c #79721C",
"g  c #7A781E",
"h  c #4F4F29",
"j  c #5C5629",
"k  c #5D5D33",
"l  c #414141",
"z  c #494747",
"x  c #545554",
"c  c #5E5E5E",
"v  c #6E6A4B",
"b  c #646464",
"n  c #676569",
"m  c #6B6C6C",
"M  c #686967",
"N  c #71706B",
"B  c #7A797A",
"V  c #767776",
"C  c #817B19",
"Z  c #857A22",
"A  c #807E6D",
"S  c #89821D",
"D  c #938A1E",
"F  c #A79B1C",
"G  c #ADA31A",
"H  c #B1A11E",
"J  c #8C8925",
"K  c #969226",
"L  c #A19A29",
"P  c #A7A025",
"I  c #A9A225",
"U  c #B5AC25",
"Y  c #B7B124",
"T  c #B9B324",
"R  c #B5AC34",
"E  c #C1B724",
"W  c #C3BA26",
"Q  c #C4BD2B",
"!  c #CFC41C",
"~  c #DCCE1C",
"^  c #DACD16",
"/  c #DAD318",
"(  c #E5E11F",
")  c #F4EB15",
"_  c #F4EB1E",
"`  c #FEEF1D",
"'  c #FFEF16",
"]  c #FEF216",
"[  c #F6F31C",
"{  c #FEF11B",
"}  c #CBC22B",
"|  c #CDC625",
" . c #D4C726",
".. c #DBD32D",
"X. c #D5D52A",
"o. c #CFC530",
"O. c #D5D039",
"+. c #E1D223",
"@. c #E5DC2C",
"#. c #EADD2D",
"$. c #E6DB2A",
"%. c #DBE438",
"&. c #ECE425",
"*. c #EDEE2B",
"=. c #E7E82B",
"-. c #F1E724",
";. c #F4EB23",
":. c #FBEE23",
">. c #F4EC2B",
",. c #FAED2A",
"<. c #F4E529",
"1. c #EDF127",
"2. c #F3F224",
"3. c #FDF123",
"4. c #F3F12B",
"5. c #FBF12C",
"6. c #E5EA33",
"7. c #EBEB36",
"8. c #F7EB37",
"9. c #E7F030",
"0. c #FCF234",
"q. c #F3F33B",
"w. c #FAF13A",
"e. c #BBB86B",
"r. c #C3BD5D",
"t. c #DDE642",
"y. c #E0E542",
"u. c #FBEF41",
"i. c #FAF242",
"p. c #FBF14C",
"a. c #F4F144",
"s. c #FAF25A",
"d. c #FAF354",
"f. c #E6F14A",
"g. c #E2E063",
"h. c #F0EF63",
"j. c #FBF46D",
"k. c #FAF566",
"l. c #E7E377",
"z. c #FCF575",
"x. c #F6F47B",
"c. c #FBF579",
"v. c #F5F274",
"b. c #838483",
"n. c #8B8B8B",
"m. c #979886",
"M. c #999998",
"N. c #A6A180",
"B. c #B9BA9A",
"V. c #A1A1A0",
"C. c #ABAAAA",
"Z. c #AEAFB1",
"A. c #B3B3B3",
"S. c #BCBBBC",
"D. c #E1DF92",
"F. c #FBF784",
"G. c #FCF68B",
"H. c #FCF88A",
"J. c #FCF996",
"K. c #FBF79B",
"L. c #FCF695",
"P. c #E6E384",
"I. c #C3C0AC",
"U. c #CDCBB9",
"Y. c #EBECAC",
"T. c #F2EEA8",
"R. c #FDF6A3",
"E. c #FCF9A3",
"W. c #FDF9AD",
"Q. c #E1E1BC",
"!. c #FEF9B5",
"~. c #FDFBBC",
"^. c #CACBCC",
"/. c #D8D7C6",
"(. c #D5D4D5",
"). c #DADADB",
"_. c #D5D8D8",
"`. c #EBE7CE",
"'. c #FDFCCC",
"]. c #F9F7C3",
"[. c #FEFED4",
"{. c #FEFDDA",
"}. c #E3E3E3",
"|. c #EAEAEB",
" X c #E6E4E8",
".X c #EFF0E9",
"XX c #FEFEE2",
"oX c #FEFEED",
"OX c #F1F0EF",
"+X c #F0EFF2",
"@X c #F4F4F4",
"#X c #FEFEF5",
"$X c #FFFEFA",
"%X c #FBFFFD",
"&X c #FFFFFF",
"*X c #FDFDFE",
"=X c #FDFEFD",
"-X c #F8F7F7",
";X c None",
":X c black",
/* pixels */
";X;X;X;X;X;X;X;X;X;X;X;X;X;X;X;X;X;X%.t.f.%.X.;X;X;X;X;X;X;X;X;X;X;X;X;X;X;X;X;X;X;X",
";X;X;X;X;X;X;X;X;X;X;X;X;X;X;X*.;.:.:.,.3.:.` [ ;.*.=.;X;X;X;X;X;X;X;X;X;X;X;X;X;X;X",
";X;X;X;X;X;X;X;X;X;X;X;X>.:.3.{ { { { { ] { { { ] ] [ 2.*.;X;X;X;X;X;X;X;X;X;X;X;X;X",
";X;X;X;X;X;X;X;X;X;X>.3.{ ` ` ] ] ] { { ] ] { { { { { { ` :.>.;X;X;X;X;X;X;X;X;X;X;X",
";X;X;X;X;X;X;X;X;X4.3.3.3.{ { { { { { { 3.{ { { { { { { { :.:.,.;X;X;X;X;X;X;X;X;X;X",
";X;X;X;X;X;X;X;Xh.z.J.R.G.s.5.;.;.{ { { { { ` ' { ;.8.j.J.E.L.s.a.;X;X;X;X;X;X;X;X;X",
";X;X;X;X;X;X;Xk Q.oX#X#XoXXXD.p t ~ { { ] ] ] { @.u j U.$X$X#XXX~.l.8   ;X;X;X;X;X;X",
";X;X;X;X;X;X.   m =X*X*X*X=XN   . G { ] { ] ] 0.r.X   z |.*X*X*X$Xm.X   ;X;X;X;X;X;X",
";X;X;X;X;XB.4   & A.*X*X*XA.*   2 O.3.{ 3.3.{ z.`.7     n.*X*X*X(.5   O ;X;X;X;X;X;X",
";X;X;X;XY.XXb.    l }.*X}.7   X m.H.3.{ { { p.'.*XC.%   4 ^.*X@Xc     v g.;X;X;X;X;X",
";X;X;X;X].$X}.l     n.=XB     x +X[.i.{ ] { L.#X%X-Xn     b @XV.X   6 /.x.;X;X;X;X;X",
";X;X;Xl.{.%X*XA.&   4 n.=   4 ^.*XoXz.` { w.~.%X%X$X(.5   & b.6   & C.#XK.q.;X;X;X;X",
";X;X;Xx.oX*X*X=XV     X   X M.%X$X#XR.:.' s.[.%X*X$X*XM.X         m -X*X~.q.;X;X;X;X",
";X;X;.F.$X*X*X*X}.6       x OX*X$X*X~.3.] j.oX*X*X*X$X@Xx       6 ).*X*X'.i.0.;X;X;X",
";X;X_ H.*X*X*X*X|.7       M -X*X*X*X~.3.] z.oX*X*X$X$X-XM       l |.*X*X[.p.5.;X;X;X",
";X;X[ F.$X*X$X=Xb.        & A.*X%X#X!.3.{ z.XX$X*X*X*XC.&         n.*X$X'.i.3.;X;X;X",
";X*.{ c.#X$X*XS.=   & 7     7 }.*X#XE.3.{ s.{.*X$X*X).6     7 X   4 ^.*X~.0.{ 4.;X;X",
";X_ ' s.{.*X Xl     M (.6     V =X#Xc.[ { w.'.*X$X@Xn     l ).c     x .XE.:.{ 3.;X;X",
";X:.{ 0.W.-XB     5 (.*XC.X   = S.{.p.{ { 3.K.#X*XV.%   & A.*X^.4   X m.k.{ ` { ;X;X",
"%.3.{ { z.B.-   X V.*X*X@XM     z P.5.{ { ' d.[._.5     B =X*X*Xn.    2 o.{ { [ 7.;X",
"q.3.{ { 7.h     c @X*X*X*X(.5   . K 3.] { { 5.G.A     7 }.*X*X*X|.z     s ` { { >.;X",
"2.{ ` { ( ,   5 /.*X*X*X*X*XM.X   a 3.] { { { 8.j   & Z.*X*X%X%X$XI.-   q -.{ { { ;X",
") { { { :.F y e.{.#X$X%X#XoXT.J u ! 3.:.] { ] { Y y N.#X#X#X$XoX~.v.L y Y { ] ] :.;X",
") { { { { { :.5.s.G.!.!.K.j.w.5.,.3.{ { { { { { { 2.d.G.W.!.R.c.u.{ { ,.3.{ { { ;.;X",
"_ { { ] { { ` ` { 3.5.3.3.:.{ ] { { ] { { { { { { { { ,.,.3.3.:.` ] { { { { { { :.;X",
") { { { { { { ] { { { ] { { { { { ] ] { { { { { { ' ] ] { { { { { { { ] { { { ] [ ;X",
") { { ` { { ] ] { { { { { { { { { { { { { ] ] ] { { { ] { { { { ] { { { { ` { { [ ;X",
"4.{ { ` { { ] { { { { ` { ] ] { { { ` { { { ] ] { ` { { { { 3.{ ' { { ] { { { { 4.;X",
"y.:.{ { { { { { :.T U <.] { { :.{ ] { &.~ :.{ { { { { { 3.} K X.{ { { { { { 3.{ =.;X",
";X:.{ { ] ] 3.#.C # + S -.3.` { ` { ..r : f @.3.{ { { {  .< o < I >.{ ` { { ] 3.;X;X",
";X4.` { ] { } e @ f i + g <.{ { {  .w > r # 3 U ;.{ 3.@.9 , L e @ u X.3.] ] ] 4.;X;X",
";X7.` { <.L > , P ,.-.g + d &.3.} 3 : Y ,.Y 0 # a ..<.u @ I 5.#.J > , P ;.{ { 7.;X;X",
";X;X,.3.H ; r | 3.{ 3.8.Z $ p R < , E 3.{ { #.Z ; < r @ D [ { { 3.Q e ,  .{ ,.;X;X;X",
";X;X=.[ +.F =.3.{ { { { >.D ; o < W 3.{ { { { :.E 9 @ i -.] { { { 3.@.E ;.{ >.;X;X;X",
";X;X;X1.{ { { { { { { ] { :.G d } 3.{ { { { { { { #.| &.{ { { { { { { { { 4.;X;X;X;X",
";X;X;X;X2.{ { { { ] { { { ] 3.,.3.{ { { { { { { { { { ] { { { ] { { { { 2.;X;X;X;X;X",
";X;X;X;X;X2.[ { { { { { { ] ] { { ] { { { { { { { { { { { { { { { { [ 4.;X;X;X;X;X;X",
";X;X;X;X;X;X*.:.{ { { ` { ] ] { { { { { { { { { { { { { ' { { { :.:.4.;X;X;X;X;X;X;X",
";X;X;X;X;X;X;X*.4.[ { { { { { { { { { { { { { { { { { { { { { { 4.*.;X;X;X;X;X;X;X;X",
";X;X;X;X;X;X;X;X;X9.1.[ [ 3.{ { { { { { { { { { { { { { [ [ 2.*.;X;X;X;X;X;X;X;X;X;X",
";X;X;X;X;X;X;X;X;X;X;X;X6.*.;.[ 3.:.' { 3.{ ` ` :.3._ >.6.;X;X;X;X;X;X;X;X;X;X;X;X;X",
";X;X;X;X;X;X;X;X;X;X;X;X;X;X;X;X;X/ ^ ~ +.~ ^ ^ ;X;X;X;X;X;X;X;X;X;X;X;X;X;X;X;X;X;X"
};
