/* XPM */
static char *hor_right_removebg_preview1736256006[] = {
/* columns rows colors chars-per-pixel */
"42 42 58 1 ",
"  c black",
". c #3E2900",
"X c #422E00",
"o c #462E01",
"O c #473000",
"+ c #493201",
"@ c #4B3003",
"# c #4D3702",
"$ c #523801",
"% c #533801",
"& c #6B4A00",
"* c #6D4F00",
"= c #734A09",
"- c #715500",
"; c #735005",
": c #7E510E",
"> c #875611",
", c #BD7923",
"< c #C37C28",
"1 c #FFBD16",
"2 c #FFBF19",
"3 c #FFBE1B",
"4 c #D3852D",
"5 c #D3862D",
"6 c #DD8D2D",
"7 c #DA8A30",
"8 c #EB9337",
"9 c #EB9437",
"0 c #F59B39",
"q c #FB9E3C",
"w c #FFB725",
"e c #FFBD21",
"r c #FFB528",
"t c #FEAB30",
"y c #FFAB33",
"u c #FFAC32",
"i c #FFAC33",
"p c #FFAF32",
"a c #FFA836",
"s c #FFA13E",
"d c #FFA03F",
"f c #FFA23F",
"g c #FFA33F",
"h c #FFCE0B",
"j c #FFCB0F",
"k c #FED603",
"l c #FFD703",
"z c #FFD207",
"x c #FFD405",
"c c #FFDA01",
"v c #FFDF00",
"b c #FFD108",
"n c #FFC111",
"m c #FFC713",
"M c #FFC614",
"N c #FFC11A",
"B c #FFC01C",
"V c #FFE200",
/* pixels */
"@@@@@@@@@@@@@@@@@@@@@@@@@@@@@@@@@@@@@@Xo; ",
"888888888988888888888888888888888888896>o*",
"BBBBBBBBBBB3BBBBBBBBBBB3BBBBBBBBBBB3Beus:X",
"VVVVVVVVVVVVVVVVVVVVVVVVVVVVVVVVVVVVVVxu<@",
"vVVVVVVvVVVvvVVVVVVVVvVVvVVVVVVvvVVVvVVN5$",
"cccccccccccccccccccccccccccccccccvvVVVVn5$",
"yuyuuyyuyuuyyuyyyyuyyyuyyuuuuuyuuu3cVvVn5$",
"bzbbzbbzbbzbbzbbbbzbzbzbbzbbbbbbbmawvVVn5$",
"VVVVVVVVVVVVVVVVVVVVVVVVVVVVVVVVVVhazVVn4%",
"VVVvvVVVvVvVVVvVVVvVVVvVVVvVVVVvVVcazVVn4%",
"VVVvvVVVVvVVVvVvvVvVvVvVvvVVVVVvVVcuzVVn4%",
"vvVVVVvvVVVvVvVVvVVVvVVVVVVvvvVVVVkuzVVn4%",
"VVvVVvVVvVVvVVvVVVVvVVvvvVVVVVVvVVkyzVVn4%",
"VvVVVVvVvVVvVvVVVvVVvVVVVVvvVvVVvVcyzVVn4%",
"VVvvvvVVVVVVVVvvvVvVvVVVVvVVvVvVVVcuzVV14%",
"vVVVVVVvVvvVvVVVVVvVVVvvVVvVVVvVVVcuzVV14%",
"vVVVVVVvvVVVVVVvVVvVvVVVvVVvVVVvVvcyzVVn5%",
"VVvvvvVVVVvvvvVVvVvVVVvVvVVvVvVVVvcyzVVn5$",
"VvVVVVvVVvVVVVvVVvVVVvVvVVVVvVvVVVcuzVVn5%",
"VVvVVvVVVVvVVvVVVVVvVvVVVvvVVVvVVVcyzVVn5%",
"vvVVVVvvvvVVVVvvvVvVVvVVVvvVVVvVvVcybVVn5%",
"VVVvvVVVVVVvvVVVvVVVVVVVVVVVvVvVVVkazVVn4%",
"VVVVVVVVVVVVVVVVVVVVVVVVVVVVVVVVVVMacVVn4%",
"NNNNNNNNNNNNNNNNNNNN3NNNN3NNNNNNNwaNVVVn4%",
"rrrrrrrrrrrrrrrrrrrrrrrrwrrrrrrrrwjvvVVn5$",
"VvVvvvvVVvvvvVvVvVvvvvVVvVvVvvvVvVVVvVVn5$",
"vvVVVVVvVVVVVVvvVVvVVVVVVVvvVvVVvVVVVvV35$",
"VVVvvvVVVVVVvVVVVvVVvVVVvVVVVVVvVVVVVVku5$",
"1111111111111111131111111311111111131Ntg5$",
"dddqddddqqddddddqdfqqqddqdqfddddfqqdqqfg5$",
"ffffqfddffffffdgddfqffffffgfddqdffdgqdff5$",
"fqffddddfqfqffdddqfffqfqffddddddffddddfg5$",
"ffffsssssssssssssssssssssssssssssssssssg5$",
"fqfqsssssssssssssssssssssssssssssssssssg5$",
"qfffssssssssssssssffsssssssssssssssssssg5$",
"fffqsssssssssssssssqsssssssssssssssssssg5$",
"fsssssssssssssssffqfffffsssssssssssssssg5%",
"ssssssssssssssssfqffqfqfsssssssssssssssg5$",
"ssssssssssssssssffqfffffsssssssssssssssg,@",
"fffffffffffffffffgffffggfffffffffffffff0=#",
"666666666666666666666666666666666666665:.&",
"O+@+O+@+@@O@@@O+@++O@+O+O+@+O+@+@+O@OO.@- "
};
