/* XPM */
static const char *wall_horizontal_left[] = {
/* columns rows colors chars-per-pixel */
"42 42 74 1 ",
"  c #422F03",
". c #473203",
"X c #473504",
"o c #473406",
"O c #473506",
"+ c #493303",
"@ c #4A3303",
"# c #4A3403",
"$ c #4B3403",
"% c #483304",
"& c #483206",
"* c #483505",
"= c #4A3404",
"- c #4C330A",
"; c #4D3A0E",
": c #7E5315",
"> c #7F5316",
", c #89591A",
"< c #8F5D1B",
"1 c #FEBB1E",
"2 c #FFBC1C",
"3 c #CA802D",
"4 c #CB812D",
"5 c #CF832E",
"6 c #DC8B32",
"7 c #DC8C31",
"8 c #DD8D31",
"9 c #DD8C32",
"0 c #DD8D32",
"q c #DE8C35",
"w c #EA923A",
"e c #EA933A",
"r c #FA9D3D",
"t c #FE9F3E",
"y c #FFBF22",
"u c #FFBB25",
"i c #FFBC27",
"p c #FFB32D",
"a c #FFB42C",
"s c #FFB828",
"d c #FFAC33",
"f c #FFAD33",
"g c #FFAB35",
"h c #FFAA36",
"j c #FFAF34",
"k c #FFAF36",
"l c #FFA739",
"z c #FFDF01",
"x c #FFDD03",
"c c #FFDE02",
"v c #FFDB05",
"b c #FFD907",
"n c #FFDA06",
"m c #FFDC04",
"M c #FFD70A",
"N c #FFD70D",
"B c #FFCF11",
"V c #FFCA16",
"C c #FFC31D",
"Z c #FFC11F",
"A c #FFC21E",
"S c #FFC21F",
"D c #FFD010",
"F c #FFE000",
"G c #FFE100",
"H c #FFC020",
"J c #FFC221",
"K c #FFC521",
"L c #FF9F41",
"P c #FFA040",
"I c #FFA141",
"U c #FFA241",
"Y c #FFA142",
"T c None",
/* pixels */
"TTo&--------------------------------------",
"T <qeeeeeeeeeeeeeeeeeeeeeeeeeeeeeeeeeeeeee",
"*,tfiyyyyyyyyyyyyyyyyyyyyyyyyyyyyyyyyyyyyy",
"*5kMGGGGGGGGGGGGGGGGGGGGGGGGGGGGGGGGGGGGGG",
"+9HGGGGGGGGGGGGGGGGGGGGGGGGGGGGGGGGGGGGGGG",
"+9KGGGGGbbbbbbbbbbbbbbbbbbbbbbbbbbbbbbbbbb",
"+9KGGGxAgggggggggggggggggggggggggggggggggg",
"+9KGGGHlABDDDDDDDDDDDDDDDDDDDDDDDDDDDDDDDD",
"+9KGGbgAGGGGGGGGGGGGGGGGGGGGGGGGGGGGGGGGGG",
"+9KGGbgDGGGGGGGGGGGGGGxGGGGGGGGGGGGGGGGGGG",
"+9KGGbgDGGGGGGGGGGGGGGGGGGGGGGGGGGGxGGGGGG",
"+9KGGbgDGGGGGxGGGGGGGGGGGGGGGGGGGGGGGGGGGG",
"+9KGGbgDGGGGGGGGGGGGGGGGGGGGGGGGGGGGGGGGGG",
"+9KGGbgDGGGGGGGGGGGGGGGGGGGxGGGGGGGGGGGGGG",
"+9KGGbgDGGGGGGGGGGGGGGGGGGGGGGGGGGGGGGGGGG",
"+9KGGbgDGGGGGGGGGGGGxGGGGGGGGGGGGGGxGGGGGG",
"+9KGGbgDGGGGGGGGGGGGGGGGGGGGGGGGGGGGGGGGGG",
"+9KGGbgDGGGGGGGGGGxGGGGGGGGGGGGGGGGGGGGGGG",
"+9KGGbgDGGGGGGGGGGGGGGGGGGGGGGGGGGGGGGGxGG",
"+9KGGbgDGGGGGGGGGGGGGGGGGGGxGGxGGGGGGGGGGG",
"+9KGGbgDGGGGGGGGGGGGGGGGGGGGGGGGGGGGGGGGGG",
"+9KGGbgBGGGGGGGGGGGGGGGGGGGGGGGGGGGGGGGGGG",
"+9KGGmfuxGGGGGGGGGGGGGGGGGGGGGGGGGGGGGGGGG",
"+9KGGGVlpHAHHHHHHHHHHHHHHHHHHHHHHHHHHHHHyy",
"+9KGGGGBsaaaaaaaaaaaaaaaaaaaaaaaaaaaaaaaaa",
"+9KGGGGGGxxxxxxxxxxxxxxxxxxxxxxxxxxxxxxxxx",
"+9AGGGGGGGGGGGGGGGGGGGGGGGGGGGGGGGGGGGGGGG",
"+9kNGGGGGGGGGGGGGGGGGGGGGGGGGGGGGGGGGGGGGG",
"+9Pf12222222222222222222222222222222222222",
"+9PLLLLLLLLLLLLLLLLLLLLLLLLLLLLLLLLLLLLLLL",
"+9PPPPPPPPPPPPPPPPPPPPPPPPPPPPPPPPPPPPPPPP",
"+9PPPPPPPPPPPPPPPPPPPPPPPPPPPPPPPPPPPPPPPP",
"+9PPPPPPPPPPPPPPPPPPPPPPPPPPPPPPPPPPPPPPPP",
"+9PPPPPPPPPPPPPPPPPPPPPPPPPPPPPPPPPPPPPPPP",
"+9PPPPPPPPPPPPPPPPPPPPPPPPPPPPPPPPPPPPPPPP",
"+9PPPPPPPPPPPPPPPPPPPPPPPPPPPPPPPPPPPPPPPP",
"+9PPPPPPPPPPPPPPPPPPPPPPPPPPPPPPPPPPPPPPPP",
"+9PPPPPPPPPPPPPPPPPPPPPPPPPPPPPPPPPPPPPPPP",
".4PPPPPPPPPPPPPPPPPPPPPPPPPPPPPPPPPPPPPPPP",
"o>rPPPPPPPPPPPPPPPPPPPPPPPPPPPPPPPPPPPPPPP",
"T;>469999999999999999999999999999999999999",
"TTo&######################################"
};
