/* XPM */
static const char *wall_horizontal_right[] = {
/* columns rows colors chars-per-pixel */
"42 42 75 1 ",
"  c #412E01",
". c #443100",
"X c #483402",
"o c #4A3403",
"O c #4B3403",
"+ c #483206",
"@ c #483405",
"# c #4A3505",
"$ c #4B3704",
"% c #4B3607",
"& c #4C330A",
"* c #4E3A08",
"= c #533B06",
"- c #543B05",
"; c #543B06",
": c #724B11",
"> c #774E14",
", c #7D5216",
"< c #865718",
"1 c #BC7828",
"2 c #C27B2C",
"3 c #C57E2C",
"4 c #FEBA1F",
"5 c #FFBC1C",
"6 c #FFBE1F",
"7 c #D28431",
"8 c #D28531",
"9 c #D28432",
"0 c #D98933",
"q c #DB8B32",
"w c #DC8C31",
"e c #EA923A",
"r c #EA933A",
"t c #F59A3C",
"y c #FB9D3E",
"u c #FFBD21",
"i c #FFBF22",
"p c #FFBC24",
"a c #FFBC26",
"s c #FFB62A",
"d c #FFB42C",
"f c #FEAA33",
"g c #FFAB35",
"h c #FFAA36",
"j c #FFAB36",
"k c #FFAD35",
"l c #FFAE35",
"z c #FFA739",
"x c #FFDF01",
"c c #FFDE02",
"v c #FFD907",
"b c #FFDA06",
"n c #FED50A",
"m c #FFD50B",
"M c #FFD60A",
"N c #FFD30D",
"B c #FFD10F",
"V c #FFD808",
"C c #FFC017",
"Z c #FFCD13",
"A c #FFCA16",
"S c #FFC018",
"D c #FFC51B",
"F c #FFC61A",
"G c #FFC11F",
"H c #FFD010",
"J c #FFE000",
"K c #FFE100",
"L c #FFE200",
"P c #FFC020",
"I c #FF9F41",
"U c #FFA040",
"Y c #FFA141",
"T c #FFA241",
"R c None",
/* pixels */
"&&&&&&&&&&&&&&&&&&&&&&&&&&&&&&&&&&&&&&+oRR",
"eeeeeeeeeeeeeeeeeeeeeeeeeeeeeeeeeeeeeeq<@R",
"iiiiiiiiiiiiiiiiiiiiiiiiiiiiiiiiiiiiipgy,.",
"KKKKKKKKKKKKKKKKKKKKKKKKKKKKKKKKKKKKKKnk2@",
"KKKKKKKKKKKKKKKKKKKKKKKKKKKKKKKKKKKKKKK58-",
"vvvvvvvvvvvvvvvvvvvvvvvvvvvvvvvvvvKKKKKC8-",
"ggggggggggggggggggggggggggggggggggpvKKKS8-",
"HHHHHHHHHHHHHHHHHHHHHHHHHHHHHHHHHDgsxKKS8-",
"KKKKKKKKKKKKKKKKKKKKKKKKKKKKKKKKKKZzBKKS8-",
"KKKKxxKKKKKKKxKKKKKKKxKKKKKKKKKKKKVgBKKS8-",
"KKKKKxKKKKKKKxKKKKKKKKKKKKKKKKKKKKVgBKKS8-",
"KKKKKKKKKKKKKKKKKKKKKKKKKKKKKKKKKKVgBKKS8-",
"KKKKKKKKKKKKKKKKKKKKKKKKKKKxKKKKKKVgBKKS8-",
"KKKKKKKKKKKKKKKKKKKKKKKKKKKxKKKKKKVgBKKS8-",
"KKKKKKKKKKKKKKKKKKKKxxKKKKKKKKKKKKVgBKKS8-",
"KKKKKxKKKKKKxxKKKKKKKKKKKKKKKKKKKKVgBKKS8-",
"xKKKKKKKKxKKKKKKKKKKKKKKKKKKKKKKKKVgBKKS8-",
"KKKKKKKKKKKKKKKKKKKxKKKKKKKKKKKKKKVgBKKS8-",
"KKKKKKKKKKKKKKKKKKKxKKKKKKKxKxKKKKVgBKKS8-",
"KKKKKKKKKKKKKKKKKKKKKKKKKKKxKxKKKKVgBKKS8-",
"KKKKKKKKKKKKKKKKKKKKKKKKKKKKKKKKKKVgBKKS8-",
"KKKKKKKKKKKKKKKKKKKKKKKKKKKKKKKKKKVgBKKS8-",
"KKKKKKKKKKKKKKKKKKKKKKKKKKKKKKKKKKDznKKS8-",
"PPiPPPPPPPiiPPPPPPPPPPPPPPPPPPPPPszGxKKS8-",
"dddddddddddddddddddddddddddddddddsAxKKKS8-",
"xxxxxxxxxxxxxxxxxxxxxxxxxxxxxxxxxKKKKKKC8-",
"KKKKKKKKKKKKKKKKKKKKKKKKKKKKKKKKKKKKKKKi8-",
"KKKKKKKKKKKKKKKKKKKKKKKKKKKKKKKKKKKKKKnk8-",
"55555555555555555555555555555555555554fU8-",
"IIIIIIIIIIIIIIIIIIIIIIIIIIIIIIIIIIIIIIIU8-",
"UUUUUUUUUUUUUUUUUUUUUUUUUUUUUUUUUUUUUUUU8-",
"UUUUUUUUUUUUUUUUUUUUUUUUUUUUUUUUUUUUUUUU8-",
"UUUUUUUUUUUUUUUUUUUUUUUUUUUUUUUUUUUUUUUU8-",
"UUUUUUUUUUUUUUUUUUUUUUUUUUUUUUUUUUUUUUUU8-",
"UUUUUUUUUUUUUUUUUUUUUUUUUUUUUUUUUUUUUUUU8-",
"UUUUUUUUUUUUUUUUUUUUUUUUUUUUUUUUUUUUUUUU8-",
"UUUUUUUUUUUUUUUUUUUUUUUUUUUUUUUUUUUUUUUU8-",
"UUUUUUUUUUUUUUUUUUUUUUUUUUUUUUUUUUUUUUUU8=",
"UUUUUUUUUUUUUUUUUUUUUUUUUUUUUUUUUUUUUUUU1@",
"UUUUUUUUUUUUUUUUUUUUUUUUUUUUUUUUUUUUUUUt:*",
"wwwwwwwwwwwwwwwwwwwwwwwwwwwwwwwwwwwwwq3> R",
"oooooooooooooooooooooooooooooooooooooo@@RR"
};
