/* XPM */
static char *hor_left_removebg_preview1736256006[] = {
/* columns rows colors chars-per-pixel */
"42 42 111 2 ",
"   c #0B0200",
".  c #4C2B00",
"X  c #512800",
"o  c #5D2C00",
"O  c #573200",
"+  c #5A3100",
"@  c #5E3B03",
"#  c #5B3D09",
"$  c #622E00",
"%  c #682B00",
"&  c #633000",
"*  c #7D500F",
"=  c #694411",
"-  c #766132",
";  c #875607",
":  c #885611",
">  c #946410",
",  c #B67B2D",
"<  c #BD8C30",
"1  c #BC843A",
"2  c #EEBA06",
"3  c #EFB90F",
"4  c #F6BE07",
"5  c #FEB60A",
"6  c #F5BD09",
"7  c #FAB909",
"8  c #EFB914",
"9  c #F5B311",
"0  c #F2B913",
"q  c #F3B919",
"w  c #C6962B",
"e  c #C5992C",
"r  c #CB982D",
"t  c #CB8C3F",
"y  c #C49634",
"u  c #C99433",
"i  c #C79830",
"p  c #C99832",
"a  c #C4963E",
"s  c #CB9638",
"d  c #C49B3C",
"f  c #D59F37",
"g  c #D0923F",
"h  c #D49E3C",
"j  c #F69B3B",
"k  c #FD9E3E",
"l  c #FBA52D",
"z  c #FBA929",
"x  c #FFB923",
"c  c #F7BF2A",
"v  c #FDBA2A",
"b  c #E6AE3D",
"n  c #FBA433",
"m  c #F7A831",
"M  c #F5A13E",
"N  c #FEA13C",
"B  c #F6AA3C",
"V  c #EFBB33",
"C  c #F4BA32",
"Z  c #EDC506",
"A  c #ECC50A",
"S  c #EEC80D",
"D  c #F2C304",
"F  c #F4C008",
"G  c #F9C40D",
"H  c #F4CB0B",
"J  c #F9C80A",
"K  c #FDD706",
"L  c #F2D900",
"P  c #FFDE02",
"I  c #FED60D",
"U  c #FFDC0C",
"Y  c #FBC413",
"T  c #FFC912",
"R  c #FFC61B",
"E  c #FFCB1E",
"W  c #FFD613",
"Q  c #FFDA13",
"!  c #FFD519",
"~  c #FFDB1A",
"^  c #FFE001",
"/  c #FDE10A",
"(  c #FFE010",
")  c #F7C322",
"_  c #F9C323",
"`  c #F6C923",
"'  c #FDCA22",
"]  c #F4C22B",
"[  c #FCC62C",
"{  c #F3CA29",
"}  c #FFDB22",
"|  c #EAC030",
" . c #FCD134",
".. c #C78B43",
"X. c #CD8F44",
"o. c #CE9045",
"O. c #CD9149",
"+. c #D29344",
"@. c #D59D40",
"#. c #DC9C42",
"$. c #D29549",
"%. c #FF9F40",
"&. c #CDA249",
"*. c #E3A04F",
"=. c #EEA149",
"-. c #F5A246",
";. c #FDA041",
":. c #F6A249",
">. c #FAA54B",
",. c #F6A951",
"<. c #FAAA53",
/* pixels */
". = o + o + % % o $ $ $ % $ & % & $ $ $ $ $ % & $ $ % & $ $ $ $ % $ $ & $ $ $ $ % $ ",
"= X > y &.&.#.#.h h h @.@.h f h h h h h h h h h h h h h h h h h h h h h h h h h h h ",
"& ; b V V | c v ) R ] ] c ] _ _ _ ) _ ` _ ) _ ` ) ` _ ` _ ` _ ` ` _ _ ` _ ` _ ) ) ` ",
"o < V ` } ~ W ~ Q Q ! ! ! ! ! W W Q Q ! W Q ! W W W W W W W W ! W W W W ~ W ! Q W W ",
"@ d | ~ / ^ ^ P P P U U U U P U U U U U U Q U U U U U U Q U U U U U U U U U U U U Q ",
". y  .Q L ^ U K K K Q Q W W U U U ! W W W W W Q Q W ! W Q W Q ! W Q ! W W W ! Q W Q ",
"% u [ W / / T E 6 3 8 q 8 0 0 6 3 8 3 3 3 3 3 8 3 3 8 3 3 3 3 3 3 3 8 3 3 3 3 3 3 3 ",
"$ u _ ~ U I R 9 ' R ' ' ' E E ' E E E E E E E E E E E E E E E E E E E E E E E E E E ",
"o i ` U / K 6 R ~ Q Q U U P P P U U U U U K U U U U U U U U U U U U U U U U U U U U ",
"o e E U / K 2 E I ^ ^ ^ ^ ^ ^ ^ ^ P ^ ^ ^ ^ ^ ^ ^ P ^ ^ ^ ^ P ^ ^ P ^ ^ P ^ P ^ ^ ^ ",
"o p ` I / I 0 E U ^ ^ ^ ^ ^ ^ ^ ^ ^ ^ ^ ^ ^ P ^ ^ ^ ^ P ^ ^ ^ ^ ^ ^ ^ ^ ^ ^ P ^ ^ ^ ",
"$ p ` W U W 0 E U ^ ^ P P ^ P / P ^ ^ ^ ^ ^ ^ ^ ^ P ^ ^ ^ P ^ ^ ^ ^ P ^ ^ ^ ^ ^ ^ ^ ",
"$ s [ ! Q W q ' U ^ P U ^ ^ / ^ P P ^ P ^ ^ P ^ P ^ ^ ^ P P ^ P ^ P P P P P P ^ ^ P ",
"$ p [ ! Q W q ' P ^ / U U P ^ ^ ^ ^ P ^ ^ ^ P ^ P ^ P ^ P ^ P ^ ^ ^ ^ ^ ^ ^ ^ ^ ^ ^ ",
"o i ' W / I 0 E K ^ ^ / ^ ^ ^ ^ ^ ^ ^ ^ ^ ^ ^ ^ ^ ^ ^ ^ ^ ^ ^ ^ ^ ^ ^ ^ ^ ^ ^ ^ ^ ^ ",
"$ i _ Q / U 6 R P ^ ^ U ^ ^ ^ ^ ^ ^ ^ ^ ^ ^ ^ ^ ^ ^ ^ ^ ^ ^ ^ ^ ^ ^ ^ ^ ^ ^ ^ ^ ^ ^ ",
"+ y { ~ U I 7 R L ^ ^ / ^ ^ ^ ^ ^ ^ ^ ^ ^ ^ ^ ^ ^ ^ ^ ^ ^ ^ ^ ^ ^ ^ ^ ^ ^ ^ ^ ^ ^ ^ ",
"$ i { ~ Q U 7 T ^ ^ ^ ^ / ^ ^ ^ ^ ^ ^ ^ ^ ^ ^ ^ ^ ^ ^ ^ ^ ^ ^ ^ ^ ^ ^ ^ ^ ^ ^ ^ ^ ^ ",
"% r ` I / U 5 Y U ^ P ^ ^ P P P P ^ ^ ^ ^ P P P ^ ^ P ^ P ^ ^ P ^ ^ P P P ^ P ^ P ^ ",
"% r ` U Q W 5 R U ^ ^ ^ ^ P P P ^ ^ ^ ^ ^ ^ ^ ^ ^ ^ ^ ^ ^ ^ ^ ^ ^ ^ ^ ^ ^ ^ ^ ^ ^ ^ ",
"$ i { ~ ( ! 8 ' Q / ^ ^ P P P P ^ ^ ^ ^ ^ ^ ^ ^ ^ ^ ^ ^ ^ ^ ^ ^ ^ ^ ^ ^ ^ ^ ^ ^ ^ ^ ",
"$ w { ~ Q W 8 R ! Q / / ^ P U U U ^ ^ ^ / ^ ^ ^ ^ ^ ^ / ^ / P ^ ^ ^ ^ / P / ^ ^ ^ ^ ",
"& w ` Q K Q G q } ( Q Q Q Q ~ ! Q Q Q Q Q Q U Q Q Q U Q Q Q W Q Q Q U Q Q Q Q Q W Q ",
"$ w ' U P / J 2 A S S H H J G G J J J J J J J J J J J J J J J J J J J J J J J J J J ",
"o e ` Q ^ K U W Z A Z Z Z D F G 4 4 4 F 4 4 4 4 F 4 F 4 4 4 6 4 F 4 4 4 6 4 F 4 4 4 ",
"+ y [ Q ^ ^ U K W ~ ~ Q Q Q W W ! ! ! ! ! ! ! ! ! ! ! ! ! ! ! ! ! ! ! ! ! ! ! ! ! ! ",
"O < { ~ / ^ ^ P U Q U U K P K K U U U U U U U U U U U U U / U U U U U U U U U U U U ",
"+ a C ' ! I Q W ~ } ! ! W Q U U Q Q ~ Q Q Q Q W Q Q Q Q Q Q Q W Q Q W W Q Q Q Q Q Q ",
"o X.B z v x _ x x v v v v v x x x x x x x x x x x x x x x x x x x x x x x x x x x x ",
"$ +.M n n m z z n n N l n m l l l z l l l z l l l l l z n l l l l z l z l l l z n l ",
"$ o.;.k ;.M n l N N N N k N N N N N N N N N N N k N N N N N N N N N N N N N N N N N ",
"$ g >.k >.;.M N N N k k ;.M ;.N N %.N k N k N k k k %.%.N ;.N N %.%.N k k k %.%.N N ",
"$ +.%.%.;.;.j >.N k k k ;.;.%.%.%.%.k %.%.%.%.%.%.%.%.%.%.%.%.%.%.%.k %.%.%.%.%.%.%.",
"o X.,.j ;.;.;.;.N N N N ;.%.%.%.%.%.%.%.%.%.%.%.k ;.%.%.%.%.%.%.%.%.%.%.%.%.k %.%.%.",
"% ..,.%.k ;.;.j ;.k N %.>.%.%.%.%.%.%.k %.k %.%.%.%.%.%.%.%.%.%.%.k %.%.%.%.%.%.%.%.",
"& X.*.%.k ;.%.k N N N N %.%.%.%.%.;.%.;.%.;.%.;.%.;.k ;.%.;.%.N %.;.%.;.%.;.%.;.%.;.",
"o $.=.;.M ;.%.>.;.N N ;.%.:.%.%.;.%.;.;.;.%.N ;.N ;.;.k ;.;.%.;.;.;.N %.;.;.N %.;.%.",
"o $.,.>.k ;.-.%.%.N k N %.%.%.%.;.N ;.k ;.;.;.;.;.%.;.;.%.N ;.;.;.k ;.k ;.%.;.;.;.N ",
"% , ,.;.N ;.;.%.N N k k >.%.%.%.k k N k k N N ;.N k N k N %.N k N k N k N k N k k N ",
"O : *.=.>.-.:.<.-.>.-.:.:.=.:.:.-.>.:.:.:.:.:.:.:.:.:.:.:.:.:.:.:.:.:.>.:.:.:.:.:.:.",
"- # * 1 $.o...O.X.t o.o.o.O.o.o.o.o.o.o.o.o.o.o.o.o.o.o.o.o.o.o.o.o.o.o.o.o.o.o.o.o.",
"  - @ o $ % & & & % % + + & + % $ $ o $ $ & $ o & $ o $ $ & o o & o $ $ $ $ o $ $ $ "
};
