/* XPM */
static char *hor_wall_removebg_preview1736256006[] = {
/* columns rows colors chars-per-pixel */
"42 42 15 1 ",
"  c #493100",
". c #4B3003",
"X c #FFBD16",
"o c #DD8D2D",
"O c #EB9337",
"+ c #FFB528",
"@ c #FFAC32",
"# c #FFA13E",
"$ c #FFA03F",
"% c #FFA23F",
"& c #FFDA01",
"* c #FFD108",
"= c #FFC11A",
"- c #FFC01C",
"; c #FFE200",
/* pixels */
"..........................................",
"OOOOOOOOOOOOOOOOOOOOOOOOOOOOOOOOOOOOOOOOOO",
"------------------------------------------",
";;;;;;;;;;;;;;;;;;;;;;;;;;;;;;;;;;;;;;;;;;",
";;;;;;;&;;;;&;;;;;;&;;;;;;;;;;;&;;;;&;;;;;",
"&&&&&&&&&&&&&&&&&&&&&&&&&&&&&&&&&&&&&&&&&&",
"@@@@@@@@@@@@@@@@@@@@@@@@@@@@@@@@@@@@@@@@@@",
"******************************************",
";;;;;;;;;;;;;;;;;;;;;;;;;;;;;;;;;;;;;;;;;;",
";;&;;;;;;;&;;;;;;;;;;;;&;;;;&;;;;;;&;;;;&;",
";;;;;&;;;;;;;&;;&;;;;;;;;;;;;;;;;;;;;;;;;;",
"&;;;;;;;&;;;;;;;;;;&;;;;&;;;;&;;;;&;;;&;;;",
";;;&;;;&;;;&;;;&;;&;;;&;;;;;;;&;;&;;;;;;;&",
";;;;;;;;;;;;;;;;;;;;;;;;;;;&;;;;;;;;&;;;;;",
";&;;;&;;;&;;;&;;;;;;;;;;&;;;;;;;;;;;;;;&;;",
";;;;;;;;;;;;;;;;;&;;;&;;;;;;;&;;;;&;;;;;;;",
";;;;;;;;;;;;;;;;;;&;;;;;;&;;;;;;;;;;;;;;;;",
";;;&;;;&;;;&;;;&;;;;&;;;;;;;&;;;;;&;;;&;;;",
"&;;;&;;;&;;;&;;;;;;;;;;&;;;;;;;&;;;;;;;;;&",
";;;;;;;;;;;;;;;;;&;;;;;;;;&;;;;;&;;;&;;;;;",
";;&;;;&;;;&;;;&;;;;;;&;;;;;&;;;;;;;;;&;;;;",
";;;;;;;;;;;;;;;;;;;;;;;;;;;;&;;;;;&;;;;;;;",
";;;;;;;;;;;;;;;;;;;;;;;;;;;;;;;;;;;;;;;;;;",
"================X-========================",
"++++++++++++++++++++++++++++++++++++++++++",
"&;;&;&;;&;;;&;;&;;;&;;;&;&;;&;;;;;&;;;;&;;",
";;;;;;;;;;;;;;;;;;;;;;;;;;;;;;;&;;;;;;;;;;",
";;;;;&;;;&;&;;;;;&;;;&;&;;&;;;;;&;;;&;;;;;",
"XXX=XXXXXXXXXX==XXXXXXXXXXX=XXXXXXXXXXX==X",
"###$$$$$#######$$$$$#######$$$$$$$$$$$$$$$",
"####$$$$########%$$$########$$$$########$$",
"##%$%$$$########$$$$######$$$$$$#########$",
"##########################################",
"##########################################",
"##########################################",
"##########################################",
"######################%$##################",
"#######################%##################",
"######################%$##################",
"$$$#####%%%%%%##%%%%%%%%%%%%%%%%%%%%%%%%%%",
"oooooooooooooooooooooooooooooooooooooooooo",
"         .                               ."
};
