/* XPM */
static char *ybody1736872131[] = {
/* columns rows colors chars-per-pixel */
"42 42 95 2 ",
"   c #003F00",
".  c #004000",
"X  c #0A4504",
"o  c #0F4807",
"O  c #0A4708",
"+  c #0E4908",
"@  c #154C0B",
"#  c #1A4F0D",
"$  c #1C500E",
"%  c #1A5113",
"&  c #22520B",
"*  c #28540B",
"=  c #2E580E",
"-  c #315A0F",
";  c #395E0D",
":  c #235513",
">  c #2C5916",
",  c #295A18",
"<  c #365E12",
"1  c #345D1A",
"2  c #3C600F",
"3  c #3C6112",
"4  c #44640E",
"5  c #416214",
"6  c #486716",
"7  c #436719",
"8  c #47681B",
"9  c #4A691C",
"0  c #516C13",
"q  c #587016",
"w  c #5B7219",
"e  c #657914",
"r  c #6B7A16",
"t  c #627619",
"y  c #67791D",
"u  c #6E7D19",
"i  c #737C19",
"p  c #567223",
"a  c #5C7424",
"s  c #637A29",
"d  c #7C8217",
"f  c #74821D",
"g  c #7A851E",
"h  c #7B8423",
"j  c #83861B",
"k  c #8C8B1E",
"l  c #889117",
"z  c #8E9419",
"x  c #A89F1B",
"c  c #ADA81C",
"v  c #B0A41F",
"b  c #B7AE1F",
"n  c #818722",
"m  c #858A23",
"M  c #868E2A",
"N  c #898E2B",
"B  c #8B922C",
"V  c #949223",
"C  c #9A9425",
"Z  c #9E9826",
"A  c #959528",
"S  c #9D9A2C",
"D  c #A29720",
"F  c #AB9C23",
"G  c #A29C2D",
"H  c #B39F22",
"J  c #A8A326",
"K  c #ACA528",
"L  c #B3A421",
"P  c #B8A023",
"I  c #BAAB23",
"U  c #BDB522",
"Y  c #C6B81E",
"T  c #C9B91E",
"R  c #C3B522",
"E  c #C4BA25",
"W  c #CDBA22",
"Q  c #D3BE23",
"!  c #DED21E",
"~  c #E4D21F",
"^  c #FFF30F",
"/  c #EFE31D",
"(  c #F1E31D",
")  c #FFEE1D",
"_  c #FFF216",
"`  c #FFF11A",
"'  c #D3C121",
"]  c #DDCB20",
"[  c #E5D120",
"{  c #EAD425",
"}  c #F2E124",
"|  c #F8E723",
" . c #FBEC22",
".. c #F9E92C",
"X. c #FFF021",
/* pixels */
". . . . . . . . . . . .   . @ , 5 t V F I P F C h p 1 % .   . . . . . . . . . .   . ",
". . . .   .   . . .   X , p M J R ' ] [ ~ ~ [ ] ' R K B a , .   .   .   . . . . . . ",
". . .   . . . . . . % s G E ! /  .X.X.` ` ` ` X.X. ./ ! E S p @   . . .   . . .   . ",
"  . . .   . .   X 9 Z W {  .` _ ` ` X.` ` ` ` X.` ` _ _  .{ W k - . . . . . .   . . ",
"  . . . . .   X y I {  .X.) ` ) ) ) `  .` X.` ` ` ` ` ` ) X. .{ K 0 X .   . . . . . ",
". . .   . . @ f E } ` ` ` ) ) ` ` ` _ ` X.` ` ` ` ` ` ` ) ` `  .} Y r X   . .   . . ",
". . . .   # m Q | ` ` ` ` ` ` ` _ _ _ ` ` ` ` _ _ _ ` ` ` ` ` _ ` | Q i X   . .   . ",
". . .   # n Q ..) ` ` ` ` ` ` ` ` ` _ _ _ _ _ _ ` ` ` ` ` ` ` ` ) ) ..Q r X . . . . ",
"  .   + f E | X.X.` ` X.) _ ` ` ` X.` _ ^ ^ _ ` ` X.) ` ` ) ` ` ` ) X.| U 2   . . . ",
". . . 9 I } ` ` ` _ ` ` ) _ _ _ `  .` ` ` ` ` ` X.` _ _ _ _ ` ) ` ` ` ` } c &   .   ",
".   : C [ X.` ` ` ` ` ` _ _ _ _ ` ` ) ` ` ` ) ` ` ` ` _ _ _ ` ) ` ` ` ` ` { d . . . ",
". . a W  .` _ ` ` ` ` ` ` ` ` ` ` ` ` ` ` ` _ ` ` ` ` ` ) ` ` ` ` ` ` ` `  .E ;     ",
"  # A { X.` ` ` ` ` ) _ ` ` ` ` ` ` ` ` ` ` _ ` ` _ ` ) ` ` ` _ ` ` ` ` X.X.{ g X . ",
"  7 E ) `  .` ` ` ` _ ` ` ` ` _ ` ` ` ` ` ` ) ` ` ` ` _ ` _ ) _ _ ` ` ` X.` ` E = . ",
"O g ! _ ` ) ` ` ` _ _ ` ` _ ) ` ` ` ` ` ` ` ` ` ` ` ` ` ` ` ` _ _ ` ` ` ` ` _ ! f X ",
"> G / _ ` ) ` ` ` ` _ ` ` ` ` ` ` ` ` ` ` ` _ ` ` ` ` ` ` ` ` _ ` ` ` ` ) ` _ ( V # ",
"s R  .` ) _ _ ` ` ) ` ` ` ` ` ` ` ` ` ` ` ` ` ` _ ) _ ` ` ` ` ` ` X.` _ ` ` `  .I 7 ",
"N '  .X.) _ _ `  .) ` ` ` ` _ ) ` _ ` ` ` ` ` ` ` ` ` ` ` ` _ ) ` X.` ` _ ) X.X.' h ",
"Z ] X.X.` ` _ ` ` ` ` ` ` ` ` _ ` ` ` ` _ ` ` ` _ ` ` ` ` ` ` ) ` ` ` _ _ ` X.X.] V ",
"F [ ` ` ` ` ` _ _ ` ) ` ` ` ` ` ` ` _ ` ` ` ` ` ` ` ` ` ` ` ` ` ` _ _ _ ` X.` ` ~ F ",
"L ~ ` _ ` X.` _ _ _ ` ` ` ` ` ` ` ` _ ` ` ` ` ` ` ` _ ` ` ` ` ` _ ^ _ ` X.` ` ` ~ H ",
"H [ ` _ X.` ` _ ^ _ ` ` _ ` ` ` ` ` ` ` ` ` _ ` ` ` ` ` ` ` ` ` ` ^ _ ` ` ` ` ` ~ F ",
"F [ ` ` X.` ` _ _ ` ` ` ` ` ` ` ` ` ` ` ` ` _ ` ` ` ` ` ` ` ` ` ` _ _ ` ` X.` ` ~ D ",
"Z ] X.X.` _ _ ` ` X.` ` ` ` ` _ _ ` ` ` ` ` ) ` ` ` ` ` ` ` ` ) ` ` ` _ _ X.X.X.] j ",
"M ' X.` X._ _ ` X.) ` ` ` ` ` ` ` ` _ ` ` ` ` ` _ ` ` ` ` _ ) ` X.X.` _ _ ` ` X.Q 0 ",
"a U  ._ ` ` _ ` ) ` ` ` ` ` ` ` ` ` ` ` ` ` ` ` ` ` ` ` ` ` ` ` ` X.` _ ` ) `  .c * ",
"> Z / _ ) ` ` ` ` ` _ ` ` ` ` ` ` ` ` ` _ ` ` _ ` ` ` ` _ ` ` _ _ ` ` ` ` ) _ / l . ",
"O h ! _ ` X.` _ ) _ _ ` ` ` ` ` ` ` ` ` ` ` ` ` ` ` _ ` ` ` ) _ _ ` ` ` ) ` _ ! e . ",
". 3 U ) ) ) ` ` ` _ _ ` ` _ ` ` _ ` _ ` ` ` ` ` ` ` ` ` ` ` ` _ ` ` ` ` X.`  .R $ . ",
". # m { X.` ` ` ` ` ) _ ` ` ` ` ) ` ` ` ` ` ` ` _ ` ` ` ` ` ) _ ` ` ` ` ` X.{ g X . ",
". . 6 W  .` ` ` ` ) ) ` ` ` ) ` ` ` ` ` ` ` ` ` ` ` _ ` _ ` ` _ ` ` ` ` `  .W ;   . ",
". . + g [ X._ ` ` ` _ ) _ _ _ _ ` ` ` ) ` ` ) ` ) ` ) _ _ _ ) ) ` ` _ `  .{ j X   . ",
". . . 3 L } ` ` ` ` ` ` ` _ _ ` ` X.` ` ` ` ` ` ` ) ` _ _ ` ` ` ` ` ) ` } v - . . . ",
". . . . w Y  .X.X.` ` ` ` ` ` ` ` ` ` _ ^ ^ _ ` X.` ` ` ` ` ` ` ` ` X.| T q . . . . ",
". . . . @ i Q .. .` ` ` ` ` ` ` ` ` ` ` _ _ _ ` ` ` ` ` ` ` ` ` ` ` ..' u X   . . . ",
". . . .   # n Q | ` ` ` ` ` ` ` _ _ _ ` ` ` ` _ _ _ ` ` ` ` ` ` ` ..W h o   . .   . ",
". . . . . . # h W } X.` ` X.) ` ` ` _ ` X.` ` ` _ ` ` ) X.` ` ` } R u o     . . . . ",
". . . . . .   @ y I {  .X.` ` ) ` X.) ` ` X.`  .` ` ` ` ) X. .{ c 0 X   .     . . . ",
". . . . . . .   X 8 A E {  ._ _ ` ` ` ` ` _ ` ` ` ` _ `  .{ W d * . . . .   . .   . ",
". . . . . . . . . . % f G U ! /  .X.X.` ` ` X. . . .( ! R m 2 X . . . . . . . . . . ",
". . . .   . . . . .   O , a B J R ' ] ~ ~ ~ [ ] ' b z u < X   . . .   . . . . . . . ",
".   . . . . .   . . . .   . % , 9 n G H P P x e 4 - +   . .   . . . . . .   . . .   "
};
