/* XPM */
static const char *body[] = {
/* columns rows colors chars-per-pixel */
"42 42 127 2 ",
"   c #0B8B0B",
".  c #049103",
"X  c #059C05",
"o  c #099C07",
"O  c #07960A",
"+  c #09950B",
"@  c #069A09",
"#  c #099A09",
"$  c #108910",
"%  c #04A405",
"&  c #03AA03",
"*  c #05A108",
"=  c #02B302",
"-  c #03BE02",
";  c #02BE0B",
":  c #03BE12",
">  c #01C101",
",  c #01C10C",
"<  c #01C213",
"1  c #01C31B",
"2  c #02C223",
"3  c #01C328",
"4  c #02C733",
"5  c #03CA3D",
"6  c #04CA43",
"7  c #04CD4C",
"8  c #05CD52",
"9  c #06CF58",
"0  c #04D153",
"q  c #04D25B",
"w  c #03D660",
"e  c #05D96C",
"r  c #04D773",
"t  c #06D673",
"y  c #05D676",
"u  c #05D677",
"i  c #05D874",
"p  c #04D875",
"a  c #06D875",
"s  c #05D97E",
"d  c #06DB7E",
"f  c #06DB84",
"g  c #07DE8E",
"h  c #06DD8B",
"j  c #07DF9B",
"k  c #03E28D",
"l  c #04E497",
"z  c #08E193",
"x  c #0AE098",
"c  c #07E4A4",
"v  c #09E6A5",
"b  c #03E8A3",
"n  c #05E6A9",
"m  c #08E4AD",
"M  c #0AE5AA",
"N  c #05E9AD",
"B  c #0AEAAE",
"V  c #07E5B0",
"C  c #08E6B2",
"Z  c #0AE9B5",
"A  c #0AECBC",
"S  c #07EFC0",
"D  c #07EFC3",
"F  c #09EDC1",
"G  c #08EFC3",
"H  c #0AEBC6",
"J  c #07F1C3",
"K  c #07F3C7",
"L  c #08F1C5",
"P  c #04F2CD",
"I  c #06F1CF",
"U  c #07F1CD",
"Y  c #08F1CD",
"T  c #0AEFD2",
"R  c #09EED1",
"E  c #04F5D7",
"W  c #04F3D3",
"Q  c #09F1D3",
"!  c #06F2D8",
"~  c #05F3DA",
"^  c #00F3DC",
"/  c #00F3DD",
"(  c #02F2DD",
")  c #01F3DF",
"_  c #02F2DF",
"`  c #03F3DF",
"'  c #05F2DE",
"]  c #01F4DE",
"[  c #00F5DF",
"{  c #02F4DF",
"}  c #00F6DE",
"|  c #02F3DE",
" . c #09F0D8",
".. c #01F2E0",
"X. c #00F3E0",
"o. c #01F2E1",
"O. c #00F3E1",
"+. c #02F3E0",
"@. c #03F3E0",
"#. c #02F2E1",
"$. c #03F2E1",
"%. c #02F3E1",
"&. c #01F2E2",
"*. c #00F3E2",
"=. c #01F3E3",
"-. c #02F2E2",
";. c #04F0E1",
":. c #06F1E0",
">. c #00F5E0",
",. c #00F5E1",
"<. c #01F5E1",
"1. c #02F4E0",
"2. c #01F6E0",
"3. c #02F6E0",
"4. c #03F4E2",
"5. c #01F2E4",
"6. c #00F3E5",
"7. c #03F1E6",
"8. c #01F2E6",
"9. c #02F2E6",
"0. c #01F4E4",
"q. c #00F5E5",
"w. c #02F4E5",
"e. c #01F4E6",
"r. c #00F3E1",
"t. c None",
"y. c black",
/* pixels */
"t.t.t.t.t.t.t.t.t.t.t.t.t.t.t.t.    . X X X X .   $ t.t.t.t.t.t.t.t.t.t.t.t.t.t.t.t.",
"t.t.t.t.t.t.t.t.t.t.t.t.t.t.# o * & = = = = = = & * X # t.t.t.t.t.t.t.t.t.t.t.t.t.t.",
"t.t.t.t.t.t.t.t.t.t.t.t.X & = - - > > > > > > > > - - = % # + t.t.t.t.t.t.t.t.t.t.t.",
"t.t.t.t.t.t.t.t.t.t.@ % = - - > > > - - - - > > > > > - - = & # t.t.t.t.t.t.t.t.t.t.",
"t.t.t.t.t.t.t.t.+ * = - > > - - - > > > > > > > > > - - - > - = o + t.t.t.t.t.t.t.t.",
"t.t.t.t.t.t.t.+ % - > > > > > > > > > > > > > > > > > > > > > - = % + t.t.t.t.t.t.t.",
"t.t.t.t.t.t.+ & - > > > > > > > - > > > - - > > > > > - - > > > > - & + t.t.t.t.t.t.",
"t.t.t.t.t.O & - - > > > > > > - - > > > - - > > > > > ; - > - - > > - & O t.t.t.t.t.",
"t.t.t.t.t.* = > > > > > > > > - - > > - > > > - - - > > > > > > > - > - * t.t.t.t.t.",
"t.t.t.t.* = - - > > > > > > > > > > > > , , , ; ; ; > > ; > > > > - > > = * t.t.t.t.",
"t.t.t.@ & > > > > > > > > > - ; < 6 y k l j g r 6 < ; - ; - > > > - > > > = + t.t.t.",
"t.t.t.% = > > > > > > > - ; : 6 x H ! >.e.e.>.E D z 7 < > - - > > > > - > - * t.t.t.",
"t.t.# = > > > > > > > - ; 1 t F >.e.@.;.5.@.>.>.e.' D p 1 > - ; > > - > - - = @ t.t.",
"t.t.X = > > - > > - > - 1 p P { 5.@.` ` @.` ` @.5.@.` T s < - ; > - - > - > - * t.t.",
"t.t.& - > > > > > - > , q P @.@.@.@.@.@.@.@.@.@.@.@.@.@.P q ; - > > > > > > - & t.t.",
"t.X = - > > > > > > ; 4 B @.@.@.@.@.@.@.@.@.@.@.@.@.@.@.@.Z 4 > - > > > > - > = # t.",
"t.X = > > > > > > > ; y ! 5.@.@.@.@.@.@.@.@.@.@.@.@.@.@.5.;.p , - > > > > ; > - X t.",
"t.% = > > > > > > > 2 m >.@.@.@.@.@.@.@.@.@.@.@.@.@.@.@.5.>.n 1 - - > > > - > - % t.",
"t.% - > > - > > > ; 6 D { ` @.@.@.@.@.@.@.@.@.@.@.@.@.@.{ { J 5 ; > - > > - > - % t.",
"t.& - > > - - > > ; 7 U @.@.@.@.@.@.@.@.@.@.@.@.@.@.@.@.' @.P 8 > > - > > > > - % t.",
"t.& - > - - - > > ; 0 K @.5.@.@.@.@.@.@.@.@.@.@.@.@.@.>.! ;.Q 9 > > ; > > > > - % t.",
"t.& - > > - - > > ; 8 K @.@.@.@.@.@.@.@.@.@.@.@.@.@.@.@.' @.Y 8 > > - > > > > - % t.",
"t.% - > > - > > > - 6 L { ` @.@.@.@.@.@.@.@.@.@.@.@.@.@.{ { L 6 ; > - > > - > - % t.",
"t.% - > > > > > > > 2 C { @.@.@.@.@.@.@.@.@.@.@.@.@.@.@.@.>.N 2 - - > > > - > - % t.",
"t.% = > > > > > > > ; f | 5.@.@.@.@.@.@.@.@.@.@.@.@.@.@.5.;.s , - > > > > - > - * t.",
"t.X = - > > > ; > > ; 5 A @.@.@.@.@.@.@.@.@.@.@.@.@.@.@.@.A 5 > - > > > > - > = o t.",
"t.t.& - > > > > > - > , e W @.@.@.@.@.@.@.@.@.@.@.@.@.@.W e : > > > > > > > > & t.t.",
"t.t.* = > > - > > - > > 1 f W >.5.@.` ` @.` ` @.5.@.`  .g 1 ; ; > > - > > > - * t.t.",
"t.t.# = > > > > > > > - ; 2 f Y e.e.` @.7.@.>.>.5.;.U f 3 > - ; > > - > - - = X t.t.",
"t.t.t.% - > > > > > > > - ; 1 q M T ' >.5.e.>.{ P v q 1 > - - > > > > - > - % t.t.t.",
"t.t.t.X = > > > > > > > > > - ; 2 8 g b N V c h 0 2 ; - - - > > > - > - > = # t.t.t.",
"t.t.t.t.* - - > > > > > > > > > > > , < 1 1 < ; ; > > > ; > > > > - > > = % t.t.t.t.",
"t.t.t.t.t.% = > > > > > > > > - - > > - > > > - - ; > > > > > > > - > - % t.t.t.t.t.",
"t.t.t.t.t.@ & - > > > > > > > - - > > > - - > > > > > ; - > - - > > ; & # t.t.t.t.t.",
"t.t.t.t.t.t.@ & - > > > > > > > - > > > - - > > > > > - - > > > > - & o t.t.t.t.t.t.",
"t.t.t.t.t.t.t.# & - > > > > > > > > > > > > > > > > > > > > > > - & X t.t.t.t.t.t.t.",
"t.t.t.t.t.t.t.t.+ % = - > > - - > > > > > > > > > > - > - > > = * # t.t.t.t.t.t.t.t.",
"t.t.t.t.t.t.t.t.t.t.X & = - - - > - - - - - > > > > > - - - & * t.t.t.t.t.t.t.t.t.t.",
"t.t.t.t.t.t.t.t.t.t.t.+ X & = - > > > > > > > > > > - = & X # t.t.t.t.t.t.t.t.t.t.t.",
"t.t.t.t.t.t.t.t.t.t.t.t.t.# X * & & = = = - = = & & * X t.t.t.t.t.t.t.t.t.t.t.t.t.t.",
"t.t.t.t.t.t.t.t.t.t.t.t.t.t.t.t.t.# # X X X X # + t.t.t.t.t.t.t.t.t.t.t.t.t.t.t.t.t.",
"t.t.t.t.t.t.t.t.t.t.t.t.t.t.t.t.t.t.t.t.t.t.t.t.t.t.t.t.t.t.t.t.t.t.t.t.t.t.t.t.t.t."
};
