/* XPM */
static char *snake_bdead_removebg_preview1736256006[] = {
/* columns rows colors chars-per-pixel */
"42 42 157 2 ",
"   c #004000",
".  c #0A4707",
"X  c #0B4709",
"o  c #0C490A",
"O  c #114C0D",
"+  c #1B520F",
"@  c #164F11",
"#  c #1D5416",
"$  c #275A16",
"%  c #2A5911",
"&  c #205618",
"*  c #2B5C1D",
"=  c #315F1C",
"-  c #2C5F22",
";  c #2E6024",
":  c #336423",
">  c #3F6926",
",  c #3D6829",
"<  c #436B2A",
"1  c #47712E",
"2  c #547323",
"3  c #55782B",
"4  c #5D7B2D",
"5  c #4A7233",
"6  c #547A37",
"7  c #5A7A33",
"8  c #54793A",
"9  c #647C26",
"0  c #627C32",
"q  c #69822B",
"w  c #798A2D",
"e  c #61823B",
"r  c #788833",
"t  c #7D8E44",
"y  c #9A9416",
"u  c #97961E",
"i  c #AD980E",
"p  c #B39D02",
"a  c #A99B12",
"s  c #B7A100",
"d  c #B9A300",
"f  c #B7A209",
"g  c #ABA81E",
"h  c #84912E",
"j  c #88902C",
"k  c #929522",
"l  c #808F37",
"z  c #889233",
"x  c #87933F",
"c  c #8A943B",
"v  c #8D983D",
"b  c #969A31",
"n  c #939D3C",
"m  c #9A9D3A",
"M  c #A39E3B",
"N  c #9EA335",
"B  c #9CA338",
"V  c #AEAD25",
"C  c #A7A72E",
"Z  c #ABA52D",
"A  c #AFAC28",
"S  c #ABA634",
"D  c #ACAB33",
"F  c #A4A53A",
"G  c #ABA63A",
"H  c #B3AC33",
"J  c #B9AB30",
"K  c #B5AC3A",
"L  c #BAB035",
"P  c #BBB339",
"I  c #C9B629",
"U  c #C3BA2B",
"Y  c #CBBC2A",
"T  c #C1B731",
"R  c #C1B833",
"E  c #CCBE32",
"W  c #FCEE0F",
"Q  c #F8F907",
"!  c #FDF30E",
"~  c #F8F80A",
"^  c #F7ED15",
"/  c #FDEE15",
"(  c #FEEE1C",
")  c #F7F214",
"_  c #FEF215",
"`  c #F5F11C",
"'  c #FEF21B",
"]  c #FFF81D",
"[  c #C8C522",
"{  c #CDC822",
"}  c #C5C52E",
"|  c #CCC52E",
" . c #D3C425",
".. c #DECB25",
"X. c #D2C72D",
"o. c #DBC729",
"O. c #D3CB2C",
"+. c #DCCC2E",
"@. c #D6D22D",
"#. c #DBD12D",
"$. c #CCC335",
"%. c #CDC830",
"&. c #CFC238",
"*. c #D4CB32",
"=. c #D8CD33",
"-. c #D6CA3A",
";. c #DBCC3B",
":. c #DBD332",
">. c #DFDA36",
",. c #E2CD26",
"<. c #E7D227",
"1. c #E5D32B",
"2. c #E5DF29",
"3. c #EDDB2C",
"4. c #E3D634",
"5. c #E4DC33",
"6. c #E9DC33",
"7. c #E3D43D",
"8. c #E9DA3C",
"9. c #EEE123",
"0. c #EDE926",
"q. c #E4E32C",
"w. c #EDE52D",
"e. c #F4EB22",
"r. c #FDEE22",
"t. c #F2E32B",
"y. c #F6ED2A",
"u. c #FDED2B",
"i. c #F7F222",
"p. c #FEF222",
"a. c #FFF821",
"s. c #F7F129",
"d. c #FEF22B",
"f. c #FFF92A",
"g. c #EBE132",
"h. c #EDE834",
"j. c #E7E03A",
"k. c #ECE23C",
"l. c #F2E633",
"z. c #F6EA35",
"x. c #FDED33",
"c. c #F3E93A",
"v. c #FBEE3D",
"b. c #F5F130",
"n. c #FDF234",
"m. c #FEF43B",
"M. c #808F4B",
"N. c #839146",
"B. c #8C9343",
"V. c #869841",
"C. c #9B9C42",
"Z. c #A29C41",
"A. c #9FA040",
"S. c #A6A541",
"D. c #ABA042",
"F. c #ADA841",
"G. c #FFF545",
/* pixels */
"                          . ; 7 z u i f d p p y j 0 : X                             ",
"                      O 5 t A.K E X.o.,.<.<.,.o.Y L M N.8 @                         ",
"                  o 6 c g [ >.q.y.d.n.d.x.n.m.u.r.w.5.%.D v 6 O                     ",
"                - M.Z X.y.p.` ] ) ) ' p.r.e.( ' ] ( i.s.j.$.P l :                   ",
"              5 m &.3.r.) ! ' ' p.' ' ] ] ( _ _ _ ] p.r.n.v.6.&.F 1                 ",
"            e G *.3.u.p._ _ p.r.a.p.' / / ! ! ! W ' ' ( p.d.r.l.-.G >               ",
"          e C O.z.u.u.r.( ' r.r.e.r.( ' _ _ _ _ ] _ ' ' ' ( ( d.v.;.H $             ",
"        1 F *.n.d.r.r.r.p.( ( r.p.' p.' _ _ _ _ / / ' _ ( _ _ ( r.m.#.Z             ",
"      ; b O.y.d.u.u.' _ _ ' ' ( / _ ' ' ' ' ' ' _ ) _ _ _ ' _ ' p.r.y.@.N           ",
"    o t Y t.p.( r.' ! ~ _ ' / _ _ / ' ( r.p.p.` ' ] ' ) _ _ ' ( ( ( ] 0.} 4         ",
"    5 D.6.u.p.( ] ! Q Q ) ` _ _ _ _ ' ' ' p.p.( ` p.' ` ' p.' r.( / ] p.q.A         ",
"  o B.&.x.( ( ' _ _ ~ ~ ] ' _ _ _ / _ ' r.' p.' ' ' ] ' ` ' ' p.' ( / ] s.O.4       ",
"  5 H g.d.p.( ( _ _ ` p.s.p._ ! ! ! _ _ ' p.' ' _ _ _ _ ' ' ' p.p.' / / d.l.K       ",
". t } s.r.p.( ( ' _ p.u.d.' _ _ _ _ _ ' ' ' ' ' _ _ _ _ _ ' ' p.p.p.( / ' x.;.      ",
"* m >.s.p.' / ' _ / ' ' _ _ ' p.` p.' ] ' ' ' _ _ _ ' ( ' ' ' p.p.` _ / ( x.k.S     ",
"3 H h.i.] ^ ' ( ( _ ( _ _ _ p.s.p.' p.` ' ' _ ' ' ' ' ' ( ' ' ( ( ] / ( ( u.l.T     ",
"h Y r.) ' ' p.( / _ _ _ _ _ ` p.p.' ' ' _ ' ' ' ' ' ' ' ' ' ' ' ' ' ' / r.u.y.|     ",
"k  .d.] ' ' r.p._ / _ / ! _ ' p.' ' ' ' ' ' ] _ ' ' ' ' _ ' ' ' _ _ ' / r.d.s.@.    ",
"a ..u.' ' ( ( ' ' _ _ ' _ _ p.` ' ' ' ' ' ' ' ' ' ' ' _ ' ' _ ' _ _ _ / ' r.d.5.2   ",
"f 1.y.` ' ) / ' ' ( ' ' ' ] ' p.' ' ' ' ' ' _ ' _ ' ' ' ' ' ' _ _ _ _ / ( r.p.5.w   ",
"s 3.u.r.' _ _ _ ' p.( p.' p.' ' ' ' ' ' _ ' ' ' ' ' ' ' _ ' ' _ _ ) _ / ( ( p.g.h   ",
"p <.v.r._ ! ! _ p.r.r.p.p.' ' ( _ ' ' ' ' ' _ ' ' _ ' ' ' ' ' ' ] ' ' / ' ( d.5.9   ",
"f ..n.( ] ! _ ' ' p.p.p.' ' ' ' ' ' ' ' ' _ ' ' ' ' _ ' ' ' ' ' ` ' p.( r.p.p.4.%   ",
"u o.x.( _ ! _ / p.` p.' ' ' ( ' ' ' ' _ ' ' ' ' ' _ ' ' ' ' _ ' p.' ' ( ( ( r.1.    ",
"h I n.] / _ _ _ ' ` ' ` ] _ / ' ' ' ' ' ' ' ' _ ' ' ' ' ' ' ' ' ' p.' ( ' p.p.X.    ",
"4 J z.^ ] ' ' ' _ ] p.' ' _ ' ' ' _ ' ' _ ' ' ' ' ' ' ' ' _ _ ] ] ^ ( ] / ( e.U     ",
"- M 5.i.p.( p.' _ _ ` ' _ _ _ ' ' ' _ ' ' ' ' ' ' ' ' _ ' ' ' ' ] ^ _ ] / p.w.q     ",
"  N.} m.e.( p./ _ _ ' ] _ _ _ ' _ ' ' ' ' ' ' ' _ ' ' ' ' ' ' _ _ ) _ _ ^ d.=.      ",
"  8 D k.x.r.p._ _ _ ' ` _ _ / ' ' ' ' _ ' ' ' _ ' ' ' _ ' ' ' _ / _ _ / p.l.K       ",
"  o v $.G.d.( / / _ ' p._ ' ' ' ' ' ' ' ' _ ' ' ' ' ' ' _ ' ' ' ' ' _ ' u.+.        ",
"    6 L k.u.' _ _ ' p.' ' ' ' _ ' ' ' ' ' ' ' ' _ ' ' ' ' ' ' ' p.' ( r.9.U         ",
"      x E z.p./ ' ( ' p.p.' ' _ ' _ ' ' ] _ _ ' _ ' ' ' _ ' ' ( p.p.r.x.o.          ",
"      : A.;.G.( ' / r.u.d.p.) _ ' ' ' ] _ ) _ ] _ ' ' ( ( ' ' / / r.x.;.n           ",
"        8 F.=.m.( ' p.r.r.p._ _ ' ( ( ' _ ) ) ' ) ] ' ( ( ' p.p.( n.8.G             ",
"          e K :.b.] ` ] ] _ ! ! ' r.r.p.' ' p.p.a.( ( p.p.( ' p.x.8.K +             ",
"            e D :.h.p.` / _ _ / / / ( ' r.' ' ' ( ( ' p.p.( r.z.7.G =               ",
"              6 B } q.f.] ^ ( p._ ! _ ( ' ' ( _ _ ' _ ^ r.b.t.-.S.*                 ",
"                : V.V { h.u.x.u.] _ _ ( r.r.( ' _ _ a.n.c.:.R 9 .                   ",
"                  o 5 C.L -.8.z.y.p.d.d.d.u.r.p.p.` 2.=.P c *                       ",
"                      O < r S T | :.4.8.8.8.4.,. .} Z q :                           ",
"                            # , 7 x C.Z.D.Z.M B.7 < &                               ",
"                                        O @ o                                       "
};
