/* XPM */
static char *gdhead1736872132[] = {
/* columns rows colors chars-per-pixel */
"42 42 213 2 ",
"   c #010201",
".  c #0A0104",
"X  c #010B01",
"o  c #0A0904",
"O  c #04000A",
"+  c #0A0509",
"@  c #060D09",
"#  c #0C0A0C",
"$  c #14020B",
"%  c #021301",
"&  c #0D1604",
"*  c #011A01",
"=  c #0B140C",
"-  c #0A1A0D",
";  c #12160F",
":  c #0C0B12",
">  c #130E12",
",  c #161715",
"<  c #002400",
"1  c #002B00",
"2  c #092A00",
"3  c #142809",
"4  c #003300",
"5  c #003C00",
"6  c #182818",
"7  c #1C321B",
"8  c #21281D",
"9  c #1E2321",
"0  c #1E3923",
"q  c #242525",
"w  c #273726",
"e  c #282631",
"r  c #2F3231",
"t  c #2D3F30",
"y  c #333735",
"u  c #004000",
"i  c #004D00",
"p  c #074708",
"a  c #094609",
"s  c #0B490B",
"d  c #15450D",
"f  c #015300",
"g  c #005B00",
"h  c #085A0A",
"j  c #0E4314",
"k  c #144D14",
"l  c #145414",
"z  c #145915",
"x  c #195B16",
"c  c #185118",
"v  c #1A541A",
"b  c #1B5B1C",
"n  c #006301",
"m  c #076507",
"M  c #006A00",
"N  c #116F0E",
"B  c #037700",
"V  c #017D00",
"C  c #1A7C0D",
"Z  c #1D6A1B",
"A  c #1C7C1A",
"S  c #20661F",
"D  c #1F5220",
"F  c #284A2A",
"G  c #324D2E",
"H  c #265726",
"J  c #255B24",
"K  c #2D5B2E",
"L  c #2F4830",
"P  c #364835",
"I  c #394B3B",
"U  c #2E5731",
"Y  c #365334",
"T  c #345B34",
"R  c #395639",
"E  c #3C5C3C",
"W  c #266725",
"Q  c #2B6C2B",
"!  c #33652C",
"~  c #267226",
"^  c #2C752B",
"/  c #2D7A2A",
"(  c #336033",
")  c #3C603C",
"_  c #2F7530",
"`  c #337333",
"'  c #357B34",
"]  c #367B3A",
"[  c #3A7C3B",
"{  c #41413B",
"}  c #415A3F",
"|  c #435E46",
" . c #466E49",
".. c #556457",
"X. c #048C03",
"o. c #0C8F03",
"O. c #0D8C0C",
"+. c #08960A",
"@. c #139709",
"#. c #0F8411",
"$. c #198717",
"%. c #0E9A12",
"&. c #179918",
"*. c #24851A",
"=. c #09A60B",
"-. c #11A103",
";. c #14A50C",
":. c #14AD0C",
">. c #19AA0B",
",. c #03B602",
"<. c #0AB505",
"1. c #02BD02",
"2. c #0BBC03",
"3. c #05B40B",
"4. c #0CB40B",
"5. c #04BD0B",
"6. c #0BBB0C",
"7. c #11B405",
"8. c #11BC04",
"9. c #12B30C",
"0. c #1AB40D",
"q. c #12BD0D",
"w. c #0EA813",
"e. c #12A113",
"r. c #18A115",
"t. c #12AD13",
"y. c #1BAC14",
"u. c #1CA21C",
"i. c #14AD1C",
"p. c #1BAB1A",
"a. c #0CB412",
"s. c #08B514",
"d. c #06BC11",
"f. c #0CBB12",
"g. c #13B413",
"h. c #1BB413",
"j. c #13BB15",
"k. c #18BB16",
"l. c #15B319",
"z. c #1BB31B",
"x. c #14BA1B",
"c. c #22AD16",
"v. c #22B318",
"b. c #189026",
"n. c #2B8B27",
"m. c #2B842D",
"M. c #27972E",
"N. c #2C9C2A",
"B. c #329E2E",
"V. c #2F8E33",
"C. c #368C34",
"Z. c #3B853B",
"A. c #2C9231",
"S. c #339734",
"D. c #1AA721",
"F. c #1DAC22",
"G. c #1CB023",
"H. c #1AB724",
"J. c #14BB21",
"K. c #24A727",
"L. c #29A623",
"P. c #24AA23",
"I. c #2AAB24",
"U. c #2CA42C",
"Y. c #2CAB2C",
"T. c #30AE29",
"R. c #22B424",
"E. c #29B628",
"W. c #2AB32F",
"Q. c #2EA534",
"!. c #2BAB33",
"~. c #35A434",
"^. c #39A335",
"/. c #33AA34",
"(. c #3AA33B",
"). c #39A63A",
"_. c #27B430",
"`. c #32B534",
"'. c #3AB937",
"]. c #33BC3B",
"[. c #41853D",
"{. c #41933F",
"}. c #41A13E",
"|. c #02C301",
" X c #0AC303",
".X c #02CA02",
"XX c #04C20A",
"oX c #0BC20B",
"OX c #00C909",
"+X c #12C407",
"@X c #0AC312",
"#X c #15C115",
"$X c #1CC320",
"%X c #3D9D42",
"&X c #3EA941",
"*X c #428544",
"=X c #4E8C4C",
"-X c #459342",
";X c #449C43",
":X c #4C974A",
">X c #4A9C4A",
",X c #4D9954",
"<X c #4AA748",
"1X c #59A74E",
"2X c #48B845",
"3X c #55AA59",
"4X c #49BB52",
"5X c #5FBD63",
"6X c #4BC74F",
"7X c #59CB5C",
"8X c #5BD05E",
"9X c #6ACE5E",
"0X c #6BCA67",
/* pixels */
"u u u u u u u u u u u u u u u b S.Y.x.XX2.8.8.v.W.A.l u u u u u u u u u u u u 5 u u ",
"u u u u u u u u u u u u 5 ' ;X/.t.4.1.|.1.2.2.8.3.z.!.%X_ u u u u u u u u u u u u u ",
"u u 5 u u u u u u u u z /.z.:.7.,. X|.|.1.1.1.1.2.6.s.J.D.).Z.u u u u u u u u u u u ",
"u u u u u u u u 5 5 Z Y.w.5.2. X2.|.1..X5.XX1.|.1.1.1.3.J.p.L.;XW u u u u u u u u u ",
"u u u u u u u u u z n.~.T.h.4.,.8.6.1.|.5.5.|.|.1.@Xd.x.p.Y.~.(.:X[ 5 5 u u u u u u ",
"u u u u u u u u u u u u Z ;X6X&.X.;.@X1.3.XX|.|.oX=.X.S.W z v _ 0X,X*Xj s u u u u u ",
"u u u u u u 5 4 u u u u 5 5 l j < g a.5.5.+X|.2.p.g < d p u u u u c  .* 3 c u u u u ",
"u u u u u u * O 6 5 u u u u |   % u i.1.XX1.,.h.<XD X   Y u u u u u 8     H u u u u ",
"u u u 5 u u u . . G 5 u u v >   % ] H.1.1.OX4.'.p J @   @ J u u 5 Y .   2 p u u u u ",
"u u u u u u u # $ $ k u 5 F     E D ].5.|.1.G.Z.u u I   X 0 u u D #   & ! [ u u u u ",
"u u u u u u u F . . r 5 T   X 8 k u <X9.|.4.2Xu u u u q   X T u 0 @   K 5 =Xs u u u ",
"u u u u u u u u 6 + O I ,   @ T u u ^ c.8.0.1Xu u u u K     , I @   w u 5 *X=Xu u u ",
"u u u x u u u u k           R 5 5 u l '.7.>.[.u u u u u P . . O O : D u u W >Xl u u ",
"u u / S u u u u 5 G     o 9 u u u u p 2X0.c._ u u u u u u ,   O O R 5 u u v U.%Xu u ",
"u u B./ u u u u u L       q a u u u 5 4Xg.E.Q u u u u u l =       Y u u u x R.K.p u ",
"u *XP.V.u u u u K       O . I 5 u u p 4X9.z.[ u u u u u w         & H u u W l.g.[ u ",
"u ;Xy./.u u u u ,   O r X   : T u u b `.<.h.3X5 u u u }     - w   . w u u ' :.a.{.u ",
"b ^.g.E.u u u t X   y u Y     e l 5 -Xp.j.h.0X5 u u T > .   E s ; o . Y u <X9.q./.s ",
"m.R.<.z.] u U   X % c u u 9   O | 5 8Xg.6.t.}.J u c y     w u u T   + % ` &X6.2.F.~ ",
"N.k.1.g.3Xb -   X T u u u )     X =X`.f.2.6.H.5Xu ... > = ( u u u t   X 4 A.g.5.l.S.",
"_.3.5.j.N.l X   7 u u u u u {     4 &.5.2.2.a.].=X= + + ..u u u u K - X * m z.4.g./.",
"H.5.1.<.&.4 * < J 5 u u u u J 2 % < =.5. X1.1.l.A < X y c u u u u u  .* < f l.5.a.H.",
"4.oX|.1.q.X.f S u 5 u u u u l n.u V 3.|.|.1.|.2.;.f f ` u u u u u *X<Xg i o.4. X3.x.",
"q.|.1.|.1.1.h.L.2X>X' ' :X0X`.z.i.a.5.1.1.|. X1.2.7.T.9X1X1X,X3X7XI.z.:.v.t.1.|.|.j.",
"2.1.OX1.|.1.2.<.w.G.G.F.p.a.3.5.1.5.5.XX1.1.2.1.|.|.q.0.>.v.x.s.s.,. X X,.1.|.|.1.6.",
"8. X|.1.OX|.1.|.XX5.5.5.XX|.OXOX|.|.5.XX5.|. X1..X|.1.2.8.1.1.OXXX|.|.|.2. X|.1.2.6.",
"k.1.XXXX5. X|.|.1.XX|.1.|.|.|.1.|.|.1.5.|.|.|.|.|.OX1.6.j.2.2.1.5.XX|.|.2.,.1.1.d.J.",
"v.6.5.XX1.1.1.1.6.f.6. X|.|.|.|.|.1.1.XXd.5.1.1.OX,.1.2.3.4.0.9.s.5.1.|.+X2.1. Xf.W.",
"Q.k.2.1.|.|.1.6.y.@.o.-.2. X2.2.1.1. X3.e.p.q. X|.|.XX5.f.l.O.V i.x.1.|.2.|.|.|.a.Q.",
"Z p.2.|.|.OX$Xe.B u 2 M @.7.<.q.2.7.h.V 5 i @.;.5.oX1.3.l.B 4 1 n X.l.6.,.1.|.|.F.m.",
"u N.4. X1.9.&.n 1 u 5 1 f &.$X3.3.R.n < 4 1 < m u.g.5.6.#.4 4 f < u V r.h.6.|.6.).u ",
"u / l.,.9.+.u < f b.M.g 2 f %.F.F.M < 5 *.C 5 < i O.l.%.5 1 $.N.N 4 < n +.s.XXg.-X5 ",
"u u L.h.X.5 1 M w.4.j.=.n 1 i m.h < i &.l.g.e.M 4 < h u 1 B y.7.t.&.f 1 i =.f.F._ 5 ",
"u u C.I.@.i #.I.oX|.|.@X&.n 4 < < f %.g.1.|.6.p.$.u < 1 n p.q. X X3.L.X.V e.i.;Xu u ",
"u u p ^.p.7.7.2.1.|.|.1.x.e.M u n @.k.1.OX|.1.f.l.%.B V w.j.5.1.|.oX,.7.:.c.(.b u u ",
"u u u ' L.0.+X1.1.|.|.1.5.#Xz.@.>.2.2.1.|.|.1.5.5.j.6.6.5.3.2.1.1.1.1. X9.U.[ u u u ",
"u u u u Z.P.<.|.oX1.,.1.2.2.,.4.2.1.1.|.1. X X2.8.,.1.1.1.1.2.|.|..X|.<.K.Z.u u u u ",
"u u u u 5 Z.Y.g.3.2.2.+X X|. X|.1.oX1.1.|.|.2.2.2.1.|.|.|.|.1.|.|.,.:.Y._ 5 u u u u ",
"u u u 5 u u b }.c.a.6.1.1.1.|.1.1.5.|.|.|.|.1. X1.|.|.|.|.|.|.XX4.P.<Xl u u u u u u ",
"u u u u u u u u ~ (.D.l.a.1.|.|.1.5.|.|.|.|.|.1. X1.5.@X5.s.j.i.&XQ 5 u u u u u u u ",
"u u u u u u u 5 u u ` :X^.P.h.q.6.5.1.|.|.1.1.XX5.s.s.F.K.(.{.W u u u u u u u u 5 u ",
"u u u u u u u 5 u u 5 u l ^ S.Y.G.#X@XXXXX5.d.d.J.H.Q.V.l u u u u u u u u u u u u u "
};
