/* XPM */
static char *yhead1736872131[] = {
/* columns rows colors chars-per-pixel */
"42 42 202 2 ",
"   c #010202",
".  c #090003",
"X  c #030A06",
"o  c #03040B",
"O  c #08040B",
"+  c #010A0A",
"@  c #090B0A",
"#  c #091608",
"$  c #0F161A",
"%  c #141616",
"&  c #17251A",
"*  c #1A251B",
"=  c #1E301E",
"-  c #223522",
";  c #323B2C",
":  c #004000",
">  c #094707",
",  c #094609",
"<  c #0C490A",
"1  c #124E0D",
"2  c #1C550C",
"3  c #144D14",
"4  c #155015",
"5  c #1C5513",
"6  c #1C531D",
"7  c #1F581F",
"8  c #20570F",
"9  c #255B18",
"0  c #295E19",
"q  c #2D611B",
"w  c #3E6E15",
"e  c #32651C",
"r  c #3C6C1D",
"t  c #254625",
"y  c #224B24",
"u  c #34462C",
"i  c #215621",
"p  c #235923",
"a  c #295D25",
"s  c #2A5B2A",
"d  c #344D34",
"f  c #354A38",
"g  c #3A5939",
"h  c #336522",
"j  c #3D6C2C",
"k  c #3A683C",
"l  c #5E5300",
"z  c #655B00",
"x  c #6D5C00",
"c  c #4B771D",
"v  c #6B6200",
"b  c #726500",
"n  c #726A00",
"m  c #7A7100",
"M  c #7E7800",
"N  c #426F26",
"B  c #487628",
"V  c #577D23",
"C  c #457233",
"Z  c #4C7834",
"A  c #547F31",
"S  c #3E5D41",
"D  c #3F6540",
"F  c #466447",
"G  c #467446",
"H  c #527053",
"J  c #617861",
"K  c #837600",
"L  c #897E00",
"P  c #927F00",
"I  c #5C821C",
"U  c #678B13",
"Y  c #6F911A",
"T  c #5D8327",
"R  c #5F863A",
"E  c #6A8E24",
"W  c #799A2C",
"Q  c #678B3B",
"!  c #759739",
"~  c #5D844F",
"^  c #688B44",
"/  c #729345",
"(  c #709158",
")  c #858000",
"_  c #8C8300",
"`  c #908C00",
"'  c #9D8E00",
"]  c #9A9500",
"[  c #A69C00",
"{  c #A99D00",
"}  c #B5A400",
"|  c #81993F",
" . c #8AA33D",
".. c #90A833",
"X. c #9EB13D",
"o. c #A6BA2C",
"O. c #AABA3C",
"+. c #B4BF32",
"@. c #C4BA01",
"#. c #C0B80B",
"$. c #CBBC26",
"%. c #B2C02A",
"&. c #B7C33C",
"*. c #D9CC07",
"=. c #DAD20D",
"-. c #DBCE10",
";. c #DAD619",
":. c #F0DD17",
">. c #FFF20E",
",. c #E9E319",
"<. c #FEEE16",
"1. c #F8E71B",
"2. c #F6EC1C",
"3. c #FEEE1D",
"4. c #FEF215",
"5. c #FEF21B",
"6. c #F9F519",
"7. c #CCC12B",
"8. c #CACF2C",
"9. c #CCD12C",
"0. c #DBDA2A",
"q. c #CFD639",
"w. c #DCD33D",
"e. c #E2DD28",
"r. c #EBE524",
"t. c #F4E625",
"y. c #F4EC23",
"u. c #FEEE23",
"i. c #F6ED2C",
"p. c #FCEE2B",
"a. c #F3F124",
"s. c #FEF223",
"d. c #FFFC24",
"f. c #F5F12C",
"g. c #FCF22B",
"h. c #ECE735",
"j. c #FBE730",
"k. c #F5ED33",
"l. c #FBEE34",
"z. c #F4EE3C",
"x. c #FBED3C",
"c. c #F3F036",
"v. c #FCF133",
"b. c #FFFD34",
"n. c #F5F03C",
"m. c #FCF13B",
"M. c #8BA64B",
"N. c #97AA47",
"B. c #88A451",
"V. c #95AF53",
"C. c #9DB156",
"Z. c #A2AE4A",
"A. c #AAB547",
"S. c #B2BB4B",
"D. c #A7B855",
"F. c #B3BB57",
"G. c #8DA860",
"H. c #B7C756",
"J. c #B6C466",
"K. c #B8C773",
"L. c #C0C949",
"P. c #CED64D",
"I. c #DCDD42",
"U. c #C8CC54",
"Y. c #CAD258",
"T. c #D3D358",
"R. c #DEDF5C",
"E. c #E5DF47",
"W. c #E3DE57",
"Q. c #ECE343",
"!. c #EAE44C",
"~. c #F1E643",
"^. c #F4EC44",
"/. c #FAED44",
"(. c #F4E54C",
"). c #F3EC4D",
"_. c #FCED4A",
"`. c #EDF145",
"'. c #F6F044",
"]. c #FCF242",
"[. c #F6F14D",
"{. c #FBF14B",
"}. c #EEE753",
"|. c #E7EA54",
" X c #EDE459",
".X c #F3EB55",
"XX c #F6EF5F",
"oX c #FBF153",
"OX c #F8F15C",
"+X c #D7DD62",
"@X c #DCE075",
"#X c #E9E668",
"$X c #FAED63",
"%X c #F9F56A",
"&X c #E8E578",
"*X c #F8EB78",
"=X c #F9F479",
"-X c #A1BB9D",
";X c #D5DB8D",
":X c #F0EF8C",
">X c #FAF288",
",X c #F8F197",
/* pixels */
": : : : & : : : : : : : : : < r W +.0.i.s.2.r.0.%.W h 1 : : : : : : : : : : : : : : ",
": : : : > : : : : : : : 5 / H.E.{.l.g.s.5.4.5.g.v.].W.H.^ 4 : : : : : : : : : : : : ",
": : : : : : : : > : 1 ! P.z.z.v.u.5.5.5.4.4.3.u.u.u.u.c..XY.Q 1 : : : : : : : : : : ",
": : : : : : : : & j J. Xn.f.s.s.4.5.5.4.<.<.3.u.5.4.5.5.k.(..XH.j : : : : : : : : : ",
": : : : : : : : ^ &X#X$XOX_.g.5.5.4.4.4.<.3.u.u.5.4.2.c.{.$X|.R.+XR : : : : : : : : ",
": : : : : : : ( K.V.e 0 Q *X$X{.g.5.<.4.<.u.u.p.u.g.{.R.C.9 4 A M.K.Z : : : : : : : ",
": : : : : : > j : : : : : : : ,X[.u.3.5.4.<.p.l.z.%XR : : : & > : : G.5 : : : : : : ",
": : : : : : : : : : : : : : : : =X{.j.u.5.<.g.'.%Xq : : : : : : : : : ^ : : : : : : ",
": : : : : : : : : : : 4 7 & > : , >X/.u.s.g.c.OXC : : : k F & > : : : : h : : : : : ",
": : : : : : : : : : 4 g f J -X: & ^ OXv.s.c.[.D.: : : i H S k G : : : : : : : : : : ",
": : : : : : : : : : : k o o f ~ > : Y.n.5.f.#X> : : H : D @ X u a : : : : 5 : : : : ",
": : : : : : : : , i : p % O   F : : / !.s.k.H.> : i F : 4 % .   k : : : : : : : : : ",
": : : : : : : : 3 @ y ; .   . - p : 1 Y.l.x.Q > & D @ d ; O . O * & > : : : e : : : ",
": : : : : : : : y           . * 7 : : F.x.z.1 # > S       .   o $ , : : : : c : : : ",
": : H.: : : : : y       @     & 4 : : Z.m.Q.: : : k X       .   & : : : : : w O.: : ",
": 5 `.5 : : : : 6           O d : : : Z.v.Q.: : : a X     X     t : : : : : E '.: : ",
": M.`.! : : : : 4 t + o o   % s : : : U.f.z.e > : : d   X   X # p : : : : : q.n.: : ",
"q +Xc.&.: : : : & 6 y # # - a : : : 2 !.s.c.M.& : : 4 g # # = k : : : : : : m.c.A.: ",
"T `.a.c.Q & : : > : < 3 4 < : : > &  .k.s.c.L.: : : : < 7 9 < : : : : : : O.g.f..X: ",
"..n.6.a.H.> : : : : : : : : : : : 9 I.a.3.g.^./ : : : : > & : : : : : > 8 n.b.a./.: ",
"&.x.5.a.].N.: : : : : : : : : : : R.k.s.u.p.k.|.q : : : : : : : : : : & !.g.s.u.g.Y ",
"w.v.5.6.f.oX/ : : : : : : : : , &X'.u.s.u.u.g.z.#Xq : : : : : : : : , #Xz.2.3.s.a.;.",
"h.g.5.6.5.c.`.H.4 : : : : : C =X'.f.g.s.u.5.s.u.'.%XB.: : : : : : B.oXk.p.s.u.s.s.,.",
"t.s.5.4.4.6.y.n.%X@XK.K.;X>XXXz.a.6.g.u.5.<.5.s.g.c.OX=X:X;X;X,X*X.Xp.5.5.5.u.u.5.,.",
"3.<.4.4.>.5.s.g.c.n./.'.).n.l.g.5.4.3.<.4.>.3.u.s.a.a.f.n.n.n.].x.v.5.4.>.4.u.u.s.2.",
"y.5.4.4.4.5.s.6.5.5.5.5.5.5.5.5.4.4.5.4.>.>.5.u.5.5.4.4.6.5.5.4.5.5.5.4.>.4.u.u.s.r.",
"r.s.5.5.3.s.5.5.5.<.4.4.4.>.4.4.5.5.5.4.>.>.<.u.5.3.5.4.5.5.5.3.5.5.3.4.>.>.3.u.s.e.",
"8.p.s.5.s.u.u.<.4.5.4.5.>.4.<.<.3.u.5.4.4.4.<.3.5.5.5.5.5.3.3.3.3.5.5.<.>.>.3.u.a.U ",
"o.v.a.s.3.3.u.5.4.4.<.3.5.<.5.<.5.3.5.5.6.5.5.5.4.4.5.5.5.5.3.u.u.5.5.5.4.4.5.g.c.: ",
"E ).s.5.5.5.<.4.4.5.5.5.u.3.5.<.3.5.5.5.5.5.3.<.<.5.s.5.4.4.u.3.u.5.<.5.4.4.5.g.).: ",
"0 W.l.5.5.4.4.4.s.s.4.4.u.s.5.5.u.5.6.4.6.4.5.3.u.u.4.6.6.4.4.<.5.5.5.4.4.5.6.c.N.: ",
": D.n.g.5.5.4.5.g.s.>.4.s.u.5.4.3.5.4.>.4.5.4.5.u.5.5.6.6.5.5.u.s.5.5.5.5.4.6.c.& : ",
"& T |.r.s.5.:.t.g.6.6.6.6.6.<.5.4.<.4.4.5.4.5.5.5.s.s.s.s.g.u.u.-.y.g.3.<.<.j.P.: : ",
"> > D.`.g.s.*.} -.i.b.g.y.i.v.p.g.s.s.u.u.s.u.g.p.v.v.x.x.l.-.{ *.2.3.<.5.g._.& : : ",
": : q Y.h.6.2.*.L L ' $.E.Q.~._.'.'.m.].m.m.'.'.[.!.w.7.[ m _ @.s.5.>.>.5.x.w : : : ",
": : : q |.f.d.5.x.$.P x z z b K _ ` ] ] ] ` ) M v l l x _ #.h.f.s.>.>.5.b.A.: : : : ",
": : : : h  Xh.5.1.g.l.t.-.@.{ _ m n v z x n K L { @.=.,.g.g.y.g.4.4.4.f.X.& : : : : ",
": : : : : 1 !.].g.u.3.5.u.p.v.m.].{././././.x.m.g.5.5.5.4.5.s.u.g.g.z.T : > : : : : ",
": : : : : : : | (.l.p.s.u.5.5.s.u.i.u.u.5.u.u.u.u.u.s.3.6.<.<.u.k.(.: : : : : : : : ",
": : : : : : : : N S.(./.m.f.a.5.s.s.4.4.>.4.<.3.u.u.u.p.p.m.x.z.V : : : : : : : : : ",
": : : : : : : : : : Z D.T.}.c.f.g.u.u.3.5.3.u.u.s.f.c.c. XA.q : : : : : : : : : : : ",
": : : : : : : : : : : : 5 B W %.9.e.y.u.s.s.u.t.e.8.I 2 & : : : : : : : : : : : : : "
};
