/* XPM */
static char *feb16dd5363145afa438990b2b30dc19npKjErbOds3bo1qa[] = {
/* columns rows colors chars-per-pixel */
"42 42 202 2 ",
"   c #004000",
".  c #084708",
"X  c #0C4C0C",
"o  c #0F4E10",
"O  c #135314",
"+  c #145814",
"@  c #195718",
"#  c #175A18",
"$  c #1C5A1C",
"%  c #1C681E",
"&  c #266425",
"*  c #266B25",
"=  c #296529",
"-  c #266D28",
";  c #2E6D2D",
":  c #2B7127",
">  c #26712A",
",  c #2A7229",
"<  c #2F7C31",
"1  c #327733",
"2  c #327C31",
"3  c #39773A",
"4  c #3B7A39",
"5  c #407F3D",
"6  c #019501",
"7  c #009D05",
"8  c #00960B",
"9  c #0A920E",
"0  c #079F0F",
"q  c #0D990C",
"w  c #14940C",
"e  c #1A8F1E",
"r  c #0C9715",
"t  c #169E15",
"y  c #1B9A16",
"u  c #17941B",
"i  c #19951B",
"p  c #159A1A",
"a  c #1B9C1C",
"s  c #20971E",
"d  c #0CA604",
"f  c #03A805",
"g  c #0AA40B",
"h  c #05AC0B",
"j  c #0CAD0C",
"k  c #10A807",
"l  c #10A00D",
"z  c #12AD0E",
"x  c #03B603",
"c  c #0BB502",
"v  c #02BD02",
"b  c #0ABC03",
"n  c #04B50E",
"m  c #0DB40B",
"M  c #03BD0A",
"N  c #0BBD0B",
"B  c #11B30C",
"V  c #11BE0A",
"C  c #0EA212",
"Z  c #0DAD11",
"A  c #08A814",
"S  c #13A311",
"D  c #12AE14",
"F  c #19AB12",
"G  c #13A51C",
"H  c #19A41B",
"J  c #14AC1B",
"K  c #1AAE1B",
"L  c #06B412",
"P  c #0CB413",
"I  c #01BC13",
"U  c #0CBA11",
"Y  c #01BD1B",
"T  c #12B212",
"R  c #18B617",
"E  c #12BB13",
"W  c #17B31A",
"Q  c #19BA1C",
"!  c #1F9022",
"~  c #1E9B23",
"^  c #278E2C",
"/  c #249525",
"(  c #2D9226",
")  c #229A22",
"_  c #289826",
"`  c #25952C",
"'  c #2C942C",
"]  c #229B2B",
"[  c #2A992C",
"{  c #309626",
"}  c #34932E",
"|  c #368937",
" . c #348F35",
".. c #3B8F37",
"X. c #3C833A",
"o. c #3B8B3C",
"O. c #2C9234",
"+. c #329234",
"@. c #389139",
"#. c #3C933C",
"$. c #1DA720",
"%. c #15AC23",
"&. c #00BC22",
"*. c #00BD2E",
"=. c #15B320",
"-. c #00BC31",
";. c #02C202",
":. c #09C203",
">. c #00CB02",
",. c #02C20A",
"<. c #01C509",
"1. c #0BC20C",
"2. c #06CA0D",
"3. c #01C111",
"4. c #00C11B",
"5. c #00C325",
"6. c #00C12A",
"7. c #00C22B",
"8. c #00C334",
"9. c #00CC35",
"0. c #00C33B",
"q. c #00C83E",
"w. c #3F8441",
"e. c #3F8C41",
"r. c #3C9342",
"t. c #3D9B40",
"y. c #428342",
"u. c #428C42",
"i. c #478A45",
"p. c #439342",
"a. c #00C144",
"s. c #05C64F",
"d. c #02CC4C",
"f. c #07D34E",
"g. c #01C756",
"h. c #01CC53",
"j. c #03CE5B",
"k. c #00D15C",
"l. c #0BD25D",
"z. c #00CE61",
"x. c #02D265",
"c. c #02D56A",
"v. c #05DA6C",
"b. c #0ADC6B",
"n. c #0DD671",
"m. c #03DB74",
"M. c #0CDC76",
"N. c #07D87C",
"B. c #0CE372",
"V. c #03DD86",
"C. c #0FE384",
"Z. c #0CEB87",
"A. c #0EE588",
"S. c #10E082",
"D. c #11EA8C",
"F. c #0DE393",
"G. c #09E891",
"H. c #0CEA9F",
"J. c #13E696",
"K. c #15EE97",
"L. c #13E99D",
"P. c #14F099",
"I. c #0DEEA5",
"U. c #13EDA4",
"Y. c #14EBAB",
"T. c #0DF1AA",
"R. c #15F1A5",
"E. c #13F1AB",
"W. c #11EDBC",
"Q. c #0DF3B2",
"!. c #09F8B7",
"~. c #08F6BC",
"^. c #14F1B2",
"/. c #12F2BB",
"(. c #0FEFCD",
"). c #12EFCE",
"_. c #03F7C1",
"`. c #0DF5C6",
"'. c #06F8C6",
"]. c #07F4CD",
"[. c #0CF3CA",
"{. c #0CF9CC",
"}. c #12F3C4",
"|. c #12F4CD",
" X c #11F8CE",
".X c #00EED7",
"XX c #01EEDD",
"oX c #01F4D4",
"OX c #0BF2D3",
"+X c #02F8D4",
"@X c #0AF9D3",
"#X c #01F4DC",
"$X c #0CF1DA",
"%X c #01F9DB",
"&X c #04EFE2",
"*X c #04EEEB",
"=X c #01F3E3",
"-X c #0AF1E5",
";X c #01F9E3",
":X c #01F2EA",
">X c #0AF1EB",
",X c #00F8E9",
/* pixels */
"                            X >  .~ 6 6 f 7 7 8 ]  .- .                             ",
"                        $ 5 #.` p g d j m h h A C r ! #.w.$                         ",
"                    @ u.' p J j c b b b b b N U n U m k w { u.$                     ",
"                . 3 ..i Z L x :.;.>.;.v ;.:.v x ,.v ;.:.c d a ^ 1 .                 ",
"              o e._ q T 3.;.;.v v ;.;.>.;.;.v v ,.v v ;.b N P %.) o.@               ",
"            @ r.9 j N v ;.>.;.;.<.<.>.;.;.;.v :.v ;.;.v v v M n D w @.$             ",
"          O t.0 M ;.:.:.x v :.x M v v ;.>.;.v v v ;.;.;.;.;.;.v V z a  .$           ",
"        . p.q M ;.;.v v ;.v v M ,.<.<.;.v ;.;.;.;.;.v v ;.;.;.;.v x T p u.X         ",
"        X.s m ;.;.;.;.;.;.;.v x v v ;.;.,.<.;.v ;.:.M M 3.,.;.;.;.v 1.Z e w.        ",
"      = } F b v x ,.<.>.;.;.,.M M I Y Y &.*.6.5.I Y Y I n M ;.>.v ;.;.v K ' ;       ",
"      i.w B b v b v >.>.;.;.I &.-.s.n.C.F.G.V.m.j.0.&.I M v v ;.<.;.v ;.m q r.X     ",
"    ; ( T v v v :.x v >.,.I 8.h.S.L.^.}.[.[.`./.U.N.h.8.I ;.:.v :.v ;.>.x Q e 1     ",
"    o.$.n <.>.v v v ;.v I 8.m.I.{.@X+XoXoXoX@X@X@X`.T.m.0.4.<.v x ;.;.;.>.M C #..   ",
"  $ ' Z M >.>.>.v :.b n -.b.T.@X#X:X:X;X%X%X%X#X=X;X@XQ.v.8.M ;.v :.v v >.x T / &   ",
"  3 ) h <.>.;.<.;.v n *.c.T.{.oX%X:X=XXXXX&X=X=X:XXX.X XR.x.&.M ,.v x ;.>.<.m y 4   ",
"  u.S 1.v >.;.v v x Y h.H.{.%X#X=X:X=X=XXX=X=X:X=X:X=XoX}.J.d.I x :.v ;.>.x 1.l p.  ",
"   .W v v >.;.v ;.3.&.v.~.%X.X:X:X:X:X#XoXoX%X:X;X%X%X#X$XW.B.Y M v ;.;.;.;.v D ..  ",
"  ' T ;.;.;.v v ;.3.8.C.[.:XXX=X*X*X:X#XoXoX=X:X;X%X;X:X>X).D.8.I v ;.>.;.v v P } @ ",
"  _ m >.;.:.v M v 4.d.K.[.#X#X=X&X&X*X:X=X=X&X&X:X=X:X:X-X|.P.d.I v ;.;.;.v v T ' * ",
"  _ m ;.v v v M v 4.h.R.[.#X=X;X#X#X=X:X:X:X&X&X=X&X:X*X-X[.R.k.Y v ;.;.;.v v T ~ > ",
"  ` B ;.v v N N ;.4.z.E.].#X;X%XoXoX%X%X;X=X=X&X=X=X:X&X&XOX^.c.&.v ;.;.v v b B p % ",
"  ` B b v ;.v M ;.Y z.^.@X;X;X%X+X+X%X%X%X;X=X=X#X#X;X=X=XOX^.x.4.v ;.;.;.v b B p + ",
"  [ D b v >.;.,.;.Y g.Y.#X:X:X#X%X%X:X:X;X=X=X=X#XoX%X=X-XOXU.h.3.;.v v v v v m ~ . ",
"  ' K b v ;.;.;.;.I a.J.OX:X=X=X=X:X:X:X:X=X=X#XoXoX%X=X-X(.D.q.3.;.v v ;.;.v B /   ",
"  #.C 1.;.v >.;.>.M *.n.}.;XXX:X=X=X*X*X&XXX#X#XoX%X;X:X-XW.v.5.;.>.v ;.v ;.1.j }   ",
"  X.G v x ;.>.>.<.,.Y s.I.{.#XXXXX&X*X*X-X=X#XoX%X;X,X#X[.L.f.n ;.;.:.v >.;.x J :   ",
"    H M x v ;.;.;.,.I *.c.E.{.oX;X:X:X&XXX#X%X;X:X:X;X@XI.c.6.M ;.v ;.v ;.v L ~ X   ",
"    / T N x ;.;.;.<.,.I 0.M.T.{.oX#X;X%X;X;X%X=X:XXX@XQ.B.8.I M ;.;.x ;.v x =.O.    ",
"    #.t E v v ;.;.,.,.M Y 0.m.T.].%X%X+X%X%X%X#X$X|.E.m.9.3.M v v :.x :.:.m a <     ",
"      / Z N v ;.:.;.;.;.v I 0.c.H.Q.!.~._.'.`./.Y.F.x.0.I ;.v v v :.v x :.z /       ",
"      e.C v v v v :.;.;.;.v I 6.8.d.b.Z.D.G.A.M.l.0.&.I M v ;.;.v v v x b F 2       ",
"        ) m N v x 1.;.v :.;.v ,.n Y 6.8.0.0.0.*.Y I M M M ,.;.v ;.v v E j _         ",
"        X a D m M v ;.:.:.v v :.v M M 3.3.3.3.3.3.M M M M M b v ;.x U J / #         ",
"          , u J n 1.v v ;.:.;.v ;.:.;.;.;.>.>.>.;.:.:.v v v v v v b D u u.          ",
"            < a R x >.>.;.;.:.v v v v v v v v v ;.v v ;.>.>.>.;.N D s p.            ",
"              | y z v ;.>.;.v v ;.;.;.;.v v v v v ;.;.>.;.;.>.1.A i p.              ",
"                : [ C U v ;.2.;.;.;.;.M M M v v ;.;.;.v v :.v j ] e.                ",
"                  $ +.p J L x x v ;.v M M v v v v x v N P g H [ 1                   ",
"                      u.` p W E M v M b :.:.;.;.2.M L G ~ @.y.$                     ",
"                        . o.+.s t S S z z j j Z g G ] r.w.$                         ",
"                              & 4 i.u.@.+.O.@.r.i.3 =                               ",
"                                      . O O                                         "
};
