/* XPM */
static char *snake_hdead_removebg_preview1736256005[] = {
/* columns rows colors chars-per-pixel */
"42 42 236 2 ",
"   c #020201",
".  c #090200",
"X  c #050903",
"o  c #0A0A04",
"O  c #02040B",
"+  c #080A0B",
"@  c #120300",
"#  c #160C00",
"$  c #09140B",
"%  c #171806",
"&  c #130F12",
"*  c #0C1512",
"=  c #181C17",
"-  c #251900",
";  c #102A0C",
":  c #1A251C",
">  c #292300",
",  c #342A00",
"<  c #382800",
"1  c #3C3400",
"2  c #23331B",
"3  c #38311D",
"4  c #1F3729",
"5  c #263728",
"6  c #2E3328",
"7  c #333B35",
"8  c #433100",
"9  c #473900",
"0  c #004000",
"q  c #094705",
"w  c #094709",
"e  c #0D4A0C",
"r  c #134E0D",
"t  c #134C12",
"y  c #165014",
"u  c #1C5515",
"i  c #1B541B",
"p  c #20421E",
"a  c #255919",
"s  c #2E621C",
"d  c #34661D",
"f  c #294629",
"g  c #275727",
"h  c #2B5B2A",
"j  c #34562B",
"k  c #344634",
"l  c #365534",
"z  c #2C6020",
"x  c #376826",
"c  c #396838",
"v  c #4F4300",
"b  c #5B4A00",
"n  c #5C5402",
"m  c #5F5A00",
"M  c #675403",
"N  c #61540C",
"B  c #6A6401",
"V  c #6F6408",
"C  c #746A01",
"Z  c #776904",
"A  c #7C7802",
"S  c #7A7412",
"D  c #455234",
"F  c #416F2C",
"G  c #4C7824",
"H  c #537D29",
"J  c #4F6631",
"K  c #497537",
"L  c #547D3A",
"P  c #4F5148",
"I  c #485948",
"U  c #466646",
"Y  c #4E774D",
"T  c #537646",
"R  c #556C55",
"E  c #537A54",
"W  c #64735B",
"Q  c #79745E",
"!  c #5F7E64",
"~  c #657764",
"^  c #857705",
"/  c #817902",
"(  c #897618",
")  c #5A8331",
"_  c #6B8D2D",
"`  c #648B38",
"'  c #799637",
"]  c #5E864D",
"[  c #5B8057",
"{  c #668B47",
"}  c #738E42",
"|  c #668B58",
" . c #7B9A52",
".. c #64876A",
"X. c #7B8565",
"o. c #789763",
"O. c #7A9378",
"+. c #8B8401",
"@. c #918519",
"#. c #A39802",
"$. c #ABA506",
"%. c #B6AB13",
"&. c #A79925",
"*. c #9CA92F",
"=. c #87A434",
"-. c #92A933",
";. c #96B23B",
":. c #A3A62C",
">. c #B5A82A",
",. c #A5B933",
"<. c #C6BA26",
"1. c #C7BA36",
"2. c #C9C80C",
"3. c #DBCD14",
"4. c #E2D10F",
"5. c #EFE60D",
"6. c #F6EE0C",
"7. c #FBED0C",
"8. c #FBF30E",
"9. c #FEF80E",
"0. c #E9E21C",
"q. c #F6EC15",
"w. c #FBED13",
"e. c #F3EC1C",
"r. c #FDED1C",
"t. c #FDF314",
"y. c #FBF514",
"u. c #F5F21B",
"i. c #FDF31B",
"p. c #FFFA1C",
"a. c #CAC524",
"s. c #D0C224",
"d. c #D4C435",
"f. c #D8D739",
"g. c #E6D92D",
"h. c #E7DC36",
"j. c #E2D53D",
"k. c #EAE529",
"l. c #F9E620",
"z. c #F5EC22",
"x. c #FBEE23",
"c. c #F4ED2C",
"v. c #FCED2B",
"b. c #F6F222",
"n. c #FDF224",
"m. c #FFFA22",
"M. c #F5F22C",
"N. c #FCF32B",
"B. c #FBF82C",
"V. c #EAE739",
"C. c #F4EC33",
"Z. c #FAED33",
"A. c #F5E43C",
"S. c #F4EC3C",
"D. c #F9EB3B",
"F. c #F3F233",
"G. c #FCF333",
"H. c #FEFA37",
"J. c #F5F33B",
"K. c #FDF33C",
"L. c #899351",
"P. c #8AA444",
"I. c #91A542",
"U. c #9DB246",
"Y. c #89A353",
"T. c #96AB58",
"R. c #9BB457",
"E. c #ACBB46",
"W. c #B7B04C",
"Q. c #ABBA5A",
"!. c #878C65",
"~. c #88A362",
"^. c #98A467",
"/. c #97AD79",
"(. c #A9BB65",
"). c #A0B671",
"_. c #C6BC52",
"`. c #B2C24E",
"'. c #BBC35D",
"]. c #BAC86B",
"[. c #CAC94A",
"{. c #D5C844",
"}. c #CBD04A",
"|. c #D9D646",
" X c #C6CC5E",
".X c #D7C756",
"XX c #D9D85B",
"oX c #E2DD49",
"OX c #E9DF54",
"+X c #DAE156",
"@X c #EEEC43",
"#X c #E9E648",
"$X c #EDEC4A",
"%X c #F5EC43",
"&X c #FBEC44",
"*X c #F3E648",
"=X c #F3ED4C",
"-X c #F9EE4B",
";X c #EEF046",
":X c #F4F144",
">X c #FCF243",
",X c #F4F34A",
"<X c #FBF24A",
"1X c #FFF949",
"2X c #ECE554",
"3X c #E7E658",
"4X c #ECE35C",
"5X c #F1EC53",
"6X c #F6ED5D",
"7X c #EFF054",
"8X c #F4F255",
"9X c #CBD564",
"0X c #D5D769",
"qX c #CDD477",
"wX c #E0DC6E",
"eX c #DBE171",
"rX c #E9E566",
"tX c #F2EE6A",
"yX c #F3F462",
"uX c #E9E673",
"iX c #FBF578",
"pX c #8CA689",
"aX c #9BAA91",
"sX c #A8B0A0",
"dX c #B2C587",
"fX c #CDD686",
"gX c #E1D88D",
"hX c #FAF885",
"jX c #EFED92",
"kX c #FAEE93",
"lX c #DFE9BA",
"zX c #F2F3A4",
"xX c #BFCEC8",
"cX c #CEDACB",
"vX c #FFFFC4",
"bX c #FCF9EA",
/* pixels */
"0 0 q 0 0 0 0 0 0 0 0 0 0 0 ; q d ) ' ,.U.;.=.) d r 0 0 0 0 0 0 0 0 0 0 0 0 0 0 0 0 ",
"0 0 q ; 0 0 0 0 0 0 0 0 q x  .'.+X+X;X;X,X,X@X#X+X'.Y.x q 0 0 0 0 0 0 0 0 0 0 0 0 0 ",
"0 0 0 0 0 0 0 0 q 0 0 F U.|.,X>XJ.G.B.b.x.n.x.v.G.&X%X+XE.K q 0 0 0 0 0 0 0 0 0 0 0 ",
"0 0 0 0 0 0 0 0 ; i Y.wX=XH.z.z.r.i.u.p.t.t.i.r.m.z.B.C.7XuXT.g 0 0 0 0 0 0 0 0 0 0 ",
"0 0 0 0 0 0 0 0 x Q.uX6X%Xv.x.n.N.n.w.8.t.w.i.r.r.z.H.C.$X2XrX].L ; q q 0 0 0 0 0 0 ",
"0 0 0 0 0 0 0 z  .(.].0XiX6X-X%Xg.K.t.7.i.w.r.n.G.%XoXiXhXhXhXhXfX| e w 0 0 0 0 0 0 ",
"0 0 0 0 0 q y D K w 0 0 0 vXgXV C d.N.y.m.i.y.M.|.S N /.o.0 0 ] lXpXj k h 0 0 0 0 0 ",
"0 0 0 0 0 ; ; X j c 0 0 0 bXQ . @ >.G.q.i.e.b.,X_.#   I aX0 0 0 | L % X c 0 0 0 0 0 ",
"0 0 0 0 0 w ;   * ! 0 0 g sX&   , .XK.y.t.B.C.iX~.6 . @ R E 0 0 | : X % F ; 0 0 0 0 ",
"0 0 0 0 0 0 e   O k xX0 cX7   X !.kX,Xe.i.C.yX{ ; Y o   : T 0 ..l     j ] q 0 0 0 0 ",
"0 0 0 0 0 0 0 f   O R xX~ +   P [ | 6Xc.N.S.Q.0 q q l X O l e c +   5 z ~.c q 0 0 0 ",
"0 0 0 0 0 0 0 y =   : U =   6 O.0 0  X%XM.|.] 0 0 0 e 5   + h 4 O : i q ~.).q 0 0 0 ",
"0 0 0 0 0 0 0 w l O   &   o W 0 0 0 T.3XC.,.t 0 0 0 0 g o   $ O + g w 0 x qX0 0 0 0 ",
"0 0 0 0 0 0 0 0 i 5       I c 0 0 0 } 4X&X=.0 0 0 0 0 0 f .     4 e ; q a qX{ 0 0 0 ",
"0 0 0 0 0 0 0 0 e f       I [ 0 0 0 ` 4X-X=.0 0 0 0 0 0 f   X   p w 0 0 u 9XQ.0 0 0 ",
"0 0 `.0 0 0 0 0 h +       * ..0 0 0 } 3X%XP.0 0 0 0 0 g =       + l i 0 x rX4Xx 0 0 ",
"0 Q.7XG 0 0 ; q *   * k O O 7 pX0 0 R.;XD.E.q 0 0 0 w 5 X   5 *   : U 0 R.2X=XI.0 0 ",
"s 9XS.3Xq 0 q f X   I c 4 O   W pXK XXJ.c.5Xg 0 0 i I     f ; l O   I o.uX<XC.}.0 0 ",
") 2XV.8XfXz g     2 [ 0 ! *   % Y dX8Xu.u.D.T.r c Y *   $ z q e :   X !.iXS.B.@Xa 0 ",
"-.%Xc.%XhX^.%   o ..0 0 E I o   k jX,Xu.u.C.tXL c 5   X U 0 0 0 U   . , [.S.e.C.H 0 ",
",.S.G.K.rXn . O P c ; q 0 O.5 . @ L.=XN.x.G.:XeXJ o   7 Y 0 0 0 y l   . C >Xz.K.` 0 ",
",.G.x.C.f.8 . 3 aX0 0 q 0 c X.# @ ( A.N.x.x.M.=Xm . % U e 0 0 0 ; K % # M h.N.C.P.0 ",
"a.G.v.Z.G.$.V Q.vXe 0 0 0 { kX@.Z <.v.r.n.r.i.F.>.B } K 0 ; 0 y  .jX:.B %.v.N.K.U.0 ",
"k.l.v.n.r.N.S.7XiXkXzXjXzXiX6X-XZ.v.i.t.r.i.t.i.J.8XtXjX].(.fXhXtX5X5X&XZ.N.x.>XE.0 ",
"k.N.r.i.i.i.B.c.S.-X=X$X:XJ.v.v.x.n.t.t.7.w.r.x.x.G.C.>X@X%XJ.M.b.b.N.B.r.r.x.D.U.0 ",
"k.e.r.r.w.w.t.y.m.z.z.B.u.t.r.r.r.i.w.7.y.t.r.N.r.i.w.u.m.q.8.8.9.9.6.t.r.r.r.>X' 0 ",
"a.M.n.w.i.p.8.8.t.n.B.e.m.w.w.i.r.r.m.i.t.p.t.w.n.w.m.w.6.m.n.n.7.t.t.r.r.x.x.Z.0 0 ",
";.M.B.n.w.w.y.p.v.Z.G.c.i.i.n.r.n.H.0.N.B.b.r.i.w.i.r.r.n.G.A.>XN.i.n.m.r.w.i.A.0 0 ",
"-.%Xv.n.y.y.n.Z.-X<.>.>XM.x.r.v.r.x.&Xj.f.V.B.m.i.r.x.N.>X<.&..X%Xc.v.n.i.w.y.1X0 0 ",
") 3XC.i.8.u.&XOX^ - - +.V.K.Z.v.G.Z.|.m , A h.C.N.n.G.S.1.9 # 8 >.*X&Xk.i.p.u.f.0 0 ",
"e  X>Xb.l.1X_.b > ^ B > +.f.G.x.D.d.v , m - 9 >.*XS.J.|.n 1 &.n % S {.8XG.n.b.q 0 0 ",
"0 Y.=XC.S.#.< 8 &.rXrXA % A @X<X1.9 1 W.uXW.v - ^ |.3XC - :.6XoX@.< 1 $.k.M.:X0 0 0 ",
"0 q +X;X%., M d.<XZ.S.=X^ > Z W.8 8 <.%X:X%X|.+.< 8 M < +.%XF.M.S.<.M 8 2.H.) 0 0 0 ",
"0 q ` yXf.#.j.%Xx.i.r.c.4X@.- - 9 1.&XN.b.N.G.%X>.M - Z *XG.i.p.i.Z.j.<.V.$X0 0 0 0 ",
"0 0 0 `.,XF.J.B.i.7.m.v.K.@X#./ s.>Xe.p.z.n.M.z.K.V.<.g.n.w.r.i.u.u.H.J.;X0 0 0 0 0 ",
"0 0 0 y +XV.H.e.t.8.i.r.x.N.K.G.c.m.q.8.i.n.i.i.r.r.N.x.t.p.q.i.u.u.M.:Xa 0 0 0 0 0 ",
"0 0 0 0 K 0X>Xb.u.i.r.n.n.r.r.r.m.m.p.6.i.p.7.t.t.x.N.v.i.i.i.r.m.B.;XG 0 0 0 0 0 0 ",
"0 0 0 0 0 F `.J.G.z.n.n.r.r.t.i.u.5.y.p.7.7.y.t.i.i.z.z.n.r.n.N.F.#XG 0 0 0 0 0 0 0 ",
"0 0 0 0 0 0 u Y.XX,XM.z.N.n.e.r.i.m.w.w.i.i.t.w.7.t.m.e.z.N.v.:XE.r 0 0 0 0 0 0 0 0 ",
"0 0 0 0 0 0 0 0 x I.}.$X<X&X&XZ.v.n.n.r.m.r.x.n.N.N.c.J.,X$X}.' 0 0 0 0 0 0 0 0 0 0 ",
"0 0 0 0 0 0 0 0 0 0 u ) T.'.OX4X-XD.Z.v.v.v.v.&X*X5X0X`.Y.x q ; 0 0 0 0 0 0 q q 0 0 ",
"0 0 0 0 0 0 0 0 0 0 0 0 0 t d F _ *.<.3.4.3.a.:.' d r 0 0 0 q 0 0 0 0 0 0 0 0 ; 0 0 "
};
