/* XPM */
static const char *head[] = {
/* columns rows colors chars-per-pixel */
"42 42 181 2 ",
"   c #010101",
".  c #070408",
"X  c #080708",
"o  c #0D0D0D",
"O  c #161514",
"+  c #1C1C1C",
"@  c #222122",
"#  c #2A2A2A",
"$  c #313132",
"%  c #393C3A",
"&  c #075406",
"*  c #095D07",
"=  c #0A6307",
"-  c #096807",
";  c #096409",
":  c #0C6A0A",
">  c #097408",
",  c #097908",
"<  c #07750A",
"1  c #424343",
"2  c #4C4948",
"3  c #525252",
"4  c gray35",
"5  c #6C6B6B",
"6  c #706C72",
"7  c #737373",
"8  c #7D7E7E",
"9  c #0B810A",
"0  c #098E08",
"q  c #068A06",
"w  c #079307",
"e  c #059C05",
"r  c #089C07",
"t  c #079309",
"y  c #0A940A",
"u  c #0B9C08",
"i  c #069B0B",
"p  c #0A8011",
"a  c #109F12",
"s  c #05A504",
"d  c #05AC04",
"f  c #07A109",
"g  c #0AA30C",
"h  c #07A80A",
"j  c #0CAB09",
"k  c #14A60E",
"l  c #05B405",
"z  c #0AB606",
"x  c #04BE03",
"c  c #09BA06",
"v  c #06B508",
"b  c #0BB40A",
"n  c #05BB09",
"m  c #0BBA0A",
"M  c #11B20E",
"N  c #11B80C",
"B  c #0DA213",
"V  c #10A310",
"C  c #10AC13",
"Z  c #0EBC11",
"A  c #0DB312",
"S  c #13BB14",
"D  c #16B719",
"F  c #16BE1A",
"G  c #1DBB1C",
"H  c #1BBA17",
"J  c #20A41D",
"K  c #25AB1C",
"L  c #3A9F3A",
"P  c #20BE21",
"I  c #2ABE27",
"U  c #2CBB2C",
"Y  c #38A639",
"T  c #32BF30",
"R  c #3ABF37",
"E  c #3ABC3B",
"W  c #40B53E",
"Q  c #01C101",
"!  c #20C01E",
"~  c #2AC029",
"^  c #34C334",
"/  c #3EC537",
"(  c #3BC33C",
")  c #3FBB48",
"_  c #3CBA40",
"`  c #49B841",
"'  c #42C441",
"]  c #4EC747",
"[  c #46CA47",
"{  c #4BC44A",
"}  c #4BC94C",
"|  c #50C74F",
" . c #5EC65E",
".. c #5ECC5D",
"X. c #57CB55",
"o. c #65C55F",
"O. c #61CD5F",
"+. c #63CD64",
"@. c #6ACE6A",
"#. c #69D267",
"$. c #6ED16D",
"%. c #65D267",
"&. c #72D26C",
"*. c #7CD57C",
"=. c #7ED87A",
"-. c #75D577",
";. c #7ED982",
":. c #898989",
">. c #838383",
",. c #8E908E",
"<. c #938F93",
"1. c #9C9C9C",
"2. c #A1A1A1",
"3. c #ACABAC",
"4. c #B1ACAB",
"5. c #BDBEBC",
"6. c #B4B4B4",
"7. c #84D682",
"8. c #86D883",
"9. c #8EDB87",
"0. c #86DC89",
"q. c #8FD891",
"w. c #95DE93",
"e. c #9BDD9A",
"r. c #9CE29B",
"t. c #9BE393",
"y. c #A2E29E",
"u. c #9FDDA0",
"i. c #A4DFA3",
"p. c #AAE3A4",
"a. c #A9E9A7",
"s. c #A9E2AB",
"d. c #B1E8AC",
"f. c #AEE6B1",
"g. c #B0E7B5",
"h. c #B0EBB1",
"j. c #BEE7B8",
"k. c #B7EABA",
"l. c #BAE8BA",
"z. c #C4C3C4",
"x. c #CDCDCD",
"c. c #D3D2D3",
"v. c #D9DAD9",
"b. c #C2EEC3",
"n. c #C5F2C4",
"m. c #C8F0C4",
"M. c #CEF2CD",
"N. c #D3F3CB",
"B. c #D5F6D4",
"V. c #DDFAD7",
"C. c #DCF9DA",
"Z. c #DAF6DC",
"A. c #E0FBDD",
"S. c #DFFBE0",
"D. c #E6E9E6",
"F. c #E9EAE7",
"G. c #ECECEC",
"H. c #E1E1E2",
"J. c #E4FCE3",
"K. c #E9FCE6",
"L. c #E5FEE8",
"P. c #EBFCED",
"I. c #F0F2EE",
"U. c #F1FDEE",
"Y. c #EAFDF1",
"T. c #F3F4F3",
"R. c #FAF6F7",
"E. c #F3FEF3",
"W. c #FAFEF6",
"Q. c #F6FFF9",
"!. c #FBFFFD",
"~. c #FCFFFD",
"^. c #FFFDFF",
"/. c #FDFFFF",
"(. c #FEFEFE",
"). c white",
"_. c #FFFEFF",
"`. c #FEFEFD",
"'. c #FDFEFD",
"]. c None",
"[. c black",
/* pixels */
"].].].].].].].].].].].].].].].].].].].V C C V ].].].].].].].].].].].].].].].].].].].",
"].].].].].].].].].].].].].].].k b c x x x c c x x v C ].].].].].].].].].].].].].].].",
"].].].].].].].].].].].].].z c x x Q Q Q Q x x Q Q x x c b ].].].].].].].].].].].].].",
"].].].].].].].].].].].b x Q Q Q Q Q Q x x Q Q Q x x Q Q x x z ].].].].].].].].].].].",
"].].].].].].].].].k M m n c x x x Q Q Q x Q Q Q Q Q x x x Z m b ].].].].].].].].].].",
"].].].].].].].].W ..9.y.w.+.~ c Q Q x Q Q x x Q Q x H } 8.i.e.$.R J ].].].].].].].].",
"].].].].].].].].b.P.!.^.!.U.m.@.S Q x x Q Q x Q x ' f.P.!.!.^.Q.B.7.L ].].].].].].].",
"].].].].].].].P.^.^.^.^.^.^.^.U.;.S Q x Q Q x n } N.^.^.^.^.^.^.^.E.u.Y ].].].].].].",
"].].].].].].K.^.^.^.^.^.^.^.!.^.K.%.n Q Q x x ^ n.Q./.^.^.^.^.^.^.^.U.q.].].].].].].",
"].].].].].Z.!.^.^.^.T.5.1.5.T.^.^.M.^ x x x Z t.!.^.!.D.3.1.x.'.^.^.^.J.o.].].].].].",
"].].].].].U.^.^.^.G.G.6.@ o 5 G.^.W.;.x x x ' C.^.^.G.F.:.o + 1.'.^.^./.p.K ].].].].",
"].].].].j.~.^.^.G.2.T.T.1   . ,.!.~.b.F Q x 7.Q./.c.3.^.x.+   + z.^.~.^.B.` ].].].].",
"].].].) M.^.^.^.z.# :.8 o     % G.^.C.( x m d.^.~.<.$ 1.4 .     7 ~.~.^.Y. .].].].].",
"].].]._ C.^./.^.3.X           @ v.^.K.} x P m.^.W.6   .         3 T.~.^.Q.-.b ].].].",
"].].j E C.^.^.^.3.X           @ v.^.P.| x I M.^.^.7             3 T.^.^.~.7.c ].].].",
"].].v R V.^.^.^.c.+           2 I.^.L.] x ! n.^.^.2..           >.^.^.^.W.*.x b ].].",
"].].x ~ N.^.^.^.'.7         O 4.^.^.S./ x Z h.^.~.D.1         $ v.^.^.^.P...x x ].].",
"].].x S d.^./.^.^.G.7 + O $ 1.R.^.^.m.G x x 0.!.~.^.c.3 O O 1 z.^.^.^.^.C.^ x x ].].",
"].M x x &.E./.^.^.^.'.v.x.H.!.^.^.W.9.n Q x } J.~.^.^.T.x.x.G.^.^.^.^./.a.S x x b ].",
"].z Q Q I n.^.^.^.^.^.^.^.^././.^.B.( x Q x S a.!.^.^.^.^.^.^.^.^.^.^.K.X.c Q Q b ].",
"].x Q Q x O.K.^.^.^.^.^.^.^.^./.U.*.m Q x Q Q { B./.~.~./.^.^.^.^.^.W.r.H x Q Q c ].",
"].Q Q x Q S 7.P.!.~.^.^.^.^.^.U.w.G Q Q x Q Q n +.C.~.^.^.^.^.!.!.Q.d.U Q Q x Q c ].",
"].x x x x x D $.n.E.!.Q.!.!.B.*.G x Q Q Q Q Q Q m | b.Q.~.^.^.!.A.w.U x Q x x Q c ].",
"].x x Q Q Q Q c T -.s.l.p.=.( N x Q Q x x Q Q Q Q c I #.r.k.g.0.[ H Q Q x x Q Q c a ",
"].c Q Q Q Q Q Q x c S F S c Q Q Q Q x x x x Q x x Q Q x m F S n x Q Q x Q Q Q Q n B ",
"].c x Q Q x x Q Q Q Q Q Q x Q Q Q Q Q Q Q Q x x Q Q x x Q Q Q x x Q x Q Q Q Q x c g ",
"].x Q Q x Q Q Q Q Q x x Q Q Q Q Q Q Q Q Q Q x Q Q x x Q Q x Q Q Q Q x Q Q Q x x x ].",
"].x Q Q Q Q Q x Q Q Q x x Q Q Q x Q x Q Q x x Q Q Q Q Q Q Q Q Q Q x x Q Q Q x x x ].",
"].c x Q Q x Q Q Q Q x x Q Q Q Q Q Q Q Q Q Q Q Q Q Q Q Q Q Q Q Q Q Q x Q Q Q x x l ].",
"].b Q Q x x Q x x x Q Q Q Q Q Q Q Q Q Q Q Q Q Q Q Q Q Q Q x x x Q Q x x Q Q Q Q b ].",
"].].Q Q x Q Q Q x x Q Q Q x Q Q Q Q Q Q Q Q Q Q Q Q Q Q Q Q Q Q Q Q x x Q Q Q x ].].",
"].].c Q Q Q Q Q Q Q Q Q x x Q Q Q Q Q Q Q Q Q Q Q Q Q x x Q Q Q Q x x Q Q Q Q n ].].",
"].].b x Q Q x l x Q x x x Q Q Q Q Q Q Q Q Q Q Q Q Q Q x x x n l l x Q Q Q x x ].].].",
"].].].c Q Q c i y j c Q Q Q Q Q Q Q Q Q x x Q Q Q Q Q Q x j y y b Q Q Q x x n ].].].",
"].].].].x Q x n u , < p y s l l c c c c c n c l d h y 9 > , t v Q Q Q Q Q c ].].].].",
"].].].].].n Q Q x b f q > = & & ; - - : - - * & & * : 9 r b x Q Q x x Q x ].].].].].",
"].].].].].A c x Q Q Q x n b h f e w 0 0 0 t e e h b m x Q x x Q Q x x c ].].].].].].",
"].].].].].].].n x Q x x Q Q Q Q Q Q Q Q Q Q Q Q Q Q Q Q Q Q Q Q Q Q c ].].].].].].].",
"].].].].].].].].M c Q Q Q Q Q Q Q Q x x x x x Q Q Q Q Q Q Q Q x m b ].].].].].].].].",
"].].].].].].].].].].b c x x x Q Q Q Q Q Q Q Q Q Q Q Q x x x c b ].].].].].].].].].].",
"].].].].].].].].].].].].].M b b x x x x x x Q x x c c z b ].].].].].].].].].].].].].",
"].].].].].].].].].].].].].].].].].e e s d d s e e ].].].].].].].].].].].].].].].].]."
};
