/* XPM */
static char *ydhead1736872132[] = {
/* columns rows colors chars-per-pixel */
"42 42 227 2 ",
"   c #020201",
".  c #0B0301",
"X  c #030A02",
"o  c #0C0900",
"O  c #020309",
"+  c #060A0A",
"@  c #0B080A",
"#  c #140600",
"$  c #180700",
"%  c #140C00",
"&  c #1C0D00",
"*  c #0A1605",
"=  c #0F110A",
"-  c #1B1400",
";  c #181705",
":  c #0B0C11",
">  c #0C1113",
",  c #141817",
"<  c #291400",
"1  c #291A00",
"2  c #0C390A",
"3  c #1B2718",
"4  c #282400",
"5  c #312800",
"6  c #392F00",
"7  c #3C3200",
"8  c #3A360B",
"9  c #2C3517",
"0  c #1C3323",
"q  c #252B27",
"w  c #243B23",
"e  c #293828",
"r  c #313D2F",
"t  c #423400",
"y  c #473C00",
"u  c #004000",
"i  c #084606",
"p  c #0B470A",
"a  c #0C4909",
"s  c #134E0E",
"d  c #124D12",
"f  c #194B16",
"g  c #1C5513",
"h  c #1C521C",
"j  c #265B0D",
"k  c #235917",
"l  c #2C611A",
"z  c #3B6B1E",
"x  c #294A29",
"c  c #275922",
"v  c #245B24",
"b  c #354437",
"n  c #324E30",
"m  c #375735",
"M  c #2E6123",
"N  c #386929",
"B  c #386736",
"V  c #4A4501",
"C  c #534600",
"Z  c #564D00",
"A  c #545200",
"S  c #5B5300",
"D  c #455717",
"F  c #665A00",
"G  c #666300",
"H  c #6A6400",
"J  c #716400",
"K  c #736D00",
"L  c #7A6F0C",
"P  c #48573C",
"I  c #487529",
"U  c #456D34",
"Y  c #487531",
"T  c #527B36",
"R  c #7E7927",
"E  c #647D3B",
"W  c #3F5C41",
"Q  c #495842",
"!  c #4F5952",
"~  c #466949",
"^  c #477447",
"/  c #56714F",
"(  c #527A48",
")  c #6F7144",
"_  c #5E7C62",
"`  c #6B7969",
"'  c #867B05",
"]  c #927D0E",
"[  c #5E8629",
"{  c #5A8237",
"}  c #698E29",
"|  c #7A9B2E",
" . c #648A38",
".. c #6A8D3E",
"X. c #5F825E",
"o. c #668944",
"O. c #6C9047",
"+. c #749447",
"@. c #6D8E6A",
"#. c #728C6B",
"$. c #728873",
"%. c #7D9B7E",
"&. c #8B8303",
"*. c #968900",
"=. c #9A9501",
"-. c #A39706",
";. c #A1951A",
":. c #B8B00F",
">. c #BAB317",
",. c #988F37",
"<. c #A29B30",
"1. c #8BA631",
"2. c #B5A82A",
"3. c #A5B82A",
"4. c #B2B12F",
"5. c #A9B934",
"6. c #C1AB22",
"7. c #C3B728",
"8. c #B8C32F",
"9. c #B0C131",
"0. c #DBD21E",
"q. c #E1DE18",
"w. c #F4E90B",
"e. c #FAEC0E",
"r. c #F7F30E",
"t. c #FCF20E",
"y. c #EFE91A",
"u. c #F9E716",
"i. c #F5EB14",
"p. c #FCED15",
"a. c #F3E51C",
"s. c #F4ED1C",
"d. c #FEED1C",
"f. c #FDF314",
"g. c #F9F417",
"h. c #FEF31C",
"j. c #FFF91C",
"k. c #CBC92D",
"l. c #D8CB27",
"z. c #CCD323",
"x. c #D7D929",
"c. c #CAC636",
"v. c #D5CE36",
"b. c #D9D332",
"n. c #E4DD29",
"m. c #E7DA3C",
"M. c #DFE135",
"N. c #EDE726",
"B. c #F4E625",
"V. c #F5EB21",
"C. c #FEED23",
"Z. c #F4EC2D",
"A. c #FCED2C",
"S. c #F6F125",
"D. c #FEF323",
"F. c #FEF924",
"G. c #F4F32C",
"H. c #FEF32B",
"J. c #FFFA2A",
"K. c #E9E535",
"L. c #ECEA3B",
"P. c #F1E634",
"I. c #F4ED35",
"U. c #FBED34",
"Y. c #F3E63F",
"T. c #F4EC3A",
"R. c #FBEB3C",
"E. c #F5F133",
"W. c #FCF333",
"Q. c #FCF834",
"!. c #F6F33B",
"~. c #FCF33A",
"^. c #FEFA3A",
"/. c #859B48",
"(. c #98AC4D",
"). c #8BA654",
"_. c #AFB54B",
"`. c #B3BB43",
"'. c #A6AB56",
"]. c #A5B75C",
"[. c #829B7F",
"{. c #94A86E",
"}. c #A7B767",
"|. c #AEBE79",
" X c #C7BE61",
".X c #B1C546",
"XX c #B8C55A",
"oX c #BAC663",
"OX c #B2C17F",
"+X c #C8CD46",
"@X c #CCD346",
"#X c #DAD648",
"$X c #C4C955",
"%X c #CAD355",
"&X c #D8D658",
"*X c #E2DA44",
"=X c #DEE146",
"-X c #EAE746",
";X c #ECE748",
":X c #F4EC43",
">X c #FBED43",
",X c #F2E54A",
"<X c #FAE748",
"1X c #F2EB4B",
"2X c #FDF242",
"3X c #F8F445",
"4X c #FDF24B",
"5X c #E8E756",
"6X c #F6E957",
"7X c #F3EA5C",
"8X c #F8F456",
"9X c #C6D364",
"0X c #C3D179",
"qX c #E3DD71",
"wX c #F3E965",
"eX c #FDF36A",
"rX c #E8E173",
"tX c #FBED73",
"yX c #FBF679",
"uX c #8AA88E",
"iX c #B9CA84",
"pX c #C9D08E",
"aX c #D7E389",
"sX c #FCF586",
"dX c #EBEC9D",
"fX c #FFF996",
"gX c #FEF9AA",
/* pixels */
"u u u u u u u u u u u u u u s z | 8.x.i.g.g.s.x.3.| z i u u u u u u u u u u u u u u ",
"u u u u u u u u u u u u g o.XX&X>XA.J.g.i.g.D.H.H.P.#XXXo.g u u u u u u u u u u u u ",
"u u u 2 u u u u u u s ..#X3XI.W.H.i.D.g.d.C.H.d.h.F.W.!.:X%X..a u u u u u u u u u u ",
"u u u u u u u u u U oX7XL.S.D.p.h.g.D.F.H.d.d.C.h.p.h.B.E.2XwX}.N u u u u u u u u u ",
"u u u u u u u u Y 9XrXrX6X>XB.J.S.J.i.u.h.d.C.H.D.h.H.3X<X6X7X5X9XY u u u u u u u u ",
"u u u u u u u M o...O.).0XsXeXb.>.L.H.d.h.h.C.C.W.K.>.`.+.{  .).oXaXN u u u u u u u ",
"u u u u u u 2 * u u u u i 2 pXy % K I.h.C.d.p.D.1XK - 8 M u 2 2 u {.U ; , u u u u u ",
"u u u u u 2     3 d u u u @.`   . Z I.f.C.C.h.Z.XXD     m d u u 2 B w   . u u u u u ",
"u u u u u u u     m a 2 u @.* X   '.I.j.d.F.H.@Xk B X X X B u u [.m   o 5 u u u u u ",
"u u u u u u u X + + ^ u ^ b     P }.4Xp.h.H.L...u u m   X w v i B @   o h M u u u 2 ",
"u u u u u u u f     e B ! O O q [.u XXU.A.I.$Xu u u d 3     m d w     f u OXu u u u ",
"u u u u u u u u 3 O O b , O : $.u u { ;XA.<X).u u u u B .   , x     w u u OXT u u u ",
"u u u u u u u u h         O ! v u u g +X~.:XY u u u u u b   .   O > u u u { XXu u u ",
"u u u u u u u u i x   O @ 3 #.u u u p $X~.-Xg u u u u u i ;     O h u u u N %Xi u u ",
"u u u u u u u u p x O     3 #.2 u u i $XG.M.g u u u u u d =   O   x u u u N c..Xu u ",
"u u 5Xu u u u u m       +   Q ^ u 2 s $XS.L.M u u u u u e   O   X X v u i +.=X:Xu u ",
"i ].1X`.u u u h ,     e o   @ ` u u Y 5XS.T.o.u u u 2 W     , 0 X O q u u }.T.!.z u ",
"l &X!.;Xi u p w O O e v P     q @.u ].8XV.~.].u u u U :     n d * +   P a rXK.Q.&Xu ",
"[ <XW.L.0Xk c   O > _ u %.3     P {.yXQ.s.G.eXN u ^ r O   b i u ~ O   # E tXR.H.5X2 ",
"1.I.H.!.yXT ; @ O ! u u 2 ` @ . . {.8XS.h.Z.8X9XB P O   = ( u u B r   . t &XI.G.!.1.",
"k.W.s.H.5XA o O q X.u u u uXb . . t m.H.C.H.N.8X+.4     / M u u u #.; . # ' E.F.E.9.",
"x.S.h.V.-X7 o - / u u u u u ( - . 1 l.H.C.H.s.!.2.o . 9 #.u u u u ( ) . % G G.g.G.z.",
"N.V.F.i.H.=.7 ,.|.2 u u 2 u iX,.C *.a.f.h.d.F.S.K.G A o.M 2 u u v dXqXK S :.h.r.H.n.",
"V.d.h.h.S.Q.1XwXwXfXaXpXaXsXtX7X,XR.d.t.p.d.h.h.S.L.5XsXgXgXgXfXtXwX6X:XK.^.g.f.H.B.",
"s.h.p.h.h.C.U.2XB.^.P.3XI.Q.W.A.U.A.h.h.h.h.d.d.H.A.>XY.R.T.3XI.U.A.A.S.h.h.h.f.h.B.",
"V.D.C.u.e.h.H.V.j.t.t.r.r.r.p.d.d.F.h.i.D.D.d.D.d.d.C.F.h.j.f.h.f.f.h.g.e.f.f.F.C.N.",
"y.D.C.d.h.h.a.H.p.f.p.p.F.d.d.C.d.p.h.j.f.f.h.u.C.p.F.e.t.f.g.f.f.t.h.h.h.d.h.u.H.x.",
"z.S.A.C.D.h.D.p.d.H.U.U.s.F.d.C.h.p.g.g.S.s.d.J.h.f.e.f.h.D.R.U.H.d.f.d.d.D.h.h.A.3.",
"3.W.A.C.h.p.g.F.~.l.7.6XA.s.H.D.h.g.F.G.K.L.E.d.f.f.r.h.s.>X2.2.,XA.D.h.h.d.e.d.R.j ",
"} ,XA.F.D.S.Q.L.-.6 # J -X^.C.d.d.V.L.=.4 Z c.>XH.g.F.H.3X=.< & F v.2Xa.D.j.p.F.1Xu ",
"k &XW.F.i.^.#XK - 6 A % F *XZ.C.H.4X' - 4 < 1 ] m.W.N.!.4.1 t S % 5 ;.6XU.p.D.I.| u ",
"i ].L.S.Q.:.C # Z $XqXH % S m.4X,X' - y  X_.y $ C 7.8Xc.t 1 2.wX<.t $ F 0.A.A.>Xp u ",
"u k 5X3X:.1 1 ] P.U.^.-XK # S  XL & C #X<X>Xm.' 1 - R V % ;.4XI.!.b.J $ y n.!.@Xu u ",
"u i ..5Xc.F 6.<XH.p.i.H.6X' % 1 - S #XR.a.J.H.T.2.V o o &.1XZ.j.s.^.<X-.=.-X;Xk u u ",
"u u u 9X:XN.W.W.C.p.j.r.S.T.&.6 H b.^.H.d.w.J.S.^.M.=.=.n.^.i.D.h.h.H.H.G.1X(.u u u ",
"u u u i =XG.F.h.D.p.p.f.h.H.I.l.P.G.H.w.h.F.w.h.s.S.G.Q.F.d.D.d.h.h.w.h.Q.@X2 u u u ",
"u u u i { -XG.g.h.J.p.h.h.d.H.F.h.D.r.g.h.p.F.j.D.h.C.H.p.e.h.h.h.h.F.Z.@X2 u u u u ",
"u u u u i  .=X!.E.s.u.f.f.p.p.d.g.h.g.t.f.h.p.u.h.h.d.p.f.j.f.p.d.B.P..Xu u u u u u ",
"u u u u u u I XX1X~.F.g.f.f.d.H.d.h.f.e.h.F.p.h.h.p.h.h.g.e.i.H.U.8X/.u u u u u u u ",
"u u u u u u u d ..$X-XR.U.A.U.A.H.d.p.h.D.d.h.d.d.h.h.C.D.H.R.1X$X .2 u u u u u u u ",
"u u u u u u u u u s T ].&X6X<XR.W.C.d.h.d.h.h.D.C.A.U.>X5X&X(.T a u u u u u u u u u ",
"u u u u u u u 2 u u u u h I | 5.k.q.a.g.D.D.V.a.n.k.5.| I g u u u u u u u u u u u u "
};
