/* XPM */
static char *snake_head_removebg_preview1736256005[] = {
/* columns rows colors chars-per-pixel */
"42 42 196 2 ",
"   c #020202",
".  c #090203",
"X  c #050D04",
"o  c #07040B",
"O  c #0B020B",
"+  c #0C0A0D",
"@  c #10150E",
"#  c #090811",
"$  c #0E1A12",
"%  c #161C1A",
"&  c #0E240A",
"*  c #1C261D",
"=  c #1C2C1A",
"-  c #191D23",
";  c #283426",
":  c #004000",
">  c #084707",
",  c #084608",
"<  c #0E4C0E",
"1  c #0F550E",
"2  c #164E16",
"3  c #155A15",
"4  c #175718",
"5  c #1B531B",
"6  c #1C5C1C",
"7  c #006D00",
"8  c #007200",
"9  c #007A00",
"0  c #1E6A1C",
"q  c #2D482A",
"w  c #30412E",
"e  c #245C24",
"r  c #295628",
"t  c #2A5A2A",
"y  c #315A2E",
"u  c #2F4139",
"i  c #354534",
"p  c #345332",
"a  c #345C34",
"s  c #395C38",
"d  c #236322",
"f  c #246923",
"g  c #2C632B",
"h  c #2B6A2C",
"j  c #306E2F",
"k  c #267324",
"l  c #287727",
"z  c #2C722B",
"x  c #2F6B30",
"c  c #326030",
"v  c #376C37",
"b  c #376E38",
"n  c #2E7431",
"m  c #377735",
"M  c #337833",
"N  c #3A7239",
"B  c #377D39",
"V  c #387C3A",
"C  c #3F5C41",
"Z  c #3C7F40",
"A  c #405241",
"S  c #497C47",
"D  c #008200",
"F  c #0A8605",
"G  c #008E00",
"H  c #019B00",
"J  c #0B9C06",
"K  c #129A0C",
"L  c #1A8E13",
"P  c #189617",
"I  c #03A501",
"U  c #02AA01",
"Y  c #0CAD0C",
"T  c #10AB0B",
"R  c #14AB0A",
"E  c #02B503",
"W  c #0AB505",
"Q  c #03BE02",
"!  c #0ABC03",
"~  c #04B40C",
"^  c #0CB50C",
"/  c #04BD0A",
"(  c #0BBB0B",
")  c #13B505",
"_  c #11BA05",
"`  c #12B40C",
"'  c #1AB10E",
"]  c #12BB0C",
"[  c #0DA512",
"{  c #0CAD18",
"}  c #14A415",
"|  c #1BA516",
" . c #14AB15",
".. c #1AAD14",
"X. c #19A519",
"o. c #14AC1B",
"O. c #1BAB1B",
"+. c #07B712",
"@. c #0AB412",
"#. c #06BB12",
"$. c #0CBB12",
"%. c #0FB41C",
"&. c #13B313",
"*. c #1BB415",
"=. c #13BB13",
"-. c #15B41C",
";. c #1BB31C",
":. c #22A61E",
">. c #22AA1D",
",. c #20B11D",
"<. c #2E8C2D",
"1. c #30822E",
"2. c #289E2A",
"3. c #309E27",
"4. c #31942F",
"5. c #328433",
"6. c #3C833C",
"7. c #378E3A",
"8. c #3C8B3C",
"9. c #2F9E38",
"0. c #389335",
"q. c #369B34",
"w. c #3A9D35",
"e. c #3C943D",
"r. c #3D9B3D",
"t. c #18A823",
"y. c #1BAD22",
"u. c #1EAF29",
"i. c #1BB223",
"p. c #1DBB29",
"a. c #26A723",
"s. c #29A524",
"d. c #24AC23",
"f. c #28A825",
"g. c #2BA42C",
"h. c #2BAB2B",
"j. c #33A72E",
"k. c #22B325",
"l. c #2BB627",
"z. c #23B528",
"x. c #25A835",
"c. c #29AF32",
"v. c #35A631",
"b. c #38A637",
"n. c #34AC32",
"m. c #39AA31",
"M. c #35A339",
"N. c #3FA23C",
"B. c #36AC3A",
"V. c #39AB3C",
"C. c #35BD37",
"Z. c #3CB33B",
"A. c #418A3E",
"S. c #48973F",
"D. c #439D3B",
"F. c #41A33C",
"G. c #43BD37",
"H. c #01C201",
"J. c #09C204",
"K. c #03C902",
"L. c #03C20A",
"P. c #0AC30A",
"I. c #0AC514",
"U. c #11C311",
"Y. c #11C21A",
"T. c #3E8B41",
"R. c #399642",
"E. c #3D9E42",
"W. c #3CA241",
"Q. c #3EB442",
"!. c #428C43",
"~. c #4A8648",
"^. c #449446",
"/. c #449A43",
"(. c #499944",
"). c #449148",
"_. c #499349",
"`. c #459A49",
"'. c #4C9C4C",
"]. c #52974D",
"[. c #528651",
"{. c #549B52",
"}. c #5A925A",
"|. c #45A445",
" X c #4EA34A",
".X c #42B843",
"XX c #4FA954",
"oX c #53A252",
"OX c #5BA05C",
"+X c #4EBF57",
"@X c #53B454",
"#X c #60A25D",
"$X c #63A262",
"%X c #66B763",
"&X c #4AC54D",
"*X c #53C15E",
/* pixels */
": : : : : : : : : : : : : : & > 1 f 5.q.M.M.<.l 0 & : : : : : : : : : : : : : : : : ",
": : > & : : : : : > : : : 1 j _.v.g.a.o.i.i.} f.c.M.6.e : : : : : : : : : : : : : : ",
": : : : : : : : : & : : l F.>.*.,.^ ( ( ~ E _ ` Y k.d.s.E.z : : : : > & : : : : : : ",
": : : : : : : : : : 1 T.3.>.P.Q ! ! H.H.L./ J.H.H.P.^ -.u.g.8.< : : : : : : : : : : ",
": : : : : : : : : < 6.7.V.d.W Q Q J.Q Q / ( H.H.H.L.( $.i.x.M.8.h : : : : : : : : : ",
": : : : : : : : : x d d h 7.C.=.^ J.H.Q ( / H.H.I.+.z.&X5.k k 6.~.N : : : : : : : : ",
": : : : : : : : : : : : : : 0 E.i.E H.K.P./ H.L.o.+Xn : : : & > > N v : : : : : : : ",
": : : : : : : : : : : : : : : : R.p.Q Q Q / ! &.*Xd : : : : : : : : g v : : : : : : ",
": : : : : : : : : : : : & : : : : XX' _ Q W &.Q.f & : : : : : : : : : b g : : : : : ",
": : : : : : : : : : : > e 2 : : : 6 G.) Q ( z.T.: > : : t c 2 : : : : : S < : : : : ",
": : : : : : : : : : : < * @ p : : : D.' ! ^ Q.1 : : : : c X % a : : : : N [.: : : : ",
": : : : : : : : : 2 : : w o . y : : f h.=.&./.: : > d : , $ # - 6 : : : > }.: : : : ",
": : > > : : : : : = t s +   o ; : : > W.{ u.m > : a ; r p       A : : : : $X~.: : : ",
": : & Z : : : : 5 X .   O #   = : : : `.o.c.6 & : a   X X   .   i : : : : #XS.> : : ",
": : 6.7.: : : : 5 &     o o   = : : : `...h.4 : : a           O A : : : : ].3.8.: : ",
": : N.r.: : : : & & X         q : : : /...f.e : : t         .   s : : : : ].:.b.: : ",
"& d s.V.> : : : : a         @ 6 : : : D.R d.V > : : u         ; > : : : : XXo.x.6 > ",
"> A.d.>.M : : : : : c = $ ; t : : : f m. .O._.& : : : C $ % i 5 > & : : > V.Y d.V & ",
": |.,...(.& : : : : : : > : : : > & '.O.] ^ r.: : : : : > 1 & > : : : : M f.] *.e.: ",
": W.&.U.n.0 : : : : > & : : : : : 1 V.Y ( ( >.A.: : : : : : : : : : : : N.T ] ` r.: ",
": M.=.( ;.|.: : : : : : : : : : : oXy.=.E J.=.g.6 : : : : : : : : : : 6.k.! J.) v.: ",
": g.=.E P.z./.: : : : : : : : : XXn.^ L.Q ! P. ./.0 : > : : : : : : z Z.^ K.H.] g.: ",
"3 s.^ E E ^ i.|.d : : : & > e @Xl.) H.H.H.Q H.( d.|.f & : : : : 4 '.Q.[ P.H.Q P.:.1.",
"0 >.=.( H./ I. .Z. X!.B {.%X.X,.! H.H.H.H.K.Q / $.} w. X).n V OX@Xh.o.Y.H.H.K./ >.0.",
"k >.=.L.H.H.H./ ` ..i.i.i.;.` ! / L.( L./ L./ Q H./ ^  .-.i.z.a.*.&.^ / H.H.H.^ >.4.",
"k >.^ L.H.H.H.H.Q ! ( L.L./ H.H.H./ ( ( L.Q / Q K.K.H./ H.K.L.W ! H.L.L.H.H.H.! >.<.",
"0 h.^ H.H.H.Q H.! ! Q H.H.H.H.H.H.H.! ! H.Q Q Q H.H.L./ H.H.H.H.H.H./ L.L.H.Q _ k.1 ",
"3 v.^ H.H.H.Q / ! ! Q H.H.H.L.L.H.Q ! ! Q H.Q H.H.H.Q Q H.H.H.K.H.H.Q ( L.H.H.) h.< ",
"< D.~ K.K.H./ Q ) ) ! Q H./ #.+./ ! ! ! ! ! H.H.Q Q ! ! ! Q H.H.H.H.Q / J.H.! ) q.6 ",
": (.&.H.H.L./ ( ) ! ! H.H.L.+.^ / Q ! ! Q H.H.H.Q ! ! ! ) ! H.H.H.H.Q / / J.Q &.^.: ",
": T.k.J./ L./ H.H.H.H.H.H.H.Q Q Q H.H.H.H.L.L.H.L.Q Q H.H./ L.L.H.H.H./ Q Q H.k.Z : ",
": 5 v.$.E L.H.H.H.H.K.K.H.H.H.H.H.H.H.H.H.L.H.H./ H.H.H.Q / #./ / / H.H.Q ! U.g.4 : ",
": : ^.k.#./ / E $.( H.H.K.K.Q Q H.H.H.Q Q / L.H.H.H.Q ! ( $.@.~ ~ / H.H.H.W y.8.: : ",
": : 4 9.%.Y.E U H U ^ ^ ! ^ ^ ( / / Q ( ~ / ( ^ E W ( ] ` I I H $./ K.Q ! *.r.4 : : ",
": : & 7.x.%./ ! I G D F P P X.O.O.t.i.i.;.o. . .} } J G D D H ^ / H.Q K.' v.M : : : ",
": : : : T.2.=.] ] ) K F 9 7 7 8 8 8 9 9 9 9 8 8 7 7 9 G J T ` _ ! Q U.Y h.8.: : : : ",
": : : : : ^.j.R ) P.=.$.^ ( E I H H H H H H H H Y ` ) W ! J.H.Q P.W ..n.A.: : : : : ",
": : : : : : 6.F.>.@.( L.L.E H.P._ ) ` ` ^ ^ ] ( E ! P.H.Q H.H./ ` a.N.M > & : : : : ",
": : : : : : : d _.B.{ ^ I./ E / ! H.H.L.L.L./ Q P./ E L.L.#.+.o.b.!.6 : : : : : : : ",
": : : : : : : : : d `.g.X.i.y.&.) ! Q Q Q / / ! ( ^ @.-.t.t.B.7.: : : : : : : : : : ",
": : : : : : : : : : : : d ^./.q.s.,.` ( / ( W *.| j.4.5.n : : : : : : : : : > & : : ",
": : : : : : : > : : : : : : & 1 l 4.X.U U E I L 1 : : : : : : : : : : : : : : : : : "
};
