/* XPM */
static char *start_gate_removebg_preview1736256005[] = {
/* columns rows colors chars-per-pixel */
"42 42 71 1 ",
"  c #004000",
". c #054305",
"X c #094609",
"o c #0C470C",
"O c #0C480C",
"+ c #0F4A0F",
"@ c #134C13",
"# c #144C14",
"$ c #164F15",
"% c #1C521C",
"& c #215621",
"* c #235623",
"= c #235823",
"- c #245923",
"; c #245824",
": c #275826",
"> c #285B27",
", c #295B28",
"< c #285C28",
"1 c #2B5C2B",
"2 c #2F5D2E",
"3 c #2E5E2E",
"4 c #335F32",
"5 c #326031",
"6 c #316230",
"7 c #346133",
"8 c #346334",
"9 c #356434",
"0 c #366535",
"q c #386637",
"w c #376638",
"e c #386638",
"r c #3D663D",
"t c #3A6839",
"y c #3B683A",
"u c #3D683C",
"i c #3E693D",
"p c #3F6B3E",
"a c #40673F",
"s c #406B3F",
"d c #426941",
"f c #426C41",
"g c #456B44",
"h c #446C44",
"j c #476E45",
"k c #476E47",
"l c #486F47",
"z c #496F4A",
"x c #4E6F4D",
"c c #487047",
"v c #4B7149",
"b c #4A704B",
"n c #4E734C",
"m c #4F704F",
"M c #4F734F",
"N c #50714E",
"B c #51724F",
"V c #50744F",
"C c #52744F",
"Z c #4F7450",
"A c #517251",
"S c #537551",
"D c #537650",
"F c #537452",
"G c #547751",
"H c #547552",
"J c #547653",
"K c #567754",
"L c #557853",
"P c #567854",
"I c #577955",
/* pixels */
"                                          ",
"                                          ",
"                                          ",
"                                          ",
"                 %,$                      ",
"              7NxxNVdt9o                  ",
"            NCVCHFNNnnclllfsq,+           ",
"          NNANCNANANAAVHHNNNNANVa>        ",
"        AANNVHVVVNHHHSHIHHHVVVHNNVCg>o    ",
"      nmAAHAHHHHHHHHHKKHHLLHHHSNCVNCNNNAAv",
"    #nAVVVAHHHHLHHHHHAHHHHHLIHHHVHCHNNNFnn",
"    nSSAHHHHLLHHHHVVNHAHHHHHHHLILHLCFVCNAA",
"  .nAAASHLLLLHHVCAANAANAAAHAHHIHLLHCHVVAZA",
" nnSHHSLHIHHHVNCNHNNnAnNNAASHHHAVLLLHVNNAn",
"vASHKHKLHHVHVVVNFNVfednNAHNNNAANVVGLHLSAAN",
"nAHSHLSSHVVNVVNCxzf   eqilVNNAVNVVVVHHSNSA",
"ZZZSSSSNAnNNNnAzs        qrscnnAVNVNHHLHGS",
"AnSSSSSANAnSnli             7fAANVANCHHGLG",
"nSSSSSSnVAxxe                gAxANVNLVHHSG",
"SASSSKSANANAe                enNnANANHHLLL",
"nZSISSSSVNnAd                rZAANASSSSSVH",
"SSSSLSSZNVNAAz               jAnnAAASSIISV",
"GGVLSSHSHANxZAi              gZxAAZSSJSKSS",
"VVHVIHLSAHANAZz            8iAxAnZnSSJKSSS",
"CGHLHLLHSAAnZZnw6==:iitsgkjjzAAAnNAASLKZHA",
"VVNHLHLHAZASAZnzvznAnAASAAAAANNANAHSSISSAA",
"VCHHHLHHSSnSAnAAAnxAxnnnAnnAVNNHASSSSSnSNV",
"CCCHHHHLSSAAAANANAnAAAVHSSAAAVHNnSLSASASSN",
"NAAAHHLCLHSSSZnSANnSHHVCVHLCHHHVSSHSVHVNAN",
"jHAnNVHIHSLISSHSSSnSCGHLGHVHVHHGSLHHNNVANA",
":idznCCHHSSSSSSSISHHHLGLLLLHHLLCLSSAVAANAn",
"   0qunANAnZZZSSSLLILVLLHCLVHCGLHLHHNv*3xS",
"      0jSxNNAHHHHHHHSSAHHSHVANHHery1#     ",
"       pAZAAAAANHAHHHSANNNSNv2684@        ",
"      :nAxnANNNANmnAANAANANd7#            ",
"      XjnZAAAFNAAAAZnxnnNnj:              ",
"       XeeijzANNnnzdeteit:.               ",
"            7snnli*                       ",
"                                          ",
"                                          ",
"                                          ",
"                                          "
};
