/* XPM */
static char *_1902b2fd638488dc134577e3a896479G1ZgNUtjUsrtjTyt[] = {
/* columns rows colors chars-per-pixel */
"42 42 242 2 ",
"   c None",
".  c #605F5E",
"X  c #5F615E",
"o  c #60605E",
"O  c #60615E",
"+  c #61615E",
"@  c #60615F",
"#  c #61615F",
"$  c #60625E",
"%  c #61625E",
"&  c #60635E",
"*  c #61635E",
"=  c #60625F",
"-  c #61625F",
";  c #61635F",
":  c #62625F",
">  c #62635F",
",  c #61645F",
"<  c #62645F",
"1  c #62655F",
"2  c #616360",
"3  c #626260",
"4  c #626360",
"5  c #626460",
"6  c #636460",
"7  c #626560",
"8  c #636560",
"9  c #636461",
"0  c #626561",
"q  c #636561",
"w  c #636660",
"e  c #636661",
"r  c #646560",
"t  c #646561",
"y  c #646660",
"u  c #646760",
"i  c #646661",
"p  c #646761",
"a  c #656761",
"s  c #646662",
"d  c #656662",
"f  c #646762",
"g  c #656762",
"h  c #656763",
"j  c #646860",
"k  c #656860",
"l  c #646960",
"z  c #646861",
"x  c #656861",
"c  c #656961",
"v  c #666961",
"b  c #656A61",
"n  c #666A61",
"m  c #646862",
"M  c #656862",
"N  c #656962",
"B  c #656863",
"V  c #666862",
"C  c #666962",
"Z  c #676962",
"A  c #666863",
"S  c #666963",
"D  c #666A62",
"F  c #676A62",
"G  c #666B62",
"H  c #676B62",
"J  c #666A63",
"K  c #676A63",
"L  c #666B63",
"P  c #676B63",
"I  c #666C62",
"U  c #676C62",
"Y  c #676E62",
"T  c #666864",
"R  c #666964",
"E  c #676A64",
"W  c #686B63",
"Q  c #686D62",
"!  c #686C63",
"~  c #686D63",
"^  c #696D63",
"/  c #686E62",
"(  c #686E63",
")  c #696E63",
"_  c #696F63",
"`  c #6A6E63",
"'  c #6A6F63",
"]  c #686B64",
"[  c #686B65",
"{  c #686C64",
"}  c #686D64",
"|  c #696D64",
" . c #696C65",
".. c #686D65",
"X. c #696D65",
"o. c #686E64",
"O. c #696E64",
"+. c #696F64",
"@. c #696E65",
"#. c #696F65",
"$. c #6A6F64",
"%. c #6A6F65",
"&. c #6B6F65",
"*. c #696D66",
"=. c #6A6D66",
"-. c #6A6E66",
";. c #6A6F66",
":. c #6B6F66",
">. c #697062",
",. c #697063",
"<. c #6A7063",
"1. c #6A7163",
"2. c #697064",
"3. c #6A7064",
"4. c #6A7164",
"5. c #6B7164",
"6. c #6A7065",
"7. c #6B7065",
"8. c #6A7165",
"9. c #6B7165",
"0. c #6A7264",
"q. c #6B7264",
"w. c #6B7265",
"e. c #6B7365",
"r. c #6B7066",
"t. c #6B7166",
"y. c #6B7167",
"u. c #6B7266",
"i. c #6C7165",
"p. c #6C7364",
"a. c #6C7265",
"s. c #6C7365",
"d. c #6C7166",
"f. c #6C7167",
"g. c #6D7167",
"h. c #6C7266",
"j. c #6C7366",
"k. c #6D7366",
"l. c #6C7267",
"z. c #6D7267",
"x. c #6C7367",
"c. c #6D7367",
"v. c #6B7464",
"b. c #6C7464",
"n. c #6C7465",
"m. c #6D7465",
"M. c #6C7565",
"N. c #6C7466",
"B. c #6D7466",
"V. c #6D7566",
"C. c #6C7467",
"Z. c #6D7467",
"A. c #6D7567",
"S. c #6E7466",
"D. c #6E7566",
"F. c #6E7467",
"G. c #6E7567",
"H. c #6C7068",
"J. c #6C7168",
"K. c #6C7268",
"L. c #6D7268",
"P. c #6C7368",
"I. c #6D7368",
"U. c #6D7269",
"Y. c #6D7369",
"T. c #6E7368",
"R. c #6E7369",
"E. c #6D716A",
"W. c #6E736A",
"Q. c #6F736B",
"!. c #6D7468",
"~. c #6E7468",
"^. c #6E7568",
"/. c #6F7568",
"(. c #6E7569",
"). c #6F7569",
"_. c #6F7668",
"`. c #6F7669",
"'. c #6E746A",
"]. c #6F746A",
"[. c #6F756A",
"{. c #6F746B",
"}. c #6F756B",
"|. c #6F766A",
" X c #6E756C",
".X c #6F766C",
"XX c #707669",
"oX c #70756A",
"OX c #70746B",
"+X c #70756B",
"@X c #70766A",
"#X c #71776A",
"$X c #70766B",
"%X c #71766B",
"&X c #70776B",
"*X c #71776B",
"=X c #70736C",
"-X c #70736E",
";X c #70756C",
":X c #71756C",
">X c #70756D",
",X c #71756D",
"<X c #72756D",
"1X c #70766C",
"2X c #71766C",
"3X c #71776C",
"4X c #70766D",
"5X c #71766D",
"6X c #72766C",
"7X c #72776C",
"8X c #72766D",
"9X c #72776D",
"0X c #73776D",
"qX c #71756E",
"wX c #72756E",
"eX c #73756E",
"rX c #73756F",
"tX c #71766E",
"yX c #72766E",
"uX c #73766E",
"iX c #72766F",
"pX c #73766F",
"aX c #74756F",
"sX c #74766E",
"dX c #74766F",
"fX c #74776F",
"gX c #71786B",
"hX c #71786C",
"jX c #72786C",
"kX c #72786D",
"lX c #73786D",
"zX c #757371",
"xX c #717570",
"cX c #737570",
"vX c #737670",
"bX c #737770",
"nX c #727671",
"mX c #737572",
"MX c #747571",
"NX c #757472",
"BX c #747572",
"VX c #767870",
/* pixels */
"                                                                                    ",
"                                                                                    ",
"                                                                                    ",
"                                                                                    ",
"                          . O O O O O                                               ",
"                      O O O O O O O O O                                             ",
"                  O O O 4 O O , q q q O O O 4 O O 4 O O O O                         ",
"                O O O q q q q g S S g g g S X.X.S S g q q 4 O O O O O               ",
"          O O O O q g S S S S S S S S S X.d.).@X).d.X.! S S S g q O O O O O O       ",
"        O O O , q S [ X.X.6.6.6.6.X.6.d.Z.Z.).@XjXpX@XL.d.X.X.S S S g q q O O O O O ",
"      O O O g g S X.X.d.).@XZ.Z.Z.@X).d.6.6.6.6.L.@XjXjXdXpX-Xd.X.X.X.S S g q 4 O O ",
"    O O q g S ! X.L.).pXVXpX).d.d.d.X.S g g S S S ! 6.).pXBXzXdX@Xd.d.X.S g q q , O ",
"    O q S ! X.6.L.xXxXBXpX).X.S q q q q , , q g g S S ! d.).pXpXpX).Z.d.X.S g g q q ",
"  O q S X.d.).@XpXxX-XL.6.! S q O O O O O O O O q g g S S U ! X.6.Z.Z.Z.<.S S g g q ",
"O q X.).@X@X@X@XL.X.X.! S S q O O O O O     O O O 4 q , O , q q S X.).@Xd.! S g g q ",
"4 S L.).@X).Z.X.S S S g g q q O O O               O O O O O O 4 q S S X.d.Z.6.! S S ",
"q S X.6.Z.Z.! S S g q , O O O O                         O O O 4 q q g g S d.Z.Z.L.).",
"q g S <.Z.d.S g q q O O O O                                 X O O O q g S ! Z.@XjX).",
"S S S ! ).d.S g q , O O                                     O O O , q S S U Z.jX).6.",
"S ! ! <.Z.@XX.g q O O O                                     O O q q g S S ! @XpXd.6.",
"S ! 6.v.Z.Z.S q 4 O O O                                     O q q g S W ! 6.pXpXd.! ",
"X.X.d.Z.).).! S q O O O O O                                 O O q q S ! 6.L.xXdXd.! ",
"X.6.6.).pXpXL.6.S q q 4 O O                                 O O q q g ! 6. XxX@X6.X.",
"X.6.d.d.pXxX).6.X.S g q q O O                             O O O q q g S 6. XpXL.! X.",
"E X.d.Z.).pXpX6.U S g q , O O                     O O O O O O q q q q S d.).).6.X.X.",
"S S X.6.Z.).BXpXU S g q , O O O O O O O O O O , , , O O O O q g g S X.L.Z.d.d.X.X.E ",
"g S X.6.d.Z.pXpXd.S g g q O O O 4 O O X X O q g g g q , , q g g g S d.).<.! 6.S S g ",
", g S X.6.d.).jX).d.! S q q , g q O O O , q g S S S S S S S S S S ! ).6.S S S S g q ",
"O O q S ! 6.Z.gX@XZ.Z.6.S g S X.S , q g S U ! <.<.<.! U S U ! ! 6.Z.Z.X.S g g g q q ",
"  O O q S X.d.@X).Z.Z.Z.).L.L.@X@XX.X.X.6.d.Z.Z.6.d.d.d.6.L.L.).Z.Z.6.U S g g g q q ",
"      O O q S L.X.! ! X.X.6.6.Z.Z.Z.).@XjXpXpXpXpXpXjXdXdXpXpXpX@X@Xd.X.g q q q q O ",
"            4 q q q q g g S ! 6.Z.Z.).@XpXpX-XL.).L.d.6.d.d.L.).@X).L.[ q O O O O O ",
"              O O O q q S S X.! <.6.d.d.6.X.X.X.X.S S ! X.X.X.X.X.E g q           O ",
"                O O q g g g g S S X.X.X.X.[ E S S S S E g g q q 4                   ",
"              O O O , , , , , q q q g g g g q q q q q 4 4 O                         ",
"              O O O O O O O O O O O 4 4 O O O O O O                                 ",
"                        O O X O O O O                                               ",
"                            O O                                                     ",
"                                                                                    ",
"                                                                                    ",
"                                                                                    ",
"                                                                                    "
};
