/* XPM */
static char *ver_down_removebg_preview1736256005[] = {
/* columns rows colors chars-per-pixel */
"42 42 57 1 ",
"  c black",
". c #3E2900",
"X c #452F00",
"o c #473000",
"O c #453200",
"+ c #453201",
"@ c #493000",
"# c #4A3500",
"$ c #4D3702",
"% c #4C3805",
"& c #523801",
"* c #533801",
"= c #6B4A00",
"- c #734A09",
"; c #784D0C",
": c #715500",
"> c #7F520D",
", c #7D5F19",
"< c #7D6423",
"1 c #BD7923",
"2 c #FFBD16",
"3 c #FEBB19",
"4 c #FFBE1B",
"5 c #CB8129",
"6 c #CC8229",
"7 c #D3852D",
"8 c #D3862D",
"9 c #DE8E2D",
"0 c #DC8C2E",
"q c #DE8D2E",
"w c #F59B39",
"e c #FA9E3A",
"r c #FFB725",
"t c #FFB923",
"y c #FFB429",
"u c #FFAB33",
"i c #FFAE30",
"p c #FFAC32",
"a c #FFA836",
"s c #FFA13E",
"d c #FFA03F",
"f c #FFA33F",
"g c #FFB031",
"h c #FFCB0F",
"j c #FED603",
"k c #FFD207",
"l c #FFD902",
"z c #FFDF00",
"x c #FFD805",
"c c #FFD108",
"v c #FFC110",
"b c #FFC111",
"n c #FFC614",
"m c #FFC11A",
"M c #FFC61B",
"N c #FFE200",
"B c #FFA240",
/* pixels */
"oqMNNlpkNNzzNNzNNNzNzNNNzNNzNNNzzNlukNNv8&",
"oqMNNlukNNNNNzNNzNzNNNzNzNNzNzNNNNlukNNv8&",
"oqMNNlukNzzNNNzzNzNNNzNzNNNNzNzNNzlpkNNv8*",
"oqMNNlukNNNNzNNNNNNzNzNNNzzNNNzNNNlpkNNv8*",
"XqMNNlukNNzzNzzNzNNzNNzNNzzNNNzNNNlpcNNv8*",
"@qMNNlukNNNNNNNNzNNzNzNNNNNNzNzNNNlacNNv7*",
"oqMNNlukNzzNzNNzNNNNNNzzzNNzNzNNNNlpcNNv7*",
"oqMNNlukNNNNzNNzNzzNzNNNzNNzNNNzNNlpcNNv7*",
"oqMNNlpcNNzNzNNNNNNzNzzNNNzNNNzNzNlukNNv7*",
"oqMNNlpkNNzNNNzNzzNNNNNNNzNNzNzNNNlukNNv7*",
"oqMNNlucNzNNNzNzNNzNzNNzNNzzNzNNNzlpkNNv7*",
"oqMNNlukNNNzNzNNNzNNzNNzzNNNNNNzNNlpkNNv7*",
"oqMNNlukNNNzNNzNNNzNzNNNNNNzzzNNNNxpcNNv7*",
"oqMNNlucNNNzNzNNzNzNNNzNzzNNNNNzNNjucNNv7*",
"oqMNNlpkNNNNNNzzNzNNNzNzNNzNNNNzNNlpcNNv7*",
"oqMNNlpkNzzNzNNNNNNzNzNNNzNNzzNNNNlpcNN27*",
"oqMNNlucNzzNzNNNzzNNzNNNzNNzNNNzzNlukNNv8&",
"oqMNNlukNNNNNNzzNNNzNNzNzNNzNzNNNNlukNNv8&",
"oqMNNlukNNNzNzNNNNNzNzNzNNNNzNzNNzlukNNv8&",
"oqMNNlucNNNzNNzNzzNNNzNNNzzNNNzNNNlukNNv8&",
"oqMNNlucNNNzNzNNNNNNzNzNNzzNNNzNzNlucNNv8*",
"oqMNzlukNzNNNNNzNzzNzNNNNNNNzNzNNNlucNNv7*",
"oqMNNNptNNNNNNNNNNNNNNNNNNNNNNNNNNnaxNNv7*",
"oqMNNNhaymm4mmm4mmmmmmmmm4mmmmmmmramNNNv7*",
"oqMNNNzctyryyyyryyryyyryryyyryyyyrhzNNNv8&",
"oqMNNNNNNzzzNNNzNNzzNNzNNzNzzzNNzNNNNzNv8&",
"oqmNzNzNNNNNNNzzNzNzNzNNNNzzNzNNNNNNNNN48&",
"oqgxNNzNNNNNzNNNNNNzNNNNzNNNNNNzNNNNNzju8&",
"oqdg4222222222222422222222222422222224pf8&",
"oqfdeBddddddddddedBeddddddddedBedddddddf8&",
"o9fdddeBsssfddddddBesssfddddddBessssdddf8&",
"o9dddddBsssddfddddBBsssddfddddBBsssddddd8&",
"o9fdsssssssssssssssssssssssssssssssssssf8&",
"o9fdsssssssssssssssssssssssssssssssssssf8&",
"o9fdsssssssssssssssssssssssssssssssssssf8&",
"o9fdsssssssssssssssssssssssssssssssssssf8&",
"o9fdfssssssssssssssssfddsssssssssssssssf8&",
"@9dfsssssssssssssssssddfsssssssssssssssf8&",
"o6Bdssssssssssssssssssddsssssssssssssssf1@",
"o>dfsfsffdsffsfsfdffdffdfdffdffdffdffdfw-$",
",%>6090qq0qq0q09qqqqq0qqqqqqqqq90q0qq06;.=",
" <Oo@@@@Oo#@@@#o@o#o@oo#oo#@o#o@#@@#o@o#: "
};
