/* XPM */
static const char *ver_down[] = {
/* columns rows colors chars-per-pixel */
"42 42 79 1 ",
"  c #412E01",
". c #473203",
"X c #473504",
"o c #473506",
"O c #493303",
"+ c #4A3303",
"@ c #4A3403",
"# c #4B3403",
"$ c #483304",
"% c #483405",
"& c #4A3505",
"* c #4B3704",
"= c #4E3A08",
"- c #4D3A0E",
"; c #533B06",
": c #543B05",
"> c #724B11",
", c #774E14",
"< c #7E5315",
"1 c #7F5316",
"2 c #BC7828",
"3 c #C57E2C",
"4 c #FEBB1E",
"5 c #FEBA1F",
"6 c #FFBC1C",
"7 c #CA802D",
"8 c #CB812D",
"9 c #D28431",
"0 c #D28531",
"q c #D28432",
"w c #DB8B32",
"e c #DC8B32",
"r c #DC8C31",
"t c #DD8D31",
"y c #DD8C32",
"u c #DD8D32",
"i c #F59A3C",
"p c #FA9D3D",
"a c #FFBD21",
"s c #FFBB25",
"d c #FFB62A",
"f c #FFB32D",
"g c #FFB42C",
"h c #FFB828",
"j c #FEAA33",
"k c #FFAC33",
"l c #FFAD33",
"z c #FFAB35",
"x c #FFAA36",
"c c #FFAD35",
"v c #FFAF34",
"b c #FFA739",
"n c #FFDF01",
"m c #FFDE02",
"M c #FFD907",
"N c #FFDC04",
"B c #FED50A",
"V c #FFD60A",
"C c #FFD10F",
"Z c #FFD70D",
"A c #FFD808",
"S c #FFC017",
"D c #FFCF11",
"F c #FFCA16",
"G c #FFC018",
"H c #FFC51B",
"J c #FFC11F",
"K c #FFC21F",
"L c #FFD010",
"P c #FFE000",
"I c #FFE100",
"U c #FFC020",
"Y c #FFC521",
"T c #FF9F41",
"R c #FFA040",
"E c #FFA141",
"W c #FFA241",
"Q c #FFA142",
"! c None",
/* pixels */
"OyYIIMzLIIIIIIIIIIIIIIIIIIInnIIIIIAzCIIG0:",
"OyYIIMzLIIIIIIIIIIInIIInIIIIIIIIIIAzCIIG0:",
"OyYIIMzLIIIIIIIIIIInIIIIIIIIIIIIIIAzCIIG0:",
"OyYIIMzLIIIIIIIIIIIIIIIIIIIIIIIIIIAzCIIG0:",
"OyYIIMzLIIIIIInIIIIIIIIIIIIIIIIIIIAzCIIG0:",
"OyYIIMzLInIIIInIIIIIIInnIIInnnIIIIAzCIIG0:",
"OyYIIMzLIIIIIIIIIIInIIIIIIInIIIIIIAzCIIG0:",
"OyYIIMzLIIIIIIIIIIInIIIIIIIIIIIIIIAzCIIG0:",
"OyYIIMzLIIIIIIIIIIIIIIIIIIIIIIIIIIAzCIIG0:",
"OyYIIMzLIIIIIIIIIIIIIIIIIIIIIInnIIAzCIIG0:",
"OyYIIMzLIIIIIIIIIIIIInIIIIIIIIIIIIAzCIIG0:",
"OyYIIMzLIIIInnIInIIIInIInIIIIIIIIIAzCIIG0:",
"OyYIIMzLIIIIIIIInIIIIInInIIIIIIIIIAzCIIG0:",
"OyYIIMzLIIIIIIIIIIIIIIIInIIIIIIIIIAzCIIG0:",
"OyYIIMzLIIIIIIIIIIIIIIIIIIIIIInnIIAzCIIG0:",
"OyYIIMzLIIIIIIIIIIIIIIIIIIIIIIIIIIAzCIIG0:",
"OyYIIMzLInIIIIIIIIIIIIIIIIIIIIIIIIAzCIIG0:",
"OyYIIMzLIIIIIIIInnIIIIIIIIInIIIIIIAzCIIG0:",
"OyYIIMzLIIIIIIIIIIIIIIIIIIIInnIIIIAzCIIG0:",
"OyYIIMzLIIIIIIIIIIIIIIIIIIInIIIIIIAzCIIG0:",
"OyYIIMzLIIIIIIIIIIIIIIIIIIIIIIIIIIAzCIIG0:",
"OyYIIMzDIIIIIIIInIIIIIIIIIIIIIIIIIAzCIIG0:",
"OyYIINlsnIIIIIIIIIIIIIIIIIIIIIIIIIHbBIIG0:",
"OyYIIIFbfUJUUUUUUUUUUUUUUUUUUUUUUdbJnIIG0:",
"OyYIIIIDhggggggggggggggggggggggggdFnIIIG0:",
"OyYIIIIIInnnnnnnnnnnnnnnnnnnnnnnnIIIIIIS0:",
"OyJIIIIIIIIIIIIIIIIIIIIIIIIIIIIIIIIIIIIa0:",
"OyvZIIIIIIIIIIIIIIIIIIIIIIIIIIIIIIIIIIBv0:",
"OyRl4666666666666666666666666666666664jR0:",
"OyRTTTTTTTTTTTTTTTTTTTTTTTTTTTTTTTTTTTTR0:",
"OyRRRRRRRRRRRRRRRRRRRRRRRRRRRRRRRRRRRRRR0:",
"OyRRRRRRRRRRRRRRRRRRRRRRRRRRRRRRRRRRRRRR0:",
"OyRRRRRRRRRRRRRRRRRRRRRRRRRRRRRRRRRRRRRR0:",
"OyRRRRRRRRRRRRRRRRRRRRRRRRRRRRRRRRRRRRRR0:",
"OyRRRRRRRRRRRRRRRRRRRRRRRRRRRRRRRRRRRRRR0:",
"OyRRRRRRRRRRRRRRRRRRRRRRRRRRRRRRRRRRRRRR0:",
"OyRRRRRRRRRRRRRRRRRRRRRRRRRRRRRRRRRRRRRR0:",
"OyRRRRRRRRRRRRRRRRRRRRRRRRRRRRRRRRRRRRRR0;",
".8RRRRRRRRRRRRRRRRRRRRRRRRRRRRRRRRRRRRRR2%",
"X1pRRRRRRRRRRRRRRRRRRRRRRRRRRRRRRRRRRRRi>=",
"!-18eyyyyyyyyyyyyyyyyyyyyyyyyyyyyyyyyw3, !",
"!!X$@@@@@@@@@@@@@@@@@@@@@@@@@@@@@@@@@@%%!!"
};
