/* XPM */
static const char *wall_vertical_mid[] = {
/* columns rows colors chars-per-pixel */
"42 42 14 1 ",
"  c #493303",
". c #DD8C32",
"X c #FFC521",
"o c #FFE100",
"O c #FFE000",
"+ c #FFD907",
"@ c #FFAB35",
"# c #FFD010",
"$ c #FFD808",
"% c #FFD10F",
"& c #FFC018",
"* c #D28431",
"= c #543B05",
"- c white",
/* pixels */
" .XoO+@#oOOOOOOOOOOOOOOOOOOOOOOOOO$@%oo&*=",
" .XoO+@#oOOOOOOOOOOOOOOOOOOOOOOOOO$@%oo&*=",
" .XoO+@#oOOOOOOOOOOOOOOOOOOOOOOOOO$@%oo&*=",
" .XoO+@#oOOOOOOOOOOOOOOOOOOOOOOOOO$@%oo&*=",
" .XoO+@#oOOOOOOOOOOOOOOOOOOOOOOOOO$@%oo&*=",
" .XoO+@#oOOOOOOOOOOOOOOOOOOOOOOOOO$@%oo&*=",
" .XoO+@#oOOOOOOOOOOOOOOOOOOOOOOOOO$@%oo&*=",
" .XoO+@#oOOOOOOOOOOOOOOOOOOOOOOOOO$@%oo&*=",
" .XoO+@#oOOOOOOOOOOOOOOOOOOOOOOOOO$@%oo&*=",
" .XoO+@#oOOOOOOOOOOOOOOOOOOOOOOOOO$@%oo&*=",
" .XoO+@#oOOOOOOOOOOOOOOOOOOOOOOOOO$@%oo&*=",
" .XoO+@#oOOOOOOOOOOOOOOOOOOOOOOOOO$@%oo&*=",
" .XoO+@#oOOOOOOOOOOOOOOOOOOOOOOOOO$@%oo&*=",
" .XoO+@#oOOOOOOOOOOOOOOOOOOOOOOOOO$@%oo&*=",
" .XoO+@#oOOOOOOOOOOOOOOOOOOOOOOOOO$@%oo&*=",
" .XoO+@#oOOOOOOOOOOOOOOOOOOOOOOOOO$@%oo&*=",
" .XoO+@#oOOOOOOOOOOOOOOOOOOOOOOOOO$@%oo&*=",
" .XoO+@#oOOOOOOOOOOOOOOOOOOOOOOOOO$@%oo&*=",
" .XoO+@#oOOOOOOOOOOOOOOOOOOOOOOOOO$@%oo&*=",
" .XoO+@#oOOOOOOOOOOOOOOOOOOOOOOOOO$@%oo&*=",
" .XoO+@#oOOOOOOOOOOOOOOOOOOOOOOOOO$@%oo&*=",
" .XoO+@#oOOOOOOOOOOOOOOOOOOOOOOOOO$@%oo&*=",
" .XoO+@#oOOOOOOOOOOOOOOOOOOOOOOOOO$@%oo&*=",
" .XoO+@#oOOOOOOOOOOOOOOOOOOOOOOOOO$@%oo&*=",
" .XoO+@#oOOOOOOOOOOOOOOOOOOOOOOOOO$@%oo&*=",
" .XoO+@#oOOOOOOOOOOOOOOOOOOOOOOOOO$@%oo&*=",
" .XoO+@#oOOOOOOOOOOOOOOOOOOOOOOOOO$@%oo&*=",
" .XoO+@#oOOOOOOOOOOOOOOOOOOOOOOOOO$@%oo&*=",
" .XoO+@#oOOOOOOOOOOOOOOOOOOOOOOOOO$@%oo&*=",
" .XoO+@#oOOOOOOOOOOOOOOOOOOOOOOOOO$@%oo&*=",
" .XoO+@#oOOOOOOOOOOOOOOOOOOOOOOOOO$@%oo&*=",
" .XoO+@#oOOOOOOOOOOOOOOOOOOOOOOOOO$@%oo&*=",
" .XoO+@#oOOOOOOOOOOOOOOOOOOOOOOOOO$@%oo&*=",
" .XoO+@#oOOOOOOOOOOOOOOOOOOOOOOOOO$@%oo&*=",
" .XoO+@#oOOOOOOOOOOOOOOOOOOOOOOOOO$@%oo&*=",
" .XoO+@#oOOOOOOOOOOOOOOOOOOOOOOOOO$@%oo&*=",
" .XoO+@#oOOOOOOOOOOOOOOOOOOOOOOOOO$@%oo&*=",
" .XoO+@#oOOOOOOOOOOOOOOOOOOOOOOOOO$@%oo&*=",
" .XoO+@#oOOOOOOOOOOOOOOOOOOOOOOOOO$@%oo&*=",
" .XoO+@#oOOOOOOOOOOOOOOOOOOOOOOOOO$@%oo&*=",
" .XoO+@#oOOOOOOOOOOOOOOOOOOOOOOOOO$@%oo&*=",
" .XoO+@#oOOOOOOOOOOOOOOOOOOOOOOOOO$@%oo&*="
};
