/* XPM */
static char *ver_up_removebg_preview1736256005[] = {
/* columns rows colors chars-per-pixel */
"42 42 50 1 ",
"  c black",
". c #402C00",
"X c #462E01",
"o c #473201",
"O c #493100",
"+ c #4B3003",
"@ c #533801",
"# c #614200",
"$ c #674800",
"% c #6D4F00",
"& c #735005",
"* c #7E510E",
"= c #875611",
"- c #8A5813",
"; c #905D14",
": c #C37C28",
"> c #FFBF19",
", c #FFBD1F",
"< c #D0842A",
"1 c #D3852D",
"2 c #DE8D2E",
"3 c #DA8A30",
"4 c #DF8D32",
"5 c #EB9337",
"6 c #EB9437",
"7 c #FB9E3C",
"8 c #FFB725",
"9 c #FFBD21",
"0 c #FFAE30",
"q c #FFAC32",
"w c #FFA836",
"e c #FEA03C",
"r c #FFB033",
"t c #FFCE0B",
"y c #FFD603",
"u c #FFD207",
"i c #FFD405",
"p c #FFD803",
"a c #FFDF00",
"s c #FFD108",
"d c #FFD009",
"f c #FFC110",
"g c #FFC111",
"h c #FFC713",
"j c #FFC318",
"k c #FFC11A",
"l c #FFC31B",
"z c #FFC61B",
"x c #FFC01C",
"c c #FFE300",
/* pixels */
" #oXOO++OO++++OO++++OO++++OO++++++++++.X& ",
"$.;455555555556655555555555655555555552=O%",
"o-e09,9,9>k99,k,k,,l,>k99,k,k9,l9k>9k9q7*.",
"O<rpccccccccccccccccccccccccccccccccccu0:O",
"o2kcccaccaccccccacccacccccccaccccccaacc>1@",
"o2zccccaaypppppypypppppppyyyyppppycccacg1@",
"X2lccaak00qq0qqq00q000q00000q0000q,yacc>1@",
"O2kcackwktssssstuutssutsststsuutsh08aacf1@",
"X2lccpqjccccccacccccccccccccaccccctwucc>1@",
"o2lccpqsccaacacaaaacaaaccccacaaacayquccf1@",
"o2zccp0scacaacaccacacacaacaccacaccyqucaf1@",
"o2lccyquccaccacaacacacaccacaacacccpqucc>1@",
"o2zccpqtcaacacaccacacacacacacacaacyquccg1@",
"X2lcca0ucccacacaacacacacacacacaccay0uacg1@",
"O2lcap0tacacacaccacacacacacacacaccyquccg1@",
"X2zccp0scacacacaacacacacacacacacccp0tccg1@",
"o2lccpqscacacacacacacacacacacacaacyqucc><@",
"o2zccyqsccacacacacacacacacacacaccay0uccf1@",
"o2lccpqscacacacacacacacacacacacaccyquacg1@",
"X2zccp0uccacacacacacacacacacacacccpqucc>1@",
"O2lccp0uacaccacacacacacacacacacaacyquacf1@",
"X2lccy0tcacaacacacacacacacacacaccay0uccg1@",
"o2zccyqsccaccacacacacacacacacacaccyqucc>1@",
"o2lccyqtcacaacacacacacacacacacacccyquccg1@",
"o2zccp0scacacacacacacacacacacacaacyqscc>1@",
"o2lccy0scaacacacacacacacacacacaccap0sccg1@",
"X2lccp0tcacacacacacacacacacacacaacyqsccg1@",
"O2lccp0sccacacacacacacacacacacacccpqucc>1@",
"o2lccy0scacacacacacacacacacacacaacy0uacg1@",
"o4lccy0ucaacacacacacacacacacacaccap0uccg1@",
"o2lccp0tcacacacacacacacacacacacaacyqucc>1@",
"o2zccy0sccacacacacacacacacacacacccy0ucc>1@",
"X2kccpqsccacacaccacacacacacacacacay0uccg1@",
"o2kccpqsaccacacaacacacacacacacacacy0scag1@",
"o2zccp0sccacacaccacacacacacacacacap0uccg1@",
"o2lccyqtcacacacaacacacacacacacacacpqtccg1@",
"o2zccy0sccacacaccacacacacacacacacap0scc>1@",
"o2lccc0taacacacaacacacacacacacacacpqsccg1@",
"X2lcay0sccacacaccacacacacacacacacapqsacg1@",
"O2lccy0scacacacaacacacacacacacacacp0ycc>1@",
"o2zccpqscacacacacacacacacacacacaacyquacg1@",
"o2lccyqsacacacacacacacacacacacacccp0uccg1@"
};
