/* XPM */
static char *ver_wall_removebg_preview1736256004[] = {
/* columns rows colors chars-per-pixel */
"42 42 28 1 ",
"  c #004000",
". c #5D6917",
"X c #606815",
"o c #626C19",
"O c #6E6D18",
"+ c #736F19",
"@ c #73721D",
"# c #7A721A",
"$ c #79751E",
"% c #80751B",
"& c #8A791E",
"* c #8E7B1E",
"= c #F0BB0B",
"- c #F3BB10",
"; c #FFDF02",
": c #FFD10F",
"> c #FFDC0A",
", c #FFDB0D",
"< c #F2C61D",
"1 c #FFCB1C",
"2 c #FFD511",
"3 c #FFD811",
"4 c #FFDB12",
"5 c #FFDD10",
"6 c #FFD01D",
"7 c #FFE100",
"8 c #FEE101",
"9 c #F9C825",
/* pixels */
" @9352-1>788;;;7;7;7;7;7;7;7;7;77>6=2>39& ",
" .9352-1>788;;7;7;7;7;7;7;7;7;7;7>6=2>5<O ",
" .9352-1>788;;;7;7;7;7;7;7;7;7;77>6=2,2<X ",
" o9352-1>788;;7;7;7;7;7;7;7;7;7;7>6=:,3<O ",
" $9352-1>788;;;7;7;7;7;7;7;7;7;77>6=234<@ ",
" $9352-1>788;;7;7;7;7;7;7;7;7;7;7>6=2>4<+ ",
" $9352-1>788;;;7;7;7;7;7;7;7;7;77>1=:,4<+ ",
" $9352-1>788;;7;7;7;7;7;7;7;7;7;7>1=:,4<+ ",
" $9352-1>777;;;7;7;7;7;7;7;7;7;77>6=:,5<# ",
" $9352-1>777;;7;7;7;7;7;7;7;7;7;7>6=:,3<* ",
" $9352-1,777;;;7;7;7;7;7;7;7;7;77>6=:,3<* ",
" $9352-1>777;;7;7;7;7;7;7;7;7;7;7>6=:,5<* ",
" $9352-1>7887;;7;7;7;7;7;7;7;7;77>6=235<* ",
" $9352-1>788;;7;7;7;7;7;7;7;7;7;7>6=2>4<# ",
" $9352-1>778;;;7;7;7;7;7;7;7;7;77>1=2,3<+ ",
" $9352-1>778;;7;7;7;7;7;7;7;7;7;7>1=2,3<+ ",
" $9352-1>788;;;7;7;7;7;7;7;7;7;77>6=2>4<@ ",
" $9352-1>788;;7;7;7;7;7;7;7;7;7;7>6=2>3<+ ",
" $9352-1>788;;;7;7;7;7;7;7;7;7;77>6=:,2<& ",
" $9252-1>788;;7;7;7;7;7;7;7;7;7;7>6=:,5<* ",
" $9352-1>788;;;7;7;7;7;7;7;7;7;77>6=:,4<* ",
" $9352-1>788;;7;7;7;7;7;7;7;7;7;7>6=:,4<* ",
" $9352-1>788;;;7;7;7;7;7;7;7;7;77>1=:,4<* ",
" $9352-1>788;;7;7;7;7;7;7;7;7;7;8>6=:,4<* ",
" $9352-1>788;;;7;7;7;7;7;7;7;7;77>6=2,4<* ",
" $9352-1>788;;7;7;7;7;7;7;7;7;7;7>6=:,4<* ",
" $9352-1>788;;;7;7;7;7;7;7;7;7;77>6=:,2<* ",
" $9352-1>788;;7;7;7;7;7;7;7;7;7;7>6=:,>9* ",
" $9352-1>788;;;7;7;7;7;7;7;7;7;77>6=2,3<* ",
" $9352-1>788;;7;7;7;7;7;7;7;7;7;7>6=254<* ",
" $9352-1>788;;;7;7;7;7;7;7;7;7;77>1=2,5<* ",
" $9352-1>788;;7;7;7;7;7;7;7;7;7;7>1=:,3<& ",
" $9352-1>7888;7;7;7;7;7;7;7;7;7;7>6=:,4<@ ",
" $9352-1>787;;;7;7;7;7;7;7;7;7;7;>6=:,3<+ ",
" $9352-1>777;;7;7;7;7;7;7;7;7;7;7>6=3,4<+ ",
" $9352-1>777;;;7;7;7;7;7;7;7;7;77>6=:,4<+ ",
" $9352-1>788;;7;7;7;7;7;7;7;7;7;7>6=2,39+ ",
" $9352-1>788;;;7;7;7;7;7;7;7;7;77>6=:,5<+ ",
" $9352-1>788;;7;7;7;7;7;7;7;7;7;7>6=:,3<+ ",
" $9352-1>787;;;7;7;7;7;7;7;7;7;77>6=:,3<+ ",
" $9352=1>788;;7;7;7;7;7;7;7;7;7;7>1=2,2<+ ",
" $9352-1>788;;;7;7;7;7;7;7;7;7;77>1=2>5<% "
};
